# This file uses centimeters as units for non-parametric coordinates.

mtllib wall3.mtl
g default
v 1.244842 -0.007994 2.200845
v -3.283166 -0.007994 2.200845
v 1.244842 0.157783 2.200845
v -3.283166 0.157783 2.200845
v 1.244842 0.323561 2.200845
v -3.283166 0.323561 2.200845
v 1.244842 0.489338 2.200845
v -3.283166 0.489338 2.200845
v 1.244842 0.655116 2.200845
v -3.283166 0.655116 2.200845
v 1.244842 0.820894 2.200845
v -3.283166 0.820894 2.200845
v 1.244842 0.986671 2.200845
v -3.283166 0.986671 2.200845
v 1.244842 1.152449 2.200845
v -3.283166 1.152449 2.200845
v 1.244842 1.318226 2.200845
v -3.283166 1.318226 2.200845
v 1.244842 1.484004 2.200845
v -3.283166 1.484004 2.200845
v 1.244842 1.649781 2.200845
v -3.283166 1.649781 2.200845
v 0.557747 -0.007994 2.200845
v 0.557747 0.157783 2.200845
v 0.557747 0.323561 2.200845
v 0.557747 0.489338 2.200845
v 0.557747 0.655116 2.200845
v 0.557747 0.820894 2.200845
v 0.557747 0.986671 2.200845
v 0.557747 1.152449 2.200845
v 0.557747 1.318226 2.200845
v 0.557747 1.484004 2.200845
v 0.557747 1.649781 2.200845
v 1.148015 -0.007994 2.200845
v 1.148015 0.157783 2.200845
v 1.148015 0.323561 2.200845
v 1.148015 0.489338 2.200845
v 1.148015 0.655116 2.200845
v 1.148015 0.820894 2.200845
v 1.148015 0.986671 2.200845
v 1.148015 1.152449 2.200845
v 1.148015 1.318226 2.200845
v 1.148015 1.484004 2.200845
v 1.148015 1.649781 2.200845
v -3.283166 1.428776 2.200845
v 0.557747 1.428776 2.200845
v 1.148015 1.428776 2.200845
v 1.244842 1.428776 2.200845
vt 0.022241 0.356990
vt 0.977759 0.356990
vt 0.977759 0.385592
vt 0.022241 0.385592
vt 0.977759 0.414194
vt 0.022241 0.414194
vt 0.977759 0.442796
vt 0.022241 0.442796
vt 0.977759 0.471398
vt 0.022241 0.471398
vt 0.977759 0.500000
vt 0.022241 0.500000
vt 0.977759 0.528602
vt 0.022241 0.528602
vt 0.977759 0.557204
vt 0.022241 0.557204
vt 0.977759 0.585806
vt 0.022241 0.585806
vt 0.977759 0.614408
vt 0.022241 0.614408
vt 0.977759 0.643010
vt 0.022241 0.643010
vt 0.168445 0.356990
vt 0.168445 0.385592
vt 0.168445 0.414194
vt 0.168445 0.442796
vt 0.168445 0.471398
vt 0.168445 0.500000
vt 0.168445 0.528602
vt 0.168445 0.557204
vt 0.168445 0.585806
vt 0.168445 0.614408
vt 0.168445 0.643010
vt 0.042673 0.356990
vt 0.042673 0.385592
vt 0.042673 0.414194
vt 0.042673 0.442796
vt 0.042673 0.471398
vt 0.042673 0.500000
vt 0.042673 0.528602
vt 0.042673 0.557204
vt 0.042673 0.585806
vt 0.042673 0.614408
vt 0.042673 0.643010
vt 0.977759 0.604879
vt 0.168445 0.604879
vt 0.042673 0.604880
vt 0.022241 0.604879
vn 0.000000 0.000000 -1.000000
vn 0.000000 0.000000 -1.000000
vn 0.000000 0.000000 -1.000000
vn 0.000000 0.000000 -1.000000
vn 0.000000 0.000000 -1.000000
vn 0.000000 0.000000 -1.000000
vn 0.000000 0.000000 -1.000000
vn 0.000000 0.000000 -1.000000
vn 0.000000 0.000000 -1.000000
vn 0.000000 0.000000 -1.000000
vn 0.000000 0.000000 -1.000000
vn 0.000000 0.000000 -1.000000
vn 0.000000 0.000000 -1.000000
vn 0.000000 0.000000 -1.000000
vn 0.000000 0.000000 -1.000000
vn 0.000000 0.000000 -1.000000
vn 0.000000 0.000000 -1.000000
vn 0.000000 0.000000 -1.000000
vn 0.000000 0.000000 -1.000000
vn 0.000000 0.000000 -1.000000
vn 0.000000 0.000000 -1.000000
vn 0.000000 0.000000 -1.000000
vn 0.000000 0.000000 -1.000000
vn 0.000000 0.000000 -1.000000
vn 0.000000 0.000000 -1.000000
vn 0.000000 0.000000 -1.000000
vn 0.000000 0.000000 -1.000000
vn 0.000000 0.000000 -1.000000
vn 0.000000 0.000000 -1.000000
vn 0.000000 0.000000 -1.000000
vn 0.000000 0.000000 -1.000000
vn 0.000000 0.000000 -1.000000
vn 0.000000 0.000000 -1.000000
vn 0.000000 0.000000 -1.000000
vn 0.000000 0.000000 -1.000000
vn 0.000000 0.000000 -1.000000
vn 0.000000 0.000000 -1.000000
vn 0.000000 0.000000 -1.000000
vn 0.000000 0.000000 -1.000000
vn 0.000000 0.000000 -1.000000
vn 0.000000 0.000000 -1.000000
vn 0.000000 0.000000 -1.000000
vn 0.000000 0.000000 -1.000000
vn 0.000000 0.000000 -1.000000
vn 0.000000 0.000000 -1.000000
vn 0.000000 0.000000 -1.000000
vn 0.000000 0.000000 -1.000000
vn 0.000000 0.000000 -1.000000
s 1
g pPlane31
usemtl initialShadingGroup
f 1/1/1 34/34/2 35/35/3 3/4/4
f 3/4/4 35/35/3 36/36/5 5/6/6
f 5/6/6 36/36/5 37/37/7 7/8/8
f 7/8/8 37/37/7 38/38/9 9/10/10
f 9/10/10 38/38/9 39/39/11 11/12/12
f 11/12/12 39/39/11 40/40/13 13/14/14
f 13/14/14 40/40/13 41/41/15 15/16/16
f 15/16/16 41/41/15 42/42/17 17/18/18
f 17/18/18 42/42/17 47/47/19 48/48/20
f 19/20/21 43/43/22 44/44/23 21/22/24
f 23/23/25 2/2/26 4/3/27 24/24/28
f 25/25/29 24/24/28 4/3/27 6/5/30
f 26/26/31 25/25/29 6/5/30 8/7/32
f 27/27/33 26/26/31 8/7/32 10/9/34
f 28/28/35 27/27/33 10/9/34 12/11/36
f 29/29/37 28/28/35 12/11/36 14/13/38
f 30/30/39 29/29/37 14/13/38 16/15/40
f 31/31/41 30/30/39 16/15/40 18/17/42
f 46/46/43 31/31/41 18/17/42 45/45/44
f 33/33/45 32/32/46 20/19/47 22/21/48
f 44/44/23 43/43/22 32/32/46 33/33/45
f 32/32/46 46/46/43 45/45/44 20/19/47
f 43/43/22 47/47/19 46/46/43 32/32/46
f 48/48/20 47/47/19 43/43/22 19/20/21
