# This file uses centimeters as units for non-parametric coordinates.

mtllib pills.mtl
g default
v -2.568992 4.484575 -11.484884
v -2.604118 4.484575 -11.533232
v -2.660954 4.484575 -11.551699
v -2.717790 4.484575 -11.533232
v -2.752917 4.484575 -11.484884
v -2.752917 4.484575 -11.425124
v -2.717790 4.484575 -11.376776
v -2.660954 4.484575 -11.358309
v -2.604118 4.484575 -11.376776
v -2.568992 4.484575 -11.425124
v -2.533439 4.944390 -11.496436
v -2.582146 4.944390 -11.563475
v -2.660954 4.944390 -11.589081
v -2.739763 4.944390 -11.563475
v -2.788470 4.944390 -11.496436
v -2.788470 4.944390 -11.413572
v -2.739763 4.944390 -11.346533
v -2.660954 4.944390 -11.320927
v -2.582146 4.944390 -11.346533
v -2.533439 4.944390 -11.413572
v -2.660954 4.484575 -11.455004
v -2.477029 4.910271 -11.514765
v -2.486652 4.934397 -11.511638
v -2.509883 4.944390 -11.504090
v -2.547282 4.910271 -11.611460
v -2.553229 4.934397 -11.603275
v -2.567587 4.944390 -11.583513
v -2.660954 4.910271 -11.648395
v -2.660954 4.934397 -11.638277
v -2.660954 4.944390 -11.613850
v -2.774626 4.910271 -11.611460
v -2.768679 4.934397 -11.603275
v -2.754321 4.944390 -11.583513
v -2.844880 4.910271 -11.514765
v -2.835257 4.934397 -11.511638
v -2.812026 4.944390 -11.504090
v -2.844880 4.910271 -11.395243
v -2.835257 4.934397 -11.398370
v -2.812026 4.944390 -11.405918
v -2.774626 4.910271 -11.298548
v -2.768679 4.934397 -11.306733
v -2.754321 4.944390 -11.326495
v -2.660954 4.910271 -11.261614
v -2.660954 4.934397 -11.271731
v -2.660954 4.944390 -11.296158
v -2.547282 4.910271 -11.298548
v -2.553229 4.934397 -11.306733
v -2.567587 4.944390 -11.326495
v -2.477029 4.910271 -11.395243
v -2.486652 4.934397 -11.398370
v -2.509883 4.944390 -11.405918
v -2.523006 4.484575 -11.499826
v -2.490495 4.498042 -11.510390
v -2.477029 4.530552 -11.514765
v -2.575697 4.484575 -11.572350
v -2.555605 4.498042 -11.600005
v -2.547282 4.530552 -11.611460
v -2.660954 4.484575 -11.600052
v -2.660954 4.498042 -11.634235
v -2.660954 4.530552 -11.648395
v -2.746211 4.484575 -11.572350
v -2.766304 4.498042 -11.600005
v -2.774626 4.530552 -11.611460
v -2.798903 4.484575 -11.499826
v -2.831413 4.498042 -11.510390
v -2.844880 4.530552 -11.514765
v -2.798903 4.484575 -11.410182
v -2.831413 4.498042 -11.399619
v -2.844880 4.530552 -11.395243
v -2.746211 4.484575 -11.337658
v -2.766304 4.498042 -11.310003
v -2.774626 4.530552 -11.298548
v -2.660954 4.484575 -11.309956
v -2.660954 4.498042 -11.275773
v -2.660954 4.530552 -11.261614
v -2.575697 4.484575 -11.337658
v -2.555605 4.498042 -11.310003
v -2.547282 4.530552 -11.298548
v -2.523006 4.484575 -11.410182
v -2.490495 4.498042 -11.399619
v -2.477029 4.530552 -11.395243
v -2.660954 4.823846 -11.261614
v -2.774626 4.823846 -11.298548
v -2.844880 4.823846 -11.395243
v -2.844880 4.823846 -11.514765
v -2.774626 4.823846 -11.611460
v -2.660954 4.823846 -11.648395
v -2.547282 4.823846 -11.611460
v -2.477029 4.823846 -11.514765
v -2.477029 4.823846 -11.395243
v -2.547282 4.823846 -11.298548
v -2.660954 4.596196 -11.261614
v -2.774626 4.596196 -11.298548
v -2.844880 4.596196 -11.395243
v -2.844880 4.596196 -11.514765
v -2.774626 4.596196 -11.611460
v -2.660954 4.596196 -11.648395
v -2.547282 4.596196 -11.611460
v -2.477029 4.596196 -11.514765
v -2.477029 4.596196 -11.395243
v -2.547282 4.596196 -11.298548
v -2.533439 4.984751 -11.496436
v -2.582146 4.984751 -11.563475
v -2.660954 4.984751 -11.589081
v -2.739763 4.984751 -11.563475
v -2.788470 4.984751 -11.496436
v -2.788470 4.984751 -11.413572
v -2.739763 4.984751 -11.346533
v -2.660954 4.984751 -11.320927
v -2.582146 4.984751 -11.346533
v -2.533439 4.984751 -11.413572
v -2.554183 4.984751 -11.489696
v -2.594966 4.984751 -11.545829
v -2.660954 4.984751 -11.567270
v -2.726943 4.984751 -11.545829
v -2.767726 4.984751 -11.489696
v -2.767726 4.984751 -11.420312
v -2.726943 4.984751 -11.364179
v -2.660954 4.984751 -11.342738
v -2.594966 4.984751 -11.364179
v -2.554183 4.984751 -11.420312
v -2.512191 4.970723 -11.503340
v -2.569013 4.970723 -11.581550
v -2.660954 4.970723 -11.611423
v -2.752895 4.970723 -11.581550
v -2.809718 4.970723 -11.503340
v -2.809718 4.970723 -11.406668
v -2.752895 4.970723 -11.328458
v -2.660954 4.970723 -11.298585
v -2.569013 4.970723 -11.328458
v -2.512191 4.970723 -11.406668
v -2.660954 5.048956 -11.455004
v -2.512191 5.009843 -11.503340
v -2.519919 5.037500 -11.500829
v -2.538576 5.048956 -11.494767
v -2.569013 5.009843 -11.581550
v -2.573790 5.037500 -11.574976
v -2.585320 5.048956 -11.559105
v -2.660954 5.009843 -11.611423
v -2.660954 5.037500 -11.603298
v -2.660954 5.048956 -11.583680
v -2.752895 5.009843 -11.581550
v -2.748119 5.037500 -11.574976
v -2.736588 5.048956 -11.559105
v -2.809718 5.009843 -11.503340
v -2.801990 5.037500 -11.500829
v -2.783332 5.048956 -11.494767
v -2.809718 5.009843 -11.406668
v -2.801990 5.037500 -11.409179
v -2.783332 5.048956 -11.415241
v -2.752895 5.009843 -11.328458
v -2.748119 5.037500 -11.335032
v -2.736588 5.048956 -11.350903
v -2.660954 5.009843 -11.298585
v -2.660954 5.037500 -11.306711
v -2.660954 5.048956 -11.326328
v -2.569013 5.009843 -11.328458
v -2.573790 5.037500 -11.335032
v -2.585321 5.048956 -11.350903
v -2.512191 5.009843 -11.406668
v -2.519919 5.037500 -11.409179
v -2.538576 5.048956 -11.415241
vt 0.197729 0.375183
vt 0.194899 0.397025
vt 0.092357 0.397025
vt 0.089526 0.375183
vt 0.285268 0.375183
vt 0.277857 0.397025
vt 0.001988 0.375183
vt 0.009398 0.397025
vt 0.089526 0.296943
vt 0.197729 0.296943
vt 0.285268 0.296943
vt 0.001988 0.296943
vt 0.089526 0.090851
vt 0.197729 0.090851
vt 0.285268 0.090851
vt 0.001988 0.090851
vt 0.089526 0.031424
vt 0.197729 0.031424
vt 0.285268 0.031424
vt 0.001988 0.031424
vt 0.193768 0.001992
vt 0.093487 0.001992
vt 0.274897 0.001992
vt 0.012358 0.001992
vt 0.591538 0.375183
vt 0.699741 0.375183
vt 0.696911 0.397025
vt 0.594368 0.397025
vt 0.591538 0.296943
vt 0.699741 0.296943
vt 0.787279 0.375183
vt 0.779869 0.397025
vt 0.504000 0.375183
vt 0.511410 0.397025
vt 0.504000 0.296943
vt 0.591538 0.090851
vt 0.699741 0.090851
vt 0.787279 0.296943
vt 0.504000 0.090851
vt 0.591538 0.031424
vt 0.699741 0.031424
vt 0.787279 0.090851
vt 0.504000 0.031424
vt 0.595499 0.001992
vt 0.695780 0.001992
vt 0.787279 0.031424
vt 0.514370 0.001992
vt 0.776909 0.001992
vt 0.700447 0.872532
vt 0.700447 0.797515
vt 0.736986 0.797515
vt 0.736986 0.872532
vt 0.700447 0.736825
vt 0.736986 0.736825
vt 0.700447 0.933222
vt 0.736986 0.933222
vt 0.657657 0.872532
vt 0.657657 0.797515
vt 0.694195 0.797515
vt 0.694195 0.872532
vt 0.657657 0.736825
vt 0.694195 0.736825
vt 0.657657 0.933222
vt 0.694195 0.933222
vt 0.615271 0.895146
vt 0.579856 0.895146
vt 0.579856 0.807628
vt 0.615271 0.807628
vt 0.615271 0.965949
vt 0.579856 0.965949
vt 0.579856 0.736825
vt 0.615271 0.736825
vt 0.640309 0.892873
vt 0.640309 0.809901
vt 0.640309 0.959998
vt 0.640309 0.742776
vt 0.650679 0.887385
vt 0.650679 0.815390
vt 0.537470 0.895146
vt 0.502055 0.895146
vt 0.502055 0.807628
vt 0.537470 0.807628
vt 0.537470 0.965949
vt 0.502055 0.965949
vt 0.502055 0.736825
vt 0.537470 0.736825
vt 0.562507 0.809901
vt 0.562507 0.892873
vt 0.562507 0.959998
vt 0.562507 0.742776
vt 0.572878 0.815390
vt 0.572878 0.887385
vt 0.391282 0.536215
vt 0.308028 0.563266
vt 0.359482 0.492446
vt 0.391282 0.590317
vt 0.308028 0.475728
vt 0.432913 0.522689
vt 0.385212 0.457033
vt 0.359482 0.634086
vt 0.432913 0.603844
vt 0.256575 0.492446
vt 0.308028 0.431954
vt 0.462345 0.513126
vt 0.403401 0.431997
vt 0.308028 0.650805
vt 0.385212 0.669500
vt 0.462345 0.613407
vt 0.224775 0.536215
vt 0.230845 0.457033
vt 0.308028 0.401008
vt 0.256575 0.634086
vt 0.308028 0.694578
vt 0.403401 0.694536
vt 0.224775 0.590317
vt 0.183144 0.522689
vt 0.212656 0.431997
vt 0.230845 0.669500
vt 0.308028 0.725524
vt 0.183144 0.603844
vt 0.153712 0.513126
vt 0.212656 0.694536
vt 0.153712 0.613407
vt 0.741704 0.604433
vt 0.763029 0.611362
vt 0.710790 0.683264
vt 0.697610 0.665124
vt 0.741704 0.529416
vt 0.763029 0.522487
vt 0.784061 0.618196
vt 0.723788 0.701154
vt 0.626264 0.710728
vt 0.626264 0.688305
vt 0.697610 0.468726
vt 0.710790 0.450586
vt 0.784060 0.515654
vt 0.626264 0.732842
vt 0.541739 0.683264
vt 0.554919 0.665124
vt 0.626264 0.445544
vt 0.626264 0.423122
vt 0.723788 0.432695
vt 0.528741 0.701154
vt 0.489499 0.611362
vt 0.510825 0.604433
vt 0.554919 0.468726
vt 0.541739 0.450586
vt 0.626264 0.401008
vt 0.468468 0.618196
vt 0.489499 0.522487
vt 0.510825 0.529416
vt 0.528741 0.432695
vt 0.468468 0.515654
vt 0.495641 0.895714
vt 0.451546 0.956404
vt 0.439940 0.940429
vt 0.476861 0.889612
vt 0.380201 0.979586
vt 0.380201 0.959840
vt 0.495640 0.820697
vt 0.476861 0.826798
vt 0.308855 0.956404
vt 0.320462 0.940429
vt 0.451546 0.760007
vt 0.439940 0.775981
vt 0.264761 0.895714
vt 0.283541 0.889612
vt 0.380201 0.736825
vt 0.380201 0.756571
vt 0.264761 0.820697
vt 0.283541 0.826798
vt 0.308855 0.760007
vt 0.320462 0.775981
vt 0.129668 0.863758
vt 0.240456 0.899755
vt 0.198139 0.958001
vt 0.240456 0.827760
vt 0.257347 0.905243
vt 0.208578 0.972369
vt 0.129668 0.980248
vt 0.198139 0.769515
vt 0.129668 0.998008
vt 0.061196 0.958001
vt 0.129668 0.747267
vt 0.208578 0.755147
vt 0.257347 0.822272
vt 0.050757 0.972369
vt 0.018879 0.899755
vt 0.061196 0.769515
vt 0.129668 0.729508
vt 0.001988 0.905243
vt 0.018879 0.827760
vt 0.050757 0.755147
vt 0.001988 0.822272
vt 0.497806 0.023833
vt 0.394899 0.023833
vt 0.394899 0.001992
vt 0.492422 0.001992
vt 0.497806 0.102074
vt 0.394899 0.102074
vt 0.291992 0.023833
vt 0.297376 0.001992
vt 0.497806 0.308165
vt 0.394899 0.308165
vt 0.291992 0.102074
vt 0.497806 0.367593
vt 0.394899 0.367593
vt 0.291992 0.308165
vt 0.490272 0.397025
vt 0.394899 0.397025
vt 0.291992 0.367593
vt 0.299526 0.397025
vt 0.790183 0.774199
vt 0.893091 0.774199
vt 0.893091 0.796041
vt 0.795567 0.796041
vt 0.790183 0.695959
vt 0.893091 0.695959
vt 0.995998 0.774199
vt 0.990614 0.796041
vt 0.790183 0.489867
vt 0.893091 0.489867
vt 0.995998 0.695959
vt 0.790183 0.430440
vt 0.893091 0.430440
vt 0.995998 0.489867
vt 0.797718 0.401008
vt 0.893091 0.401008
vt 0.995998 0.430440
vt 0.988464 0.401008
vt 0.915928 0.800024
vt 0.915928 0.871370
vt 0.879390 0.871370
vt 0.879390 0.800024
vt 0.915928 0.942715
vt 0.879390 0.942715
vt 0.922181 0.942715
vt 0.922181 0.871370
vt 0.958719 0.871370
vt 0.958719 0.942715
vt 0.922181 0.800024
vt 0.958719 0.800024
vt 0.768275 0.800024
vt 0.803691 0.800024
vt 0.803691 0.883258
vt 0.768275 0.883258
vt 0.803691 0.966493
vt 0.768275 0.966493
vt 0.743238 0.804348
vt 0.743238 0.883258
vt 0.743238 0.962169
vt 0.846729 0.966492
vt 0.811314 0.966492
vt 0.811314 0.883258
vt 0.846729 0.883258
vt 0.811314 0.800024
vt 0.846729 0.800024
vt 0.871767 0.962169
vt 0.871767 0.883258
vt 0.871767 0.804348
vt 0.338123 0.267308
vt 0.338123 0.135285
vt 0.397943 0.135285
vt 0.397943 0.267308
vt 0.278304 0.267308
vt 0.278304 0.135285
vt 0.218484 0.267308
vt 0.218484 0.135285
vt 0.158664 0.267308
vt 0.158664 0.135285
vt 0.098844 0.267308
vt 0.098844 0.135285
vt 0.577403 0.267308
vt 0.577403 0.135285
vt 0.517583 0.267308
vt 0.517583 0.135285
vt 0.457763 0.267308
vt 0.457763 0.135285
vt 0.637223 0.135285
vt 0.697043 0.135285
vt 0.697043 0.267308
vt 0.637223 0.267308
vn 0.000000 -1.000000 0.000000
vn 0.000000 -1.000000 -0.000000
vn 0.000000 -1.000000 0.000000
vn 0.000000 -1.000000 0.000000
vn 0.000000 -1.000000 -0.000000
vn 0.000000 -1.000000 -0.000000
vn 0.000000 -1.000000 0.000000
vn 0.000000 -1.000000 -0.000000
vn 0.000000 -1.000000 0.000000
vn 0.000000 -1.000000 0.000000
vn 0.000000 -1.000000 0.000000
vn 0.741048 0.626795 -0.240781
vn 0.237512 0.968314 -0.077172
vn 0.146791 0.968314 -0.202040
vn 0.457992 0.626796 -0.630373
vn -0.000000 0.968314 -0.249736
vn -0.000000 0.626796 -0.779184
vn -0.146791 0.968314 -0.202041
vn -0.457993 0.626796 -0.630373
vn -0.237512 0.968314 -0.077172
vn -0.741048 0.626795 -0.240781
vn -0.237512 0.968314 0.077172
vn -0.741048 0.626795 0.240781
vn -0.146791 0.968314 0.202041
vn -0.457993 0.626795 0.630373
vn 0.000000 0.968314 0.249736
vn 0.000000 0.626795 0.779184
vn 0.146791 0.968314 0.202040
vn 0.457993 0.626795 0.630373
vn 0.237512 0.968314 0.077173
vn 0.741048 0.626795 0.240782
vn 0.947705 0.083880 -0.307928
vn 0.718049 0.655723 -0.233308
vn 0.718049 0.655723 0.233309
vn 0.947705 0.083880 0.307928
vn 0.443779 0.655723 -0.610809
vn 0.585714 0.083880 -0.806166
vn -0.000000 0.655723 -0.755002
vn -0.000000 0.083880 -0.996476
vn -0.443779 0.655722 -0.610810
vn -0.585714 0.083880 -0.806166
vn -0.718049 0.655723 -0.233309
vn -0.947705 0.083880 -0.307928
vn -0.718049 0.655723 0.233308
vn -0.947705 0.083880 0.307928
vn -0.443779 0.655723 0.610809
vn -0.585714 0.083880 0.806166
vn 0.000000 0.655722 0.755002
vn 0.000000 0.083880 0.996476
vn 0.443778 0.655722 0.610810
vn 0.585714 0.083880 0.806166
vn 0.213331 -0.974518 -0.069315
vn 0.131846 -0.974518 -0.181470
vn -0.000000 -0.974518 -0.224309
vn -0.131846 -0.974518 -0.181470
vn -0.213331 -0.974518 -0.069315
vn -0.213331 -0.974518 0.069315
vn -0.131846 -0.974518 0.181470
vn 0.000000 -0.974518 0.224309
vn 0.131846 -0.974518 0.181470
vn 0.213331 -0.974518 0.069315
vn 0.951057 0.000000 -0.309017
vn 0.942757 -0.131823 -0.306320
vn 0.582656 -0.131823 -0.801957
vn 0.587785 0.000000 -0.809017
vn -0.000000 -0.131823 -0.991273
vn -0.000000 0.000000 -1.000000
vn -0.582656 -0.131823 -0.801957
vn -0.587785 0.000000 -0.809017
vn -0.942757 -0.131823 -0.306320
vn -0.951057 0.000000 -0.309017
vn -0.942757 -0.131823 0.306320
vn -0.951057 -0.000000 0.309017
vn -0.582656 -0.131823 0.801957
vn -0.587785 -0.000000 0.809017
vn -0.000000 -0.131823 0.991273
vn 0.000000 -0.000000 1.000000
vn 0.587785 0.000000 0.809017
vn 0.582656 -0.131823 0.801957
vn 0.942757 -0.131823 0.306321
vn 0.951056 0.000000 0.309017
vn 0.712072 -0.662890 -0.231366
vn 0.712072 -0.662890 0.231367
vn 0.440085 -0.662890 -0.605725
vn -0.000000 -0.662890 -0.748717
vn -0.440085 -0.662890 -0.605725
vn -0.712072 -0.662890 -0.231366
vn -0.712072 -0.662890 0.231366
vn -0.440085 -0.662890 0.605725
vn 0.000000 -0.662890 0.748717
vn 0.440085 -0.662890 0.605725
vn -0.587785 -0.000000 0.809017
vn 0.000000 -0.000000 1.000000
vn -0.951057 -0.000000 0.309017
vn -0.951057 -0.000000 -0.309017
vn -0.587785 0.000000 -0.809017
vn -0.000000 -0.000000 -1.000000
vn 0.587785 -0.000000 -0.809017
vn 0.951057 -0.000000 -0.309017
vn 0.951056 0.000000 0.309017
vn 0.587785 0.000000 0.809017
vn 0.546277 0.369118 -0.751886
vn 0.883895 0.369118 -0.287195
vn -0.000000 0.369118 -0.929383
vn -0.546277 0.369118 -0.751886
vn -0.883895 0.369118 -0.287195
vn -0.883895 0.369118 0.287195
vn -0.546277 0.369118 0.751886
vn 0.000000 0.369118 0.929383
vn 0.546277 0.369118 0.751886
vn 0.883895 0.369118 0.287195
vn 0.000000 1.000000 -0.000001
vn 0.000000 1.000000 0.000000
vn 0.000000 1.000000 -0.000002
vn 0.000000 1.000000 -0.000001
vn 0.000000 1.000000 -0.000001
vn 0.000000 1.000000 0.000000
vn 0.000000 1.000000 -0.000000
vn 0.000000 1.000000 -0.000001
vn 0.000000 1.000000 -0.000000
vn 0.000000 1.000000 0.000000
vn 0.944745 0.115015 -0.306966
vn 0.951057 0.000000 -0.309016
vn 0.587785 0.000000 -0.809017
vn 0.583884 0.115016 -0.803648
vn -0.000000 0.000000 -1.000000
vn -0.000000 0.115016 -0.993364
vn -0.587785 0.000000 -0.809017
vn -0.583884 0.115015 -0.803648
vn -0.951057 0.000000 -0.309017
vn -0.944745 0.115015 -0.306966
vn -0.951056 0.000000 0.309017
vn -0.944745 0.115016 0.306966
vn -0.587785 0.000000 0.809017
vn -0.583884 0.115016 0.803648
vn 0.000000 0.000000 1.000000
vn 0.000000 0.115016 0.993364
vn 0.587785 0.000000 0.809017
vn 0.583884 0.115016 0.803648
vn 0.951056 0.000000 0.309017
vn 0.944745 0.115015 0.306967
vn 0.000000 1.000000 -0.000000
vn 0.177151 0.982499 -0.057560
vn 0.109485 0.982499 -0.150693
vn 0.000000 0.982499 -0.186267
vn -0.109485 0.982499 -0.150693
vn -0.177151 0.982499 -0.057560
vn -0.177151 0.982499 0.057560
vn -0.109485 0.982499 0.150693
vn 0.000000 0.982499 0.186267
vn 0.109485 0.982499 0.150693
vn 0.177150 0.982499 0.057560
vn 0.809289 0.525267 -0.262954
vn 0.809289 0.525268 0.262955
vn 0.500168 0.525268 -0.688422
vn -0.000000 0.525268 -0.850937
vn -0.500168 0.525268 -0.688423
vn -0.809289 0.525268 -0.262954
vn -0.809289 0.525267 0.262954
vn -0.500168 0.525268 0.688422
vn 0.000000 0.525268 0.850937
vn 0.500168 0.525268 0.688423
s 1
g pCylinder143
usemtl initialShadingGroup
f 1/93/1 21/94/2 2/95/3
f 2/95/3 21/94/2 3/97/4
f 3/97/4 21/94/2 4/102/5
f 4/102/5 21/94/2 5/109/6
f 5/109/6 21/94/2 6/115/7
f 6/115/7 21/94/2 7/112/8
f 7/112/8 21/94/2 8/106/9
f 8/106/9 21/94/2 9/100/10
f 9/100/10 21/94/2 10/96/11
f 10/96/11 21/94/2 1/93/1
f 11/124/12 24/125/13 27/126/14 12/127/15
f 12/127/15 27/126/14 30/132/16 13/133/17
f 13/133/17 30/132/16 33/138/18 14/139/19
f 14/139/19 33/138/18 36/144/20 15/145/21
f 15/145/21 36/144/20 39/150/22 16/151/23
f 16/151/23 39/150/22 42/147/24 17/146/25
f 17/146/25 42/147/24 45/141/26 18/140/27
f 18/140/27 45/141/26 48/135/28 19/134/29
f 19/134/29 48/135/28 51/129/30 20/128/31
f 20/128/31 51/129/30 24/125/13 11/124/12
f 22/1/32 23/2/33 50/3/34 49/4/35
f 23/130/33 24/125/13 51/129/30 50/136/34
f 23/130/33 26/131/36 27/126/14 24/125/13
f 22/1/32 25/5/37 26/6/36 23/2/33
f 26/131/36 29/137/38 30/132/16 27/126/14
f 25/195/37 28/196/39 29/197/38 26/198/36
f 29/137/38 32/143/40 33/138/18 30/132/16
f 28/196/39 31/201/41 32/202/40 29/197/38
f 32/143/40 35/149/42 36/144/20 33/138/18
f 31/33/41 34/25/43 35/28/42 32/34/40
f 35/149/42 38/153/44 39/150/22 36/144/20
f 34/25/43 37/26/45 38/27/44 35/28/42
f 38/153/44 41/152/46 42/147/24 39/150/22
f 37/26/45 40/31/47 41/32/46 38/27/44
f 41/152/46 44/148/48 45/141/26 42/147/24
f 40/213/47 43/214/49 44/215/48 41/216/46
f 44/148/48 47/142/50 48/135/28 45/141/26
f 43/214/49 46/219/51 47/220/50 44/215/48
f 47/142/50 50/136/34 51/129/30 48/135/28
f 46/7/51 49/4/35 50/3/34 47/8/50
f 52/98/52 1/93/1 2/95/3 55/99/53
f 55/99/53 2/95/3 3/97/4 58/103/54
f 58/103/54 3/97/4 4/102/5 61/110/55
f 61/110/55 4/102/5 5/109/6 64/116/56
f 64/116/56 5/109/6 6/115/7 67/120/57
f 67/120/57 6/115/7 7/112/8 70/118/58
f 70/118/58 7/112/8 8/106/9 73/113/59
f 73/113/59 8/106/9 9/100/10 76/107/60
f 76/107/60 9/100/10 10/96/11 79/101/61
f 79/101/61 10/96/11 1/93/1 52/98/52
f 99/14/62 54/18/63 57/19/64 98/15/65
f 98/203/65 57/206/64 60/207/66 97/204/67
f 97/204/67 60/207/66 63/211/68 96/208/69
f 96/39/69 63/43/68 66/40/70 95/36/71
f 95/36/71 66/40/70 69/41/72 94/37/73
f 94/37/73 69/41/72 72/46/74 93/42/75
f 93/221/75 72/224/74 75/225/76 92/222/77
f 101/226/78 92/222/77 75/225/76 78/229/79
f 101/16/78 78/20/79 81/17/80 100/13/81
f 99/14/62 100/13/81 81/17/80 54/18/63
f 52/98/52 53/104/82 80/108/83 79/101/61
f 53/21/82 54/18/63 81/17/80 80/22/83
f 54/18/63 53/21/82 56/23/84 57/19/64
f 53/104/82 52/98/52 55/99/53 56/105/84
f 57/206/64 56/209/84 59/210/85 60/207/66
f 56/105/84 55/99/53 58/103/54 59/111/85
f 60/207/66 59/210/85 62/212/86 63/211/68
f 59/111/85 58/103/54 61/110/55 62/117/86
f 63/43/68 62/47/86 65/44/87 66/40/70
f 62/117/86 61/110/55 64/116/56 65/121/87
f 66/40/70 65/44/87 68/45/88 69/41/72
f 65/121/87 64/116/56 67/120/57 68/123/88
f 69/41/72 68/45/88 71/48/89 72/46/74
f 68/123/88 67/120/57 70/118/58 71/122/89
f 72/224/74 71/227/89 74/228/90 75/225/76
f 71/122/89 70/118/58 73/113/59 74/119/90
f 75/225/76 74/228/90 77/230/91 78/229/79
f 74/119/90 73/113/59 76/107/60 77/114/91
f 78/20/79 77/24/91 80/22/83 81/17/80
f 77/114/91 76/107/60 79/101/61 80/108/83
f 40/213/47 83/217/92 82/218/93 43/214/49
f 37/26/45 84/30/94 83/38/92 40/31/47
f 34/25/43 85/29/95 84/30/94 37/26/45
f 31/33/41 86/35/96 85/29/95 34/25/43
f 28/196/39 87/200/97 86/205/96 31/201/41
f 25/195/37 88/199/98 87/200/97 28/196/39
f 22/1/32 89/10/99 88/11/98 25/5/37
f 22/1/32 49/4/35 90/9/100 89/10/99
f 46/7/51 91/12/101 90/9/100 49/4/35
f 43/214/49 82/218/93 91/223/101 46/219/51
f 83/261/92 93/262/75 92/263/77 82/264/93
f 84/265/94 94/266/73 93/262/75 83/261/92
f 85/267/95 95/268/71 94/266/73 84/265/94
f 86/269/96 96/270/69 95/268/71 85/267/95
f 87/271/97 97/272/67 96/270/69 86/269/96
f 88/282/98 98/279/65 97/280/67 87/281/97
f 89/273/99 99/274/62 98/279/65 88/282/98
f 89/273/99 90/275/100 100/276/81 99/274/62
f 91/277/101 101/278/78 100/276/81 90/275/100
f 91/277/101 82/264/93 92/263/77 101/278/78
f 11/58/12 12/61/15 103/62/102 102/59/103
f 12/231/15 13/232/17 104/233/104 103/234/102
f 13/232/17 14/235/19 105/236/105 104/233/104
f 14/55/19 15/49/21 106/52/106 105/56/105
f 15/49/21 16/50/23 107/51/107 106/52/106
f 16/50/23 17/53/25 108/54/108 107/51/107
f 17/237/25 18/238/27 109/239/109 108/240/108
f 18/238/27 19/241/29 110/242/110 109/239/109
f 19/63/29 20/57/31 111/60/111 110/64/110
f 20/57/31 11/58/12 102/59/103 111/60/111
f 102/154/103 103/155/102 113/156/112 112/157/113
f 103/155/102 104/158/104 114/159/114 113/156/112
f 104/158/104 105/162/105 115/163/115 114/159/114
f 105/162/105 106/166/106 116/167/116 115/163/115
f 106/166/106 107/170/107 117/171/117 116/167/116
f 107/170/107 108/172/108 118/173/118 117/171/117
f 108/172/108 109/168/109 119/169/119 118/173/118
f 109/168/109 110/164/110 120/165/120 119/169/119
f 110/164/110 111/160/111 121/161/121 120/165/120
f 111/160/111 102/154/103 112/157/113 121/161/121
s 5
f 133/82/122 122/81/123 123/85/124 136/86/125
f 136/243/125 123/244/124 124/245/126 139/246/127
f 139/246/127 124/245/126 125/247/128 142/248/129
f 142/69/129 125/70/128 126/66/130 145/65/131
f 145/65/131 126/66/130 127/67/132 148/68/133
f 148/68/133 127/67/132 128/71/134 151/72/135
f 151/252/135 128/253/134 129/254/136 154/255/137
f 154/255/137 129/254/136 130/256/138 157/257/139
f 157/83/139 130/84/138 131/80/140 160/79/141
f 160/79/141 131/80/140 122/81/123 133/82/122
f 132/174/142 135/175/143 138/176/144
f 132/174/142 138/176/144 141/180/145
f 132/174/142 141/180/145 144/183/146
f 132/174/142 144/183/146 147/188/147
f 132/174/142 147/188/147 150/192/148
f 132/174/142 150/192/148 153/189/149
f 132/174/142 153/189/149 156/184/150
f 132/174/142 156/184/150 159/181/151
f 132/174/142 159/181/151 162/177/152
f 132/174/142 162/177/152 135/175/143
f 133/82/122 134/87/153 161/88/154 160/79/141
f 134/87/153 135/91/143 162/92/152 161/88/154
f 135/175/143 134/178/153 137/179/155 138/176/144
f 134/87/153 133/82/122 136/86/125 137/90/155
f 138/176/144 137/179/155 140/182/156 141/180/145
f 137/249/155 136/243/125 139/246/127 140/250/156
f 141/180/145 140/182/156 143/187/157 144/183/146
f 140/250/156 139/246/127 142/248/129 143/251/157
f 144/183/146 143/187/157 146/191/158 147/188/147
f 143/75/157 142/69/129 145/65/131 146/73/158
f 147/77/147 146/73/158 149/74/159 150/78/148
f 146/73/158 145/65/131 148/68/133 149/74/159
f 150/192/148 149/194/159 152/193/160 153/189/149
f 149/74/159 148/68/133 151/72/135 152/76/160
f 153/189/149 152/193/160 155/190/161 156/184/150
f 152/258/160 151/252/135 154/255/137 155/259/161
f 156/184/150 155/190/161 158/185/162 159/181/151
f 155/259/161 154/255/137 157/257/139 158/260/162
f 159/181/151 158/185/162 161/186/154 162/177/152
f 158/89/162 157/83/139 160/79/141 161/88/154
