# This file uses centimeters as units for non-parametric coordinates.

mtllib rug.mtl
g default
v 5.495187 0.012751 -14.895686
v 5.983469 0.007173 -14.883717
v 8.401659 0.007173 -14.883717
v 8.889940 0.012751 -14.895686
v 5.481624 0.007173 -15.606355
v 5.983469 0.000000 -15.606355
v 8.401659 0.000000 -15.606355
v 8.903503 0.007173 -15.606355
v 5.481624 0.007173 -19.418972
v 5.983469 0.000000 -19.418972
v 8.401659 0.000000 -19.418972
v 8.903503 0.007173 -19.418972
v 5.495187 0.012751 -20.129642
v 5.983469 0.007173 -20.141610
v 8.401659 0.007173 -20.141610
v 8.889940 0.012751 -20.129642
v 5.495187 0.044629 -14.895686
v 5.983469 0.050208 -14.883717
v 5.983469 0.057380 -15.606355
v 5.481624 0.050208 -15.606355
v 8.401659 0.050208 -14.883717
v 8.401659 0.057380 -15.606355
v 8.889940 0.044629 -14.895686
v 8.903503 0.050208 -15.606355
v 5.983469 0.057380 -19.418972
v 5.481624 0.050208 -19.418972
v 8.401659 0.057380 -19.418972
v 8.903503 0.050208 -19.418972
v 5.983469 0.050208 -20.141610
v 5.495187 0.044629 -20.129642
v 8.401659 0.050208 -20.141610
v 8.889940 0.044629 -20.129642
v 7.192564 0.007173 -14.883717
v 8.851190 0.000000 -15.606355
v 8.903503 0.007173 -14.929883
v 8.851190 0.007173 -14.883717
v 5.481624 0.007173 -17.512664
v 5.533937 0.000000 -19.418972
v 5.983469 0.000000 -17.512664
v 7.192564 0.000000 -19.418972
v 8.401659 0.000000 -17.512664
v 8.851190 0.000000 -19.418972
v 8.903503 0.007173 -17.512664
v 5.481624 0.007173 -20.095444
v 5.533937 0.007173 -20.141610
v 5.983469 0.000000 -20.095444
v 8.401659 0.000000 -20.095444
v 7.192564 0.007173 -20.141610
v 8.851190 0.007173 -20.141610
v 8.903503 0.007173 -20.095444
v 5.983469 0.028690 -14.868329
v 5.481624 0.028690 -14.883717
v 5.464186 0.028690 -15.606355
v 8.401659 0.028690 -14.868329
v 8.903503 0.028690 -14.883717
v 8.920940 0.028690 -15.606355
v 5.464186 0.028690 -19.418972
v 8.920940 0.028690 -19.418972
v 5.481624 0.028690 -20.141610
v 5.983469 0.028690 -20.156999
v 8.401659 0.028690 -20.156999
v 8.903503 0.028690 -20.141610
v 5.533937 0.050208 -14.883717
v 5.983469 0.057380 -14.929883
v 5.533937 0.057380 -15.606355
v 5.481624 0.050208 -14.929883
v 7.192564 0.050208 -14.883717
v 8.401659 0.057380 -14.929883
v 7.192564 0.057380 -15.606355
v 8.851190 0.050208 -14.883717
v 8.903503 0.050208 -14.929883
v 8.851190 0.057380 -15.606355
v 5.983469 0.057380 -17.512664
v 5.533937 0.057380 -19.418972
v 5.481624 0.050208 -17.512664
v 8.401659 0.057380 -17.512664
v 7.192564 0.057380 -19.418972
v 8.903503 0.050208 -17.512664
v 8.851190 0.057380 -19.418972
v 5.983469 0.057380 -20.095444
v 5.533937 0.050208 -20.141610
v 5.481624 0.050208 -20.095444
v 7.192564 0.050208 -20.141610
v 8.401659 0.057380 -20.095444
v 8.903503 0.050208 -20.095444
v 8.851190 0.050208 -20.141610
v 5.481624 0.007173 -14.929883
v 5.533937 0.000000 -15.606355
v 5.983469 0.000000 -14.929883
v 5.533937 0.007173 -14.883717
v 7.192564 0.000000 -15.606355
v 8.401659 0.000000 -14.929883
v 5.533937 0.057380 -14.929883
v 7.192564 0.057380 -14.929883
v 8.851190 0.057380 -14.929883
v 5.533937 0.057380 -17.512664
v 7.192564 0.057380 -17.512664
v 8.851190 0.057380 -17.512664
v 5.533937 0.057380 -20.095444
v 7.192564 0.057380 -20.095444
v 8.851190 0.057380 -20.095444
v 5.533937 0.000000 -14.929883
v 7.192564 0.000000 -14.929883
v 8.851190 0.000000 -14.929883
v 5.533937 0.000000 -17.512664
v 7.192564 0.000000 -17.512664
v 8.851190 0.000000 -17.512664
v 5.533937 0.000000 -20.095444
v 7.192564 0.000000 -20.095444
v 8.851190 0.000000 -20.095444
v 5.533937 0.028690 -14.868329
v 5.464186 0.028690 -14.929883
v 7.192564 0.028690 -14.868329
v 8.851190 0.028690 -14.868329
v 8.920940 0.028690 -14.929883
v 5.464186 0.028690 -17.512664
v 8.920940 0.028690 -17.512664
v 5.533937 0.028690 -20.156999
v 5.464186 0.028690 -20.095444
v 7.192564 0.028690 -20.156999
v 8.920940 0.028690 -20.095444
v 8.851190 0.028690 -20.156999
vt 0.745344 0.778312
vt 0.745344 0.750984
vt 0.749453 0.750984
vt 0.749453 0.778312
vt 0.746409 0.749602
vt 0.749453 0.749119
vt 0.753561 0.750984
vt 0.753561 0.778312
vt 0.745344 0.855325
vt 0.749453 0.855325
vt 0.752496 0.749602
vt 0.753561 0.855325
vt 0.745344 0.932338
vt 0.749453 0.932338
vt 0.753561 0.932338
vt 0.745344 0.959667
vt 0.749453 0.959667
vt 0.753561 0.959667
vt 0.746409 0.961049
vt 0.749453 0.961532
vt 0.752496 0.961049
vt 0.734700 0.959667
vt 0.734700 0.932338
vt 0.738808 0.932338
vt 0.738808 0.959667
vt 0.734700 0.855325
vt 0.738808 0.855325
vt 0.742916 0.932338
vt 0.742916 0.959667
vt 0.735765 0.961049
vt 0.738808 0.961532
vt 0.734700 0.778312
vt 0.738808 0.778312
vt 0.742916 0.855325
vt 0.741851 0.961049
vt 0.734700 0.750984
vt 0.738808 0.750984
vt 0.742916 0.778312
vt 0.735765 0.749602
vt 0.738808 0.749119
vt 0.742916 0.750984
vt 0.741851 0.749602
vt 0.059988 0.054765
vt 0.066552 0.052737
vt 0.066553 0.060558
vt 0.057690 0.060558
vt 0.142710 0.052737
vt 0.142710 0.060558
vt 0.142710 0.175162
vt 0.066553 0.175162
vt 0.057690 0.175162
vt 0.347548 0.060558
vt 0.347548 0.175162
vt 0.347548 0.052737
vt 0.552386 0.052737
vt 0.552386 0.060558
vt 0.552386 0.175162
vt 0.628543 0.052737
vt 0.628543 0.060558
vt 0.635108 0.054764
vt 0.637405 0.060558
vt 0.637406 0.175162
vt 0.628543 0.175162
vt 0.142710 0.498118
vt 0.066553 0.498118
vt 0.142711 0.821074
vt 0.066553 0.821074
vt 0.057691 0.821074
vt 0.057690 0.498118
vt 0.552386 0.498118
vt 0.347548 0.498118
vt 0.552387 0.821074
vt 0.347549 0.821074
vt 0.637406 0.498118
vt 0.628543 0.498118
vt 0.637406 0.821074
vt 0.628544 0.821074
vt 0.066553 0.935679
vt 0.057691 0.935679
vt 0.142711 0.935679
vt 0.142711 0.943500
vt 0.066553 0.943500
vt 0.059989 0.941472
vt 0.552387 0.943499
vt 0.347549 0.943499
vt 0.347549 0.935678
vt 0.552387 0.935678
vt 0.628544 0.935678
vt 0.637406 0.935678
vt 0.635109 0.941471
vt 0.628544 0.943499
vt 0.755989 0.959667
vt 0.755989 0.932338
vt 0.759222 0.932338
vt 0.759222 0.959667
vt 0.755989 0.855325
vt 0.759222 0.855325
vt 0.787007 0.932338
vt 0.787007 0.959667
vt 0.756827 0.961049
vt 0.759222 0.961532
vt 0.755989 0.778312
vt 0.759222 0.778312
vt 0.787007 0.855325
vt 0.861740 0.932338
vt 0.861740 0.959667
vt 0.787007 0.961532
vt 0.755989 0.750984
vt 0.759222 0.750984
vt 0.787007 0.778312
vt 0.861740 0.855325
vt 0.936472 0.932338
vt 0.936472 0.959667
vt 0.861740 0.961532
vt 0.756827 0.749602
vt 0.759222 0.749119
vt 0.787007 0.750984
vt 0.861740 0.778312
vt 0.936472 0.855325
vt 0.964257 0.932338
vt 0.964257 0.959667
vt 0.936472 0.961532
vt 0.787007 0.749119
vt 0.861740 0.750984
vt 0.936472 0.778312
vt 0.964257 0.855325
vt 0.967490 0.932338
vt 0.967490 0.959667
vt 0.964257 0.961532
vt 0.861740 0.749119
vt 0.936472 0.750984
vt 0.964257 0.778312
vt 0.967490 0.855325
vt 0.966652 0.961049
vt 0.936472 0.749119
vt 0.964257 0.750984
vt 0.967490 0.778312
vt 0.964257 0.749119
vt 0.967490 0.750984
vt 0.966652 0.749602
vt 0.725120 0.959781
vt 0.724055 0.957386
vt 0.728163 0.957386
vt 0.728163 0.960620
vt 0.724055 0.929602
vt 0.728163 0.929602
vt 0.732271 0.957386
vt 0.731206 0.959781
vt 0.724055 0.854869
vt 0.728163 0.854869
vt 0.732271 0.929602
vt 0.724055 0.780137
vt 0.728163 0.780137
vt 0.732271 0.854869
vt 0.724055 0.752352
vt 0.728163 0.752352
vt 0.732271 0.780137
vt 0.725120 0.749957
vt 0.728163 0.749119
vt 0.732271 0.752352
vt 0.731206 0.749957
vt 0.721627 0.929602
vt 0.721627 0.957386
vt 0.717519 0.957386
vt 0.717519 0.929602
vt 0.720562 0.959781
vt 0.717519 0.960620
vt 0.713411 0.957386
vt 0.713411 0.929602
vt 0.721627 0.854869
vt 0.717519 0.854869
vt 0.714476 0.959781
vt 0.713411 0.854869
vt 0.721627 0.780137
vt 0.717519 0.780137
vt 0.713411 0.780137
vt 0.721627 0.752352
vt 0.717519 0.752352
vt 0.713411 0.752352
vt 0.720562 0.749957
vt 0.717519 0.749119
vt 0.714476 0.749957
vn -0.358513 0.837811 0.411752
vn -0.016135 0.907974 0.418715
vn -0.014103 0.999853 0.009697
vn -0.379252 0.925239 0.010047
vn -0.000000 0.906381 0.422460
vn -0.000000 0.999951 0.009925
vn 0.000000 1.000000 0.000000
vn -0.014291 0.999898 0.000000
vn -0.380403 0.924821 0.000000
vn 0.000000 0.999951 0.009925
vn 0.000000 1.000000 0.000000
vn 0.000000 0.906381 0.422460
vn 0.000000 0.906381 0.422460
vn 0.000000 0.999951 0.009925
vn 0.000000 1.000000 0.000000
vn 0.016135 0.907974 0.418715
vn 0.014103 0.999854 0.009697
vn 0.358515 0.837811 0.411752
vn 0.379254 0.925238 0.010047
vn 0.380405 0.924820 -0.000000
vn 0.014291 0.999898 0.000000
vn 0.000000 1.000000 0.000000
vn -0.014291 0.999898 0.000000
vn 0.000000 1.000000 0.000000
vn -0.014291 0.999898 -0.000000
vn -0.380403 0.924821 -0.000000
vn -0.380403 0.924821 0.000000
vn 0.000000 1.000000 0.000000
vn 0.000000 1.000000 0.000000
vn -0.000000 1.000000 0.000000
vn 0.000000 1.000000 0.000000
vn 0.380406 0.924820 -0.000000
vn 0.014291 0.999898 0.000000
vn 0.380405 0.924820 0.000000
vn 0.014291 0.999898 0.000000
vn -0.014103 0.999853 -0.009697
vn -0.379252 0.925239 -0.010047
vn 0.000000 0.999951 -0.009925
vn 0.000000 0.906381 -0.422460
vn -0.016135 0.907974 -0.418715
vn -0.358514 0.837811 -0.411753
vn 0.000000 0.906382 -0.422460
vn 0.000000 0.906381 -0.422460
vn 0.000000 0.999951 -0.009925
vn -0.000000 0.999951 -0.009925
vn 0.014103 0.999854 -0.009697
vn 0.379254 0.925238 -0.010047
vn 0.358515 0.837811 -0.411752
vn 0.016135 0.907974 -0.418715
vn -0.358514 -0.837811 0.411753
vn -0.379252 -0.925239 0.010047
vn -0.014103 -0.999853 0.009697
vn -0.016135 -0.907974 0.418715
vn -0.380403 -0.924821 -0.000000
vn -0.014291 -0.999898 0.000000
vn 0.000000 -1.000000 0.000000
vn -0.000000 -0.999951 0.009925
vn -0.000000 -0.906381 0.422460
vn 0.000000 -1.000000 0.000000
vn 0.000000 -0.999951 0.009925
vn 0.000000 -1.000000 0.000000
vn 0.000000 -0.999951 0.009925
vn 0.000000 -0.906381 0.422460
vn 0.000000 -0.906381 0.422460
vn 0.014103 -0.999854 0.009697
vn 0.016135 -0.907974 0.418715
vn 0.014291 -0.999898 0.000000
vn 0.380406 -0.924820 0.000000
vn 0.379254 -0.925238 0.010047
vn 0.358515 -0.837811 0.411753
vn -0.014291 -0.999898 0.000000
vn 0.000000 -1.000000 0.000000
vn -0.380403 -0.924821 0.000000
vn -0.380403 -0.924821 0.000000
vn -0.014291 -0.999898 0.000000
vn 0.000000 -1.000000 0.000000
vn 0.000000 -1.000000 0.000000
vn 0.000000 -1.000000 0.000000
vn 0.000000 -1.000000 0.000000
vn 0.000000 -1.000000 0.000000
vn 0.014291 -0.999898 0.000000
vn 0.380405 -0.924820 0.000000
vn 0.014291 -0.999898 0.000000
vn 0.380406 -0.924820 -0.000000
vn -0.379252 -0.925239 -0.010047
vn -0.014103 -0.999853 -0.009697
vn -0.358513 -0.837811 -0.411753
vn -0.016135 -0.907974 -0.418715
vn 0.000000 -0.906381 -0.422460
vn 0.000000 -0.999951 -0.009925
vn -0.000000 -0.906381 -0.422460
vn -0.000000 -0.999951 -0.009925
vn 0.000000 -0.999951 -0.009925
vn 0.000000 -0.906381 -0.422460
vn 0.014103 -0.999854 -0.009697
vn 0.016135 -0.907974 -0.418715
vn 0.358514 -0.837811 -0.411752
vn 0.379254 -0.925238 -0.010047
vn -0.027538 0.000000 0.999621
vn -0.686755 0.000001 0.726889
vn 0.000000 0.000000 1.000000
vn -0.999798 0.000005 0.020117
vn -1.000000 0.000006 -0.000000
vn 0.000000 0.000000 1.000000
vn 0.000000 0.000000 1.000000
vn 0.027538 0.000000 0.999621
vn 0.686756 0.000000 0.726888
vn 0.999798 0.000000 0.020117
vn 1.000000 0.000000 0.000000
vn -1.000000 0.000003 0.000000
vn -1.000000 0.000000 0.000000
vn 1.000000 0.000000 -0.000000
vn 1.000000 -0.000000 0.000000
vn -0.027538 -0.000000 -0.999621
vn 0.000000 0.000000 -1.000000
vn -0.686755 -0.000001 -0.726889
vn -0.999798 0.000000 -0.020117
vn 0.000000 0.000000 -1.000000
vn 0.000000 0.000000 -1.000000
vn 0.999798 -0.000000 -0.020117
vn 0.686756 -0.000001 -0.726888
vn 0.027538 0.000000 -0.999621
s 1
g pPlane78
usemtl initialShadingGroup
f 17/43/1 63/44/2 93/45/3 66/46/4
f 63/44/2 18/47/5 64/48/6 93/45/3
f 93/45/3 64/48/6 19/49/7 65/50/8
f 66/46/4 93/45/3 65/50/8 20/51/9
f 19/49/7 64/48/6 94/52/10 69/53/11
f 64/48/6 18/47/5 67/54/12 94/52/10
f 94/52/10 67/54/12 21/55/13 68/56/14
f 69/53/11 94/52/10 68/56/14 22/57/15
f 21/55/13 70/58/16 95/59/17 68/56/14
f 70/58/16 23/60/18 71/61/19 95/59/17
f 95/59/17 71/61/19 24/62/20 72/63/21
f 68/56/14 95/59/17 72/63/21 22/57/15
f 19/49/7 73/64/22 96/65/23 65/50/8
f 73/64/22 25/66/24 74/67/25 96/65/23
f 96/65/23 74/67/25 26/68/26 75/69/27
f 65/50/8 96/65/23 75/69/27 20/51/9
f 22/57/15 76/70/28 97/71/29 69/53/11
f 76/70/28 27/72/30 77/73/31 97/71/29
f 97/71/29 77/73/31 25/66/24 73/64/22
f 69/53/11 97/71/29 73/64/22 19/49/7
f 24/62/20 78/74/32 98/75/33 72/63/21
f 78/74/32 28/76/34 79/77/35 98/75/33
f 98/75/33 79/77/35 27/72/30 76/70/28
f 72/63/21 98/75/33 76/70/28 22/57/15
f 26/68/26 74/67/25 99/78/36 82/79/37
f 74/67/25 25/66/24 80/80/38 99/78/36
f 99/78/36 80/80/38 29/81/39 81/82/40
f 82/79/37 99/78/36 81/82/40 30/83/41
f 31/84/42 83/85/43 100/86/44 84/87/45
f 83/85/43 29/81/39 80/80/38 100/86/44
f 100/86/44 80/80/38 25/66/24 77/73/31
f 84/87/45 100/86/44 77/73/31 27/72/30
f 27/72/30 79/77/35 101/88/46 84/87/45
f 79/77/35 28/76/34 85/89/47 101/88/46
f 101/88/46 85/89/47 32/90/48 86/91/49
f 84/87/45 101/88/46 86/91/49 31/84/42
f 1/100/50 87/92/51 102/95/52 90/101/53
f 87/92/51 5/93/54 88/94/55 102/95/52
f 102/95/52 88/94/55 6/98/56 89/99/57
f 90/101/53 102/95/52 89/99/57 2/107/58
f 6/98/56 91/105/59 103/106/60 89/99/57
f 91/105/59 7/112/61 92/113/62 103/106/60
f 103/106/60 92/113/62 3/122/63 33/114/64
f 89/99/57 103/106/60 33/114/64 2/107/58
f 3/122/63 92/113/62 104/121/65 36/129/66
f 92/113/62 7/112/61 34/120/67 104/121/65
f 104/121/65 34/120/67 8/127/68 35/128/69
f 36/129/66 104/121/65 35/128/69 4/134/70
f 6/98/56 88/94/55 105/97/71 39/104/72
f 88/94/55 5/93/54 37/96/73 105/97/71
f 105/97/71 37/96/73 9/102/74 38/103/75
f 39/104/72 105/97/71 38/103/75 10/110/76
f 7/112/61 91/105/59 106/111/77 41/119/78
f 91/105/59 6/98/56 39/104/72 106/111/77
f 106/111/77 39/104/72 10/110/76 40/118/79
f 41/119/78 106/111/77 40/118/79 11/125/80
f 8/127/68 34/120/67 107/126/81 43/133/82
f 34/120/67 7/112/61 41/119/78 107/126/81
f 107/126/81 41/119/78 11/125/80 42/132/83
f 43/133/82 107/126/81 42/132/83 12/137/84
f 9/102/74 44/108/85 108/109/86 38/103/75
f 44/108/85 13/115/87 45/116/88 108/109/86
f 108/109/86 45/116/88 14/123/89 46/117/90
f 38/103/75 108/109/86 46/117/90 10/110/76
f 15/135/91 47/131/92 109/124/93 48/130/94
f 47/131/92 11/125/80 40/118/79 109/124/93
f 109/124/93 40/118/79 10/110/76 46/117/90
f 48/130/94 109/124/93 46/117/90 14/123/89
f 11/125/80 47/131/92 110/136/95 42/132/83
f 47/131/92 15/135/91 49/138/96 110/136/95
f 110/136/95 49/138/96 16/140/97 50/139/98
f 42/132/83 110/136/95 50/139/98 12/137/84
f 1/141/50 90/142/53 111/143/99 52/144/100
f 90/142/53 2/145/58 51/146/101 111/143/99
f 111/143/99 51/146/101 18/151/5 63/147/2
f 52/144/100 111/143/99 63/147/2 17/148/1
f 5/1/54 87/2/51 112/3/102 53/4/103
f 87/2/51 1/5/50 52/6/100 112/3/102
f 112/3/102 52/6/100 17/11/1 66/7/4
f 53/4/103 112/3/102 66/7/4 20/8/9
f 2/145/58 33/149/64 113/150/104 51/146/101
f 33/149/64 3/152/63 54/153/105 113/150/104
f 113/150/104 54/153/105 21/157/13 67/154/12
f 51/146/101 113/150/104 67/154/12 18/151/5
f 3/152/63 36/155/66 114/156/106 54/153/105
f 36/155/66 4/158/70 55/159/107 114/156/106
f 114/156/106 55/159/107 23/161/18 70/160/16
f 54/153/105 114/156/106 70/160/16 21/157/13
f 4/30/70 35/22/69 115/25/108 55/31/107
f 35/22/69 8/23/68 56/24/109 115/25/108
f 115/25/108 56/24/109 24/28/20 71/29/19
f 55/31/107 115/25/108 71/29/19 23/35/18
f 9/13/74 37/9/73 116/10/110 57/14/111
f 37/9/73 5/1/54 53/4/103 116/10/110
f 116/10/110 53/4/103 20/8/9 75/12/27
f 57/14/111 116/10/110 75/12/27 26/15/26
f 8/23/68 43/26/82 117/27/112 56/24/109
f 43/26/82 12/32/84 58/33/113 117/27/112
f 117/27/112 58/33/113 28/38/34 78/34/32
f 56/24/109 117/27/112 78/34/32 24/28/20
f 14/162/89 45/163/88 118/164/114 60/165/115
f 45/163/88 13/166/87 59/167/116 118/164/114
f 118/164/114 59/167/116 30/172/41 81/168/40
f 60/165/115 118/164/114 81/168/40 29/169/39
f 13/19/87 44/16/85 119/17/117 59/20/116
f 44/16/85 9/13/74 57/14/111 119/17/117
f 119/17/117 57/14/111 26/15/26 82/18/37
f 59/20/116 119/17/117 82/18/37 30/21/41
f 15/174/91 48/170/94 120/171/118 61/175/119
f 48/170/94 14/162/89 60/165/115 120/171/118
f 120/171/118 60/165/115 29/169/39 83/173/43
f 61/175/119 120/171/118 83/173/43 31/176/42
f 12/32/84 50/36/98 121/37/120 58/33/113
f 50/36/98 16/39/97 62/40/121 121/37/120
f 121/37/120 62/40/121 32/42/48 85/41/47
f 58/33/113 121/37/120 85/41/47 28/38/34
f 16/180/97 49/177/96 122/178/122 62/181/121
f 49/177/96 15/174/91 61/175/119 122/178/122
f 122/178/122 61/175/119 31/176/42 86/179/49
f 62/181/121 122/178/122 86/179/49 32/182/48
