# This file uses centimeters as units for non-parametric coordinates.

mtllib bd3.mtl
g default
v -3.159756 4.062145 -11.886382
v -4.517657 4.062145 -11.886382
v -3.159756 3.489555 -11.886382
v -4.517657 3.489555 -11.886382
v -4.460077 4.104222 -11.886382
v -4.460077 4.062145 -11.939598
v -4.460077 3.489555 -11.939598
v -4.460077 3.449820 -11.886382
v -3.222259 4.104222 -11.886382
v -3.222259 4.062145 -11.939598
v -3.222259 3.489555 -11.939598
v -3.222259 3.449820 -11.886382
v -3.161066 3.451130 -11.935124
v -3.164229 3.449820 -11.935124
v -3.164229 3.451130 -11.938288
v -3.164229 3.454293 -11.939598
v -3.161066 3.454293 -11.938288
v -3.159756 3.454293 -11.935124
v -3.222259 3.454293 -11.939598
v -3.222259 3.451130 -11.938288
v -3.222259 3.449820 -11.935124
v -3.161066 4.099748 -11.938288
v -3.164229 4.099748 -11.939598
v -3.164229 4.102911 -11.938288
v -3.164229 4.104222 -11.935124
v -3.161066 4.102911 -11.935124
v -3.159756 4.099748 -11.935124
v -3.222259 4.104222 -11.935124
v -3.222259 4.102911 -11.938288
v -3.222259 4.099748 -11.939598
v -3.159756 3.489555 -11.935124
v -3.161066 3.489555 -11.938288
v -3.164229 3.489555 -11.939598
v -4.513184 3.451130 -11.938288
v -4.513184 3.449820 -11.935124
v -4.516347 3.451130 -11.935124
v -4.517657 3.454293 -11.935124
v -4.516347 3.454293 -11.938288
v -4.513184 3.454293 -11.939598
v -4.517657 3.489555 -11.935124
v -4.516347 3.489555 -11.938288
v -4.513184 3.489555 -11.939598
v -3.159756 4.099748 -11.886382
v -3.161066 4.102911 -11.886382
v -3.164229 4.104222 -11.886382
v -4.513184 4.102911 -11.938288
v -4.513184 4.099748 -11.939598
v -4.516347 4.099748 -11.938288
v -4.517657 4.099748 -11.935124
v -4.516347 4.102911 -11.935124
v -4.513184 4.104222 -11.935124
v -4.513184 4.104222 -11.886382
v -4.516347 4.102911 -11.886382
v -4.517657 4.099748 -11.886382
v -3.164229 3.449820 -11.886382
v -3.161066 3.451130 -11.886382
v -3.159756 3.454293 -11.886382
v -4.517657 3.454293 -11.886382
v -4.516347 3.451130 -11.886382
v -4.513184 3.449820 -11.886382
v -3.164229 4.062145 -11.939598
v -3.161066 4.062145 -11.938288
v -3.159756 4.062145 -11.935124
v -4.517657 4.062145 -11.935124
v -4.516347 4.062145 -11.938288
v -4.513184 4.062145 -11.939598
v -4.455604 4.057671 -11.886382
v -4.458767 4.060835 -11.885071
v -4.460077 4.062145 -11.881908
v -3.226733 4.057671 -11.886382
v -3.223569 4.060835 -11.885071
v -3.222259 4.062145 -11.881908
v -4.460077 4.099748 -11.939598
v -4.460077 4.102911 -11.938288
v -4.460077 4.104222 -11.935124
v -4.460077 3.449820 -11.935124
v -4.460077 3.451130 -11.938288
v -4.460077 3.454293 -11.939598
v -4.455604 3.494028 -11.886382
v -4.458767 3.490865 -11.885071
v -4.460077 3.489555 -11.881908
v -3.226733 3.494028 -11.886382
v -3.223569 3.490865 -11.885071
v -3.222259 3.489555 -11.881908
v -4.516347 4.099748 -11.867311
v -4.513184 4.099748 -11.866000
v -4.513184 4.102911 -11.867311
v -4.513184 4.104222 -11.870475
v -4.516347 4.102911 -11.870475
v -4.517657 4.099748 -11.870475
v -4.460077 4.104222 -11.870475
v -4.460077 4.102911 -11.867311
v -4.460077 4.099748 -11.866000
v -4.513184 4.062145 -11.866000
v -4.516347 4.062145 -11.867311
v -4.517657 4.062145 -11.870475
v -4.464551 4.066618 -11.866000
v -4.461388 4.063455 -11.867311
v -4.460077 4.062145 -11.870475
v -4.460077 3.489555 -11.870475
v -4.461388 3.488244 -11.867311
v -4.464551 3.485081 -11.866000
v -4.513184 3.489555 -11.866000
v -4.516347 3.489555 -11.867311
v -4.517657 3.489555 -11.870475
v -4.513184 3.451130 -11.867311
v -4.513184 3.454293 -11.866000
v -4.516347 3.454293 -11.867311
v -4.517657 3.454293 -11.870475
v -4.516347 3.451130 -11.870475
v -4.513184 3.449820 -11.870475
v -4.460077 3.454293 -11.866000
v -4.460077 3.451130 -11.867311
v -4.460077 3.449820 -11.870475
v -3.222259 4.104222 -11.870475
v -3.222259 4.102911 -11.867311
v -3.222259 4.099748 -11.866000
v -3.217786 4.066618 -11.866000
v -3.220949 4.063455 -11.867311
v -3.222259 4.062145 -11.870475
v -3.222259 3.489555 -11.870475
v -3.220949 3.488244 -11.867311
v -3.217786 3.485081 -11.866000
v -3.222259 3.454293 -11.866000
v -3.222259 3.451130 -11.867311
v -3.222259 3.449820 -11.870475
v -3.161066 4.099748 -11.867311
v -3.159756 4.099748 -11.870475
v -3.161066 4.102911 -11.870475
v -3.164229 4.104222 -11.870475
v -3.164229 4.102911 -11.867311
v -3.164229 4.099748 -11.866000
v -3.159756 4.062145 -11.870475
v -3.161066 4.062145 -11.867311
v -3.164229 4.062145 -11.866000
v -3.161066 3.454293 -11.867311
v -3.164229 3.454293 -11.866000
v -3.164229 3.451130 -11.867311
v -3.164229 3.449820 -11.870475
v -3.161066 3.451130 -11.870475
v -3.159756 3.454293 -11.870475
v -3.164229 3.489555 -11.866000
v -3.161066 3.489555 -11.867311
v -3.159756 3.489555 -11.870475
v -3.161648 3.451711 -11.937707
v -3.161648 4.102330 -11.937707
v -4.515766 3.451711 -11.937707
v -4.515766 4.102330 -11.937707
v -4.515766 4.102330 -11.867892
v -4.515766 3.451711 -11.867892
v -3.161648 4.102330 -11.867892
v -3.161648 3.451711 -11.867892
vt 0.349435 0.032154
vt 0.350031 0.032154
vt 0.350031 0.360767
vt 0.349435 0.360767
vt 0.350031 0.010822
vt 0.349544 0.014745
vt 0.356685 0.032154
vt 0.356685 0.360767
vt 0.350031 0.468011
vt 0.349435 0.468011
vt 0.356685 0.010822
vt 0.349435 0.010822
vt 0.350031 0.001992
vt 0.464723 0.032154
vt 0.464723 0.360767
vt 0.356685 0.468011
vt 0.350031 0.489342
vt 0.349544 0.485423
vt 0.356685 0.001992
vt 0.464723 0.010822
vt 0.471819 0.032154
vt 0.471819 0.360767
vt 0.464723 0.468011
vt 0.356685 0.489342
vt 0.350031 0.498176
vt 0.349435 0.489342
vt 0.464723 0.001992
vt 0.471819 0.010822
vt 0.472415 0.032154
vt 0.472415 0.360767
vt 0.471819 0.468011
vt 0.464723 0.489342
vt 0.356685 0.498176
vt 0.471819 0.001992
vt 0.472306 0.014745
vt 0.472415 0.468011
vt 0.471819 0.489342
vt 0.464723 0.498176
vt 0.472415 0.010822
vt 0.472306 0.485423
vt 0.471819 0.498176
vt 0.472415 0.489342
vt 0.789989 0.967846
vt 0.789392 0.967846
vt 0.789392 0.639233
vt 0.789989 0.639233
vt 0.789989 0.989178
vt 0.789501 0.985255
vt 0.789392 0.531989
vt 0.789989 0.531989
vt 0.796642 0.639233
vt 0.796642 0.967846
vt 0.796642 0.989178
vt 0.789989 0.998008
vt 0.789392 0.989178
vt 0.789989 0.510658
vt 0.789501 0.514577
vt 0.796642 0.531989
vt 0.904681 0.639233
vt 0.904681 0.967846
vt 0.904681 0.989178
vt 0.796642 0.998008
vt 0.796642 0.510658
vt 0.789392 0.510658
vt 0.789989 0.501824
vt 0.904681 0.531989
vt 0.911776 0.639233
vt 0.911776 0.967846
vt 0.911776 0.989178
vt 0.904681 0.998008
vt 0.904681 0.510658
vt 0.796642 0.501824
vt 0.911776 0.531989
vt 0.912372 0.967846
vt 0.912372 0.639233
vt 0.912263 0.985255
vt 0.911776 0.998008
vt 0.911776 0.510658
vt 0.904681 0.501824
vt 0.912372 0.531989
vt 0.912372 0.989178
vt 0.912263 0.514577
vt 0.911776 0.501824
vt 0.912372 0.510658
vt 0.130153 0.609068
vt 0.130400 0.630400
vt 0.021867 0.630400
vt 0.022114 0.609068
vt 0.130997 0.639233
vt 0.021270 0.639233
vt 0.022114 0.531987
vt 0.130153 0.531987
vt 0.129905 0.510661
vt 0.022361 0.510661
vt 0.129309 0.501825
vt 0.022958 0.501825
vt 0.110704 0.750129
vt 0.002665 0.750129
vt 0.002665 0.673047
vt 0.110704 0.673047
vt 0.110457 0.771455
vt 0.002912 0.771455
vt 0.110951 0.651715
vt 0.002418 0.651715
vt 0.109860 0.780291
vt 0.003509 0.780291
vt 0.111548 0.642882
vt 0.001821 0.642882
vt 0.002619 0.468014
vt 0.001821 0.468014
vt 0.001821 0.139401
vt 0.002619 0.139401
vt 0.002619 0.489345
vt 0.001968 0.485423
vt 0.001821 0.032157
vt 0.002619 0.032157
vt 0.017261 0.139401
vt 0.017261 0.468014
vt 0.017261 0.489345
vt 0.002619 0.010825
vt 0.001968 0.014745
vt 0.017261 0.032157
vt 0.329580 0.139401
vt 0.329580 0.468014
vt 0.329580 0.489345
vt 0.002619 0.498176
vt 0.017261 0.498176
vt 0.017261 0.010825
vt 0.329580 0.032157
vt 0.342979 0.139401
vt 0.342979 0.468014
vt 0.342979 0.489345
vt 0.329580 0.498176
vt 0.329580 0.010825
vt 0.017261 0.001992
vt 0.002619 0.001992
vt 0.342979 0.032157
vt 0.343777 0.468014
vt 0.343777 0.139401
vt 0.343631 0.485423
vt 0.342979 0.498176
vt 0.342979 0.010825
vt 0.329580 0.001992
vt 0.343777 0.032157
vt 0.343631 0.014745
vt 0.342979 0.001992
vt 0.480298 0.032154
vt 0.480298 0.010822
vt 0.494940 0.010822
vt 0.494940 0.032154
vt 0.479500 0.032154
vt 0.479647 0.014745
vt 0.480298 0.001992
vt 0.494940 0.001992
vt 0.807259 0.010822
vt 0.807259 0.032154
vt 0.494940 0.360767
vt 0.480298 0.360767
vt 0.479500 0.360767
vt 0.807259 0.001992
vt 0.820658 0.010822
vt 0.820658 0.032154
vt 0.807259 0.360767
vt 0.494940 0.468011
vt 0.480298 0.468011
vt 0.479500 0.468011
vt 0.820658 0.001992
vt 0.821456 0.032154
vt 0.821310 0.014745
vt 0.820658 0.360767
vt 0.807259 0.468011
vt 0.494940 0.489342
vt 0.480298 0.489342
vt 0.479647 0.485423
vt 0.821456 0.360767
vt 0.820658 0.468011
vt 0.807259 0.489342
vt 0.494940 0.498176
vt 0.480298 0.498176
vt 0.821456 0.468011
vt 0.820658 0.489342
vt 0.807259 0.498176
vt 0.821310 0.485423
vt 0.820658 0.498176
vt 0.498829 0.502953
vt 0.498829 0.815272
vt 0.421747 0.815272
vt 0.421747 0.502953
vt 0.520155 0.503284
vt 0.520155 0.814942
vt 0.400415 0.502623
vt 0.400415 0.815603
vt 0.528991 0.504082
vt 0.528991 0.814143
vt 0.391582 0.501824
vt 0.391582 0.816401
vt 0.278727 0.815272
vt 0.278727 0.502953
vt 0.355809 0.502953
vt 0.355809 0.815272
vt 0.257401 0.503284
vt 0.257401 0.814942
vt 0.377140 0.502623
vt 0.377140 0.815603
vt 0.248565 0.504082
vt 0.248565 0.814143
vt 0.385973 0.501825
vt 0.385973 0.816401
vt 0.668649 0.827543
vt 0.668649 0.515224
vt 0.776688 0.515224
vt 0.776688 0.827543
vt 0.661996 0.827543
vt 0.661996 0.515224
vt 0.668649 0.501824
vt 0.776688 0.501824
vt 0.783783 0.515224
vt 0.783783 0.827543
vt 0.668649 0.842184
vt 0.776688 0.842184
vt 0.661996 0.501824
vt 0.661996 0.842184
vt 0.783783 0.501824
vt 0.783783 0.842184
vt 0.534600 0.515224
vt 0.534600 0.501824
vt 0.541695 0.501824
vt 0.540851 0.514095
vt 0.650578 0.514095
vt 0.649734 0.501824
vt 0.534600 0.827543
vt 0.540851 0.828671
vt 0.656387 0.501824
vt 0.656387 0.515224
vt 0.534600 0.842184
vt 0.541695 0.842184
vt 0.650578 0.828671
vt 0.656387 0.827543
vt 0.649734 0.842184
vt 0.656387 0.842184
vt 0.242956 0.811886
vt 0.136606 0.811886
vt 0.136606 0.501825
vt 0.242956 0.501825
vn 0.000000 0.000000 -1.000000
vn 0.000000 0.000000 -1.000000
vn 0.000000 0.000000 -1.000000
vn 0.000000 0.000000 -1.000000
vn 0.021043 -0.999469 -0.024874
vn 0.380670 -0.924555 -0.016973
vn 0.382616 -0.923908 0.000000
vn 0.021402 -0.999771 0.000000
vn 0.924534 -0.380719 -0.017022
vn 0.999134 -0.033515 -0.024659
vn 0.999419 -0.034078 0.000000
vn 0.923884 -0.382672 0.000000
vn 0.019799 -0.032523 -0.999275
vn 0.026138 -0.379529 -0.924811
vn 0.000000 -0.382572 -0.923926
vn 0.000000 -0.034067 -0.999420
vn 0.001614 -0.924017 -0.382349
vn 0.000000 -0.999682 -0.025228
vn 0.000000 -0.923950 -0.382514
vn 0.924013 -0.002105 -0.382356
vn 0.923917 0.000000 -0.382592
vn 0.999682 0.000000 -0.025234
vn 0.377674 -0.041140 -0.925024
vn 0.021400 0.000000 -0.999771
vn 0.382579 0.000000 -0.923923
vn 0.019892 0.030650 -0.999332
vn 0.377960 0.038871 -0.925006
vn 0.382579 0.000000 -0.923923
vn 0.021400 0.000000 -0.999771
vn 0.924007 0.001975 -0.382370
vn 0.999196 0.031591 -0.024693
vn 0.999682 0.000000 -0.025234
vn 0.923917 0.000000 -0.382592
vn 0.021054 0.999469 -0.024886
vn 0.001614 0.923950 -0.382510
vn 0.000000 0.923876 -0.382692
vn 0.000000 0.999681 -0.025242
vn 0.026138 0.379552 -0.924801
vn 0.000000 0.032113 -0.999484
vn 0.000000 0.382592 -0.923917
vn 0.924525 0.380741 -0.017021
vn 0.923875 0.382695 0.000000
vn 0.999484 0.032123 0.000000
vn 0.380833 0.924488 -0.016975
vn 0.021413 0.999771 0.000000
vn 0.382785 0.923837 0.000000
vn -0.022885 -0.999429 -0.024842
vn -0.001763 -0.924027 -0.382322
vn 0.000000 -0.923950 -0.382514
vn 0.000000 -0.999682 -0.025228
vn -0.028360 -0.379265 -0.924853
vn -0.021538 -0.032387 -0.999243
vn 0.000000 -0.034067 -0.999420
vn 0.000000 -0.382572 -0.923926
vn -0.999134 -0.033516 -0.024660
vn -0.924530 -0.380730 -0.017022
vn -0.923879 -0.382685 -0.000000
vn -0.999419 -0.034079 -0.000000
vn -0.380670 -0.924555 -0.016973
vn -0.023274 -0.999729 -0.000000
vn -0.382616 -0.923908 -0.000000
vn -0.021638 0.030521 -0.999300
vn -0.028359 0.379281 -0.924847
vn 0.000000 0.382592 -0.923917
vn 0.000000 0.032113 -0.999484
vn -0.001763 0.923957 -0.382493
vn -0.022896 0.999429 -0.024854
vn 0.000000 0.999681 -0.025242
vn 0.000000 0.923876 -0.382692
vn -0.999196 0.031592 -0.024693
vn -0.924003 0.001975 -0.382381
vn -0.923913 0.000000 -0.382602
vn -0.999682 0.000000 -0.025235
vn -0.377960 0.038870 -0.925006
vn -0.023271 0.000000 -0.999729
vn -0.382579 0.000000 -0.923923
vn -0.380833 0.924488 -0.016975
vn -0.382785 0.923837 -0.000000
vn -0.023286 0.999729 -0.000000
vn -0.924520 0.380752 -0.017021
vn -0.999484 0.032124 -0.000000
vn -0.923869 0.382708 -0.000000
vn -0.023752 0.033502 0.999156
vn -0.378050 0.038868 0.924969
vn -0.382680 0.000000 0.923881
vn -0.024266 0.000000 0.999706
vn -0.924003 0.001976 0.382381
vn -0.997271 0.030630 0.067181
vn -0.997648 0.000000 0.068542
vn -0.923913 0.000000 0.382602
vn -0.022193 0.997467 0.067587
vn -0.001764 0.923957 0.382493
vn -0.000000 0.923876 0.382692
vn -0.000000 0.997647 0.068561
vn -0.028358 0.379373 0.924809
vn -0.000000 0.032818 0.999461
vn -0.000000 0.382694 0.923875
vn 0.995935 0.000000 0.090078
vn 0.923904 0.000000 0.382623
vn 0.923904 0.000000 0.382623
vn 0.995935 0.000000 0.090078
vn 0.382680 0.000000 0.923881
vn 0.010235 -0.021675 0.999713
vn 0.010691 0.022641 0.999686
vn 0.382680 0.000000 0.923881
vn -0.023719 -0.035666 0.999082
vn -0.028358 -0.379357 0.924816
vn -0.000000 -0.382674 0.923884
vn 0.000000 -0.034871 0.999392
vn -0.001764 -0.924028 0.382322
vn -0.022182 -0.997469 0.067553
vn -0.000000 -0.997649 0.068524
vn -0.000000 -0.923950 0.382514
vn 0.997271 0.030628 0.067179
vn 0.924007 0.001976 0.382370
vn 0.923917 0.000000 0.382592
vn 0.997648 0.000000 0.068540
vn 0.378050 0.038869 0.924969
vn 0.021769 0.033543 0.999200
vn 0.022232 0.000000 0.999753
vn 0.382680 0.000000 0.923881
vn 0.021739 -0.035710 0.999126
vn 0.377764 -0.041138 0.924988
vn 0.382680 0.000000 0.923881
vn 0.022228 0.000000 0.999753
vn 0.924013 -0.002106 0.382355
vn 0.997217 -0.032497 0.067094
vn 0.997648 0.000000 0.068540
vn 0.923917 0.000000 0.382592
vn 0.000000 1.000000 -0.000000
vn 0.000000 -1.000000 0.000000
vn -1.000000 0.000000 -0.000000
vn 1.000000 0.000000 0.000000
vn 1.000000 0.000000 0.000000
vn -0.023271 0.000000 -0.999729
vn -0.999682 0.000000 -0.025235
vn -1.000000 0.000000 -0.000000
vn -0.024262 0.000000 0.999706
vn -0.000000 0.032835 0.999461
vn -0.009815 -0.020785 0.999736
vn 0.000000 1.000000 -0.000000
vn 0.000000 -1.000000 0.000000
vn -0.010236 0.021676 0.999713
vn -0.000000 -0.034890 0.999391
vn -0.001109 0.002444 0.999996
vn -0.001109 -0.002443 0.999996
vn 0.001109 -0.002443 0.999996
vn 0.001109 0.002443 0.999996
vn 0.996055 0.000000 0.088734
vn 0.996055 0.000000 0.088734
vn -0.997648 0.000000 0.068542
vn -0.997217 -0.032499 0.067096
vn -0.000000 0.997647 0.068561
vn -0.000000 -0.996064 0.088641
vn -0.000000 -0.996064 0.088641
vn -0.000000 -0.995928 0.090151
vn -0.000000 -0.995928 0.090151
vn -0.000000 0.996061 0.088672
vn -0.000000 0.996061 0.088672
vn -0.000000 0.995926 0.090169
vn -0.000000 0.995926 0.090169
vn -0.000000 -0.997649 0.068524
vn 0.020405 0.997499 0.067667
vn 0.020396 -0.997502 0.067634
vn -0.996056 0.000000 0.088731
vn -0.996056 0.000000 0.088731
vn -0.995935 0.000000 0.090072
vn -0.995935 0.000000 0.090072
vn -0.377674 -0.041139 -0.925024
vn -0.382579 0.000000 -0.923923
vn -0.924008 -0.002105 -0.382367
vn -0.923913 0.000000 -0.382602
vn 0.925015 0.376978 0.047277
vn 0.377080 0.924979 0.047161
vn -0.377080 0.924979 0.047161
vn -0.925008 0.376994 0.047277
vn 0.376929 -0.925041 0.047155
vn 0.925022 -0.376959 0.047278
vn -0.925016 -0.376974 0.047278
vn -0.376928 -0.925041 0.047155
vn 0.382781 0.000000 0.923839
vn 0.382781 0.000000 0.923839
vn 0.923878 0.000000 0.382686
vn 0.923878 0.000000 0.382686
vn -0.000000 -0.923886 0.382667
vn -0.000000 -0.923886 0.382667
vn -0.000000 -0.382747 0.923853
vn -0.000000 -0.382747 0.923853
vn -0.000000 0.382828 0.923819
vn -0.000000 0.382828 0.923820
vn -0.000000 0.923839 0.382781
vn -0.000000 0.923839 0.382781
vn -0.923883 0.000000 0.382675
vn -0.923883 0.000000 0.382675
vn -0.382768 0.000000 0.923844
vn -0.382768 0.000000 0.923844
vn -0.000000 0.923876 0.382692
vn -0.000000 0.382694 0.923875
vn -0.382680 0.000000 0.923881
vn -0.923913 0.000000 0.382602
vn -0.000000 -0.382647 0.923895
vn -0.000000 -0.382647 0.923895
vn -0.000000 -0.923925 0.382574
vn -0.000000 -0.923925 0.382574
vn -0.000000 0.923898 0.382639
vn -0.000000 0.923898 0.382639
vn -0.000000 0.382694 0.923875
vn -0.000000 0.382694 0.923875
vn -0.377764 -0.041136 0.924988
vn -0.924008 -0.002106 0.382366
vn -0.000000 -0.382673 0.923884
vn -0.000000 -0.923950 0.382514
vn 0.001615 0.923950 0.382510
vn 0.026136 0.379646 0.924762
vn -0.382667 0.000000 0.923886
vn -0.382667 0.000000 0.923886
vn -0.923913 0.000000 0.382602
vn -0.923913 0.000000 0.382602
vn 0.026136 -0.379623 0.924772
vn 0.001615 -0.924017 0.382348
vn 0.887932 -0.325297 -0.325207
vn 0.325295 -0.887939 -0.325187
vn 0.325278 -0.325278 -0.887913
vn 0.887940 0.325301 -0.325180
vn 0.325262 0.325285 -0.887916
vn 0.325325 0.887911 -0.325234
vn -0.325281 -0.325274 -0.887913
vn -0.325295 -0.887941 -0.325184
vn -0.887935 -0.325287 -0.325208
vn -0.325324 0.887912 -0.325233
vn -0.325264 0.325278 -0.887918
vn -0.887941 0.325294 -0.325184
vn -0.887953 0.325281 0.325163
vn -0.325264 0.325274 0.887919
vn -0.325304 0.887927 0.325213
vn -0.325272 -0.887956 0.325165
vn -0.325279 -0.325268 0.887916
vn -0.887946 -0.325277 0.325187
vn 0.325263 0.325289 0.887914
vn 0.887956 0.325278 0.325160
vn 0.325306 0.887925 0.325215
vn 0.887945 -0.325280 0.325186
vn 0.325280 -0.325284 0.887910
vn 0.325277 -0.887954 0.325166
s 1
g pCube118
usemtl initialShadingGroup
f 11/209/1 7/210/2 6/211/3 10/212/4
s 2
f 14/109/5 13/110/6 56/111/7 55/112/8
s 3
f 13/1/9 18/2/10 57/3/11 56/4/12
s 1
f 16/126/13 15/113/14 20/119/15 19/127/16
s 2
f 15/113/17 14/109/5 21/118/18 20/119/19
s 3
f 18/2/10 17/5/20 32/11/21 31/7/22
s 1
f 17/5/23 16/13/13 33/19/24 32/11/25
f 23/34/26 22/28/27 62/20/28 61/27/29
s 3
f 22/28/30 27/21/31 63/14/32 62/20/33
s 7
f 25/147/34 24/148/35 29/149/36 28/150/37
s 1
f 24/148/38 23/153/26 30/154/39 29/149/40
s 3
f 27/21/31 26/29/41 44/30/42 43/22/43
s 7
f 26/151/44 25/147/34 45/158/45 44/159/46
s 2
f 35/131/47 34/132/48 77/125/49 76/124/50
s 1
f 34/132/51 39/141/52 78/133/53 77/125/54
s 10
f 37/43/55 36/44/56 59/45/57 58/46/58
s 2
f 36/138/59 35/131/47 60/130/60 59/139/61
s 1
f 47/167/62 46/161/63 74/155/64 73/160/65
s 7
f 46/161/66 51/162/67 75/156/68 74/155/69
s 10
f 49/68/70 48/69/71 65/61/72 64/60/73
s 1
f 48/69/74 47/77/62 66/70/75 65/61/76
s 7
f 51/162/67 50/168/77 53/175/78 52/170/79
s 10
f 50/74/80 49/68/70 54/67/81 53/75/82
s 14
f 86/83/83 85/78/84 95/71/85 94/79/86
s 10
f 85/78/87 90/73/88 96/66/89 95/71/90
s 7
f 88/176/91 87/181/92 92/177/93 91/171/94
s 14
f 87/181/95 86/184/83 93/182/96 92/177/97
s 17
f 99/85/98 98/86/99 101/87/100 100/88/101
s 14
f 98/86/102 97/89/103 102/90/104 101/87/105
f 107/146/106 106/142/107 113/134/108 112/143/109
s 2
f 106/142/110 111/137/111 114/129/112 113/134/113
s 3
f 128/31/114 127/37/115 134/32/116 133/23/117
s 14
f 127/37/118 132/41/119 135/38/120 134/32/121
f 137/25/122 136/17/123 143/24/124 142/33/125
s 3
f 136/17/126 141/9/127 144/16/128 143/24/129
s 1
f 6/211/3 66/216/75 47/223/62 73/217/65
s 7
f 75/156/68 51/162/67 52/170/79 5/163/130
s 14
f 93/225/96 86/226/83 94/227/86 97/228/103
s 2
f 8/123/131 60/130/60 35/131/47 76/124/50
s 10
f 64/60/73 2/59/132 54/67/81 49/68/70
s 3
f 1/15/133 63/14/32 27/21/31 43/22/43
f 3/8/134 31/7/22 63/14/32 1/15/133
s 1
f 7/210/2 42/215/135 66/216/75 6/211/3
s 10
f 40/52/136 4/51/137 2/59/132 64/60/73
s 14
f 102/229/104 97/228/103 94/227/86 103/230/138
s 3
f 57/3/11 18/2/10 31/7/22 3/8/134
s 1
f 78/214/53 39/221/52 42/215/135 7/210/2
s 10
f 37/43/55 58/46/58 4/51/137 40/52/136
s 14
f 102/229/104 103/230/138 107/233/106 112/234/109
f 117/231/139 93/225/96 97/228/103 118/232/140
s 7
f 28/150/37 75/156/68 5/163/130 9/157/141
s 1
f 10/212/4 6/211/3 73/217/65 30/218/39
f 19/213/16 78/214/53 7/210/2 11/209/1
s 2
f 12/117/142 8/123/131 76/124/50 21/118/18
s 14
f 123/237/143 102/229/104 112/234/109 124/238/144
s 25
f 82/241/145 70/242/146 67/243/147 79/244/148
s 14
f 132/235/119 117/231/139 118/232/140 135/236/120
s 7
f 25/147/34 28/150/37 9/157/141 45/158/45
s 1
f 61/220/29 10/212/4 30/218/39 23/224/26
f 33/219/24 11/209/1 10/212/4 61/220/29
f 16/222/13 19/213/16 11/209/1 33/219/24
s 2
f 55/112/8 12/117/142 21/118/18 14/109/5
s 14
f 142/239/125 123/237/143 124/238/144 137/240/122
f 135/236/120 118/232/140 123/237/143 142/239/125
s 7
f 5/163/130 52/170/79 88/176/91 91/171/94
s 10
f 54/67/81 2/59/132 96/66/89 90/73/88
s 17
f 81/91/149 69/92/150 99/85/98 100/88/101
s 10
f 2/59/132 4/51/137 105/58/151 96/66/89
f 4/51/137 58/46/58 109/50/152 105/58/151
s 2
f 60/130/60 8/123/131 114/129/112 111/137/111
s 7
f 9/157/141 5/163/130 91/171/94 115/164/153
s 26
f 69/185/154 72/186/155 120/187/156 99/188/157
s 27
f 84/197/158 81/198/159 100/199/160 121/200/161
s 2
f 8/123/131 12/117/142 126/122/162 114/129/112
s 7
f 45/158/45 9/157/141 115/164/153 130/165/163
s 3
f 1/15/133 43/22/43 128/31/114 133/23/117
s 2
f 12/117/142 55/112/8 139/116/164 126/122/162
s 3
f 57/3/11 3/8/134 144/16/128 141/9/127
s 28
f 72/97/165 84/98/166 121/99/167 120/100/168
s 3
f 3/8/134 1/15/133 133/23/117 144/16/128
s 1
f 39/54/52 38/47/169 41/53/170 42/62/135
s 10
f 38/47/171 37/43/55 40/52/136 41/53/172
s 3
f 43/22/43 44/30/42 129/36/173 128/31/114
s 7
f 44/159/46 45/158/45 130/165/163 129/166/174
f 52/170/79 53/175/78 89/180/175 88/176/91
s 10
f 53/75/82 54/67/81 90/73/88 89/80/176
s 2
f 55/112/8 56/111/7 140/115/177 139/116/164
s 3
f 56/4/12 57/3/11 141/9/127 140/10/178
s 10
f 58/46/58 59/45/57 110/49/179 109/50/152
s 2
f 59/139/61 60/130/60 111/137/111 110/144/180
s 3
f 31/7/22 32/11/21 62/20/33 63/14/32
s 1
f 32/11/25 33/19/24 61/27/29 62/20/28
f 42/62/135 41/53/170 65/61/76 66/70/75
s 10
f 41/53/172 40/52/136 64/60/73 65/61/72
s 25
f 67/95/147 68/93/181 80/94/182 79/96/148
s 17
f 68/93/183 69/92/150 81/91/149 80/94/184
s 26
f 69/185/154 68/189/185 71/190/186 72/186/155
s 25
f 68/189/187 67/193/147 70/194/146 71/190/188
s 7
f 28/150/37 29/149/36 74/155/69 75/156/68
s 1
f 29/149/40 30/154/39 73/160/65 74/155/64
f 19/127/16 20/119/15 77/125/54 78/133/53
s 2
f 20/119/19 21/118/18 76/124/50 77/125/49
s 25
f 79/205/148 80/201/189 83/202/190 82/206/145
s 27
f 80/201/191 81/198/159 84/197/158 83/202/192
s 28
f 72/97/165 71/101/193 83/102/194 84/98/166
s 25
f 71/101/195 70/105/146 82/106/145 83/102/196
s 7
f 91/171/94 92/177/93 116/172/197 115/164/153
s 14
f 92/177/97 93/182/96 117/178/139 116/172/198
f 94/79/86 95/71/85 104/63/199 103/72/138
s 10
f 95/71/90 96/66/89 105/58/151 104/63/200
s 14
f 97/195/103 98/191/201 119/192/202 118/196/140
s 26
f 98/191/203 99/188/157 120/187/156 119/192/204
s 27
f 100/199/160 101/203/205 122/204/206 121/200/161
s 14
f 101/203/207 102/207/104 123/208/143 122/204/208
f 103/72/138 104/63/199 108/56/209 107/65/106
s 10
f 104/63/200 105/58/151 109/50/152 108/56/210
s 14
f 112/143/109 113/134/108 125/128/211 124/135/144
s 2
f 113/134/113 114/129/112 126/122/162 125/128/212
s 7
f 115/164/153 116/172/197 131/173/213 130/165/163
s 14
f 116/172/198 117/178/139 132/179/119 131/173/214
f 118/107/140 119/103/215 122/104/216 123/108/143
s 28
f 119/103/217 120/100/168 121/99/167 122/104/218
s 14
f 124/135/144 125/128/211 138/120/219 137/136/122
s 2
f 125/128/212 126/122/162 139/116/164 138/120/220
s 3
f 133/23/117 134/32/116 143/24/129 144/16/128
s 14
f 134/32/121 135/38/120 142/33/125 143/24/124
s 3
f 17/5/20 18/2/10 13/1/9 145/6/221
s 2
f 13/110/6 14/109/5 15/113/17 145/114/222
s 1
f 15/12/14 16/13/13 17/5/23 145/6/223
s 3
f 26/29/41 27/21/31 22/28/30 146/35/224
s 1
f 22/28/27 23/34/26 24/39/38 146/35/225
s 7
f 24/148/35 25/147/34 26/151/44 146/152/226
s 1
f 38/47/169 39/54/52 34/55/51 147/48/227
s 2
f 34/132/48 35/131/47 36/138/59 147/140/228
s 10
f 36/44/56 37/43/55 38/47/171 147/48/229
s 7
f 50/168/77 51/162/67 46/161/66 148/169/230
s 1
f 46/81/63 47/77/62 48/69/74 148/76/231
s 10
f 48/69/71 49/68/70 50/74/80 148/76/232
f 89/80/176 90/73/88 85/78/87 149/82/233
s 14
f 85/78/84 86/83/83 87/84/95 149/82/234
s 7
f 87/181/92 88/176/91 89/180/175 149/183/235
s 2
f 110/144/180 111/137/111 106/142/110 150/145/236
s 14
f 106/64/107 107/65/106 108/56/209 150/57/237
s 10
f 108/56/210 109/50/152 110/49/179 150/57/238
s 14
f 131/42/214 132/41/119 127/37/118 151/40/239
s 3
f 127/37/115 128/31/114 129/36/173 151/40/240
s 7
f 129/166/174 130/165/163 131/173/213 151/174/241
s 3
f 140/10/178 141/9/127 136/17/126 152/18/242
s 14
f 136/17/123 137/25/122 138/26/219 152/18/243
s 2
f 138/120/220 139/116/164 140/115/177 152/121/244
