# This file uses centimeters as units for non-parametric coordinates.

mtllib artwork.mtl
g default
v -3.262127 3.160077 -0.169873
v -3.252088 3.397707 -0.169873
v -3.242049 3.635337 -0.169873
v -3.232011 3.872967 -0.169873
v -3.221972 4.110598 -0.169873
v -3.211933 4.348228 -0.169873
v -3.201894 4.585858 -0.169873
v -3.191856 4.823488 -0.169873
v -3.181817 5.061118 -0.187851
v -3.171778 5.298749 -0.334149
v -3.161739 5.536379 -0.430035
v -2.969198 3.147702 -0.169873
v -2.959159 3.385332 -0.169873
v -2.949120 3.622962 -0.169873
v -2.939081 3.860592 -0.169873
v -2.929043 4.098223 -0.169873
v -2.919004 4.335853 -0.169873
v -2.908965 4.573483 -0.169873
v -2.898926 4.811113 -0.169873
v -2.888888 5.048744 -0.170250
v -2.878849 5.286374 -0.237553
v -2.868810 5.524004 -0.295059
v -2.676269 3.135327 -0.169873
v -2.666230 3.372957 -0.169873
v -2.656191 3.610587 -0.169873
v -2.646152 3.848218 -0.169873
v -2.636114 4.085848 -0.169873
v -2.626075 4.323478 -0.169873
v -2.616036 4.561108 -0.169873
v -2.605997 4.798738 -0.169873
v -2.595958 5.036369 -0.169873
v -2.585920 5.273999 -0.169873
v -2.575881 5.511629 -0.169873
v -2.383339 3.122952 -0.169873
v -2.373301 3.360582 -0.169873
v -2.363262 3.598212 -0.169873
v -2.353223 3.835843 -0.169873
v -2.343184 4.073473 -0.169873
v -2.333146 4.311103 -0.169873
v -2.323107 4.548733 -0.169873
v -2.313068 4.786364 -0.169873
v -2.303029 5.023994 -0.169873
v -2.292990 5.261624 -0.169873
v -2.282952 5.499254 -0.169873
v -2.090410 3.110577 -0.169873
v -2.080371 3.348207 -0.169873
v -2.070333 3.585838 -0.169873
v -2.060294 3.823468 -0.169873
v -2.050255 4.061098 -0.169873
v -2.040216 4.298728 -0.169873
v -2.030178 4.536358 -0.169873
v -2.020139 4.773989 -0.169873
v -2.010100 5.011619 -0.169873
v -2.000061 5.249249 -0.169873
v -1.990023 5.486879 -0.169873
v -1.797481 3.098202 -0.169873
v -1.787442 3.335832 -0.169873
v -1.777403 3.573463 -0.169873
v -1.767365 3.811093 -0.169873
v -1.757326 4.048723 -0.169873
v -1.747287 4.286353 -0.169873
v -1.737248 4.523984 -0.169873
v -1.727210 4.761614 -0.169873
v -1.717171 4.999244 -0.169873
v -1.707132 5.236874 -0.169873
v -1.697093 5.474504 -0.169873
v -1.504552 3.085827 -0.169873
v -1.494513 3.323458 -0.169873
v -1.484474 3.561088 -0.169873
v -1.474435 3.798718 -0.169873
v -1.464397 4.036348 -0.169873
v -1.454358 4.273978 -0.169873
v -1.444319 4.511609 -0.169873
v -1.434280 4.749239 -0.169873
v -1.424242 4.986869 -0.169873
v -1.414203 5.224499 -0.169873
v -1.404164 5.462130 -0.169873
v -1.211623 3.073452 -0.169873
v -1.201584 3.311083 -0.169873
v -1.191545 3.548713 -0.169873
v -1.181506 3.786343 -0.169873
v -1.171468 4.023973 -0.169873
v -1.161429 4.261604 -0.169873
v -1.151390 4.499234 -0.169873
v -1.141351 4.736864 -0.169873
v -1.131313 4.974494 -0.169873
v -1.121274 5.212125 -0.169873
v -1.111235 5.449755 -0.169873
v -0.918693 3.061078 -0.169873
v -0.908655 3.298708 -0.169873
v -0.898616 3.536338 -0.169873
v -0.888577 3.773968 -0.169873
v -0.878538 4.011598 -0.169873
v -0.868500 4.249229 -0.169873
v -0.858461 4.486859 -0.169873
v -0.848422 4.724489 -0.169873
v -0.838383 4.962119 -0.169873
v -0.828344 5.199750 -0.169873
v -0.818306 5.437380 -0.169873
v -0.625764 3.048703 -0.169873
v -0.615725 3.286333 -0.169873
v -0.605687 3.523963 -0.169873
v -0.595648 3.761593 -0.169873
v -0.585609 3.999224 -0.169873
v -0.575570 4.236854 -0.169873
v -0.565532 4.474484 -0.169873
v -0.555493 4.712114 -0.169873
v -0.545454 4.949744 -0.169873
v -0.535415 5.187375 -0.169873
v -0.525376 5.425005 -0.169873
v -0.332835 3.036328 -0.169873
v -0.322796 3.273958 -0.169873
v -0.312757 3.511588 -0.169873
v -0.302719 3.749219 -0.169873
v -0.292680 3.986849 -0.169873
v -0.282641 4.224479 -0.169873
v -0.272602 4.462109 -0.169873
v -0.262564 4.699739 -0.169873
v -0.252525 4.937370 -0.169873
v -0.242486 5.175000 -0.169873
v -0.232447 5.412630 -0.169873
vt 0.014599 0.014599
vt 0.111679 0.014599
vt 0.208759 0.014599
vt 0.305839 0.014599
vt 0.402920 0.014599
vt 0.500000 0.014599
vt 0.597080 0.014599
vt 0.694161 0.014599
vt 0.791241 0.014599
vt 0.888321 0.014599
vt 0.985401 0.014599
vt 0.014599 0.111679
vt 0.111679 0.111679
vt 0.208759 0.111679
vt 0.305839 0.111679
vt 0.402920 0.111679
vt 0.500000 0.111679
vt 0.597080 0.111679
vt 0.694161 0.111679
vt 0.791241 0.111679
vt 0.888321 0.111679
vt 0.985401 0.111679
vt 0.014599 0.208759
vt 0.111679 0.208759
vt 0.208759 0.208759
vt 0.305839 0.208759
vt 0.402920 0.208759
vt 0.500000 0.208759
vt 0.597080 0.208759
vt 0.694161 0.208759
vt 0.791241 0.208759
vt 0.888321 0.208759
vt 0.985401 0.208759
vt 0.014599 0.305839
vt 0.111679 0.305839
vt 0.208759 0.305839
vt 0.305839 0.305839
vt 0.402920 0.305839
vt 0.500000 0.305839
vt 0.597080 0.305839
vt 0.694161 0.305839
vt 0.791241 0.305839
vt 0.888321 0.305839
vt 0.985401 0.305839
vt 0.014599 0.402920
vt 0.111679 0.402920
vt 0.208759 0.402920
vt 0.305839 0.402920
vt 0.402920 0.402920
vt 0.500000 0.402920
vt 0.597080 0.402920
vt 0.694161 0.402920
vt 0.791241 0.402920
vt 0.888321 0.402920
vt 0.985401 0.402920
vt 0.014599 0.500000
vt 0.111679 0.500000
vt 0.208759 0.500000
vt 0.305839 0.500000
vt 0.402920 0.500000
vt 0.500000 0.500000
vt 0.597080 0.500000
vt 0.694161 0.500000
vt 0.791241 0.500000
vt 0.888321 0.500000
vt 0.985401 0.500000
vt 0.014599 0.597080
vt 0.111679 0.597080
vt 0.208759 0.597080
vt 0.305839 0.597080
vt 0.402920 0.597080
vt 0.500000 0.597080
vt 0.597080 0.597080
vt 0.694161 0.597080
vt 0.791241 0.597080
vt 0.888321 0.597080
vt 0.985401 0.597080
vt 0.014599 0.694161
vt 0.111679 0.694161
vt 0.208759 0.694161
vt 0.305839 0.694161
vt 0.402920 0.694161
vt 0.500000 0.694161
vt 0.597080 0.694161
vt 0.694161 0.694161
vt 0.791241 0.694161
vt 0.888321 0.694161
vt 0.985401 0.694161
vt 0.014599 0.791241
vt 0.111679 0.791241
vt 0.208759 0.791241
vt 0.305839 0.791241
vt 0.402920 0.791241
vt 0.500000 0.791241
vt 0.597080 0.791241
vt 0.694161 0.791241
vt 0.791241 0.791241
vt 0.888321 0.791241
vt 0.985401 0.791241
vt 0.014599 0.888321
vt 0.111679 0.888321
vt 0.208759 0.888321
vt 0.305839 0.888321
vt 0.402920 0.888321
vt 0.500000 0.888321
vt 0.597080 0.888321
vt 0.694161 0.888321
vt 0.791241 0.888321
vt 0.888321 0.888321
vt 0.985401 0.888321
vt 0.014599 0.985401
vt 0.111679 0.985401
vt 0.208759 0.985401
vt 0.305839 0.985401
vt 0.402920 0.985401
vt 0.500000 0.985401
vt 0.597080 0.985401
vt 0.694161 0.985401
vt 0.791241 0.985401
vt 0.888321 0.985401
vt 0.985401 0.985401
vn -0.000000 -0.000000 -1.000000
vn -0.000000 -0.000000 -1.000000
vn -0.000000 -0.000000 -1.000000
vn -0.000000 -0.000000 -1.000000
vn -0.000000 -0.000000 -1.000000
vn -0.000000 -0.000000 -1.000000
vn -0.000000 -0.000000 -1.000000
vn -0.000000 -0.000000 -1.000000
vn -0.000000 -0.000000 -1.000000
vn -0.000000 -0.000000 -1.000000
vn -0.000000 -0.000000 -1.000000
vn -0.000000 -0.000000 -1.000000
vn -0.000000 -0.000000 -1.000000
vn -0.000000 -0.000000 -1.000000
vn 0.014176 -0.019903 -0.999701
vn 0.007242 -0.010159 -0.999922
vn 0.099135 -0.241652 -0.965286
vn 0.077218 -0.157810 -0.984446
vn 0.257334 -0.353706 -0.899262
vn 0.231978 -0.254115 -0.938942
vn 0.339390 -0.301877 -0.890890
vn 0.325081 -0.222285 -0.919191
vn -0.000000 -0.000000 -1.000000
vn -0.000000 -0.000000 -1.000000
vn -0.000000 -0.000000 -1.000000
vn -0.000000 -0.000000 -1.000000
vn -0.000000 -0.000000 -1.000000
vn -0.000000 -0.000000 -1.000000
vn -0.000000 -0.000000 -1.000000
vn 0.000152 -0.000205 -1.000000
vn 0.027619 -0.036730 -0.998944
vn 0.107482 -0.069653 -0.991764
vn 0.159329 -0.066323 -0.984995
vn -0.000000 -0.000000 -1.000000
vn -0.000000 -0.000000 -1.000000
vn -0.000000 -0.000000 -1.000000
vn -0.000000 -0.000000 -1.000000
vn -0.000000 -0.000000 -1.000000
vn -0.000000 -0.000000 -1.000000
vn -0.000000 -0.000000 -1.000000
vn -0.000000 -0.000000 -1.000000
vn -0.000000 -0.000000 -1.000000
vn -0.000000 -0.000000 -1.000000
vn -0.000000 -0.000000 -1.000000
vn -0.000000 -0.000000 -1.000000
vn -0.000000 -0.000000 -1.000000
vn -0.000000 -0.000000 -1.000000
vn -0.000000 -0.000000 -1.000000
vn -0.000000 -0.000000 -1.000000
vn -0.000000 -0.000000 -1.000000
vn -0.000000 -0.000000 -1.000000
vn -0.000000 -0.000000 -1.000000
vn -0.000000 -0.000000 -1.000000
vn -0.000000 -0.000000 -1.000000
vn -0.000000 -0.000000 -1.000000
vn -0.000000 -0.000000 -1.000000
vn -0.000000 -0.000000 -1.000000
vn -0.000000 -0.000000 -1.000000
vn -0.000000 -0.000000 -1.000000
vn -0.000000 -0.000000 -1.000000
vn -0.000000 -0.000000 -1.000000
vn -0.000000 -0.000000 -1.000000
vn -0.000000 -0.000000 -1.000000
vn -0.000000 -0.000000 -1.000000
vn -0.000000 -0.000000 -1.000000
vn -0.000000 -0.000000 -1.000000
vn -0.000000 -0.000000 -1.000000
vn -0.000000 -0.000000 -1.000000
vn -0.000000 -0.000000 -1.000000
vn -0.000000 -0.000000 -1.000000
vn -0.000000 -0.000000 -1.000000
vn -0.000000 -0.000000 -1.000000
vn -0.000000 -0.000000 -1.000000
vn -0.000000 -0.000000 -1.000000
vn -0.000000 -0.000000 -1.000000
vn -0.000000 -0.000000 -1.000000
vn -0.000000 -0.000000 -1.000000
vn -0.000000 -0.000000 -1.000000
vn -0.000000 -0.000000 -1.000000
vn -0.000000 -0.000000 -1.000000
vn -0.000000 -0.000000 -1.000000
vn -0.000000 -0.000000 -1.000000
vn -0.000000 -0.000000 -1.000000
vn -0.000000 -0.000000 -1.000000
vn -0.000000 -0.000000 -1.000000
vn -0.000000 -0.000000 -1.000000
vn -0.000000 -0.000000 -1.000000
vn -0.000000 -0.000000 -1.000000
vn -0.000000 -0.000000 -1.000000
vn -0.000000 -0.000000 -1.000000
vn -0.000000 -0.000000 -1.000000
vn -0.000000 -0.000000 -1.000000
vn -0.000000 -0.000000 -1.000000
vn -0.000000 -0.000000 -1.000000
vn -0.000000 -0.000000 -1.000000
vn -0.000000 -0.000000 -1.000000
vn -0.000000 -0.000000 -1.000000
vn -0.000000 -0.000000 -1.000000
vn -0.000000 -0.000000 -1.000000
vn -0.000000 -0.000000 -1.000000
vn -0.000000 -0.000000 -1.000000
vn -0.000000 -0.000000 -1.000000
vn -0.000000 -0.000000 -1.000000
vn -0.000000 -0.000000 -1.000000
vn -0.000000 -0.000000 -1.000000
vn -0.000000 -0.000000 -1.000000
vn -0.000000 -0.000000 -1.000000
vn -0.000000 -0.000000 -1.000000
vn -0.000000 -0.000000 -1.000000
vn -0.000000 -0.000000 -1.000000
vn -0.000000 -0.000000 -1.000000
vn -0.000000 -0.000000 -1.000000
vn -0.000000 -0.000000 -1.000000
vn -0.000000 -0.000000 -1.000000
vn -0.000000 -0.000000 -1.000000
vn -0.000000 -0.000000 -1.000000
vn -0.000000 -0.000000 -1.000000
vn -0.000000 -0.000000 -1.000000
vn -0.000000 -0.000000 -1.000000
vn -0.000000 -0.000000 -1.000000
vn -0.000000 -0.000000 -1.000000
s 1
g Dorm:pPlane3 group
usemtl Dorm:blinn13SG
f 1/1/1 2/2/2 13/13/3 12/12/4
f 2/2/2 3/3/5 14/14/6 13/13/3
f 3/3/5 4/4/7 15/15/8 14/14/6
f 4/4/7 5/5/9 16/16/10 15/15/8
f 5/5/9 6/6/11 17/17/12 16/16/10
f 6/6/11 7/7/13 18/18/14 17/17/12
f 7/7/13 8/8/15 19/19/16 18/18/14
f 8/8/15 9/9/17 20/20/18 19/19/16
f 9/9/17 10/10/19 21/21/20 20/20/18
f 10/10/19 11/11/21 22/22/22 21/21/20
f 12/12/4 13/13/3 24/24/23 23/23/24
f 13/13/3 14/14/6 25/25/25 24/24/23
f 14/14/6 15/15/8 26/26/26 25/25/25
f 15/15/8 16/16/10 27/27/27 26/26/26
f 16/16/10 17/17/12 28/28/28 27/27/27
f 17/17/12 18/18/14 29/29/29 28/28/28
f 18/18/14 19/19/16 30/30/30 29/29/29
f 19/19/16 20/20/18 31/31/31 30/30/30
f 20/20/18 21/21/20 32/32/32 31/31/31
f 21/21/20 22/22/22 33/33/33 32/32/32
f 23/23/24 24/24/23 35/35/34 34/34/35
f 24/24/23 25/25/25 36/36/36 35/35/34
f 25/25/25 26/26/26 37/37/37 36/36/36
f 26/26/26 27/27/27 38/38/38 37/37/37
f 27/27/27 28/28/28 39/39/39 38/38/38
f 28/28/28 29/29/29 40/40/40 39/39/39
f 29/29/29 30/30/30 41/41/41 40/40/40
f 30/30/30 31/31/31 42/42/42 41/41/41
f 31/31/31 32/32/32 43/43/43 42/42/42
f 32/32/32 33/33/33 44/44/44 43/43/43
f 34/34/35 35/35/34 46/46/45 45/45/46
f 35/35/34 36/36/36 47/47/47 46/46/45
f 36/36/36 37/37/37 48/48/48 47/47/47
f 37/37/37 38/38/38 49/49/49 48/48/48
f 38/38/38 39/39/39 50/50/50 49/49/49
f 39/39/39 40/40/40 51/51/51 50/50/50
f 40/40/40 41/41/41 52/52/52 51/51/51
f 41/41/41 42/42/42 53/53/53 52/52/52
f 42/42/42 43/43/43 54/54/54 53/53/53
f 43/43/43 44/44/44 55/55/55 54/54/54
f 45/45/46 46/46/45 57/57/56 56/56/57
f 46/46/45 47/47/47 58/58/58 57/57/56
f 47/47/47 48/48/48 59/59/59 58/58/58
f 48/48/48 49/49/49 60/60/60 59/59/59
f 49/49/49 50/50/50 61/61/61 60/60/60
f 50/50/50 51/51/51 62/62/62 61/61/61
f 51/51/51 52/52/52 63/63/63 62/62/62
f 52/52/52 53/53/53 64/64/64 63/63/63
f 53/53/53 54/54/54 65/65/65 64/64/64
f 54/54/54 55/55/55 66/66/66 65/65/65
f 56/56/57 57/57/56 68/68/67 67/67/68
f 57/57/56 58/58/58 69/69/69 68/68/67
f 58/58/58 59/59/59 70/70/70 69/69/69
f 59/59/59 60/60/60 71/71/71 70/70/70
f 60/60/60 61/61/61 72/72/72 71/71/71
f 61/61/61 62/62/62 73/73/73 72/72/72
f 62/62/62 63/63/63 74/74/74 73/73/73
f 63/63/63 64/64/64 75/75/75 74/74/74
f 64/64/64 65/65/65 76/76/76 75/75/75
f 65/65/65 66/66/66 77/77/77 76/76/76
f 67/67/68 68/68/67 79/79/78 78/78/79
f 68/68/67 69/69/69 80/80/80 79/79/78
f 69/69/69 70/70/70 81/81/81 80/80/80
f 70/70/70 71/71/71 82/82/82 81/81/81
f 71/71/71 72/72/72 83/83/83 82/82/82
f 72/72/72 73/73/73 84/84/84 83/83/83
f 73/73/73 74/74/74 85/85/85 84/84/84
f 74/74/74 75/75/75 86/86/86 85/85/85
f 75/75/75 76/76/76 87/87/87 86/86/86
f 76/76/76 77/77/77 88/88/88 87/87/87
f 78/78/79 79/79/78 90/90/89 89/89/90
f 79/79/78 80/80/80 91/91/91 90/90/89
f 80/80/80 81/81/81 92/92/92 91/91/91
f 81/81/81 82/82/82 93/93/93 92/92/92
f 82/82/82 83/83/83 94/94/94 93/93/93
f 83/83/83 84/84/84 95/95/95 94/94/94
f 84/84/84 85/85/85 96/96/96 95/95/95
f 85/85/85 86/86/86 97/97/97 96/96/96
f 86/86/86 87/87/87 98/98/98 97/97/97
f 87/87/87 88/88/88 99/99/99 98/98/98
f 89/89/90 90/90/89 101/101/100 100/100/101
f 90/90/89 91/91/91 102/102/102 101/101/100
f 91/91/91 92/92/92 103/103/103 102/102/102
f 92/92/92 93/93/93 104/104/104 103/103/103
f 93/93/93 94/94/94 105/105/105 104/104/104
f 94/94/94 95/95/95 106/106/106 105/105/105
f 95/95/95 96/96/96 107/107/107 106/106/106
f 96/96/96 97/97/97 108/108/108 107/107/107
f 97/97/97 98/98/98 109/109/109 108/108/108
f 98/98/98 99/99/99 110/110/110 109/109/109
f 100/100/101 101/101/100 112/112/111 111/111/112
f 101/101/100 102/102/102 113/113/113 112/112/111
f 102/102/102 103/103/103 114/114/114 113/113/113
f 103/103/103 104/104/104 115/115/115 114/114/114
f 104/104/104 105/105/105 116/116/116 115/115/115
f 105/105/105 106/106/106 117/117/117 116/116/116
f 106/106/106 107/107/107 118/118/118 117/117/117
f 107/107/107 108/108/108 119/119/119 118/118/118
f 108/108/108 109/109/109 120/120/120 119/119/119
f 109/109/109 110/110/110 121/121/121 120/120/120
