# This file uses centimeters as units for non-parametric coordinates.

mtllib doorframe.mtl
g default
v -2.641464 0.075983 -11.738621
v -2.615018 0.075983 -11.761683
v -2.615018 0.224130 -11.761683
v -2.641464 0.224130 -11.738621
v -2.917431 3.948583 -11.761683
v -2.890985 3.925523 -11.738621
v -2.917431 0.224130 -11.761683
v -2.890985 0.224130 -11.738621
v -2.890985 0.075983 -10.123382
v -2.917431 0.075983 -10.100320
v -2.917431 0.224129 -10.100365
v -2.890985 0.224129 -10.123425
v -2.641459 3.902467 -10.124732
v -2.641459 3.925523 -10.147798
v -2.615018 3.947438 -10.100583
v -2.615018 0.224129 -10.100365
v -2.641464 0.224129 -10.123425
v -2.615018 4.051814 -11.859064
v -2.641464 4.074874 -11.882123
v -2.615018 0.224130 -11.859064
v -2.641464 0.224130 -11.882123
v -2.615018 3.948583 -11.761683
v -2.641464 3.925523 -11.738621
v -2.890990 3.925523 -10.147798
v -2.890990 3.902467 -10.124732
v -2.917431 3.947438 -10.100583
v -2.917431 4.051814 -11.859064
v -2.890985 4.074874 -11.882123
v -2.917431 4.051814 -9.983159
v -2.890985 4.074874 -9.960106
v -2.917431 0.224129 -9.981878
v -2.890985 0.224129 -9.958818
v -2.641464 0.075983 -9.958776
v -2.615018 0.075983 -9.981836
v -2.615018 0.224129 -9.981878
v -2.641464 0.224129 -9.958818
v -2.917431 0.224130 -11.859064
v -2.890985 0.224130 -11.882123
v -2.615018 4.051814 -9.983159
v -2.641464 4.074874 -9.960106
v -2.890985 0.075983 -11.882123
v -2.917431 0.075983 -11.859064
v -2.890985 0.075983 -11.738621
v -2.917431 0.075983 -11.761683
v -2.641464 0.075983 -11.882123
v -2.615018 0.075983 -11.859064
v -2.890985 0.075983 -9.958776
v -2.917431 0.075983 -9.981836
v -2.641464 0.075983 -10.123382
v -2.615018 0.075983 -10.100320
vt 0.351732 0.649945
vt 0.629942 0.649753
vt 0.649609 0.667234
vt 0.335422 0.667234
vt 0.355594 0.646082
vt 0.622035 0.646082
vt 0.629979 0.026152
vt 0.649824 0.026152
vt 0.331560 0.671096
vt 0.653470 0.671096
vt 0.335422 0.026152
vt 0.351732 0.026152
vt 0.355594 0.026152
vt 0.625898 0.642221
vt 0.626117 0.026152
vt 0.629986 0.001340
vt 0.649831 0.001340
vt 0.653686 0.026152
vt 0.331560 0.026152
vt 0.335422 0.001340
vt 0.351732 0.001340
vt 0.355594 0.001340
vt 0.626124 0.001340
vt 0.653693 0.001340
vt 0.331560 0.001340
vt 0.303953 0.649945
vt 0.303953 0.026152
vt 0.320263 0.026152
vt 0.320263 0.667234
vt 0.300090 0.026152
vt 0.300090 0.646082
vt 0.303953 0.001340
vt 0.320263 0.001340
vt 0.324125 0.671096
vt 0.324125 0.026152
vt 0.006076 0.667234
vt 0.025742 0.649753
vt 0.300090 0.001340
vt 0.033650 0.646082
vt 0.324125 0.001340
vt 0.002215 0.671096
vt 0.025706 0.026152
vt 0.005861 0.026152
vt 0.029787 0.642221
vt 0.001999 0.026152
vt 0.029568 0.026152
vt 0.005854 0.001340
vt 0.025699 0.001340
vt 0.001992 0.001340
vt 0.029561 0.001340
vt 0.953276 0.005769
vt 0.957138 0.001340
vt 0.973448 0.001340
vt 0.977310 0.005769
vt 0.977310 0.047560
vt 0.973448 0.051989
vt 0.957138 0.051989
vt 0.953276 0.047560
vt 0.970439 0.060410
vt 0.974302 0.055981
vt 0.994146 0.055981
vt 0.998008 0.060410
vt 0.998008 0.102201
vt 0.994146 0.106631
vt 0.974302 0.106631
vt 0.970439 0.102201
vt 0.897619 0.001340
vt 0.897619 0.323250
vt 0.855828 0.323250
vt 0.855828 0.001340
vt 0.946344 0.001340
vt 0.946345 0.267780
vt 0.904552 0.267780
vt 0.904553 0.001340
vt 0.946345 0.271643
vt 0.904552 0.271643
vt 0.702724 0.001340
vt 0.702724 0.026152
vt 0.660933 0.026152
vt 0.660933 0.001340
vt 0.702724 0.671096
vt 0.660933 0.671096
vt 0.751448 0.001340
vt 0.751448 0.646284
vt 0.709657 0.646284
vt 0.709657 0.001340
vt 0.751448 0.671096
vt 0.709657 0.671096
vt 0.800172 0.001340
vt 0.800172 0.026152
vt 0.758380 0.026152
vt 0.758380 0.001340
vt 0.800172 0.646082
vt 0.758380 0.646082
vt 0.848896 0.617408
vt 0.848896 0.642221
vt 0.807105 0.642221
vt 0.807105 0.617408
vt 0.807104 0.001340
vt 0.848897 0.001340
vn 0.000000 -1.000000 0.000000
vn 0.000000 -1.000000 0.000000
vn 0.000000 -1.000000 0.000000
vn 0.000000 -1.000000 0.000000
vn 0.000000 -1.000000 0.000000
vn 0.000000 -1.000000 0.000000
vn 0.000000 -1.000000 0.000000
vn 0.000000 -1.000000 0.000000
vn 0.000000 -1.000000 0.000000
vn 0.000000 -1.000000 0.000000
vn 0.000000 -1.000000 0.000000
vn 0.000000 -1.000000 0.000000
vn 0.000000 -1.000000 0.000000
vn 0.000000 -1.000000 0.000000
vn 0.000000 -1.000000 0.000000
vn 0.000000 -1.000000 0.000000
vn 0.657270 0.000000 0.753655
vn 0.657270 0.000000 0.753655
vn 0.657248 0.000000 0.753674
vn 0.657248 0.000000 0.753674
vn 0.657248 0.000000 0.753675
vn 0.657248 0.000000 0.753675
vn -0.647897 -0.761728 -0.000269
vn -0.647897 -0.761728 -0.000269
vn -0.647897 -0.761728 -0.000269
vn -0.647897 -0.761728 -0.000269
vn -0.657248 0.000000 0.753675
vn -0.657248 0.000000 0.753675
vn -0.657248 0.000000 0.753674
vn -0.657248 0.000000 0.753674
vn -0.657270 0.000000 0.753655
vn -0.657270 0.000000 0.753655
vn -0.657258 -0.000225 -0.753666
vn -0.657258 -0.000225 -0.753666
vn -0.665656 -0.000157 -0.746259
vn -0.665656 -0.000157 -0.746258
vn -0.665987 -0.000154 -0.745963
vn -0.665987 -0.000154 -0.745963
vn 0.000000 -0.707254 -0.706960
vn 0.000000 -0.707254 -0.706960
vn 0.000000 -0.707254 -0.706960
vn 0.000000 -0.707254 -0.706960
vn 0.647901 -0.761725 -0.000269
vn 0.647901 -0.761725 -0.000269
vn 0.647901 -0.761725 -0.000269
vn 0.647901 -0.761725 -0.000269
vn 0.665989 -0.000154 -0.745962
vn 0.665989 -0.000154 -0.745962
vn 0.665658 -0.000157 -0.746257
vn 0.665658 -0.000157 -0.746257
vn 0.657258 -0.000224 -0.753666
vn 0.657258 -0.000224 -0.753666
vn 0.657205 0.753712 0.000000
vn 0.657205 0.753712 0.000000
vn 0.657205 0.753712 0.000000
vn 0.657205 0.753712 0.000000
vn 0.657185 0.000000 -0.753729
vn 0.657185 0.000000 -0.753729
vn 0.657186 0.000000 -0.753729
vn 0.657186 0.000000 -0.753729
vn 0.657192 0.000000 -0.753723
vn 0.657192 0.000000 -0.753723
vn -0.657185 0.000000 -0.753729
vn -0.657185 0.000000 -0.753729
vn -0.657186 0.000000 -0.753729
vn -0.657186 0.000000 -0.753729
vn -0.657209 0.753709 0.000000
vn -0.657209 0.753709 0.000000
vn -0.657209 0.753709 0.000000
vn -0.657209 0.753709 0.000000
vn -0.657233 0.000252 0.753688
vn -0.657233 0.000252 0.753688
vn -0.657231 0.000251 0.753689
vn -0.657231 0.000251 0.753689
vn -0.657181 0.000215 0.753733
vn -0.657181 0.000215 0.753733
vn 0.657181 0.000214 0.753733
vn 0.657181 0.000214 0.753733
vn 0.657231 0.000251 0.753689
vn 0.657231 0.000251 0.753689
vn 0.657233 0.000252 0.753688
vn 0.657233 0.000252 0.753688
vn -0.657192 0.000000 -0.753723
vn -0.657192 0.000000 -0.753723
vn -1.000000 -0.000000 0.000000
vn -1.000000 -0.000000 0.000000
vn -1.000000 -0.000000 0.000000
vn -1.000000 -0.000000 0.000000
vn 1.000000 0.000001 0.000000
vn 1.000000 0.000000 0.000000
vn 1.000000 0.000000 0.000000
vn 1.000000 0.000001 0.000000
vn -1.000000 0.000000 0.000000
vn -1.000000 0.000000 0.000000
vn -1.000000 0.000000 0.000000
vn -1.000000 0.000000 0.000000
vn -1.000000 -0.000000 0.000000
vn -1.000000 -0.000000 0.000000
vn 1.000000 0.000000 0.000000
vn 1.000000 0.000000 0.000000
vn 1.000000 -0.000000 0.000000
vn 1.000000 -0.000000 0.000000
vn 1.000000 0.000001 0.000000
vn 1.000000 0.000001 0.000000
vn -1.000000 0.000000 0.000000
vn -1.000000 0.000000 0.000000
vn 1.000000 0.000000 0.000000
vn 1.000000 0.000000 0.000000
vn 0.000000 0.000281 1.000000
vn 0.000000 0.000333 1.000000
vn 0.000000 0.000333 1.000000
vn 0.000000 0.000281 1.000000
vn 0.000000 0.000335 1.000000
vn 0.000000 0.000335 1.000000
vn 0.000000 1.000000 0.000000
vn 0.000000 1.000000 0.000000
vn 0.000000 1.000000 0.000000
vn 0.000000 1.000000 0.000000
vn 0.000000 0.000000 -1.000000
vn 0.000000 0.000000 -1.000000
vn 0.000000 0.000000 -1.000000
vn 0.000000 0.000000 -1.000000
vn 0.000000 0.000000 -1.000000
vn 0.000000 0.000000 -1.000000
vn 0.000000 0.000000 1.000000
vn 0.000000 0.000000 1.000000
vn 0.000000 0.000000 1.000000
vn 0.000000 0.000000 1.000000
vn 0.000000 0.000000 1.000000
vn 0.000000 0.000000 1.000000
vn 0.000000 -0.000353 -1.000000
vn 0.000000 -0.000288 -1.000000
vn 0.000000 -0.000288 -1.000000
vn 0.000000 -0.000353 -1.000000
vn 0.000000 -0.000355 -1.000000
vn 0.000000 -0.000355 -1.000000
vn 0.000000 -1.000000 -0.000000
vn 0.000000 -1.000000 -0.000000
vn 0.000000 -1.000000 -0.000000
vn 0.000000 -1.000000 -0.000000
vn 0.879557 -0.336509 -0.336363
vn 0.879557 -0.336509 -0.336363
vn 0.879557 -0.336509 -0.336363
vn -0.879551 -0.336513 -0.336375
vn -0.879551 -0.336513 -0.336375
vn -0.879551 -0.336513 -0.336375
s off
g pCube101
usemtl Wallroom1:initialShadingGroup
f 45/51/1 46/52/2 2/53/3 1/54/4 43/55/5 44/56/6 42/57/7 41/58/8
f 49/59/9 50/60/10 34/61/11 33/62/12 47/63/13 48/64/14 10/65/15 9/66/16
s 1
f 1/38/17 2/32/18 3/27/19 4/30/20
f 4/30/20 3/27/19 22/26/21 23/31/22
s off
f 5/1/23 6/5/24 24/6/25 26/2/26
s 2
f 6/5/27 5/1/28 7/12/29 8/13/30
f 8/13/30 7/12/29 44/21/31 43/22/32
s 3
f 9/23/33 10/16/34 11/7/35 12/15/36
f 12/15/36 11/7/35 26/2/37 25/14/38
s off
f 14/72/39 13/75/40 25/76/41 24/73/42
f 15/37/43 14/39/44 23/31/45 22/26/46
s 4
f 13/44/47 15/37/48 16/42/49 17/46/50
f 17/46/50 16/42/49 50/48/51 49/50/52
s off
f 18/29/53 19/34/54 40/41/55 39/36/56
s 5
f 19/34/57 18/29/58 20/28/59 21/35/60
f 21/35/60 20/28/59 46/33/61 45/40/62
s 6
f 27/4/63 28/9/64 38/19/65 37/11/66
s off
f 28/9/67 27/4/68 29/3/69 30/10/70
s 7
f 30/10/71 29/3/72 31/8/73 32/18/74
f 32/18/74 31/8/73 48/17/75 47/24/76
s 8
f 33/49/77 34/47/78 35/43/79 36/45/80
f 36/45/80 35/43/79 39/36/81 40/41/82
s 6
f 37/11/66 38/19/65 41/25/83 42/20/84
s 9
f 5/1/85 26/2/86 29/3/87 27/4/88
s 10
f 22/26/89 3/27/90 20/28/91 18/29/92
s 9
f 5/1/85 27/4/88 37/11/93 7/12/94
f 31/8/95 11/7/96 10/16/97 48/17/98
s 10
f 16/42/99 35/43/100 34/47/101 50/48/102
f 22/26/89 18/29/92 39/36/103 15/37/104
s 9
f 7/12/94 37/11/93 42/20/105 44/21/106
s 10
f 20/28/91 3/27/90 2/32/107 46/33/108
s 9
f 29/3/87 26/2/86 11/7/96 31/8/95
s 10
f 16/42/99 15/37/104 39/36/103 35/43/100
s 12
f 33/77/109 36/78/110 32/79/111 47/80/112
f 36/78/110 40/81/113 30/82/114 32/79/111
s off
f 40/67/115 19/68/116 28/69/117 30/70/118
s 13
f 19/83/119 21/84/120 38/85/121 28/86/122
f 21/84/120 45/87/123 41/88/124 38/85/121
s 14
f 1/89/125 4/90/126 8/91/127 43/92/128
f 4/90/126 23/93/129 6/94/130 8/91/127
s 15
f 17/95/131 49/96/132 9/97/133 12/98/134
f 12/98/134 25/99/135 13/100/136 17/95/131
s off
f 23/71/137 14/72/138 24/73/139 6/74/140
f 13/44/141 14/39/142 15/37/143
f 24/6/144 25/14/145 26/2/146
