# This file uses centimeters as units for non-parametric coordinates.

mtllib sinkdrain.mtl
g default
v 0.431185 1.271575 -10.391328
v 0.414501 1.291551 -10.307450
v 0.421118 1.271575 -10.340715
v 0.414911 1.271575 -10.337491
v 0.425618 1.271575 -10.335362
v 0.402515 1.271575 -10.348421
v 0.395547 1.271575 -10.347817
v 0.404625 1.271575 -10.341752
v 0.383672 1.291551 -10.320220
v 0.441253 1.271575 -10.340715
v 0.436752 1.271575 -10.335362
v 0.447460 1.271575 -10.337491
v 0.447870 1.291551 -10.307450
v 0.459855 1.271575 -10.348421
v 0.457746 1.271575 -10.341752
v 0.466823 1.271575 -10.347818
v 0.478698 1.291551 -10.320220
v 0.474093 1.271575 -10.362658
v 0.474696 1.271575 -10.355690
v 0.480761 1.271575 -10.364768
v 0.502294 1.291551 -10.343815
v 0.481798 1.271575 -10.381261
v 0.485022 1.271575 -10.375054
v 0.487152 1.271575 -10.385761
v 0.515064 1.291551 -10.374644
v 0.481798 1.271575 -10.401396
v 0.487152 1.271575 -10.396895
v 0.485022 1.271575 -10.407603
v 0.515064 1.291551 -10.408013
v 0.474093 1.271575 -10.419998
v 0.480761 1.271575 -10.417889
v 0.474696 1.271575 -10.426966
v 0.502294 1.291551 -10.438841
v 0.459855 1.271575 -10.434236
v 0.466823 1.271575 -10.434839
v 0.457746 1.271575 -10.440904
v 0.478698 1.291551 -10.462437
v 0.441253 1.271575 -10.441941
v 0.447460 1.271575 -10.445165
v 0.436752 1.271575 -10.447295
v 0.447870 1.291551 -10.475206
v 0.421118 1.271575 -10.441941
v 0.425618 1.271575 -10.447295
v 0.414911 1.271575 -10.445165
v 0.414501 1.291551 -10.475206
v 0.402515 1.271575 -10.434236
v 0.404625 1.271575 -10.440904
v 0.395547 1.271575 -10.434839
v 0.383672 1.291551 -10.462437
v 0.388278 1.271575 -10.419998
v 0.387674 1.271575 -10.426966
v 0.381609 1.271575 -10.417889
v 0.360077 1.291551 -10.438841
v 0.380572 1.271575 -10.401396
v 0.377348 1.271575 -10.407603
v 0.375219 1.271575 -10.396895
v 0.347307 1.291551 -10.408013
v 0.380572 1.271575 -10.381261
v 0.375219 1.271575 -10.385761
v 0.377348 1.271575 -10.375054
v 0.347307 1.291551 -10.374644
v 0.388278 1.271575 -10.362658
v 0.381609 1.271575 -10.364768
v 0.387675 1.271575 -10.355690
v 0.360077 1.291551 -10.343815
v 0.417816 1.291551 -10.310127
v 0.421530 1.289777 -10.314808
v 0.440841 1.289777 -10.314808
v 0.444554 1.291551 -10.310127
v 0.410822 1.289777 -10.316937
v 0.412462 1.291551 -10.311192
v 0.387760 1.291551 -10.321424
v 0.392982 1.289777 -10.324327
v 0.449908 1.291551 -10.311192
v 0.451548 1.289777 -10.316937
v 0.469389 1.289777 -10.324327
v 0.474611 1.291551 -10.321424
v 0.479150 1.291551 -10.324457
v 0.478466 1.289777 -10.330393
v 0.492121 1.289777 -10.344047
v 0.498056 1.291551 -10.343364
v 0.501089 1.291551 -10.347903
v 0.498186 1.289777 -10.353125
v 0.505576 1.289777 -10.370965
v 0.511321 1.291551 -10.372605
v 0.512386 1.291551 -10.377959
v 0.507706 1.289777 -10.381673
v 0.507706 1.289777 -10.400983
v 0.512386 1.291551 -10.404697
v 0.511321 1.291551 -10.410051
v 0.505576 1.289777 -10.411691
v 0.498186 1.289777 -10.429532
v 0.501089 1.291551 -10.434754
v 0.498056 1.291551 -10.439293
v 0.492121 1.289777 -10.438609
v 0.478466 1.289777 -10.452264
v 0.479150 1.291551 -10.458199
v 0.474611 1.291551 -10.461232
v 0.469389 1.289777 -10.458329
v 0.451548 1.289777 -10.465719
v 0.449908 1.291551 -10.471464
v 0.444554 1.291551 -10.472529
v 0.440840 1.289777 -10.467849
v 0.421530 1.289777 -10.467849
v 0.417816 1.291551 -10.472529
v 0.412462 1.291551 -10.471464
v 0.410822 1.289777 -10.465719
v 0.392982 1.289777 -10.458329
v 0.387760 1.291551 -10.461232
v 0.383221 1.291551 -10.458199
v 0.383904 1.289777 -10.452264
v 0.370250 1.289777 -10.438609
v 0.364314 1.291551 -10.439293
v 0.361281 1.291551 -10.434754
v 0.364184 1.289777 -10.429532
v 0.356795 1.289777 -10.411691
v 0.351049 1.291551 -10.410051
v 0.349984 1.291551 -10.404697
v 0.354665 1.289777 -10.400983
v 0.354665 1.289777 -10.381673
v 0.349984 1.291551 -10.377959
v 0.351049 1.291551 -10.372605
v 0.356795 1.289777 -10.370965
v 0.364184 1.289777 -10.353125
v 0.361281 1.291551 -10.347903
v 0.383904 1.289777 -10.330393
v 0.383221 1.291551 -10.324457
v 0.364314 1.291551 -10.343364
v 0.370250 1.289777 -10.344047
v 0.408270 1.303400 -10.276123
v 0.454101 1.303400 -10.276123
v 0.496444 1.303400 -10.293662
v 0.528851 1.303400 -10.326070
v 0.546390 1.303400 -10.368413
v 0.546390 1.303400 -10.414244
v 0.528851 1.303400 -10.456587
v 0.496444 1.303400 -10.488994
v 0.454101 1.303400 -10.506533
v 0.408270 1.303400 -10.506533
v 0.365927 1.303400 -10.488994
v 0.333519 1.303400 -10.456586
v 0.315980 1.303400 -10.414244
v 0.315980 1.303400 -10.368413
v 0.333519 1.303400 -10.326070
v 0.365927 1.303400 -10.293662
v 0.411933 1.291551 -10.294541
v 0.409314 1.297475 -10.281375
v 0.450437 1.291551 -10.294541
v 0.453056 1.297475 -10.281375
v 0.486011 1.291551 -10.309276
v 0.493469 1.297475 -10.298114
v 0.513237 1.291551 -10.336503
v 0.524399 1.297475 -10.329045
v 0.527972 1.291551 -10.372076
v 0.541139 1.297475 -10.369457
v 0.527972 1.291551 -10.410580
v 0.541139 1.297475 -10.413199
v 0.513237 1.291551 -10.446154
v 0.524399 1.297475 -10.453612
v 0.486011 1.291551 -10.473380
v 0.493469 1.297475 -10.484542
v 0.450437 1.291551 -10.488115
v 0.453056 1.297475 -10.501282
v 0.411933 1.291551 -10.488115
v 0.409314 1.297475 -10.501282
v 0.376360 1.291551 -10.473380
v 0.368902 1.297475 -10.484542
v 0.349133 1.291551 -10.446154
v 0.337971 1.297475 -10.453612
v 0.334398 1.291551 -10.410580
v 0.321232 1.297475 -10.413199
v 0.334398 1.291551 -10.372076
v 0.321232 1.297475 -10.369457
v 0.349133 1.291551 -10.336503
v 0.337971 1.297475 -10.329045
v 0.376360 1.291551 -10.309276
v 0.368902 1.297475 -10.298114
vt 0.435960 0.404158
vt 0.522488 0.386946
vt 0.564040 0.404158
vt 0.595842 0.435960
vt 0.613054 0.477512
vt 0.613054 0.522488
vt 0.595842 0.564040
vt 0.564040 0.595842
vt 0.522488 0.613054
vt 0.477512 0.613054
vt 0.435960 0.595842
vt 0.404158 0.564040
vt 0.386946 0.522488
vt 0.386946 0.477512
vt 0.404158 0.435960
vt 0.500000 0.500000
vt 0.477512 0.386946
vt 0.463648 0.379745
vt 0.420395 0.402810
vt 0.512435 0.374987
vt 0.559328 0.389262
vt 0.597190 0.420395
vt 0.620255 0.463648
vt 0.625013 0.512435
vt 0.610738 0.559328
vt 0.579605 0.597190
vt 0.536352 0.620255
vt 0.487565 0.625012
vt 0.440672 0.610738
vt 0.402810 0.579605
vt 0.379745 0.536352
vt 0.374987 0.487565
vt 0.389262 0.440672
vt 0.487565 0.374987
vt 0.544851 0.147218
vt 0.406433 0.156908
vt 0.440672 0.389262
vt 0.536352 0.379745
vt 0.676441 0.191236
vt 0.579605 0.402810
vt 0.781169 0.282260
vt 0.610738 0.440672
vt 0.843092 0.406433
vt 0.625012 0.487565
vt 0.852782 0.544851
vt 0.620255 0.536352
vt 0.808764 0.676441
vt 0.597190 0.579605
vt 0.717740 0.781169
vt 0.559328 0.610738
vt 0.593567 0.843092
vt 0.512435 0.625013
vt 0.455149 0.852782
vt 0.463648 0.620255
vt 0.323559 0.808764
vt 0.420395 0.597190
vt 0.218831 0.717740
vt 0.389262 0.559328
vt 0.156908 0.593567
vt 0.374988 0.512434
vt 0.147218 0.455149
vt 0.379745 0.463648
vt 0.191236 0.323559
vt 0.402810 0.420395
vt 0.282260 0.218831
vt 0.455149 0.147218
vt 0.563842 0.112231
vt 0.410589 0.117317
vt 0.323559 0.191236
vt 0.593567 0.156908
vt 0.707375 0.166179
vt 0.717740 0.218831
vt 0.819337 0.270948
vt 0.808764 0.323559
vt 0.882684 0.410589
vt 0.852782 0.455149
vt 0.887769 0.563842
vt 0.843091 0.593567
vt 0.833821 0.707375
vt 0.781169 0.717740
vt 0.729052 0.819337
vt 0.676441 0.808764
vt 0.589411 0.882683
vt 0.544851 0.852782
vt 0.436158 0.887769
vt 0.406433 0.843091
vt 0.292625 0.833821
vt 0.282260 0.781169
vt 0.180663 0.729051
vt 0.191236 0.676440
vt 0.117317 0.589411
vt 0.147218 0.544851
vt 0.112230 0.436158
vt 0.156909 0.406433
vt 0.166179 0.292625
vt 0.270948 0.180663
vt 0.218831 0.282260
vt 0.400544 -0.000000
vt 0.216773 0.076120
vt 0.599456 0.000000
vt 0.783227 0.076120
vt 0.923880 0.216773
vt 1.000000 0.400544
vt 1.000000 0.599456
vt 0.923880 0.783227
vt 0.783227 0.923880
vt 0.599456 1.000000
vt 0.400544 1.000000
vt 0.216773 0.923879
vt 0.076120 0.783227
vt -0.000000 0.599456
vt 0.000000 0.400544
vt 0.076121 0.216773
vt 0.591937 0.037802
vt 0.579675 0.099446
vt 0.436158 0.112230
vt 0.761814 0.108167
vt 0.726896 0.160427
vt 0.589411 0.117317
vt 0.891833 0.238186
vt 0.839573 0.273104
vt 0.729052 0.180663
vt 0.962198 0.408063
vt 0.900554 0.420325
vt 0.833821 0.292625
vt 0.962198 0.591937
vt 0.900554 0.579675
vt 0.887770 0.436158
vt 0.891833 0.761814
vt 0.839573 0.726896
vt 0.882683 0.589411
vt 0.761814 0.891833
vt 0.726896 0.839573
vt 0.819337 0.729052
vt 0.591937 0.962198
vt 0.579675 0.900554
vt 0.707375 0.833821
vt 0.408063 0.962198
vt 0.420325 0.900554
vt 0.563842 0.887769
vt 0.238186 0.891833
vt 0.273104 0.839573
vt 0.410589 0.882683
vt 0.108167 0.761814
vt 0.160427 0.726896
vt 0.270948 0.819337
vt 0.037802 0.591937
vt 0.099446 0.579675
vt 0.166179 0.707375
vt 0.037802 0.408063
vt 0.099446 0.420325
vt 0.112231 0.563842
vt 0.108167 0.238185
vt 0.160427 0.273104
vt 0.117317 0.410589
vt 0.238186 0.108167
vt 0.273104 0.160426
vt 0.180663 0.270948
vt 0.408063 0.037802
vt 0.420325 0.099446
vt 0.292625 0.166179
vt 0.000000 0.499950
vt 1.000000 0.499950
vt 1.000000 1.000000
vt 0.000000 1.000000
vt 0.000000 0.499950
vt 1.000000 0.499950
vt 1.000000 1.000000
vt 0.000000 1.000000
vt 0.000000 0.499950
vt 1.000000 0.499950
vt 1.000000 1.000000
vt 0.000000 1.000000
vt 0.000000 0.499950
vt 1.000000 0.499950
vt 1.000000 1.000000
vt 0.000000 1.000000
vt 0.000000 0.499950
vt 1.000000 0.499950
vt 1.000000 1.000000
vt 0.000000 1.000000
vt 0.000000 0.499950
vt 1.000000 0.499950
vt 1.000000 1.000000
vt 0.000000 1.000000
vt 0.000000 0.499950
vt 1.000000 0.499950
vt 1.000000 1.000000
vt 0.000000 1.000000
vt 0.000000 0.499950
vt 1.000000 0.499950
vt 1.000000 1.000000
vt 0.000000 1.000000
vt 0.000000 0.499950
vt 1.000000 0.499950
vt 1.000000 1.000000
vt 0.000000 1.000000
vt 0.000000 0.499950
vt 1.000000 0.499950
vt 1.000000 1.000000
vt 0.000000 1.000000
vt 0.000000 0.499950
vt 1.000000 0.499950
vt 1.000000 1.000000
vt 0.000000 1.000000
vt 0.000000 0.499950
vt 1.000000 0.499950
vt 1.000000 1.000000
vt 0.000000 1.000000
vt 0.000000 0.499950
vt 1.000000 0.499950
vt 1.000000 1.000000
vt 0.000000 1.000000
vt 0.000000 0.499950
vt 1.000000 0.499950
vt 1.000000 1.000000
vt 0.000000 1.000000
vt 0.000000 0.499950
vt 1.000000 0.499950
vt 1.000000 1.000000
vt 0.000000 1.000000
vt 0.000000 0.499950
vt 1.000000 0.499950
vt 1.000000 1.000000
vt 0.000000 1.000000
vn 0.221361 0.815721 -0.534414
vn 0.221361 0.815721 -0.534414
vn 0.093760 0.969521 -0.226358
vn 0.093760 0.969521 -0.226358
vn 0.000000 0.969521 -0.245008
vn 0.000000 0.815721 -0.578445
vn 0.000000 0.815721 -0.578445
vn 0.000000 0.969521 -0.245008
vn -0.093761 0.969521 -0.226358
vn -0.221361 0.815721 -0.534413
vn -0.221362 0.815721 -0.534414
vn -0.093761 0.969521 -0.226358
vn -0.173247 0.969521 -0.173247
vn -0.409022 0.815722 -0.409022
vn -0.409022 0.815722 -0.409022
vn -0.173247 0.969521 -0.173247
vn -0.226358 0.969521 -0.093761
vn -0.534413 0.815721 -0.221362
vn -0.534413 0.815722 -0.221362
vn -0.226358 0.969521 -0.093761
vn -0.245008 0.969521 0.000000
vn -0.578445 0.815721 0.000000
vn -0.578445 0.815721 0.000000
vn -0.245008 0.969521 0.000000
vn -0.226358 0.969521 0.093761
vn -0.534413 0.815721 0.221362
vn -0.534413 0.815721 0.221362
vn -0.226358 0.969521 0.093761
vn -0.173247 0.969521 0.173247
vn -0.409022 0.815722 0.409022
vn -0.409022 0.815722 0.409022
vn -0.173247 0.969521 0.173247
vn -0.093761 0.969521 0.226358
vn -0.221362 0.815721 0.534413
vn -0.221362 0.815721 0.534413
vn -0.093761 0.969521 0.226358
vn 0.000000 0.969521 0.245008
vn 0.000000 0.815721 0.578445
vn 0.000000 0.815721 0.578445
vn 0.000000 0.969521 0.245008
vn 0.093761 0.969521 0.226358
vn 0.221362 0.815721 0.534413
vn 0.221362 0.815721 0.534413
vn 0.093761 0.969521 0.226358
vn 0.173247 0.969521 0.173247
vn 0.409022 0.815721 0.409023
vn 0.409022 0.815721 0.409023
vn 0.173247 0.969521 0.173247
vn 0.226358 0.969521 0.093761
vn 0.534414 0.815721 0.221361
vn 0.534414 0.815721 0.221361
vn 0.226358 0.969521 0.093761
vn 0.245008 0.969521 -0.000000
vn 0.578445 0.815721 -0.000000
vn 0.578445 0.815721 -0.000000
vn 0.245008 0.969521 -0.000000
vn 0.226358 0.969521 -0.093761
vn 0.534413 0.815721 -0.221362
vn 0.534413 0.815721 -0.221362
vn 0.226358 0.969521 -0.093761
vn 0.173247 0.969521 -0.173247
vn 0.409023 0.815721 -0.409022
vn 0.409023 0.815721 -0.409022
vn 0.173247 0.969521 -0.173247
vn 0.000000 1.000000 0.000000
vn -0.000000 1.000000 -0.000000
vn -0.000000 1.000000 0.000000
vn 0.000000 1.000000 0.000000
vn -0.000000 1.000000 -0.000000
vn -0.000000 1.000000 -0.000000
vn -0.000000 1.000000 0.000000
vn -0.000000 1.000000 0.000000
vn -0.000000 1.000000 0.000000
vn -0.000000 1.000000 0.000000
vn -0.000000 1.000000 0.000000
vn 0.000000 1.000000 0.000000
vn 0.000000 1.000000 -0.000000
vn 0.000000 1.000000 0.000000
vn 0.000000 1.000000 0.000000
vn 0.000000 1.000000 0.000000
vn 0.000000 1.000000 0.000000
vn 0.000000 0.999651 -0.026433
vn 0.000000 0.999651 -0.026433
vn 0.010115 0.999651 -0.024421
vn 0.010115 0.999651 -0.024421
vn -0.010115 0.999651 -0.024421
vn -0.010115 0.999651 -0.024421
vn -0.018691 0.999651 -0.018691
vn -0.018691 0.999651 -0.018691
vn -0.024421 0.999651 -0.010116
vn -0.024421 0.999651 -0.010115
vn -0.026433 0.999651 0.000000
vn -0.026433 0.999651 0.000000
vn -0.024421 0.999651 0.010115
vn -0.024421 0.999651 0.010116
vn -0.018691 0.999651 0.018691
vn -0.018691 0.999651 0.018691
vn -0.010115 0.999651 0.024421
vn -0.010115 0.999651 0.024421
vn 0.000000 0.999651 0.026433
vn 0.000000 0.999651 0.026433
vn 0.010115 0.999651 0.024421
vn 0.010115 0.999651 0.024421
vn 0.018691 0.999651 0.018691
vn 0.018691 0.999651 0.018691
vn 0.024421 0.999651 0.010116
vn 0.024421 0.999651 0.010115
vn 0.026433 0.999651 -0.000000
vn 0.026433 0.999651 -0.000000
vn 0.024421 0.999651 -0.010115
vn 0.024421 0.999651 -0.010116
vn 0.018691 0.999651 -0.018691
vn 0.018691 0.999651 -0.018691
vn 0.046709 0.970915 -0.234823
vn 0.108829 0.829949 -0.547120
vn -0.108829 0.829949 -0.547120
vn -0.046709 0.970915 -0.234823
vn 0.133016 0.970915 -0.199073
vn 0.309919 0.829949 -0.463826
vn -0.309919 0.829949 -0.463826
vn -0.133016 0.970915 -0.199073
vn -0.463826 0.829949 -0.309919
vn -0.199073 0.970915 -0.133016
vn -0.547120 0.829949 -0.108829
vn -0.234823 0.970915 -0.046709
vn -0.547120 0.829949 0.108829
vn -0.234823 0.970915 0.046709
vn -0.463826 0.829949 0.309919
vn -0.199073 0.970915 0.133016
vn -0.309919 0.829949 0.463826
vn -0.133016 0.970915 0.199073
vn -0.108829 0.829949 0.547120
vn -0.046709 0.970915 0.234823
vn 0.108829 0.829949 0.547120
vn 0.046709 0.970915 0.234823
vn 0.309919 0.829949 0.463826
vn 0.133016 0.970915 0.199073
vn 0.463826 0.829949 0.309919
vn 0.199073 0.970915 0.133016
vn 0.547120 0.829949 0.108829
vn 0.234823 0.970915 0.046709
vn 0.547120 0.829949 -0.108829
vn 0.234823 0.970915 -0.046709
vn 0.463826 0.829949 -0.309919
vn 0.199073 0.970915 -0.133016
vn 0.000000 1.000000 0.000000
vn -0.000000 1.000000 0.000000
vn 0.000000 1.000000 0.000000
vn 0.000000 1.000000 0.000000
vn 0.000000 1.000000 0.000000
vn 0.000000 1.000000 -0.000000
vn 0.000000 1.000000 -0.000000
vn 0.000000 1.000000 -0.000000
vn 0.000000 1.000000 -0.000000
vn -0.000000 1.000000 -0.000000
vn -0.000000 1.000000 -0.000000
vn -0.000000 1.000000 -0.000000
vn -0.000000 1.000000 -0.000000
vn -0.000000 1.000000 0.000000
vn -0.000000 1.000000 0.000000
vn -0.000000 1.000000 0.000000
vn 0.144744 0.670474 -0.727677
vn -0.144744 0.670474 -0.727677
vn -0.412196 0.670474 -0.616895
vn -0.616894 0.670475 -0.412196
vn -0.727676 0.670475 -0.144744
vn -0.727677 0.670474 0.144744
vn -0.616895 0.670474 0.412196
vn -0.412196 0.670474 0.616895
vn -0.144744 0.670474 0.727677
vn 0.144744 0.670474 0.727677
vn 0.412196 0.670474 0.616895
vn 0.616895 0.670474 0.412196
vn 0.727677 0.670474 0.144744
vn 0.727677 0.670474 -0.144744
vn 0.616895 0.670474 -0.412196
vn 0.412196 0.670474 -0.616895
s 1
g pDisc1
usemtl initialShadingGroup
f 73/69/1 70/36/2 4/18/3 8/37/4
f 5/34/5 67/66/6 68/35/7 11/20/8
f 12/38/9 75/70/10 76/39/11 15/21/12
f 16/40/13 79/72/14 80/41/15 19/22/16
f 20/42/17 83/74/18 84/43/19 23/23/20
f 24/44/21 87/76/22 88/45/23 27/24/24
f 28/46/25 91/78/26 92/47/27 31/25/28
f 32/48/29 95/80/30 96/49/31 35/26/32
f 36/50/33 99/82/34 100/51/35 39/27/36
f 40/52/37 103/84/38 104/53/39 43/28/40
f 44/54/41 107/86/42 108/55/43 47/29/44
f 48/56/45 111/88/46 112/57/47 51/30/48
f 52/58/49 115/90/50 116/59/51 55/31/52
f 56/60/53 119/92/54 120/61/55 59/32/56
f 60/62/57 123/94/58 124/63/59 63/33/60
f 64/64/61 129/97/62 126/65/63 7/19/64
f 3/17/65 5/34/5 11/20/8 10/2/66 1/16/67
f 6/1/68 8/37/4 4/18/3 3/17/65 1/16/67
f 10/2/66 12/38/9 15/21/12 14/3/69 1/16/67
f 14/3/69 16/40/13 19/22/16 18/4/70 1/16/67
f 18/4/70 20/42/17 23/23/20 22/5/71 1/16/67
f 22/5/71 24/44/21 27/24/24 26/6/72 1/16/67
f 26/6/72 28/46/25 31/25/28 30/7/73 1/16/67
f 30/7/73 32/48/29 35/26/32 34/8/74 1/16/67
f 34/8/74 36/50/33 39/27/36 38/9/75 1/16/67
f 38/9/75 40/52/37 43/28/40 42/10/76 1/16/67
f 42/10/76 44/54/41 47/29/44 46/11/77 1/16/67
f 46/11/77 48/56/45 51/30/48 50/12/78 1/16/67
f 50/12/78 52/58/49 55/31/52 54/13/79 1/16/67
f 54/13/79 56/60/53 59/32/56 58/14/80 1/16/67
f 58/14/80 60/62/57 63/33/60 62/15/81 1/16/67
f 62/15/81 64/64/61 7/19/64 6/1/68 1/16/67
f 67/66/6 66/116/82 69/67/83 68/35/7
f 71/68/84 70/36/2 73/69/1 72/161/85
f 75/70/10 74/119/86 77/71/87 76/39/11
f 79/72/14 78/122/88 81/73/89 80/41/15
f 83/74/18 82/125/90 85/75/91 84/43/19
f 87/76/22 86/128/92 89/77/93 88/45/23
f 91/78/26 90/131/94 93/79/95 92/47/27
f 95/80/30 94/134/96 97/81/97 96/49/31
f 99/82/34 98/137/98 101/83/99 100/51/35
f 103/84/38 102/140/100 105/85/101 104/53/39
f 107/86/42 106/143/102 109/87/103 108/55/43
f 111/88/46 110/146/104 113/89/105 112/57/47
f 115/90/50 114/149/106 117/91/107 116/59/51
f 119/92/54 118/152/108 121/93/109 120/61/55
f 123/94/58 122/155/110 125/95/111 124/63/59
f 127/96/112 126/65/63 129/97/62 128/158/113
f 146/159/114 147/98/115 149/100/116 148/114/117
f 147/98/115 146/159/114 176/156/118 177/99/119
f 148/114/117 149/100/116 151/101/120 150/117/121
f 150/117/121 151/101/120 153/102/122 152/120/123
f 152/120/123 153/102/122 155/103/124 154/123/125
f 154/123/125 155/103/124 157/104/126 156/126/127
f 156/126/127 157/104/126 159/105/128 158/129/129
f 158/129/129 159/105/128 161/106/130 160/132/131
f 160/132/131 161/106/130 163/107/132 162/135/133
f 162/135/133 163/107/132 165/108/134 164/138/135
f 164/138/135 165/108/134 167/109/136 166/141/137
f 166/141/137 167/109/136 169/110/138 168/144/139
f 168/144/139 169/110/138 171/111/140 170/147/141
f 170/147/141 171/111/140 173/112/142 172/150/143
f 172/150/143 173/112/142 175/113/144 174/153/145
f 174/153/145 175/113/144 177/99/119 176/156/118
f 146/159/114 148/114/117 13/115/146 69/67/83 66/116/82 2/160/147
f 148/114/117 150/117/121 17/118/148 77/71/87 74/119/86 13/115/146
f 150/117/121 152/120/123 21/121/149 81/73/89 78/122/88 17/118/148
f 152/120/123 154/123/125 25/124/150 85/75/91 82/125/90 21/121/149
f 154/123/125 156/126/127 29/127/151 89/77/93 86/128/92 25/124/150
f 156/126/127 158/129/129 33/130/152 93/79/95 90/131/94 29/127/151
f 158/129/129 160/132/131 37/133/153 97/81/97 94/134/96 33/130/152
f 160/132/131 162/135/133 41/136/154 101/83/99 98/137/98 37/133/153
f 162/135/133 164/138/135 45/139/155 105/85/101 102/140/100 41/136/154
f 164/138/135 166/141/137 49/142/156 109/87/103 106/143/102 45/139/155
f 166/141/137 168/144/139 53/145/157 113/89/105 110/146/104 49/142/156
f 168/144/139 170/147/141 57/148/158 117/91/107 114/149/106 53/145/157
f 170/147/141 172/150/143 61/151/159 121/93/109 118/152/108 57/148/158
f 172/150/143 174/153/145 65/154/160 125/95/111 122/155/110 61/151/159
f 174/153/145 176/156/118 9/157/161 127/96/112 128/158/113 65/154/160
f 176/156/118 146/159/114 2/160/147 71/68/84 72/161/85 9/157/161
f 149/162/116 147/163/115 130/164/162 131/165/163
f 151/166/120 149/167/116 131/168/163 132/169/164
f 153/170/122 151/171/120 132/172/164 133/173/165
f 155/174/124 153/175/122 133/176/165 134/177/166
f 157/178/126 155/179/124 134/180/166 135/181/167
f 159/182/128 157/183/126 135/184/167 136/185/168
f 161/186/130 159/187/128 136/188/168 137/189/169
f 163/190/132 161/191/130 137/192/169 138/193/170
f 165/194/134 163/195/132 138/196/170 139/197/171
f 167/198/136 165/199/134 139/200/171 140/201/172
f 169/202/138 167/203/136 140/204/172 141/205/173
f 171/206/140 169/207/138 141/208/173 142/209/174
f 173/210/142 171/211/140 142/212/174 143/213/175
f 175/214/144 173/215/142 143/216/175 144/217/176
f 177/218/119 175/219/144 144/220/176 145/221/177
f 147/222/115 177/223/119 145/224/177 130/225/162
