# This file uses centimeters as units for non-parametric coordinates.

mtllib windowframe.mtl
g default
v -7.639030 1.954754 -2.401395
v -7.656058 1.937726 -2.384367
v -7.656058 1.937726 -5.448609
v -7.639030 1.954754 -5.431581
v -7.656058 1.814436 -2.401395
v -7.639030 1.797408 -2.401395
v -7.656058 1.814436 -5.431581
v -7.639030 1.797408 -5.431581
v -7.656058 1.814436 -2.229089
v -7.639030 1.797408 -2.212061
v -7.656058 1.954754 -2.229089
v -7.639030 1.954754 -2.212061
v -7.656058 1.814436 -5.603888
v -7.639030 1.797408 -5.620915
v -7.639030 1.954754 -5.620915
v -7.656058 1.954754 -5.603888
v -7.412691 1.797408 -2.401395
v -7.395663 1.814436 -2.401395
v -7.395663 1.814436 -5.431581
v -7.412691 1.797408 -5.431581
v -7.395663 1.937726 -2.384367
v -7.412691 1.954754 -2.401395
v -7.412691 1.954754 -5.431581
v -7.395663 1.937726 -5.448609
v -7.412691 1.954754 -2.212061
v -7.395663 1.954754 -2.229089
v -7.395663 1.814436 -2.229089
v -7.412691 1.797408 -2.212061
v -7.395663 1.814436 -5.603888
v -7.412691 1.797408 -5.620915
v -7.395663 1.954754 -5.603888
v -7.412691 1.954754 -5.620915
v -7.656058 4.697646 -2.401395
v -7.639030 4.714674 -2.401395
v -7.656058 4.697646 -5.431581
v -7.639030 4.714674 -5.431581
v -7.656058 4.574356 -2.384367
v -7.639030 4.557328 -2.401395
v -7.639030 4.557328 -5.431581
v -7.656058 4.574356 -5.448609
v -7.656058 4.697646 -2.229089
v -7.639030 4.714674 -2.212061
v -7.639030 4.557328 -2.212061
v -7.656058 4.557328 -2.229089
v -7.656058 4.697646 -5.603888
v -7.639030 4.714674 -5.620915
v -7.656058 4.557328 -5.603888
v -7.639030 4.557328 -5.620915
v -7.412691 4.557328 -2.401395
v -7.395663 4.574356 -2.384367
v -7.395663 4.574356 -5.448609
v -7.412691 4.557328 -5.431581
v -7.395663 4.697646 -2.401395
v -7.412691 4.714674 -2.401395
v -7.412691 4.714674 -5.431581
v -7.395663 4.697646 -5.431581
v -7.395663 4.697646 -2.229089
v -7.412691 4.714674 -2.212061
v -7.395663 4.557328 -2.229089
v -7.412691 4.557328 -2.212061
v -7.412691 4.557328 -5.620915
v -7.395663 4.557328 -5.603888
v -7.395663 4.697646 -5.603888
v -7.412691 4.714674 -5.620915
vt 0.453864 0.473072
vt 0.435919 0.470594
vt 0.435919 0.029549
vt 0.453864 0.027071
vt 0.456343 0.495673
vt 0.435919 0.495673
vt 0.433441 0.470594
vt 0.433441 0.029549
vt 0.435919 0.004470
vt 0.456343 0.004470
vt 0.456343 0.470594
vt 0.456343 0.029549
vt 0.837627 0.473072
vt 0.835148 0.495673
vt 0.456343 0.498152
vt 0.433441 0.498152
vt 0.433441 0.001992
vt 0.456343 0.001992
vt 0.835148 0.004470
vt 0.837627 0.027071
vt 0.835148 0.470594
vt 0.835148 0.029549
vt 0.855572 0.470594
vt 0.855572 0.495673
vt 0.835148 0.498152
vt 0.835148 0.001992
vt 0.855572 0.029549
vt 0.855572 0.004470
vt 0.858050 0.470594
vt 0.858050 0.498152
vt 0.858050 0.001992
vt 0.858050 0.029549
vt 0.022268 0.027071
vt 0.022268 0.473072
vt 0.004323 0.470594
vt 0.004323 0.029550
vt 0.024747 0.029550
vt 0.024747 0.470594
vt 0.024747 0.495673
vt 0.004323 0.495673
vt 0.001845 0.029550
vt 0.001845 0.470594
vt 0.004323 0.004470
vt 0.024747 0.004470
vt 0.406030 0.027071
vt 0.403552 0.029550
vt 0.403552 0.470594
vt 0.406030 0.473072
vt 0.403552 0.495673
vt 0.001845 0.498152
vt 0.024747 0.498152
vt 0.001845 0.001992
vt 0.024747 0.001992
vt 0.403552 0.004470
vt 0.423975 0.470594
vt 0.423975 0.495673
vt 0.403552 0.498152
vt 0.403552 0.001992
vt 0.423975 0.004470
vt 0.423975 0.029550
vt 0.426454 0.470594
vt 0.426454 0.498152
vt 0.426454 0.001992
vt 0.426454 0.029550
vt 0.864856 0.470594
vt 0.864856 0.029550
vt 0.897800 0.029550
vt 0.897800 0.470594
vt 0.864856 0.001992
vt 0.897800 0.001992
vt 0.864856 0.498152
vt 0.897800 0.498152
vt 0.852768 0.942893
vt 0.852768 0.501848
vt 0.885711 0.501848
vt 0.885711 0.942893
vt 0.814142 0.942893
vt 0.814142 0.501848
vt 0.847085 0.501848
vt 0.847085 0.942893
vt 0.891394 0.970451
vt 0.891394 0.529406
vt 0.924338 0.529406
vt 0.924338 0.970451
vt 0.891394 0.501848
vt 0.924338 0.501848
vt 0.891394 0.998008
vt 0.924338 0.998008
vt 0.775515 0.524750
vt 0.775515 0.501848
vt 0.808459 0.501848
vt 0.808459 0.524750
vt 0.808459 0.903555
vt 0.775515 0.903555
vt 0.775515 0.926457
vt 0.808459 0.926457
vt 0.736889 0.926457
vt 0.736889 0.903555
vt 0.769833 0.903555
vt 0.769833 0.926457
vt 0.736889 0.524750
vt 0.769833 0.524750
vt 0.736889 0.501848
vt 0.769833 0.501848
vt 0.698263 0.501848
vt 0.731207 0.501848
vt 0.731207 0.880654
vt 0.698263 0.880654
vt 0.692581 0.880654
vt 0.659637 0.880654
vt 0.659637 0.501848
vt 0.692581 0.501848
vn -0.707103 0.000000 -0.707111
vn -0.707103 0.000000 -0.707111
vn -0.707103 0.000000 -0.707111
vn -0.707103 0.000000 -0.707111
vn -0.707096 0.707117 0.000000
vn -0.707096 0.707117 0.000000
vn -0.707096 0.707117 0.000000
vn -0.707096 0.707117 0.000000
vn -0.707107 0.000000 0.707107
vn -0.707107 0.000000 0.707107
vn -0.707107 0.000000 0.707107
vn -0.707107 0.000000 0.707107
vn -0.707109 -0.707105 0.000000
vn -0.707109 -0.707105 0.000000
vn -0.707107 -0.707106 0.000000
vn -0.707107 -0.707106 0.000000
vn -0.707109 -0.707104 0.000000
vn -0.707109 -0.707104 0.000000
vn -0.707114 -0.707100 0.000000
vn -0.707114 -0.707100 0.000000
vn -0.707105 0.000000 0.707109
vn -0.707105 0.000000 0.707109
vn -0.707107 0.000000 0.707107
vn -0.707107 0.000000 0.707107
vn -0.707107 0.000000 0.707107
vn -0.707107 0.000000 0.707107
vn -0.707105 0.000000 -0.707109
vn -0.707105 0.000000 -0.707109
vn -0.707107 0.000000 -0.707107
vn -0.707107 0.000000 -0.707107
vn -0.707107 0.000000 -0.707107
vn -0.707107 0.000000 -0.707107
vn 0.707109 -0.707104 0.000000
vn 0.707109 -0.707104 0.000000
vn 0.707114 -0.707100 0.000000
vn 0.707114 -0.707100 0.000000
vn 0.707109 -0.707104 0.000000
vn 0.707109 -0.707104 0.000000
vn 0.707114 -0.707100 0.000000
vn 0.707114 -0.707100 0.000000
vn 0.707103 0.000000 -0.707111
vn 0.707103 0.000000 -0.707111
vn 0.707103 0.000000 -0.707111
vn 0.707103 0.000000 -0.707111
vn 0.707096 0.707117 0.000000
vn 0.707096 0.707117 0.000000
vn 0.707096 0.707117 0.000000
vn 0.707096 0.707117 0.000000
vn 0.707107 0.000000 0.707107
vn 0.707107 0.000000 0.707107
vn 0.707107 0.000000 0.707107
vn 0.707107 0.000000 0.707107
vn 0.707107 0.000000 0.707107
vn 0.707107 0.000000 0.707107
vn 0.707107 0.000000 0.707107
vn 0.707107 0.000000 0.707107
vn 0.707105 0.000000 0.707109
vn 0.707105 0.000000 0.707109
vn 0.707105 0.000000 -0.707109
vn 0.707105 0.000000 -0.707109
vn 0.707107 0.000000 -0.707107
vn 0.707107 0.000000 -0.707107
vn 0.707107 0.000000 -0.707107
vn 0.707107 0.000000 -0.707107
vn -0.707107 0.707107 0.000000
vn -0.707107 0.707107 0.000000
vn -0.707107 0.707107 0.000000
vn -0.707107 0.707107 0.000000
vn -0.707111 0.707102 0.000000
vn -0.707112 0.707102 0.000000
vn -0.707104 0.707109 0.000000
vn -0.707104 0.707109 0.000000
vn -0.707094 -0.707120 0.000000
vn -0.707094 -0.707120 0.000000
vn -0.707094 -0.707120 0.000000
vn -0.707094 -0.707120 0.000000
vn -0.707105 0.000000 0.707109
vn -0.707105 0.000000 0.707109
vn -0.707105 0.000000 -0.707109
vn -0.707105 0.000000 -0.707109
vn 0.707094 -0.707120 0.000000
vn 0.707094 -0.707120 0.000000
vn 0.707094 -0.707120 0.000000
vn 0.707094 -0.707120 0.000000
vn 0.707107 0.707107 0.000000
vn 0.707107 0.707107 0.000000
vn 0.707112 0.707102 0.000000
vn 0.707112 0.707102 0.000000
vn 0.707107 0.707107 0.000000
vn 0.707107 0.707107 0.000000
vn 0.707111 0.707102 0.000000
vn 0.707111 0.707102 0.000000
vn 0.707105 0.000000 0.707109
vn 0.707105 0.000000 0.707109
vn 0.707105 0.000000 -0.707109
vn 0.707105 0.000000 -0.707109
vn 1.000000 -0.000002 0.000000
vn 1.000000 -0.000005 0.000000
vn 1.000000 -0.000005 0.000000
vn 1.000000 -0.000002 0.000000
vn 1.000000 0.000000 0.000000
vn 1.000000 0.000000 0.000000
vn 1.000000 0.000000 0.000000
vn 1.000000 0.000000 0.000000
vn -1.000000 -0.000002 0.000000
vn -1.000000 -0.000002 0.000000
vn -1.000000 -0.000004 0.000000
vn -1.000000 -0.000004 0.000000
vn -1.000000 -0.000000 0.000000
vn -1.000000 -0.000000 0.000000
vn -1.000000 -0.000000 0.000000
vn -1.000000 -0.000000 0.000000
vn 0.000000 -1.000000 0.000000
vn 0.000000 -1.000000 0.000000
vn 0.000000 -1.000000 0.000000
vn 0.000000 -1.000000 0.000000
vn 0.000000 1.000000 0.000000
vn 0.000000 1.000000 0.000000
vn 0.000000 1.000000 0.000000
vn 0.000000 1.000000 0.000000
vn 0.000000 0.000000 1.000000
vn 0.000000 0.000000 1.000000
vn 0.000000 0.000000 1.000000
vn 0.000000 0.000000 1.000000
vn 0.000000 -1.000000 0.000000
vn 0.000000 -1.000000 0.000000
vn 0.000000 -1.000000 0.000000
vn 0.000000 -1.000000 0.000000
vn 0.000000 0.000000 -1.000000
vn 0.000000 0.000000 -1.000000
vn 0.000000 0.000000 -1.000000
vn 0.000000 0.000000 -1.000000
vn 1.000000 0.000005 0.000000
vn 1.000000 0.000002 0.000000
vn 1.000000 0.000002 0.000000
vn 1.000000 0.000005 0.000000
vn 1.000000 0.000000 0.000000
vn 1.000000 0.000000 0.000000
vn 1.000000 0.000000 0.000000
vn 1.000000 0.000000 0.000000
vn -1.000000 0.000004 0.000000
vn -1.000000 0.000004 0.000000
vn -1.000000 0.000002 0.000000
vn -1.000000 0.000002 0.000000
vn -1.000000 0.000000 0.000000
vn -1.000000 0.000000 0.000000
vn -1.000000 0.000000 0.000000
vn -1.000000 0.000000 0.000000
vn 0.000000 -1.000000 0.000000
vn 0.000000 -1.000000 0.000000
vn 0.000000 -1.000000 0.000000
vn 0.000000 -1.000000 0.000000
vn 0.000000 1.000000 0.000000
vn 0.000000 1.000000 0.000000
vn 0.000000 1.000000 0.000000
vn 0.000000 1.000000 0.000000
vn 0.000000 1.000000 0.000000
vn 0.000000 1.000000 0.000000
vn 0.000000 0.000000 1.000000
vn 0.000000 0.000000 1.000000
vn 0.000000 0.000000 1.000000
vn 0.000000 0.000000 1.000000
vn 0.000000 0.000000 -1.000000
vn 0.000000 0.000000 -1.000000
vn 0.000000 0.000000 -1.000000
vn 0.000000 0.000000 -1.000000
vn 0.000000 1.000000 0.000000
vn 0.000000 1.000000 0.000000
vn 0.000000 0.000000 1.000000
vn 0.000000 0.000000 1.000000
vn 0.000000 0.000000 1.000000
vn 0.000000 0.000000 1.000000
vn 0.000000 0.000000 -1.000000
vn 0.000000 0.000000 -1.000000
vn 0.000000 0.000000 -1.000000
vn 0.000000 0.000000 -1.000000
s off
g polySurface13
usemtl initialShadingGroup
f 1/37/1 2/33/2 37/45/3 38/46/4
f 2/33/5 1/37/6 4/38/7 3/34/8
f 3/34/9 4/38/10 39/47/11 40/48/12
s 1
f 5/36/13 6/41/14 10/52/15 9/43/16
f 6/41/14 5/36/13 7/35/17 8/42/18
f 8/42/18 7/35/17 13/40/19 14/50/20
s 2
f 9/43/21 10/52/22 12/53/23 11/44/24
f 11/44/24 12/53/23 43/58/25 44/54/26
s 3
f 14/50/27 13/40/28 16/39/29 15/51/30
f 15/51/30 16/39/29 47/49/31 48/57/32
s 4
f 17/7/33 18/2/34 27/6/35 28/16/36
f 18/2/34 17/7/33 20/8/37 19/3/38
f 19/3/38 20/8/37 30/17/39 29/9/40
s off
f 21/1/41 22/11/42 49/21/43 50/13/44
f 22/11/45 21/1/46 24/4/47 23/12/48
f 23/12/49 24/4/50 51/20/51 52/22/52
s 5
f 25/15/53 26/5/54 59/14/55 60/25/56
f 26/5/54 25/15/53 28/16/57 27/6/58
s 6
f 29/9/59 30/17/60 32/18/61 31/10/62
f 31/10/62 32/18/61 61/26/63 62/19/64
s 7
f 33/60/65 34/64/66 36/61/67 35/55/68
f 34/64/66 33/60/65 41/59/69 42/63/70
f 35/55/68 36/61/67 46/62/71 45/56/72
s off
f 38/46/73 37/45/74 40/48/75 39/47/76
s 2
f 42/63/77 41/59/78 44/54/26 43/58/25
s 3
f 45/56/79 46/62/80 48/57/32 47/49/31
s off
f 50/13/81 49/21/82 52/22/83 51/20/84
s 8
f 53/23/85 54/29/86 58/30/87 57/24/88
f 54/29/86 53/23/85 56/27/89 55/32/90
f 55/32/90 56/27/89 63/28/91 64/31/92
s 5
f 57/24/93 58/30/94 60/25/56 59/14/55
s 6
f 62/19/64 61/26/63 64/31/95 63/28/96
s 9
f 21/1/97 18/2/98 19/3/99 24/4/100
f 18/2/98 21/1/97 26/5/101 27/6/102
f 24/4/100 19/3/99 29/9/103 31/10/104
s 10
f 2/33/105 3/34/106 7/35/107 5/36/108
f 5/36/108 9/43/109 11/44/110 2/33/105
f 3/34/106 16/39/111 13/40/112 7/35/107
s 11
f 6/65/113 8/66/114 20/67/115 17/68/116
s off
f 4/73/117 1/74/118 22/75/119 23/76/120
s 12
f 12/89/121 10/90/122 28/91/123 25/92/124
s 11
f 10/71/125 6/65/113 17/68/116 28/72/126
f 8/66/114 14/69/127 30/70/128 20/67/115
s 13
f 14/97/129 15/98/130 32/99/131 30/100/132
s 9
f 53/23/133 50/13/134 51/20/135 56/27/136
f 50/13/134 53/23/133 57/24/137 59/14/138
f 56/27/136 51/20/135 62/19/139 63/28/140
s 10
f 33/60/141 35/55/142 40/48/143 37/45/144
f 37/45/144 44/54/145 41/59/146 33/60/141
f 35/55/142 45/56/147 47/49/148 40/48/143
s off
f 38/77/149 39/78/150 52/79/151 49/80/152
s 16
f 36/81/153 34/82/154 54/83/155 55/84/156
f 34/82/154 42/85/157 58/86/158 54/83/155
s 12
f 42/95/159 43/94/160 60/93/161 58/96/162
s 13
f 48/101/163 46/103/164 64/104/165 61/102/166
s 16
f 46/87/167 36/81/153 55/84/156 64/88/168
s 10
f 16/39/111 3/34/106 40/48/143 47/49/148
s off
f 4/105/169 23/106/170 52/107/171 39/108/172
s 9
f 24/4/100 31/10/104 62/19/139 51/20/135
s 13
f 32/99/131 15/98/130 48/101/163 61/102/166
s 12
f 12/89/121 25/92/124 60/93/161 43/94/160
s 9
f 26/5/101 21/1/97 50/13/134 59/14/138
s off
f 22/109/173 1/110/174 38/111/175 49/112/176
s 10
f 2/33/105 11/44/110 44/54/145 37/45/144
