# This file uses centimeters as units for non-parametric coordinates.

mtllib box3.mtl
g default
v 4.468305 1.206226 -2.560360
v 4.468305 1.225655 -2.540931
v 4.448875 1.225655 -2.560360
v 7.954021 1.225655 -2.560360
v 7.934592 1.225655 -2.540931
v 7.934592 1.206226 -2.560360
v 4.448875 1.225655 -4.967439
v 4.468305 1.225655 -4.986868
v 4.468305 1.206226 -4.967439
v 7.934592 1.206226 -4.967439
v 7.934592 1.225655 -4.986868
v 7.954021 1.225655 -4.967439
v 4.448875 1.400537 -2.560360
v 4.468305 1.400537 -2.540931
v 7.934592 1.400537 -2.540931
v 7.954021 1.400537 -2.560360
v 4.468305 1.400537 -4.986868
v 4.448875 1.400537 -4.967439
v 7.954021 1.400537 -4.967439
v 7.934592 1.400537 -4.986868
v 4.448740 1.430428 -4.992714
v 4.448740 1.423058 -5.012551
v 4.429092 1.423058 -4.992714
v 7.973804 1.423058 -4.992714
v 7.954156 1.423058 -5.012551
v 7.954156 1.430428 -4.992714
v 4.429092 1.423058 -2.535085
v 4.448740 1.423058 -2.515248
v 4.448740 1.430428 -2.535085
v 7.954156 1.430428 -2.535085
v 7.954156 1.423058 -2.515248
v 7.973804 1.423058 -2.535085
v 4.429092 1.356727 -4.992714
v 4.448740 1.356727 -5.012551
v 7.954156 1.356727 -5.012551
v 7.973804 1.356727 -4.992714
v 4.448740 1.356727 -2.515248
v 4.429092 1.356727 -2.535085
v 7.973804 1.356727 -2.535085
v 7.954156 1.356727 -2.515248
vt 0.801919 0.986228
vt 0.801919 0.585721
vt 0.831017 0.585721
vt 0.831017 0.986228
vt 0.798687 0.986228
vt 0.798687 0.585721
vt 0.801919 0.582488
vt 0.831017 0.582488
vt 0.801919 0.989461
vt 0.831017 0.989461
vt 0.840014 0.986228
vt 0.840014 0.585721
vt 0.869112 0.585721
vt 0.869112 0.986228
vt 0.836781 0.585721
vt 0.836781 0.986228
vt 0.840014 0.582488
vt 0.869112 0.582488
vt 0.840014 0.989461
vt 0.869112 0.989461
vt 0.885913 0.585789
vt 0.885913 0.994707
vt 0.874876 0.994707
vt 0.874876 0.585789
vt 0.885913 0.998008
vt 0.874876 0.998008
vt 0.885913 0.582488
vt 0.874876 0.582488
vt 0.902713 0.585789
vt 0.902713 0.994707
vt 0.891676 0.994707
vt 0.891676 0.585789
vt 0.902713 0.998008
vt 0.891676 0.998008
vt 0.902713 0.582488
vt 0.891676 0.582488
vt 0.463021 0.578739
vt 0.463021 0.001992
vt 0.863529 0.001992
vt 0.863529 0.578739
vt 0.459788 0.578739
vt 0.459788 0.001992
vt 0.866761 0.578739
vt 0.866761 0.001992
vt 0.414091 0.588518
vt 0.414091 0.591787
vt 0.005172 0.591787
vt 0.005172 0.588518
vt 0.417391 0.588518
vt 0.001871 0.588518
vt 0.005172 0.005261
vt 0.414091 0.005261
vt 0.417391 0.005261
vt 0.001871 0.005261
vt 0.414091 0.001992
vt 0.005172 0.001992
vt 0.873580 0.578739
vt 0.873580 0.001992
vt 0.902678 0.001992
vt 0.902678 0.578739
vt 0.937575 0.578739
vt 0.908477 0.578739
vt 0.908477 0.001992
vt 0.937575 0.001992
vt 0.423170 0.585249
vt 0.423170 0.001992
vt 0.434206 0.001992
vt 0.434206 0.585249
vt 0.452516 0.585249
vt 0.441479 0.585249
vt 0.441479 0.001992
vt 0.452516 0.001992
vn -0.707110 -0.707104 0.000000
vn -0.707110 -0.707104 0.000000
vn -0.707110 -0.707104 0.000000
vn -0.707110 -0.707104 0.000000
vn 0.000000 -0.707101 0.707113
vn 0.000000 -0.707101 0.707113
vn 0.000000 -0.707101 0.707113
vn 0.000000 -0.707101 0.707113
vn -0.707101 0.000000 0.707112
vn -0.707101 0.000000 0.707112
vn -0.707101 0.000000 0.707112
vn -0.707101 0.000000 0.707112
vn 0.707103 -0.707111 0.000000
vn 0.707103 -0.707111 0.000000
vn 0.707103 -0.707111 0.000000
vn 0.707103 -0.707111 0.000000
vn 0.707101 0.000000 0.707112
vn 0.707101 0.000000 0.707112
vn 0.707101 0.000000 0.707112
vn 0.707101 0.000000 0.707112
vn -0.707107 0.000000 -0.707106
vn -0.707107 0.000000 -0.707106
vn -0.707107 0.000000 -0.707106
vn -0.707107 0.000000 -0.707106
vn 0.000000 -0.707105 -0.707108
vn 0.000000 -0.707105 -0.707108
vn 0.000000 -0.707105 -0.707108
vn 0.000000 -0.707105 -0.707108
vn 0.707107 0.000000 -0.707106
vn 0.707107 0.000000 -0.707106
vn 0.707107 0.000000 -0.707106
vn 0.707107 0.000000 -0.707106
vn 0.000000 0.000000 1.000000
vn 0.000000 0.000000 1.000000
vn 0.000000 0.000000 1.000000
vn 0.000000 0.000000 1.000000
vn 0.000000 0.000000 -1.000000
vn 0.000000 0.000000 -1.000000
vn 0.000000 0.000000 -1.000000
vn 0.000000 0.000000 -1.000000
vn 0.000000 -1.000000 0.000000
vn 0.000000 -1.000000 0.000000
vn 0.000000 -1.000000 0.000000
vn 0.000000 -1.000000 0.000000
vn 1.000000 0.000000 0.000000
vn 1.000000 0.000000 0.000000
vn 1.000000 0.000000 0.000000
vn 1.000000 0.000000 0.000000
vn -1.000000 0.000000 0.000000
vn -1.000000 0.000000 0.000000
vn -1.000000 0.000000 0.000000
vn -1.000000 0.000000 0.000000
vn -0.577356 -0.577345 0.577350
vn -0.577356 -0.577345 0.577350
vn -0.577356 -0.577345 0.577350
vn 0.577364 -0.577329 0.577358
vn 0.577364 -0.577329 0.577358
vn 0.577364 -0.577329 0.577358
vn -0.577356 -0.577356 -0.577339
vn -0.577356 -0.577356 -0.577339
vn -0.577356 -0.577356 -0.577339
vn 0.577371 -0.577326 -0.577354
vn 0.577371 -0.577326 -0.577354
vn 0.577371 -0.577326 -0.577354
vn -0.351183 0.936307 0.000000
vn -0.351183 0.936307 0.000000
vn -0.351183 0.936307 0.000000
vn -0.351183 0.936307 0.000000
vn 0.000000 0.937402 -0.348249
vn 0.000000 0.937402 -0.348249
vn 0.000000 0.937402 -0.348249
vn 0.000000 0.937402 -0.348249
vn -0.710481 0.000000 -0.703717
vn -0.710481 0.000000 -0.703717
vn -0.710481 0.000000 -0.703717
vn -0.710481 0.000000 -0.703717
vn 0.351177 0.936309 0.000000
vn 0.351177 0.936309 0.000000
vn 0.351177 0.936309 0.000000
vn 0.351177 0.936309 0.000000
vn 0.710481 0.000000 -0.703717
vn 0.710481 0.000000 -0.703717
vn 0.710481 0.000000 -0.703717
vn 0.710481 0.000000 -0.703717
vn -0.710492 0.000000 0.703705
vn -0.710492 0.000000 0.703705
vn -0.710492 0.000000 0.703705
vn -0.710492 0.000000 0.703705
vn 0.000000 0.937406 0.348238
vn 0.000000 0.937406 0.348238
vn 0.000000 0.937406 0.348238
vn 0.000000 0.937406 0.348238
vn 0.710492 0.000000 0.703705
vn 0.710492 0.000000 0.703705
vn 0.710492 0.000000 0.703705
vn 0.710492 0.000000 0.703705
vn 0.000000 0.000000 -1.000000
vn 0.000000 0.000000 -1.000000
vn 0.000000 0.000000 -1.000000
vn 0.000000 0.000000 -1.000000
vn 0.000000 0.000000 1.000000
vn 0.000000 0.000000 1.000000
vn 0.000000 0.000000 1.000000
vn 0.000000 0.000000 1.000000
vn 0.000000 1.000000 0.000000
vn 0.000000 1.000000 0.000000
vn 0.000000 1.000000 0.000000
vn 0.000000 1.000000 0.000000
vn 1.000000 0.000000 0.000000
vn 1.000000 0.000000 0.000000
vn 1.000000 0.000000 0.000000
vn 1.000000 0.000000 0.000000
vn -1.000000 0.000000 0.000000
vn -1.000000 0.000000 0.000000
vn -1.000000 0.000000 0.000000
vn -1.000000 0.000000 0.000000
vn -0.331693 0.884334 -0.328532
vn -0.331693 0.884334 -0.328532
vn -0.331693 0.884334 -0.328532
vn 0.331693 0.884334 -0.328532
vn 0.331693 0.884334 -0.328532
vn 0.331693 0.884334 -0.328532
vn -0.331690 0.884339 0.328521
vn -0.331690 0.884339 0.328521
vn -0.331690 0.884339 0.328521
vn 0.331681 0.884346 0.328511
vn 0.331681 0.884346 0.328511
vn 0.331681 0.884346 0.328511
s off
g pCube84
usemtl initialShadingGroup
f 1/15/1 3/12/2 7/11/3 9/16/4
f 2/43/5 1/40/6 6/39/7 5/44/8
f 3/12/9 2/17/10 14/18/11 13/13/12
f 4/1/13 6/5/14 10/6/15 12/2/16
f 5/9/17 4/1/18 16/4/19 15/10/20
f 8/19/21 7/11/22 18/14/23 17/20/24
f 9/37/25 8/41/26 11/42/27 10/38/28
f 12/2/29 11/7/30 20/8/31 19/3/32
f 2/57/33 5/58/34 15/59/35 14/60/36
f 8/61/37 17/62/38 20/63/39 11/64/40
f 9/37/41 10/38/42 6/39/43 1/40/44
f 4/1/45 12/2/46 19/3/47 16/4/48
f 7/11/49 3/12/50 13/13/51 18/14/52
f 1/15/53 2/17/54 3/12/55
f 4/1/56 5/9/57 6/5/58
f 7/11/59 8/19/60 9/16/61
f 10/6/62 11/7/63 12/2/64
f 21/45/65 23/46/66 27/47/67 29/48/68
f 22/49/69 21/45/70 26/52/71 25/53/72
f 23/30/73 22/33/74 34/34/75 33/31/76
f 24/55/77 26/52/78 30/51/79 32/56/80
f 25/27/81 24/21/82 36/24/83 35/28/84
f 28/35/85 27/29/86 38/32/87 37/36/88
f 29/48/89 28/50/90 31/54/91 30/51/92
f 32/22/93 31/25/94 40/26/95 39/23/96
f 22/65/97 25/66/98 35/67/99 34/68/100
f 28/69/101 37/70/102 40/71/103 31/72/104
f 29/48/105 30/51/106 26/52/107 21/45/108
f 24/21/109 32/22/110 39/23/111 36/24/112
f 27/29/113 23/30/114 33/31/115 38/32/116
f 21/45/117 22/49/118 23/46/119
f 24/55/120 25/53/121 26/52/122
f 27/47/123 28/50/124 29/48/125
f 30/51/126 31/54/127 32/56/128
