# This file uses centimeters as units for non-parametric coordinates.

mtllib sketch.mtl
g default
v -9.786310 -0.384373 8.760894
v 6.373044 -0.384373 3.358623
v -13.838012 -0.384373 -3.358623
v 2.321342 -0.384373 -8.760894
vt 0.001852 0.497739
vt 0.167586 0.001992
vt 0.539397 0.126293
vt 0.373662 0.622040
vn -0.000000 1.000000 0.000000
vn -0.000000 1.000000 0.000000
vn -0.000000 1.000000 0.000000
vn -0.000000 1.000000 0.000000
s off
g polySurface185 polySurface182
usemtl texturedFacets6
f 1/1/1 2/2/2 4/3/3 3/4/4
