# This file uses centimeters as units for non-parametric coordinates.

mtllib Bookshelf.mtl
g default
v 1.150788 1.260652 9.440481
v 2.648148 1.260652 9.440481
v 1.150788 0.738405 9.440481
v 2.648148 0.738405 9.440481
v 1.150788 0.647569 9.440481
v 2.648148 0.647569 9.440481
v 1.150788 0.086624 9.440481
v 2.648148 0.086624 9.440481
v 2.648148 1.260652 9.394356
v 1.150788 1.260652 9.394356
v 2.648148 0.738405 9.394356
v 1.150788 0.738405 9.394356
v 2.648148 0.647569 9.394356
v 1.150788 0.647569 9.394356
v 2.648148 0.086624 9.394356
v 1.150788 0.086624 9.394356
v 1.041934 0.004886 9.436126
v 1.041934 0.009241 9.440481
v 1.037579 0.009241 9.436126
v 1.150788 0.004886 9.436126
v 1.150788 0.009241 9.440481
v 1.041934 1.344140 9.440481
v 1.041934 1.348496 9.436126
v 1.037579 1.344140 9.436126
v 1.150788 1.348496 9.436126
v 1.150788 1.344140 9.440481
v 1.037579 1.344140 8.497451
v 1.041934 1.348496 8.497451
v 1.041934 1.344140 8.493095
v 1.150788 1.344140 8.493095
v 1.150788 1.348496 8.497451
v 1.041934 0.009241 8.493095
v 1.041934 0.004886 8.497451
v 1.037579 0.009241 8.497451
v 1.150788 0.004886 8.497451
v 1.150788 0.009241 8.493095
v 1.037579 0.086624 9.436126
v 1.041934 0.086624 9.440481
v 2.741069 0.004886 9.436126
v 2.745424 0.009241 9.436126
v 2.741069 0.009241 9.440481
v 2.741069 0.086624 9.440481
v 2.745424 0.086624 9.436126
v 2.745424 1.344140 9.436126
v 2.741069 1.348496 9.436126
v 2.741069 1.344140 9.440481
v 2.741069 1.348496 8.497451
v 2.745424 1.344140 8.497451
v 2.741069 1.344140 8.493095
v 1.037579 1.260652 8.497451
v 1.041934 1.260652 8.493095
v 2.745424 1.260652 8.497451
v 2.741069 1.260652 8.493095
v 2.745424 0.009241 8.497451
v 2.741069 0.004886 8.497451
v 2.741069 0.009241 8.493095
v 2.648148 1.348496 8.497451
v 2.648148 1.344140 8.493095
v 2.648148 0.004886 8.497451
v 2.648148 0.009241 8.493095
v 2.648148 0.004886 9.436126
v 2.648148 0.009241 9.440481
v 2.648148 1.348496 9.436126
v 2.648148 1.344140 9.440481
v 1.037579 0.738405 8.497451
v 1.041934 0.738405 8.493095
v 1.041934 1.260652 9.440481
v 1.037579 1.260652 9.436126
v 2.745424 1.260652 9.436126
v 2.741069 1.260652 9.440481
v 2.745424 0.738405 8.497451
v 2.741069 0.738405 8.493095
v 2.652503 1.265008 8.493095
v 2.648148 1.260652 8.497451
v 2.652503 0.734050 8.493095
v 2.648148 0.738405 8.497451
v 1.146433 1.265008 8.493095
v 1.150788 1.260652 8.497451
v 1.146433 0.734050 8.493095
v 1.150788 0.738405 8.497451
v 1.037579 0.647569 8.497451
v 1.041934 0.647569 8.493095
v 1.041934 0.738405 9.440481
v 1.037579 0.738405 9.436126
v 2.745424 0.738405 9.436126
v 2.741069 0.738405 9.440481
v 2.745424 0.647569 8.497451
v 2.741069 0.647569 8.493095
v 1.037579 0.086624 8.497451
v 1.041934 0.086624 8.493095
v 1.041934 0.647569 9.440481
v 1.037579 0.647569 9.436126
v 2.745424 0.647569 9.436126
v 2.741069 0.647569 9.440481
v 2.745424 0.086624 8.497451
v 2.741069 0.086624 8.493095
v 2.652503 0.651924 8.493095
v 2.648148 0.647569 8.497451
v 2.652503 0.082269 8.493095
v 2.648148 0.086624 8.497451
v 1.146433 0.651924 8.493095
v 1.150788 0.647569 8.497451
v 1.146433 0.082269 8.493095
v 1.150788 0.086624 8.497451
vt 0.248546 0.002760
vt 0.249684 0.002760
vt 0.249684 0.017026
vt 0.248546 0.017026
vt 0.248546 0.001957
vt 0.249684 0.120435
vt 0.248546 0.120435
vt 0.003131 0.002760
vt 0.003131 0.017026
vt 0.003131 0.001957
vt 0.249684 0.137180
vt 0.248546 0.137180
vt 0.003131 0.120435
vt 0.001992 0.002760
vt 0.001992 0.017026
vt 0.249684 0.233456
vt 0.248546 0.233456
vt 0.003131 0.137180
vt 0.001992 0.120435
vt 0.249684 0.248847
vt 0.248546 0.248847
vt 0.003131 0.233456
vt 0.001992 0.137180
vt 0.248546 0.249650
vt 0.003131 0.248847
vt 0.001992 0.233456
vt 0.003131 0.249650
vt 0.001992 0.248847
vt 0.750316 0.254444
vt 0.751454 0.254444
vt 0.751454 0.268709
vt 0.750316 0.268709
vt 0.751454 0.253641
vt 0.996869 0.254444
vt 0.996869 0.268709
vt 0.751454 0.372119
vt 0.750316 0.372119
vt 0.996869 0.253641
vt 0.998008 0.254444
vt 0.998008 0.268709
vt 0.996869 0.372119
vt 0.751454 0.388864
vt 0.750316 0.388864
vt 0.998008 0.372119
vt 0.996869 0.388864
vt 0.751454 0.485140
vt 0.750316 0.485140
vt 0.998008 0.388864
vt 0.996869 0.485140
vt 0.751454 0.500530
vt 0.750316 0.500530
vt 0.998008 0.485140
vt 0.996869 0.500530
vt 0.751454 0.501333
vt 0.998008 0.500530
vt 0.996869 0.501333
vt 0.099070 0.727760
vt 0.099873 0.728898
vt 0.001992 0.728898
vt 0.002795 0.727760
vt 0.002795 0.493265
vt 0.099070 0.493265
vt 0.431390 0.504061
vt 0.430587 0.505200
vt 0.334312 0.505200
vt 0.333509 0.504061
vt 0.430587 0.739694
vt 0.334312 0.739694
vt 0.769043 0.739819
vt 0.769846 0.740958
vt 0.664831 0.740958
vt 0.665634 0.739819
vt 0.665634 0.505325
vt 0.769043 0.505325
vt 0.773444 0.744949
vt 0.772641 0.746088
vt 0.669232 0.746088
vt 0.668429 0.744949
vt 0.772641 0.980582
vt 0.669232 0.980582
vt 0.510864 0.003096
vt 0.526651 0.003096
vt 0.526651 0.248511
vt 0.510864 0.248511
vt 0.510864 0.001957
vt 0.526651 0.001957
vt 0.743816 0.003096
vt 0.743816 0.248511
vt 0.510864 0.249650
vt 0.526651 0.249650
vt 0.743816 0.001957
vt 0.757293 0.003096
vt 0.757293 0.248511
vt 0.743816 0.249650
vt 0.757293 0.001957
vt 0.757293 0.249650
vt 0.257500 0.003096
vt 0.273287 0.003096
vt 0.273287 0.248511
vt 0.257500 0.248511
vt 0.257500 0.001957
vt 0.273287 0.001957
vt 0.490452 0.003096
vt 0.490452 0.248511
vt 0.257500 0.249650
vt 0.273287 0.249650
vt 0.490452 0.001957
vt 0.503929 0.003096
vt 0.503929 0.248511
vt 0.490452 0.249650
vt 0.503929 0.001957
vt 0.503929 0.249650
vt 0.021940 0.254780
vt 0.239105 0.254780
vt 0.239105 0.489274
vt 0.021940 0.489274
vt 0.239737 0.253641
vt 0.021308 0.253641
vt 0.325227 0.738556
vt 0.108062 0.738556
vt 0.108062 0.504061
vt 0.325227 0.504061
vt 0.325859 0.739694
vt 0.107430 0.739694
vt 0.439384 0.505200
vt 0.656549 0.505200
vt 0.656549 0.739694
vt 0.439384 0.739694
vt 0.657181 0.504061
vt 0.438752 0.504061
vt 0.997376 0.739819
vt 0.780211 0.739819
vt 0.780211 0.505325
vt 0.997376 0.505325
vt 0.998008 0.740958
vt 0.779580 0.740958
vt 0.728790 0.267118
vt 0.728790 0.484283
vt 0.632514 0.484283
vt 0.632514 0.267118
vt 0.744180 0.484283
vt 0.744180 0.267118
vt 0.632514 0.500070
vt 0.728790 0.500070
vt 0.615768 0.484283
vt 0.615768 0.267118
vt 0.728790 0.253641
vt 0.632514 0.253641
vt 0.744180 0.500070
vt 0.744180 0.253641
vt 0.615768 0.500070
vt 0.512359 0.484283
vt 0.512359 0.267118
vt 0.615768 0.253641
vt 0.512359 0.500070
vt 0.498094 0.484283
vt 0.498094 0.267118
vt 0.512359 0.253641
vt 0.498094 0.500070
vt 0.498094 0.253641
vt 0.566019 0.962114
vt 0.566019 0.744949
vt 0.662294 0.744949
vt 0.662294 0.962114
vt 0.456474 0.960851
vt 0.456474 0.743686
vt 0.559883 0.743686
vt 0.559883 0.960851
vt 0.245872 0.500070
vt 0.245872 0.484283
vt 0.260460 0.484914
vt 0.261263 0.500070
vt 0.245872 0.267118
vt 0.260460 0.266486
vt 0.358341 0.484914
vt 0.357538 0.500070
vt 0.245872 0.253641
vt 0.261263 0.253641
vt 0.373481 0.484914
vt 0.374284 0.500070
vt 0.357538 0.253641
vt 0.358341 0.266486
vt 0.373481 0.266486
vt 0.478496 0.484914
vt 0.477693 0.500070
vt 0.374284 0.253641
vt 0.491959 0.484283
vt 0.491959 0.500070
vt 0.477693 0.253641
vt 0.478496 0.266486
vt 0.491959 0.267118
vt 0.491959 0.253641
vn 0.000000 0.000000 1.000000
vn 0.000000 0.000000 1.000000
vn 0.000000 0.000000 1.000000
vn 0.000000 0.000000 1.000000
vn 0.000000 0.000000 -1.000000
vn 0.000000 0.000000 -1.000000
vn 0.000000 0.000000 -1.000000
vn 0.000000 0.000000 -1.000000
vn 0.000000 0.000000 1.000000
vn 0.000000 0.000000 1.000000
vn 0.000000 0.000000 1.000000
vn 0.000000 0.000000 1.000000
vn 0.000000 0.000000 -1.000000
vn 0.000000 0.000000 -1.000000
vn 0.000000 0.000000 -1.000000
vn 0.000000 0.000000 -1.000000
vn -0.707104 -0.707109 0.000000
vn -0.707104 -0.707109 0.000000
vn -0.707104 -0.707109 0.000000
vn -0.707104 -0.707109 0.000000
vn 0.000000 -0.707120 0.707093
vn 0.000000 -0.707120 0.707093
vn 0.000000 -0.707124 0.707090
vn 0.000000 -0.707124 0.707090
vn -0.707119 0.000000 0.707095
vn -0.707119 0.000000 0.707095
vn -0.707119 0.000000 0.707095
vn -0.707119 0.000000 0.707095
vn 0.000000 -0.707124 0.707090
vn 0.000000 -0.707124 0.707090
vn -0.707118 0.000000 0.707096
vn -0.707118 0.000000 0.707096
vn -0.707119 0.000000 0.707094
vn -0.707119 0.000000 0.707094
vn 0.000000 0.707120 0.707093
vn 0.000000 0.707120 0.707093
vn 0.000000 0.707124 0.707090
vn 0.000000 0.707124 0.707090
vn -0.707104 0.707109 0.000000
vn -0.707104 0.707109 0.000000
vn -0.707104 0.707109 0.000000
vn -0.707104 0.707109 0.000000
vn 0.000000 0.707124 0.707090
vn 0.000000 0.707124 0.707090
vn -0.707118 0.000000 -0.707096
vn -0.707118 0.000000 -0.707096
vn -0.707119 0.000000 -0.707094
vn -0.707119 0.000000 -0.707094
vn 0.000000 0.707120 -0.707093
vn 0.000000 0.707120 -0.707093
vn 0.000000 0.707124 -0.707090
vn 0.000000 0.707124 -0.707090
vn 0.000000 0.707124 -0.707090
vn 0.000000 0.707124 -0.707090
vn -0.707119 0.000000 -0.707095
vn -0.707119 0.000000 -0.707095
vn -0.707119 0.000000 -0.707095
vn -0.707119 0.000000 -0.707095
vn 0.000000 -0.707120 -0.707093
vn 0.000000 -0.707120 -0.707093
vn 0.000000 -0.707124 -0.707090
vn 0.000000 -0.707124 -0.707090
vn 0.000000 -0.707124 -0.707090
vn 0.000000 -0.707124 -0.707090
vn -0.707119 0.000000 0.707095
vn -0.707119 0.000000 0.707095
vn 0.000000 -0.707122 0.707091
vn 0.000000 -0.707122 0.707091
vn 0.707100 -0.707114 0.000000
vn 0.707100 -0.707114 0.000000
vn 0.707100 -0.707114 0.000000
vn 0.707100 -0.707114 0.000000
vn 0.707115 0.000000 0.707099
vn 0.707115 0.000000 0.707099
vn 0.707115 0.000000 0.707099
vn 0.707115 0.000000 0.707099
vn 0.707114 0.000000 0.707099
vn 0.707114 0.000000 0.707099
vn 0.707113 0.000000 0.707100
vn 0.707113 0.000000 0.707100
vn 0.707115 0.000000 0.707098
vn 0.707115 0.000000 0.707098
vn 0.707100 0.707114 0.000000
vn 0.707100 0.707114 0.000000
vn 0.707100 0.707114 0.000000
vn 0.707100 0.707114 0.000000
vn 0.000000 0.707122 0.707091
vn 0.000000 0.707122 0.707091
vn 0.000000 0.707122 -0.707091
vn 0.000000 0.707122 -0.707091
vn 0.707113 0.000000 -0.707100
vn 0.707113 0.000000 -0.707100
vn 0.707115 0.000000 -0.707098
vn 0.707115 0.000000 -0.707098
vn -0.707119 0.000000 -0.707094
vn -0.707119 0.000000 -0.707094
vn 0.707115 0.000000 -0.707098
vn 0.707115 0.000000 -0.707098
vn 0.707115 0.000000 -0.707099
vn 0.707115 0.000000 -0.707099
vn 0.707115 0.000000 -0.707099
vn 0.707115 0.000000 -0.707099
vn 0.000000 -0.707122 -0.707091
vn 0.000000 -0.707122 -0.707091
vn -0.707119 0.000000 -0.707095
vn -0.707119 0.000000 -0.707095
vn -0.707119 0.000000 0.707094
vn -0.707119 0.000000 0.707094
vn 0.707115 0.000000 0.707098
vn 0.707115 0.000000 0.707098
vn 0.707114 0.000000 -0.707099
vn 0.707114 0.000000 -0.707099
vn 0.000000 -0.707114 -0.707099
vn 0.000000 -0.707114 -0.707099
vn 0.000000 -0.707114 -0.707099
vn 0.000000 -0.707114 -0.707100
vn -0.707115 0.000000 -0.707098
vn -0.707115 0.000000 -0.707098
vn -0.707115 0.000000 -0.707098
vn -0.707115 0.000000 -0.707098
vn 0.000000 0.707115 -0.707099
vn 0.000000 0.707115 -0.707099
vn 0.000000 0.707115 -0.707099
vn 0.000000 0.707115 -0.707099
vn 0.707120 -0.000000 -0.707094
vn 0.707120 -0.000000 -0.707094
vn 0.707120 -0.000000 -0.707094
vn 0.707120 -0.000000 -0.707094
vn 0.000000 -0.707119 -0.707095
vn 0.000000 -0.707119 -0.707095
vn 0.000000 -0.707119 -0.707095
vn 0.000000 -0.707119 -0.707095
vn -0.707115 0.000000 -0.707099
vn -0.707115 0.000000 -0.707099
vn -0.707115 0.000000 -0.707099
vn -0.707115 0.000000 -0.707099
vn 0.000000 0.707121 -0.707092
vn 0.000000 0.707121 -0.707092
vn 0.000000 0.707121 -0.707092
vn 0.000000 0.707121 -0.707092
vn 0.707119 0.000000 -0.707095
vn 0.707119 0.000000 -0.707095
vn 0.707119 0.000000 -0.707095
vn 0.707119 0.000000 -0.707095
vn 0.000000 0.000000 1.000000
vn 0.000000 0.000000 1.000000
vn 0.000000 0.000000 1.000000
vn 0.000000 1.000000 0.000000
vn 0.000000 1.000000 0.000000
vn 0.000000 1.000000 0.000000
vn 0.000000 1.000000 0.000000
vn 0.000000 0.000000 -1.000000
vn 0.000000 0.000000 -1.000000
vn 0.000000 0.000000 -1.000000
vn 0.000000 0.000000 -1.000000
vn 0.000000 -1.000000 0.000000
vn 0.000000 -1.000000 0.000000
vn 0.000000 -1.000000 0.000000
vn 0.000000 -1.000000 0.000000
vn 1.000000 0.000000 0.000000
vn 1.000000 0.000000 0.000000
vn 1.000000 0.000000 0.000000
vn 1.000000 0.000000 0.000000
vn -1.000000 0.000000 0.000000
vn -1.000000 0.000000 0.000000
vn -1.000000 0.000000 0.000000
vn -1.000000 0.000000 0.000000
vn 0.000000 0.000000 -1.000000
vn 0.000000 0.000000 -1.000000
vn 0.000000 0.000000 -1.000000
vn 0.000000 0.000000 -1.000000
vn 0.000000 -1.000000 0.000000
vn 0.000000 -1.000000 0.000000
vn 0.000000 -1.000000 0.000000
vn 0.000000 -1.000000 0.000000
vn 0.000000 0.000000 1.000000
vn 0.000000 0.000000 1.000000
vn 0.000000 0.000000 1.000000
vn 0.000000 1.000000 0.000000
vn 0.000000 1.000000 0.000000
vn 0.000000 1.000000 0.000000
vn 0.000000 1.000000 0.000000
vn -1.000000 0.000000 0.000000
vn -1.000000 0.000000 0.000000
vn 0.000000 0.000000 1.000000
vn 0.000000 0.000000 1.000000
vn 1.000000 0.000000 0.000000
vn 1.000000 0.000000 0.000000
vn 0.000000 0.000000 -1.000000
vn 0.000000 0.000000 -1.000000
vn 0.000000 0.000000 -1.000000
vn 0.000000 0.000000 -1.000000
vn -1.000000 0.000000 0.000000
vn -1.000000 0.000000 0.000000
vn 0.000000 0.000000 1.000000
vn 0.000000 0.000000 1.000000
vn 1.000000 0.000000 0.000000
vn 1.000000 0.000000 0.000000
vn 0.000000 0.000000 -1.000000
vn 0.000000 0.000000 -1.000000
vn 0.000000 0.000000 -1.000000
vn 0.000000 0.000000 -1.000000
vn -1.000000 0.000000 0.000000
vn -1.000000 0.000000 0.000000
vn 0.000000 0.000000 1.000000
vn 0.000000 0.000000 1.000000
vn 1.000000 0.000000 0.000000
vn 1.000000 0.000000 0.000000
vn 0.000000 0.000000 -1.000000
vn 0.000000 0.000000 -1.000000
vn 0.000000 0.000000 -1.000000
vn 0.000000 0.000000 -1.000000
vn -1.000000 0.000000 0.000000
vn -1.000000 0.000000 0.000000
vn 0.000000 0.000000 1.000000
vn 0.000000 0.000000 1.000000
vn 0.000000 0.000000 1.000000
vn 0.000000 0.000000 1.000000
vn 1.000000 0.000000 0.000000
vn 1.000000 0.000000 0.000000
vn 0.000000 0.000000 -1.000000
vn 0.000000 0.000000 -1.000000
vn 0.000000 0.000000 -1.000000
vn 0.000000 0.000000 -1.000000
vn 0.000000 -1.000000 0.000000
vn 0.000000 -1.000000 0.000000
vn 0.000000 -1.000000 0.000000
vn 0.000000 -1.000000 0.000000
vn -1.000000 0.000000 0.000000
vn -1.000000 0.000000 0.000000
vn -1.000000 0.000000 0.000000
vn -1.000000 0.000000 0.000000
vn 0.000000 1.000000 0.000000
vn 0.000000 1.000000 0.000000
vn 0.000000 1.000000 0.000000
vn 0.000000 1.000000 0.000000
vn 1.000000 -0.000000 0.000000
vn 1.000000 -0.000000 0.000000
vn 1.000000 -0.000000 0.000000
vn 1.000000 -0.000000 0.000000
vn 0.000000 -1.000000 0.000000
vn 0.000000 -1.000000 0.000000
vn 0.000000 -1.000000 0.000000
vn 0.000000 -1.000000 0.000000
vn -1.000000 0.000000 0.000000
vn -1.000000 0.000000 0.000000
vn -1.000000 0.000000 0.000000
vn -1.000000 0.000000 0.000000
vn 0.000000 1.000000 0.000000
vn 0.000000 1.000000 0.000000
vn 0.000000 1.000000 0.000000
vn 0.000000 1.000000 0.000000
vn 1.000000 0.000000 0.000000
vn 1.000000 0.000000 0.000000
vn 1.000000 0.000000 0.000000
vn 1.000000 0.000000 0.000000
vn -0.577360 -0.577354 0.577337
vn -0.577360 -0.577354 0.577337
vn -0.577360 -0.577354 0.577337
vn -0.577360 0.577354 0.577337
vn -0.577360 0.577354 0.577337
vn -0.577360 0.577354 0.577337
vn -0.577360 0.577354 -0.577337
vn -0.577360 0.577354 -0.577337
vn -0.577360 0.577354 -0.577337
vn -0.577360 -0.577354 -0.577337
vn -0.577360 -0.577354 -0.577337
vn -0.577360 -0.577354 -0.577337
vn 0.577353 -0.577369 0.577329
vn 0.577353 -0.577369 0.577329
vn 0.577353 -0.577369 0.577329
vn 0.577353 0.577369 0.577329
vn 0.577353 0.577369 0.577329
vn 0.577353 0.577369 0.577329
vn 0.577353 0.577369 -0.577329
vn 0.577353 0.577369 -0.577329
vn 0.577353 0.577369 -0.577329
vn 0.577353 -0.577369 -0.577329
vn 0.577353 -0.577369 -0.577329
vn 0.577353 -0.577369 -0.577329
s 1
g pCube31
usemtl initialShadingGroup
f 2/137/1 1/138/2 3/139/3 4/140/4
s off
f 10/161/5 9/162/6 11/163/7 12/164/8
s 1
f 4/140/4 3/139/3 5/145/9 6/146/10
f 6/146/10 5/145/9 7/152/11 8/153/12
s off
f 14/165/13 13/166/14 15/167/15 16/168/16
f 17/5/17 19/1/18 34/8/19 33/10/20
s 2
f 18/105/21 17/100/22 20/99/23 21/106/24
s 3
f 19/1/25 18/2/26 38/3/27 37/4/28
s 2
f 21/106/24 20/99/23 61/104/29 62/110/30
s 3
f 22/20/31 24/21/32 68/17/33 67/16/34
s 5
f 23/81/35 22/85/36 26/86/37 25/82/38
s off
f 24/21/39 23/24/40 28/27/41 27/25/42
s 5
f 25/82/38 26/86/37 64/91/43 63/87/44
s 6
f 27/25/45 29/28/46 51/26/47 50/22/48
s 7
f 29/89/49 28/84/50 31/83/51 30/90/52
f 30/90/52 31/83/51 57/88/53 58/94/54
s 6
f 32/14/55 34/8/56 89/9/57 90/15/58
s 9
f 33/97/59 32/101/60 36/102/61 35/98/62
f 35/98/62 36/102/61 60/107/63 59/103/64
s 3
f 37/4/28 38/3/27 91/6/65 92/7/66
s 2
f 39/109/67 41/112/68 62/110/30 61/104/29
s off
f 40/30/69 39/33/70 55/38/71 54/34/72
s 10
f 41/29/73 40/30/74 43/31/75 42/32/76
f 42/32/76 43/31/75 93/36/77 94/37/78
f 44/50/79 46/51/80 70/47/81 69/46/82
s off
f 45/54/83 44/50/84 48/53/85 47/56/86
s 5
f 46/95/87 45/92/88 63/87/44 64/91/43
s 7
f 47/93/89 49/96/90 58/94/54 57/88/53
s 12
f 49/55/91 48/53/92 52/49/93 53/52/94
s 6
f 50/22/48 51/26/47 66/23/95 65/18/96
s 12
f 53/52/94 52/49/93 71/45/97 72/48/98
f 54/34/99 56/39/100 96/40/101 95/35/102
s 9
f 56/111/103 55/108/104 59/103/64 60/107/63
s 6
f 65/18/96 66/23/95 82/19/105 81/13/106
s 3
f 67/16/34 68/17/33 84/12/107 83/11/108
s 10
f 69/46/82 70/47/81 86/43/109 85/42/110
s 12
f 72/48/98 71/45/97 87/41/111 88/44/112
s off
f 73/117/113 74/114/114 78/113/115 77/118/116
f 74/57/117 73/58/118 75/59/119 76/60/120
f 76/119/121 75/123/122 79/124/123 80/120/124
f 77/63/125 78/64/126 80/65/127 79/66/128
s 6
f 81/13/106 82/19/105 90/15/58 89/9/57
s 3
f 83/11/108 84/12/107 92/7/66 91/6/65
s 10
f 85/42/110 86/43/109 94/37/78 93/36/77
s 12
f 88/44/112 87/41/111 95/35/102 96/40/101
s off
f 97/129/129 98/126/130 102/125/131 101/130/132
f 98/69/133 97/70/134 99/71/135 100/72/136
f 100/131/137 99/135/138 103/136/139 104/132/140
f 101/75/141 102/76/142 104/77/143 103/78/144
s 1
f 67/144/145 1/138/2 26/141/146 22/149/147
s 14
f 23/81/148 25/82/149 31/83/150 28/84/151
s 15
f 29/169/152 30/170/153 77/171/154 51/172/155
s 16
f 33/97/156 35/98/157 20/99/158 17/100/159
s 17
f 69/46/160 52/49/161 48/53/162 44/50/163
s 18
f 50/22/164 68/17/165 24/21/166 27/25/167
s 15
f 58/173/168 49/177/169 53/178/170 73/174/171
s 16
f 61/104/172 59/103/173 55/108/174 39/109/175
s 1
f 64/142/176 2/137/1 70/147/177 46/150/178
s 14
f 57/88/179 63/87/180 45/92/181 47/93/182
s 15
f 30/170/153 58/173/168 73/174/171 77/171/154
s 16
f 20/99/158 35/98/157 59/103/173 61/104/172
s 1
f 26/141/146 1/138/2 2/137/1 64/142/176
s 14
f 31/83/150 25/82/149 63/87/180 57/88/179
s 18
f 65/18/183 84/12/184 68/17/165 50/22/164
s 1
f 83/143/185 3/139/3 1/138/2 67/144/145
f 70/147/177 2/137/1 4/140/4 86/148/186
s 17
f 85/42/187 71/45/188 52/49/161 69/46/160
s 15
f 73/174/171 53/178/170 72/181/189 75/182/190
f 51/172/155 77/171/154 79/175/191 66/176/192
s 18
f 81/13/193 92/7/194 84/12/184 65/18/183
s 1
f 91/151/195 5/145/9 3/139/3 83/143/185
f 86/148/186 4/140/4 6/146/10 94/154/196
s 17
f 93/36/197 87/41/198 71/45/188 85/42/187
s 15
f 75/182/190 72/181/189 88/186/199 97/183/200
f 79/175/191 75/182/190 97/183/200 101/179/201
f 66/176/192 79/175/191 101/179/201 82/180/202
s 18
f 89/9/203 37/4/204 92/7/194 81/13/193
s 1
f 38/155/205 7/152/11 5/145/9 91/151/195
f 94/154/196 6/146/10 8/153/12 42/158/206
s 17
f 43/31/207 95/35/208 87/41/198 93/36/197
s 15
f 97/183/200 88/186/199 96/189/209 99/190/210
f 82/180/202 101/179/201 103/184/211 90/185/212
s 18
f 34/8/213 19/1/214 37/4/204 89/9/203
s 1
f 18/159/215 21/156/216 7/152/11 38/155/205
f 8/153/12 7/152/11 21/156/216 62/157/217
f 42/158/206 8/153/12 62/157/217 41/160/218
s 17
f 40/30/219 54/34/220 95/35/208 43/31/207
s 15
f 99/190/210 96/189/209 56/192/221 60/191/222
f 103/184/211 99/190/210 60/191/222 36/187/223
f 90/185/212 103/184/211 36/187/223 32/188/224
s off
f 78/113/225 74/114/226 9/115/227 10/116/228
f 74/57/229 76/60/230 11/61/231 9/62/232
f 76/119/233 80/120/234 12/121/235 11/122/236
f 80/65/237 78/64/238 10/67/239 12/68/240
f 102/125/241 98/126/242 13/127/243 14/128/244
f 98/69/245 100/72/246 15/73/247 13/74/248
f 100/131/249 104/132/250 16/133/251 15/134/252
f 104/77/253 102/76/254 14/79/255 16/80/256
f 17/5/257 18/2/258 19/1/259
f 22/20/260 23/24/261 24/21/262
f 27/25/263 28/27/264 29/28/265
f 32/14/266 33/10/267 34/8/268
f 39/33/269 40/30/270 41/29/271
f 44/50/272 45/54/273 46/51/274
f 47/56/275 48/53/276 49/55/277
f 54/34/278 55/38/279 56/39/280
