# This file uses centimeters as units for non-parametric coordinates.

mtllib ReferenceSize.mtl
g default
v -8.220320 0.986853 -6.172880
v -8.213095 0.994078 -6.180104
v -7.227544 0.994078 -6.180104
v -7.220320 0.986853 -6.172880
v -8.213095 0.994078 -9.539402
v -8.220320 0.986853 -9.546628
v -7.227544 0.994078 -9.539402
v -7.220320 0.986853 -9.546628
v -8.213788 0.918739 -6.179412
v -8.220320 0.925270 -6.172880
v -7.226851 0.918739 -6.179412
v -7.220320 0.925270 -6.172880
v -8.213788 0.918739 -9.540096
v -8.220320 0.925270 -9.546628
v -7.226851 0.918739 -9.540096
v -7.220320 0.925270 -9.546628
v -8.103653 0.000604 -9.355957
v -7.278013 0.000604 -9.355957
v -8.103653 0.926702 -9.355957
v -7.278013 0.926702 -9.355957
v -8.103653 0.926702 -9.422506
v -7.278013 0.926702 -9.422506
v -8.103653 0.000604 -9.422506
v -7.278013 0.000604 -9.422506
v -7.328142 0.141585 -6.346779
v -7.278486 0.141585 -6.346779
v -7.328142 0.925418 -6.346779
v -7.278486 0.925418 -6.346779
v -7.328142 0.925418 -9.412656
v -7.278486 0.925418 -9.412656
v -7.328142 0.141585 -9.412656
v -7.278486 0.141585 -9.412656
v -8.103653 0.000604 -6.323059
v -7.278013 0.000604 -6.323059
v -8.103653 0.926702 -6.323059
v -7.278013 0.926702 -6.323059
v -8.103653 0.926702 -6.389608
v -7.278013 0.926702 -6.389608
v -8.103653 0.000604 -6.389608
v -7.278013 0.000604 -6.389608
v -7.378619 0.680713 -9.359224
v -7.378619 0.680713 -7.007459
v -7.378619 0.680713 -9.299433
v -8.050381 0.700445 -7.007459
v -8.050381 0.700445 -9.299433
v -7.378619 0.700445 -9.359224
v -7.378619 0.700445 -9.299433
v -7.378619 0.700445 -7.007459
v -7.378619 0.700445 -6.963763
v -8.050381 0.912501 -7.007459
v -8.050381 0.912501 -9.299433
v -7.378619 0.912501 -9.359224
v -7.378619 0.912501 -9.299433
v -7.378619 0.912501 -7.007459
v -7.378619 0.912501 -6.963763
v -8.050381 0.700445 -8.066142
v -8.050381 0.912501 -8.066142
v -7.378619 0.912501 -8.066142
v -7.378619 0.700445 -8.066142
v -7.378619 0.680713 -8.066142
v -8.050381 0.700445 -8.138040
v -8.050381 0.912501 -8.138040
v -7.378619 0.912501 -8.138040
v -7.378619 0.700445 -8.138040
v -7.378619 0.680713 -8.138040
v -7.464133 0.700445 -8.138040
v -7.464133 0.700445 -9.299433
v -7.464133 0.912501 -8.138040
v -7.464133 0.912501 -9.299433
v -7.464133 0.700445 -8.066142
v -7.464133 0.912501 -8.066142
v -7.464133 0.700445 -7.007459
v -7.464133 0.912501 -7.007459
v -8.048489 0.680713 -6.965655
v -8.048489 0.682605 -6.963763
v -8.050381 0.682605 -6.965655
v -7.378619 0.680713 -6.965655
v -7.378619 0.682605 -6.963763
v -8.048489 0.938311 -6.963763
v -8.048489 0.940203 -6.965655
v -8.050381 0.938311 -6.965655
v -7.380511 0.940203 -6.965655
v -7.378619 0.938311 -6.963763
v -8.048489 0.940203 -9.357332
v -8.048489 0.938311 -9.359224
v -8.050381 0.938311 -9.357332
v -7.378619 0.938311 -9.359224
v -7.380511 0.940203 -9.357332
v -8.048489 0.700445 -6.963763
v -8.050381 0.700445 -6.965655
v -8.048489 0.940203 -7.007459
v -8.050381 0.938311 -7.007459
v -7.380511 0.940203 -7.007459
v -7.378619 0.938311 -7.007459
v -8.050381 0.912501 -9.357332
v -8.048489 0.912501 -9.359224
v -8.048489 0.680713 -9.359224
v -8.050381 0.682605 -9.357332
v -8.050381 0.682605 -9.299433
v -8.048489 0.680713 -9.299433
v -8.048489 0.680713 -7.007459
v -8.050381 0.682605 -7.007459
v -8.050381 0.938311 -8.066142
v -8.048489 0.940203 -8.066142
v -7.380511 0.940203 -8.066142
v -7.378619 0.938311 -8.066142
v -8.050381 0.682605 -8.138040
v -8.048489 0.680713 -8.138040
v -8.048489 0.940203 -9.299433
v -8.050381 0.938311 -9.299433
v -7.378619 0.938311 -9.299433
v -7.380511 0.940203 -9.299433
v -8.048489 0.700445 -9.359224
v -8.050381 0.700445 -9.357332
v -8.048489 0.912501 -6.963763
v -8.050381 0.912501 -6.965655
v -8.048489 0.680713 -8.066142
v -8.050381 0.682605 -8.066142
v -8.050381 0.938311 -8.138040
v -8.048489 0.940203 -8.138040
v -7.380511 0.940203 -8.138040
v -7.378619 0.938311 -8.138040
vt 0.375000 0.523973
vt 0.376806 0.499465
vt 0.376806 0.250535
vt 0.623194 0.250535
vt 0.623194 0.499465
vt 0.375000 1.000000
vt 0.376633 0.999516
vt 0.625000 1.000000
vt 0.623367 0.999516
vt 0.625000 0.728326
vt 0.623367 0.750484
vt 0.376633 0.750484
vt 0.625000 0.021674
vt 0.375000 0.226027
vt 0.625000 0.523973
vt 0.375000 0.728326
vt 0.875000 0.021674
vt 0.875000 0.226027
vt 0.625000 0.226027
vt 0.125000 0.021674
vt 0.375000 0.021674
vt 0.125000 0.226027
vt 0.375000 0.000000
vt 0.625000 0.000000
vt 0.625000 0.250000
vt 0.375000 0.250000
vt 0.625000 0.500000
vt 0.375000 0.500000
vt 0.625000 0.750000
vt 0.375000 0.750000
vt 0.625000 1.000000
vt 0.375000 1.000000
vt 0.875000 0.000000
vt 0.875000 0.250000
vt 0.125000 0.000000
vt 0.125000 0.250000
vt 0.375000 0.000000
vt 0.625000 0.000000
vt 0.625000 0.250000
vt 0.375000 0.250000
vt 0.625000 0.500000
vt 0.375000 0.500000
vt 0.625000 0.750000
vt 0.375000 0.750000
vt 0.625000 1.000000
vt 0.375000 1.000000
vt 0.875000 0.000000
vt 0.875000 0.250000
vt 0.125000 0.000000
vt 0.125000 0.250000
vt 0.375000 0.000000
vt 0.625000 0.000000
vt 0.625000 0.250000
vt 0.375000 0.250000
vt 0.625000 0.500000
vt 0.375000 0.500000
vt 0.625000 0.750000
vt 0.375000 0.750000
vt 0.625000 1.000000
vt 0.375000 1.000000
vt 0.875000 0.000000
vt 0.875000 0.250000
vt 0.125000 0.000000
vt 0.125000 0.250000
vt 0.868760 0.000000
vt 0.875000 0.000000
vt 0.875000 0.019010
vt 0.868760 0.019010
vt 0.747552 0.000000
vt 0.747552 0.019010
vt 0.131240 0.019010
vt 0.252448 0.019010
vt 0.252448 0.223311
vt 0.131240 0.223311
vt 0.875000 0.223311
vt 0.868760 0.223311
vt 0.747552 0.223311
vt 0.625000 0.019010
vt 0.629560 0.019010
vt 0.629560 0.223311
vt 0.625000 0.223311
vt 0.259951 0.223311
vt 0.259951 0.019010
vt 0.370440 0.019010
vt 0.370440 0.223311
vt 0.740049 0.019010
vt 0.740049 0.223311
vt 0.629560 0.000000
vt 0.740049 0.000000
vt 0.252448 0.223311
vt 0.252448 0.019010
vt 0.259951 0.019010
vt 0.259951 0.223311
vt 0.131240 0.019010
vt 0.131240 0.223311
vt 0.370440 0.019010
vt 0.370440 0.223311
vt 0.625000 0.001823
vt 0.625197 -0.000000
vt 0.374803 -0.000000
vt 0.374803 0.001823
vt 0.370440 0.001823
vt 0.370440 0.000000
vt 0.375704 0.001823
vt 0.375704 0.000000
vt 0.375704 0.019010
vt 0.374803 0.019010
vt 0.375704 0.248177
vt 0.374803 0.248177
vt 0.374803 0.223311
vt 0.375704 0.223311
vt 0.375704 0.250197
vt 0.625000 0.248177
vt 0.624296 0.250197
vt 0.375000 0.250197
vt 0.375704 0.254560
vt 0.375000 0.254560
vt 0.625000 0.254560
vt 0.624296 0.254560
vt 0.375704 0.499803
vt 0.375000 0.499803
vt 0.375000 0.493760
vt 0.375704 0.493760
vt 0.375704 0.501823
vt 0.624296 0.499803
vt 0.625000 0.501823
vt 0.125197 0.248177
vt 0.125000 0.248177
vt 0.125000 0.223311
vt 0.125197 0.223311
vt 0.624296 0.493760
vt 0.625000 0.493760
vt 0.370440 0.248177
vt 0.370440 0.250000
vt 0.259951 0.250000
vt 0.259951 0.248177
vt 0.625000 0.365049
vt 0.624296 0.365049
vt 0.125000 0.019010
vt 0.125197 0.019010
vt 0.375704 0.750000
vt 0.375000 0.748177
vt 0.375000 0.730990
vt 0.375704 0.730990
vt 0.375000 0.750197
vt 0.375704 0.756240
vt 0.375000 0.756240
vt 0.131240 0.001823
vt 0.131240 0.000000
vt 0.252448 0.000000
vt 0.252448 0.001823
vt 0.259951 0.001823
vt 0.259951 0.000000
vt 0.252448 0.250000
vt 0.252448 0.248177
vt 0.625000 0.372552
vt 0.624296 0.372552
vt 0.375000 0.372552
vt 0.375704 0.372552
vt 0.625000 0.730990
vt 0.625000 0.750000
vt 0.625000 0.756240
vt 0.125197 0.001823
vt 0.375704 0.995440
vt 0.625000 0.995440
vt 0.625000 0.999803
vt 0.375704 0.999803
vt 0.625000 0.877448
vt 0.375704 0.877448
vt 0.375704 0.526689
vt 0.625000 0.526689
vt 0.131240 0.248177
vt 0.875000 0.248177
vt 0.868760 0.248177
vt 0.747552 0.248177
vt 0.629560 0.248177
vt 0.375704 0.365049
vt 0.740049 0.248177
vt 0.375704 0.884951
vt 0.625000 0.884951
vn -0.707110 0.707103 0.000000
vn -0.707110 0.707103 0.000000
vn -0.707110 0.707103 0.000000
vn -0.707110 0.707103 0.000000
vn 0.000000 0.707096 0.707117
vn 0.000000 0.707096 0.707117
vn 0.000000 0.707096 0.707117
vn 0.000000 0.707096 0.707117
vn 0.707110 0.707103 0.000000
vn 0.707110 0.707103 0.000000
vn 0.707110 0.707103 0.000000
vn 0.707110 0.707103 0.000000
vn 0.000000 0.707189 -0.707024
vn 0.000000 0.707189 -0.707024
vn 0.000000 0.707189 -0.707024
vn 0.000000 0.707189 -0.707024
vn 0.000000 1.000000 0.000000
vn 0.000000 1.000000 0.000000
vn 0.000000 1.000000 0.000000
vn 0.000000 1.000000 0.000000
vn -0.707101 -0.707112 0.000000
vn -0.707101 -0.707112 0.000000
vn -0.707101 -0.707112 0.000000
vn -0.707101 -0.707112 0.000000
vn 0.000000 -0.707114 0.707099
vn 0.000000 -0.707114 0.707099
vn 0.000000 -0.707114 0.707099
vn 0.000000 -0.707114 0.707099
vn 0.707071 -0.707143 0.000000
vn 0.707071 -0.707143 0.000000
vn 0.707071 -0.707143 0.000000
vn 0.707071 -0.707143 0.000000
vn 0.000000 -0.707114 -0.707099
vn 0.000000 -0.707114 -0.707099
vn 0.000000 -0.707114 -0.707099
vn 0.000000 -0.707114 -0.707099
vn 0.000000 -1.000000 0.000000
vn 0.000000 -1.000000 0.000000
vn 0.000000 -1.000000 0.000000
vn 0.000000 -1.000000 0.000000
vn 0.000000 0.000000 1.000000
vn 0.000000 0.000000 1.000000
vn 0.000000 0.000000 1.000000
vn 0.000000 0.000000 1.000000
vn 0.000000 0.000000 -1.000000
vn 0.000000 0.000000 -1.000000
vn 0.000000 0.000000 -1.000000
vn 0.000000 0.000000 -1.000000
vn 1.000000 0.000000 0.000000
vn 1.000000 0.000000 0.000000
vn 1.000000 0.000000 0.000000
vn 1.000000 0.000000 0.000000
vn -1.000000 0.000000 0.000000
vn -1.000000 0.000000 0.000000
vn -1.000000 0.000000 0.000000
vn -1.000000 0.000000 0.000000
vn 0.000000 0.000000 1.000000
vn 0.000000 0.000000 1.000000
vn 0.000000 0.000000 1.000000
vn 0.000000 0.000000 1.000000
vn 0.000000 1.000000 0.000000
vn 0.000000 1.000000 0.000000
vn 0.000000 1.000000 0.000000
vn 0.000000 1.000000 0.000000
vn 0.000000 0.000000 -1.000000
vn 0.000000 0.000000 -1.000000
vn 0.000000 0.000000 -1.000000
vn 0.000000 0.000000 -1.000000
vn 0.000000 -1.000000 0.000000
vn 0.000000 -1.000000 0.000000
vn 0.000000 -1.000000 0.000000
vn 0.000000 -1.000000 0.000000
vn 1.000000 0.000000 0.000000
vn 1.000000 0.000000 0.000000
vn 1.000000 0.000000 0.000000
vn 1.000000 0.000000 0.000000
vn -1.000000 0.000000 0.000000
vn -1.000000 0.000000 0.000000
vn -1.000000 0.000000 0.000000
vn -1.000000 0.000000 0.000000
vn 0.000000 0.000000 1.000000
vn 0.000000 0.000000 1.000000
vn 0.000000 0.000000 1.000000
vn 0.000000 0.000000 1.000000
vn 0.000000 1.000000 0.000000
vn 0.000000 1.000000 0.000000
vn 0.000000 1.000000 0.000000
vn 0.000000 1.000000 0.000000
vn 0.000000 0.000000 -1.000000
vn 0.000000 0.000000 -1.000000
vn 0.000000 0.000000 -1.000000
vn 0.000000 0.000000 -1.000000
vn 0.000000 -1.000000 0.000000
vn 0.000000 -1.000000 0.000000
vn 0.000000 -1.000000 0.000000
vn 0.000000 -1.000000 0.000000
vn 1.000000 0.000000 0.000000
vn 1.000000 0.000000 0.000000
vn 1.000000 0.000000 0.000000
vn 1.000000 0.000000 0.000000
vn -1.000000 0.000000 0.000000
vn -1.000000 0.000000 0.000000
vn -1.000000 0.000000 0.000000
vn -1.000000 0.000000 0.000000
vn 0.000000 0.000000 1.000000
vn 0.000000 0.000000 1.000000
vn 0.000000 0.000000 1.000000
vn 0.000000 0.000000 1.000000
vn 0.000000 1.000000 0.000000
vn 0.000000 1.000000 0.000000
vn 0.000000 1.000000 0.000000
vn 0.000000 1.000000 0.000000
vn 0.000000 0.000000 -1.000000
vn 0.000000 0.000000 -1.000000
vn 0.000000 0.000000 -1.000000
vn 0.000000 0.000000 -1.000000
vn 0.000000 -1.000000 0.000000
vn 0.000000 -1.000000 0.000000
vn 0.000000 -1.000000 0.000000
vn 0.000000 -1.000000 0.000000
vn 1.000000 0.000000 0.000000
vn 1.000000 0.000000 0.000000
vn 1.000000 0.000000 0.000000
vn 1.000000 0.000000 0.000000
vn -1.000000 0.000000 0.000000
vn -1.000000 0.000000 0.000000
vn -1.000000 0.000000 0.000000
vn -1.000000 0.000000 0.000000
vn 1.000000 0.000000 0.000000
vn 1.000000 0.000000 0.000000
vn 1.000000 0.000000 0.000000
vn 1.000000 0.000000 0.000000
vn 1.000000 0.000000 0.000000
vn 1.000000 0.000000 0.000000
vn -1.000000 0.000000 0.000000
vn -1.000000 0.000000 0.000000
vn -1.000000 0.000000 0.000000
vn -1.000000 0.000000 0.000000
vn 1.000000 0.000000 0.000000
vn 1.000000 0.000000 0.000000
vn 1.000000 0.000000 0.000000
vn 1.000000 0.000000 0.000000
vn 1.000000 0.000000 0.000000
vn 1.000000 0.000000 0.000000
vn 1.000000 0.000000 0.000000
vn -1.000000 0.000000 0.000000
vn -1.000000 0.000000 0.000000
vn -1.000000 0.000000 0.000000
vn -1.000000 0.000000 0.000000
vn 1.000000 0.000000 0.000000
vn 1.000000 0.000000 0.000000
vn 1.000000 0.000000 0.000000
vn 1.000000 0.000000 0.000000
vn -1.000000 0.000000 0.000000
vn -1.000000 0.000000 0.000000
vn -1.000000 0.000000 0.000000
vn -1.000000 0.000000 0.000000
vn 0.000000 1.000000 0.000000
vn 0.000000 1.000000 0.000000
vn 0.000000 1.000000 0.000000
vn 0.000000 1.000000 0.000000
vn 0.000000 0.000000 -1.000000
vn 0.000000 0.000000 -1.000000
vn 0.000000 0.000000 -1.000000
vn 0.000000 0.000000 -1.000000
vn 0.000000 -1.000000 0.000000
vn 0.000000 -1.000000 0.000000
vn 0.000000 -1.000000 0.000000
vn 0.000000 -1.000000 0.000000
vn 0.000000 0.000000 1.000000
vn 0.000000 0.000000 1.000000
vn 0.000000 0.000000 1.000000
vn 0.000000 0.000000 1.000000
vn 0.000000 0.000000 1.000000
vn 0.000000 0.000000 1.000000
vn 0.000000 0.000000 1.000000
vn 0.000000 0.000000 1.000000
vn 0.000000 1.000000 0.000000
vn 0.000000 1.000000 0.000000
vn 0.000000 1.000000 0.000000
vn 0.000000 1.000000 0.000000
vn 0.000000 0.000000 -1.000000
vn 0.000000 0.000000 -1.000000
vn 0.000000 0.000000 -1.000000
vn 0.000000 0.000000 -1.000000
vn 0.000000 -1.000000 0.000000
vn 0.000000 -1.000000 0.000000
vn 0.000000 -1.000000 0.000000
vn 0.000000 -1.000000 0.000000
vn 1.000000 0.000000 0.000000
vn 1.000000 0.000000 0.000000
vn -0.707115 -0.707098 0.000000
vn -0.707115 -0.707098 0.000000
vn -0.707176 -0.707037 0.000000
vn -0.707176 -0.707037 0.000000
vn 0.000000 -0.707113 0.707101
vn 0.000000 -0.707113 0.707101
vn 0.000000 -0.707113 0.707101
vn 0.000000 -0.707113 0.707101
vn -0.707070 0.000000 0.707143
vn -0.707070 0.000000 0.707143
vn -0.707128 0.000000 0.707085
vn -0.707128 0.000000 0.707085
vn -0.707078 0.000000 0.707135
vn -0.707078 0.000000 0.707135
vn -0.707127 0.000000 0.707086
vn -0.707127 0.000000 0.707086
vn 0.000000 0.707129 0.707084
vn 0.000000 0.707129 0.707084
vn 0.000000 0.707129 0.707084
vn 0.000000 0.707129 0.707084
vn -0.707094 0.707119 0.000000
vn -0.707094 0.707119 0.000000
vn -0.707154 0.707060 0.000000
vn -0.707154 0.707060 0.000000
vn 0.707103 0.707111 0.000000
vn 0.707103 0.707111 0.000000
vn 0.707154 0.707059 0.000000
vn 0.707154 0.707059 0.000000
vn -0.707077 0.707137 0.000000
vn -0.707077 0.707137 0.000000
vn -0.706968 0.707246 0.000000
vn -0.706968 0.707246 0.000000
vn 0.000000 0.707129 -0.707084
vn 0.000000 0.707129 -0.707084
vn 0.000000 0.707129 -0.707084
vn 0.000000 0.707129 -0.707084
vn -0.707078 0.000000 -0.707135
vn -0.707078 0.000000 -0.707135
vn -0.707127 0.000000 -0.707086
vn -0.707127 0.000000 -0.707086
vn 0.707178 0.707036 0.000000
vn 0.707178 0.707036 0.000000
vn 0.707119 0.707095 0.000000
vn 0.707119 0.707095 0.000000
vn -0.707155 0.707059 0.000000
vn -0.707155 0.707059 0.000000
vn 0.707155 0.707059 0.000000
vn 0.707155 0.707059 0.000000
vn -0.707139 0.000000 -0.707075
vn -0.707139 0.000000 -0.707075
vn -0.707202 0.000000 -0.707012
vn -0.707202 0.000000 -0.707012
vn -0.707107 -0.707107 0.000000
vn -0.707107 -0.707107 0.000000
vn -0.706991 -0.707223 0.000000
vn -0.706991 -0.707223 0.000000
vn -0.706995 -0.707219 0.000000
vn -0.706995 -0.707219 0.000000
vn -0.707177 -0.707036 0.000000
vn -0.707177 -0.707036 0.000000
vn -0.706972 0.707241 0.000000
vn -0.706972 0.707241 0.000000
vn 0.707117 0.707097 0.000000
vn 0.707117 0.707097 0.000000
vn 0.000000 0.000000 1.000000
vn 0.000000 0.000000 1.000000
vn 0.000000 0.000000 1.000000
vn 0.000000 0.000000 1.000000
vn 0.000000 1.000000 0.000000
vn 0.000000 1.000000 0.000000
vn 0.000000 1.000000 0.000000
vn 0.000000 1.000000 0.000000
vn 0.000000 0.000000 -1.000000
vn 0.000000 0.000000 -1.000000
vn 0.000000 0.000000 -1.000000
vn 0.000000 0.000000 -1.000000
vn 0.000000 -1.000000 0.000000
vn 0.000000 -1.000000 0.000000
vn 0.000000 -1.000000 0.000000
vn 0.000000 -1.000000 0.000000
vn -1.000000 0.000000 0.000000
vn -1.000000 0.000000 0.000000
vn -1.000000 0.000000 0.000000
vn -1.000000 0.000000 0.000000
vn -1.000000 0.000000 0.000000
vn -1.000000 0.000000 0.000000
vn -1.000000 0.000000 0.000000
vn -1.000000 0.000000 0.000000
vn 0.000000 1.000000 0.000000
vn 0.000000 1.000000 0.000000
vn 0.000000 1.000000 0.000000
vn 0.000000 1.000000 0.000000
vn 0.000000 -1.000000 0.000000
vn 0.000000 -1.000000 0.000000
vn 0.000000 -1.000000 0.000000
vn 0.000000 -1.000000 0.000000
vn -1.000000 0.000000 0.000000
vn 0.000000 1.000000 0.000000
vn 0.000000 1.000000 0.000000
vn 0.000000 -1.000000 0.000000
vn 0.000000 -1.000000 0.000000
vn -1.000000 0.000000 0.000000
vn -1.000000 0.000000 0.000000
vn 0.000000 0.000000 -1.000000
vn 0.000000 0.000000 -1.000000
vn 0.000000 0.000000 1.000000
vn 0.000000 0.000000 1.000000
vn -1.000000 0.000000 0.000000
vn -1.000000 0.000000 0.000000
vn -1.000000 0.000000 0.000000
vn -1.000000 0.000000 0.000000
vn -1.000000 0.000000 0.000000
vn 0.000000 0.000000 -1.000000
vn 0.000000 0.000000 -1.000000
vn 1.000000 0.000000 0.000000
vn 1.000000 0.000000 0.000000
vn 1.000000 0.000000 0.000000
vn 1.000000 0.000000 0.000000
vn 1.000000 0.000000 0.000000
vn 0.000000 0.000000 1.000000
vn 0.000000 0.000000 1.000000
vn -1.000000 0.000000 0.000000
vn -1.000000 0.000000 0.000000
vn -1.000000 0.000000 0.000000
vn -1.000000 0.000000 0.000000
vn 0.000000 1.000000 0.000000
vn 0.000000 1.000000 0.000000
vn 1.000000 0.000000 0.000000
vn 0.000000 -1.000000 0.000000
vn 0.000000 -1.000000 0.000000
vn -0.577350 -0.577350 0.577350
vn -0.577350 -0.577350 0.577350
vn -0.577350 -0.577350 0.577350
vn -0.577363 0.577363 0.577325
vn -0.577363 0.577363 0.577325
vn -0.577363 0.577363 0.577325
vn -0.577363 0.577363 -0.577325
vn -0.577363 0.577363 -0.577325
vn -0.577363 0.577363 -0.577325
s off
g pCube10
usemtl initialShadingGroup
f 1/14/1 2/3/2 5/2/3 6/1/4
f 2/3/5 1/14/6 4/19/7 3/4/8
f 3/4/9 4/19/10 8/15/11 7/5/12
f 6/1/13 5/2/14 7/5/15 8/15/16
f 2/3/17 3/4/18 7/5/19 5/2/20
f 9/7/21 10/6/22 14/16/23 13/12/24
f 10/6/25 9/7/26 11/9/27 12/8/28
f 12/8/29 11/9/30 15/11/31 16/10/32
f 13/12/33 14/16/34 16/10/35 15/11/36
f 13/12/37 15/11/38 11/9/39 9/7/40
f 10/21/41 12/13/42 4/19/43 1/14/44
f 6/1/45 8/15/46 16/10/47 14/16/48
f 12/13/49 16/17/50 8/18/51 4/19/52
f 14/20/53 10/21/54 1/14/55 6/22/56
f 17/23/57 18/24/58 20/25/59 19/26/60
f 19/26/61 20/25/62 22/27/63 21/28/64
f 21/28/65 22/27/66 24/29/67 23/30/68
f 23/30/69 24/29/70 18/31/71 17/32/72
f 18/24/73 24/33/74 22/34/75 20/25/76
f 23/35/77 17/23/78 19/26/79 21/36/80
f 25/37/81 26/38/82 28/39/83 27/40/84
f 27/40/85 28/39/86 30/41/87 29/42/88
f 29/42/89 30/41/90 32/43/91 31/44/92
f 31/44/93 32/43/94 26/45/95 25/46/96
f 26/38/97 32/47/98 30/48/99 28/39/100
f 31/49/101 25/37/102 27/40/103 29/50/104
f 33/51/105 34/52/106 36/53/107 35/54/108
f 35/54/109 36/53/110 38/55/111 37/56/112
f 37/56/113 38/55/114 40/57/115 39/58/116
f 39/58/117 40/57/118 34/59/119 33/60/120
f 34/52/121 40/61/122 38/62/123 36/53/124
f 39/63/125 33/51/126 35/54/127 37/64/128
s 1
f 43/65/129 41/66/130 46/67/131 47/68/132
f 65/69/133 43/65/129 47/68/132 64/70/134
s off
f 67/71/135 66/72/136 68/73/137 69/74/138
s 1
f 47/68/132 46/67/131 52/75/139 53/76/140
f 64/70/134 47/68/132 53/76/140 63/77/141
f 49/78/142 48/79/143 54/80/144 55/81/145
s off
f 71/82/146 70/83/147 72/84/148 73/85/149
s 1
f 48/79/143 59/86/150 58/87/151 54/80/144
f 42/88/152 60/89/153 59/86/150 48/79/143
s 3
f 62/90/154 61/91/155 56/92/156 57/93/157
s 1
f 59/86/150 64/70/134 63/77/141 58/87/151
f 60/89/153 65/69/133 64/70/134 59/86/150
s off
f 45/94/158 61/91/159 66/72/160 67/71/161
f 61/91/162 62/90/163 68/73/164 66/72/165
f 62/90/166 51/95/167 69/74/168 68/73/169
f 51/95/170 45/94/171 67/71/172 69/74/173
f 57/93/174 56/92/175 70/83/176 71/82/177
f 56/92/178 44/96/179 72/84/180 70/83/181
f 44/96/182 50/97/183 73/85/184 72/84/185
f 50/97/186 57/93/187 71/82/188 73/85/189
s 1
f 78/98/190 77/99/191 42/88/152 48/79/143 49/78/142
s 4
f 74/100/192 76/101/193 102/102/194 101/103/195
s off
f 75/104/196 74/105/197 77/99/198 78/98/199
s 5
f 76/101/200 75/104/201 89/106/202 90/107/203
f 79/108/204 81/109/205 116/110/206 115/111/207
s off
f 80/112/208 79/108/209 83/113/210 82/114/211
s 6
f 81/115/212 80/112/213 91/116/214 92/117/215
s 7
f 82/114/216 83/113/217 94/118/218 93/119/219
s 6
f 84/120/220 86/121/221 110/122/222 109/123/223
s off
f 85/124/224 84/120/225 88/125/226 87/126/227
s 9
f 86/127/228 85/128/229 96/129/230 95/130/231
s 7
f 87/126/232 88/125/233 112/131/234 111/132/235
s 5
f 90/107/203 89/106/202 115/111/207 116/110/206
s 6
f 92/133/215 91/134/214 104/135/236 103/136/237
s 7
f 93/119/219 94/118/218 106/137/238 105/138/239
s 9
f 95/130/231 96/129/230 113/139/240 114/140/241
f 97/141/242 98/142/243 114/143/241 113/144/240
s 4
f 98/145/244 97/141/245 100/146/246 99/147/247
f 99/148/247 100/149/246 108/150/248 107/151/249
f 101/103/195 102/102/194 118/152/250 117/153/251
s 6
f 103/136/237 104/135/236 120/154/252 119/155/253
s 7
f 105/138/239 106/137/238 122/156/254 121/157/255
s 4
f 107/151/249 108/150/248 117/153/251 118/152/250
s 6
f 109/123/223 110/122/222 119/158/253 120/159/252
s 7
f 111/132/235 112/131/234 121/157/255 122/156/254
s 12
f 75/104/256 78/98/257 49/78/258 89/106/259
s 13
f 109/123/260 112/131/261 88/125/262 84/120/263
s 14
f 113/144/264 46/160/265 41/161/266 97/141/267
s 15
f 97/141/268 41/161/269 43/162/270 100/146/271
s 3
f 98/163/272 99/148/273 45/94/274 114/140/275
f 102/102/276 76/101/277 90/107/278 44/96/279
s 13
f 80/112/280 82/114/281 93/119/282 91/116/283
s 15
f 101/164/284 42/165/285 77/166/286 74/167/287
s 3
f 99/148/273 107/151/288 61/91/155 45/94/274
s 13
f 120/159/289 121/157/290 112/131/261 109/123/260
s 15
f 100/146/271 43/162/270 65/168/291 108/169/292
s 3
f 114/140/275 45/94/274 51/95/293 95/130/294
s 14
f 96/170/295 52/171/296 46/160/265 113/144/264
s 12
f 89/106/259 49/78/258 55/81/297 115/111/298
s 3
f 44/96/279 90/107/278 116/110/299 50/97/300
f 51/95/293 62/90/154 119/155/301 110/172/302
f 95/130/294 51/95/293 110/172/302 86/127/303
s 14
f 85/124/304 87/126/305 52/171/296 96/170/295
s 1
f 53/76/140 52/75/139 87/173/306 111/174/307
f 63/77/141 53/76/140 111/174/307 122/175/308
f 55/81/145 54/80/144 94/176/309 83/113/310
s 12
f 115/111/298 55/81/297 83/113/311 79/108/312
s 3
f 50/97/300 116/110/299 81/109/313 92/133/314
f 118/152/315 102/102/276 44/96/279 56/92/156
f 103/136/316 57/93/157 50/97/300 92/133/314
s 13
f 91/116/283 93/119/282 105/138/317 104/177/318
s 1
f 54/80/144 58/87/151 106/178/319 94/176/309
s 15
f 117/179/320 60/180/321 42/165/285 101/164/284
s 3
f 107/151/288 118/152/315 56/92/156 61/91/155
f 119/155/301 62/90/154 57/93/157 103/136/316
s 13
f 104/177/318 105/138/317 121/157/290 120/159/289
s 1
f 58/87/151 63/77/141 122/175/308 106/178/319
s 15
f 108/169/292 65/168/291 60/180/321 117/179/320
s off
f 74/105/322 75/104/323 76/101/324
f 79/108/325 80/112/326 81/115/327
f 84/120/328 85/124/329 86/121/330
