# This file uses centimeters as units for non-parametric coordinates.

mtllib Coaster1.mtl
g default
v 2.526578 0.434232 -0.089918
v 2.637911 0.434232 -0.089918
v 2.582244 0.434232 -0.186335
v 2.582244 0.434232 -0.057778
v 2.637911 0.434232 -0.154196
v 2.526578 0.434232 -0.154196
v 2.582244 0.434232 -0.122057
v 2.517966 0.434232 -0.122057
v 2.550105 0.434232 -0.066390
v 2.582244 0.434232 -0.089918
v 2.554411 0.434232 -0.138126
v 2.554411 0.434232 -0.105987
v 2.614383 0.434232 -0.066390
v 2.646522 0.434232 -0.122057
v 2.610077 0.434232 -0.138126
v 2.610077 0.434232 -0.105987
v 2.614383 0.434232 -0.177723
v 2.550105 0.434232 -0.177723
v 2.582244 0.434232 -0.154196
v 2.540494 0.434232 -0.146161
v 2.520156 0.434232 -0.138693
v 2.536188 0.434232 -0.114022
v 2.554411 0.434232 -0.122057
v 2.538341 0.434232 -0.130091
v 2.520156 0.434232 -0.105420
v 2.536793 0.434232 -0.076605
v 2.552258 0.434232 -0.086189
v 2.537265 0.434232 -0.096088
v 2.565608 0.434232 -0.059969
v 2.582244 0.434232 -0.073848
v 2.568327 0.434232 -0.097952
v 2.567251 0.434232 -0.080018
v 2.582244 0.434232 -0.105987
v 2.568327 0.434232 -0.130091
v 2.568327 0.434232 -0.114022
v 2.598881 0.434232 -0.059969
v 2.612230 0.434232 -0.086189
v 2.596161 0.434232 -0.097952
v 2.597237 0.434232 -0.080018
v 2.627696 0.434232 -0.076605
v 2.644332 0.434232 -0.105420
v 2.628300 0.434232 -0.114022
v 2.627223 0.434232 -0.096088
v 2.644332 0.434232 -0.138693
v 2.623994 0.434232 -0.146161
v 2.610077 0.434232 -0.122057
v 2.626147 0.434232 -0.130091
v 2.596161 0.434232 -0.130091
v 2.596161 0.434232 -0.114022
v 2.627696 0.434232 -0.167508
v 2.598314 0.434232 -0.165959
v 2.596161 0.434232 -0.146161
v 2.611154 0.434232 -0.156060
v 2.598880 0.434232 -0.184145
v 2.565608 0.434232 -0.184145
v 2.566175 0.434232 -0.165959
v 2.582244 0.434232 -0.173994
v 2.536793 0.434232 -0.167508
v 2.568327 0.434232 -0.146161
v 2.553334 0.434232 -0.156060
v 2.582244 0.434232 -0.138126
v 2.554411 0.438062 -0.122057
v 2.554411 0.438062 -0.138126
v 2.540494 0.438062 -0.146161
v 2.538341 0.438062 -0.130091
v 2.526578 0.438062 -0.154196
v 2.520156 0.438062 -0.138693
v 2.517966 0.438062 -0.122057
v 2.536188 0.438062 -0.114022
v 2.554411 0.438062 -0.105987
v 2.520156 0.438062 -0.105420
v 2.537265 0.438062 -0.096088
v 2.526578 0.438062 -0.089918
v 2.536793 0.438062 -0.076605
v 2.550105 0.438062 -0.066390
v 2.552258 0.438062 -0.086189
v 2.565608 0.438062 -0.059969
v 2.567251 0.438062 -0.080018
v 2.582244 0.438062 -0.057778
v 2.582244 0.438062 -0.073848
v 2.582244 0.438062 -0.089918
v 2.568327 0.438062 -0.097952
v 2.582244 0.438062 -0.105987
v 2.568327 0.438062 -0.114022
v 2.582244 0.438062 -0.122057
v 2.568327 0.438062 -0.130091
v 2.596161 0.438062 -0.097952
v 2.597237 0.438062 -0.080018
v 2.598881 0.438062 -0.059969
v 2.614383 0.438062 -0.066390
v 2.612230 0.438062 -0.086189
v 2.610077 0.438062 -0.105987
v 2.627696 0.438062 -0.076605
v 2.627223 0.438062 -0.096088
v 2.637911 0.438062 -0.089918
v 2.644332 0.438062 -0.105420
v 2.646522 0.438062 -0.122057
v 2.628300 0.438062 -0.114022
v 2.644332 0.438062 -0.138693
v 2.626147 0.438062 -0.130091
v 2.637911 0.438062 -0.154196
v 2.623994 0.438062 -0.146161
v 2.610077 0.438062 -0.138126
v 2.610077 0.438062 -0.122057
v 2.596161 0.438062 -0.130091
v 2.596161 0.438062 -0.114022
v 2.596161 0.438062 -0.146161
v 2.611154 0.438062 -0.156060
v 2.627696 0.438062 -0.167508
v 2.614383 0.438062 -0.177723
v 2.598314 0.438062 -0.165959
v 2.582244 0.438062 -0.154196
v 2.598880 0.438062 -0.184145
v 2.582244 0.438062 -0.173994
v 2.582244 0.438062 -0.186335
v 2.565608 0.438062 -0.184145
v 2.550105 0.438062 -0.177723
v 2.566175 0.438062 -0.165959
v 2.536793 0.438062 -0.167508
v 2.553334 0.438062 -0.156060
v 2.568327 0.438062 -0.146161
v 2.582244 0.438062 -0.138126
vt 0.382061 0.840728
vt 0.382061 0.780895
vt 0.396842 0.780895
vt 0.396842 0.840729
vt 0.382061 0.716686
vt 0.396842 0.716686
vt 0.382061 0.892109
vt 0.396842 0.892109
vt 0.382061 0.652477
vt 0.396842 0.652477
vt 0.382061 0.931534
vt 0.396842 0.931534
vt 0.382061 0.592644
vt 0.396842 0.592644
vt 0.382061 0.541263
vt 0.396842 0.541263
vt 0.382061 0.501838
vt 0.396842 0.501838
vt 0.402492 0.840729
vt 0.402492 0.780895
vt 0.417273 0.780895
vt 0.417273 0.840729
vt 0.402492 0.716686
vt 0.417273 0.716686
vt 0.402492 0.892109
vt 0.417273 0.892109
vt 0.402492 0.652477
vt 0.417273 0.652477
vt 0.402492 0.931534
vt 0.417273 0.931534
vt 0.402492 0.592643
vt 0.417273 0.592644
vt 0.402492 0.541263
vt 0.417273 0.541263
vt 0.402492 0.501838
vt 0.417273 0.501838
vt 0.142496 0.250077
vt 0.142496 0.312098
vt 0.088784 0.343109
vt 0.080474 0.281088
vt 0.196208 0.281088
vt 0.196208 0.219066
vt 0.196208 0.343109
vt 0.138341 0.381316
vt 0.035072 0.374119
vt 0.010288 0.314286
vt 0.072165 0.219066
vt 0.142496 0.188056
vt 0.249920 0.312098
vt 0.196208 0.157045
vt 0.249920 0.188056
vt 0.249920 0.250077
vt 0.249920 0.374119
vt 0.187898 0.419522
vt 0.074497 0.425500
vt 0.001835 0.250077
vt 0.134186 0.111642
vt 0.076320 0.149849
vt 0.303631 0.281088
vt 0.303631 0.343109
vt 0.192053 0.087828
vt 0.249920 0.126035
vt 0.303631 0.219066
vt 0.311941 0.419522
vt 0.249919 0.450533
vt 0.125877 0.464925
vt 0.010288 0.185868
vt 0.074497 0.074654
vt 0.125877 0.035229
vt 0.357343 0.312098
vt 0.361498 0.381316
vt 0.185710 0.010445
vt 0.249920 0.064013
vt 0.303631 0.157045
vt 0.357343 0.250077
vt 0.373962 0.464925
vt 0.314129 0.489709
vt 0.185710 0.489709
vt 0.035072 0.126035
vt 0.411055 0.343109
vt 0.425342 0.425500
vt 0.249920 0.001992
vt 0.307786 0.087828
vt 0.357343 0.188056
vt 0.419365 0.281088
vt 0.249919 0.498162
vt 0.464767 0.374119
vt 0.314129 0.010445
vt 0.365653 0.111642
vt 0.427674 0.219066
vt 0.489551 0.314286
vt 0.373962 0.035229
vt 0.423519 0.149849
vt 0.498004 0.250077
vt 0.425342 0.074654
vt 0.489551 0.185868
vt 0.464767 0.126035
vt 0.563584 0.749923
vt 0.501563 0.718912
vt 0.509872 0.656891
vt 0.563584 0.687902
vt 0.493253 0.780934
vt 0.563584 0.811944
vt 0.431376 0.685714
vt 0.456160 0.625881
vt 0.559429 0.618685
vt 0.617296 0.656891
vt 0.617296 0.718912
vt 0.617296 0.780934
vt 0.422923 0.749923
vt 0.617296 0.842955
vt 0.555275 0.888358
vt 0.497408 0.850151
vt 0.495585 0.574501
vt 0.608987 0.580478
vt 0.671008 0.625881
vt 0.671008 0.687902
vt 0.671008 0.811944
vt 0.671008 0.749923
vt 0.431376 0.814132
vt 0.671008 0.873966
vt 0.613141 0.912172
vt 0.495585 0.925346
vt 0.546965 0.964771
vt 0.546965 0.535075
vt 0.671008 0.549467
vt 0.733029 0.580478
vt 0.724720 0.656891
vt 0.724720 0.718912
vt 0.724720 0.780934
vt 0.456160 0.873966
vt 0.724720 0.842955
vt 0.671008 0.935987
vt 0.606799 0.989555
vt 0.606799 0.510291
vt 0.735217 0.510291
vt 0.795050 0.535075
vt 0.782587 0.618685
vt 0.778432 0.687902
vt 0.778432 0.749923
vt 0.778432 0.811944
vt 0.728875 0.912172
vt 0.671008 0.998008
vt 0.671008 0.501838
vt 0.846431 0.574501
vt 0.832144 0.656891
vt 0.840453 0.718912
vt 0.848763 0.780934
vt 0.786741 0.888358
vt 0.735217 0.989555
vt 0.885856 0.625881
vt 0.910640 0.685714
vt 0.919093 0.749923
vt 0.844608 0.850151
vt 0.795051 0.964771
vt 0.910640 0.814132
vt 0.846431 0.925346
vt 0.885856 0.873966
vt 0.361630 0.749923
vt 0.361630 0.690090
vt 0.376411 0.690090
vt 0.376411 0.749923
vt 0.361630 0.625881
vt 0.376411 0.625881
vt 0.361630 0.561671
vt 0.376411 0.561671
vt 0.361630 0.501838
vt 0.376411 0.501838
vt 0.355980 0.501838
vt 0.355980 0.561671
vt 0.341199 0.561671
vt 0.341199 0.501838
vt 0.355980 0.625881
vt 0.341199 0.625881
vt 0.355980 0.690090
vt 0.341199 0.690090
vt 0.355980 0.749923
vt 0.341199 0.749923
vn 0.000000 1.000000 0.000000
vn 0.000000 1.000000 0.000000
vn -0.000008 1.000000 -0.000004
vn -0.000007 1.000000 -0.000001
vn -0.000012 1.000000 -0.000007
vn -0.000013 1.000000 -0.000003
vn -0.000013 1.000000 -0.000001
vn -0.000007 1.000000 0.000000
vn 0.000000 1.000000 -0.000000
vn -0.000015 1.000000 0.000003
vn -0.000008 1.000000 0.000005
vn -0.000017 1.000000 0.000010
vn -0.000010 1.000000 0.000012
vn -0.000006 1.000000 0.000012
vn -0.000004 1.000000 0.000006
vn -0.000004 1.000000 0.000013
vn -0.000002 1.000000 0.000007
vn -0.000000 1.000000 0.000013
vn -0.000000 1.000000 0.000009
vn 0.000000 1.000000 0.000000
vn 0.000000 1.000000 0.000000
vn 0.000000 1.000000 0.000000
vn 0.000000 1.000000 0.000000
vn 0.000000 1.000000 -0.000000
vn 0.000000 1.000000 0.000000
vn 0.000000 1.000000 -0.000000
vn 0.000002 1.000000 0.000007
vn 0.000004 1.000000 0.000013
vn 0.000006 1.000000 0.000012
vn 0.000004 1.000000 0.000006
vn 0.000000 1.000000 -0.000000
vn 0.000010 1.000000 0.000012
vn 0.000008 1.000000 0.000005
vn 0.000017 1.000000 0.000010
vn 0.000015 1.000000 0.000003
vn 0.000013 1.000000 -0.000001
vn 0.000007 1.000000 0.000000
vn 0.000013 1.000000 -0.000003
vn 0.000007 1.000000 -0.000001
vn 0.000012 1.000000 -0.000007
vn 0.000008 1.000000 -0.000004
vn 0.000000 1.000000 -0.000000
vn 0.000000 1.000000 0.000000
vn 0.000000 1.000000 -0.000000
vn 0.000000 1.000000 -0.000000
vn 0.000000 1.000000 -0.000000
vn 0.000005 1.000000 -0.000005
vn 0.000009 1.000000 -0.000010
vn 0.000007 1.000000 -0.000011
vn 0.000004 1.000000 -0.000006
vn 0.000000 1.000000 -0.000000
vn 0.000005 1.000000 -0.000014
vn 0.000000 1.000000 -0.000009
vn 0.000000 1.000000 -0.000020
vn -0.000005 1.000000 -0.000014
vn -0.000007 1.000000 -0.000011
vn -0.000004 1.000000 -0.000006
vn -0.000009 1.000000 -0.000010
vn -0.000005 1.000000 -0.000005
vn 0.000000 1.000000 0.000000
vn 0.000000 1.000000 -0.000000
vn 0.000000 -1.000000 0.000000
vn 0.000000 -1.000000 0.000000
vn 0.000000 -1.000000 0.000000
vn 0.000000 -1.000000 0.000000
vn 0.000000 -1.000000 0.000000
vn 0.000000 -1.000000 0.000000
vn 0.000000 -1.000000 0.000000
vn 0.000000 -1.000000 0.000000
vn 0.000000 -1.000000 0.000000
vn 0.000000 -1.000000 0.000000
vn 0.000000 -1.000000 0.000000
vn 0.000000 -1.000000 0.000000
vn 0.000000 -1.000000 0.000000
vn 0.000000 -1.000000 0.000000
vn 0.000000 -1.000000 0.000000
vn 0.000000 -1.000000 0.000000
vn 0.000000 -1.000000 0.000000
vn 0.000000 -1.000000 0.000000
vn 0.000000 -1.000000 0.000000
vn 0.000000 -1.000000 0.000000
vn 0.000000 -1.000000 0.000000
vn 0.000000 -1.000000 0.000000
vn 0.000000 -1.000000 0.000000
vn 0.000000 -1.000000 0.000000
vn 0.000000 -1.000000 0.000000
vn 0.000000 -1.000000 0.000000
vn 0.000000 -1.000000 0.000000
vn 0.000000 -1.000000 0.000000
vn 0.000000 -1.000000 0.000000
vn 0.000000 -1.000000 0.000000
vn 0.000000 -1.000000 0.000000
vn 0.000000 -1.000000 0.000000
vn 0.000000 -1.000000 0.000000
vn 0.000000 -1.000000 0.000000
vn 0.000000 -1.000000 0.000000
vn 0.000000 -1.000000 0.000000
vn 0.000000 -1.000000 0.000000
vn 0.000000 -1.000000 0.000000
vn 0.000000 -1.000000 0.000000
vn 0.000000 -1.000000 0.000000
vn 0.000000 -1.000000 0.000000
vn 0.000000 -1.000000 0.000000
vn 0.000000 -1.000000 0.000000
vn 0.000000 -1.000000 0.000000
vn 0.000000 -1.000000 0.000000
vn 0.000000 -1.000000 0.000000
vn 0.000000 -1.000000 0.000000
vn 0.000000 -1.000000 0.000000
vn 0.000000 -1.000000 0.000000
vn 0.000000 -1.000000 0.000000
vn 0.000000 -1.000000 0.000000
vn 0.000000 -1.000000 0.000000
vn 0.000000 -1.000000 0.000000
vn 0.000000 -1.000000 0.000000
vn 0.000000 -1.000000 0.000000
vn 0.000000 -1.000000 0.000000
vn 0.000000 -1.000000 0.000000
vn 0.000000 -1.000000 0.000000
vn 0.000000 -1.000000 0.000000
vn 0.000000 -1.000000 0.000000
vn 0.000000 -1.000000 0.000000
vn -0.866025 -0.000001 -0.500000
vn -0.965926 -0.000001 -0.258819
vn -0.965926 -0.000001 -0.258819
vn -0.866025 -0.000001 -0.500000
vn -1.000000 0.000000 0.000001
vn -1.000000 0.000000 -0.000000
vn -0.965926 0.000000 0.258819
vn -0.965926 0.000000 0.258819
vn -0.866025 -0.000000 0.500000
vn -0.866025 -0.000000 0.500000
vn -0.707107 0.000000 0.707107
vn -0.707107 0.000000 0.707107
vn -0.500000 0.000000 0.866025
vn -0.500000 0.000000 0.866025
vn -0.258819 0.000000 0.965926
vn -0.258819 0.000000 0.965926
vn -0.000000 -0.000001 1.000000
vn -0.000000 -0.000001 1.000000
vn 0.258819 -0.000003 0.965926
vn 0.258818 -0.000003 0.965926
vn 0.500000 -0.000004 0.866025
vn 0.500000 -0.000004 0.866025
vn 0.707107 -0.000003 0.707106
vn 0.707107 -0.000003 0.707106
vn 0.866025 -0.000001 0.500000
vn 0.866025 -0.000001 0.500000
vn 0.965926 -0.000001 0.258819
vn 0.965926 -0.000001 0.258819
vn 1.000000 0.000000 -0.000000
vn 1.000000 0.000000 -0.000000
vn 0.965926 0.000000 -0.258819
vn 0.965926 0.000000 -0.258819
vn 0.866025 0.000001 -0.500000
vn 0.866025 0.000001 -0.500000
vn 0.707107 0.000001 -0.707107
vn 0.707107 0.000001 -0.707107
vn 0.500000 0.000000 -0.866025
vn 0.500000 0.000000 -0.866025
vn 0.258820 -0.000004 -0.965926
vn 0.258820 -0.000004 -0.965926
vn 0.000000 -0.000008 -1.000000
vn 0.000000 -0.000008 -1.000000
vn -0.258820 -0.000007 -0.965926
vn -0.258820 -0.000007 -0.965926
vn -0.500000 -0.000003 -0.866025
vn -0.500000 -0.000003 -0.866025
vn -0.707107 -0.000001 -0.707107
vn -0.707107 -0.000001 -0.707107
s 1
g pDisc1
usemtl initialShadingGroup
f 62/37/1 63/38/2 64/39/3 65/40/4
f 64/39/3 66/45/5 67/46/6 65/40/4
f 67/46/6 68/56/7 69/47/8 65/40/4
f 69/47/8 70/48/9 62/37/1 65/40/4
f 69/47/8 68/56/7 71/67/10 72/58/11
f 71/67/10 73/79/12 74/68/13 72/58/11
f 74/68/13 75/69/14 76/57/15 72/58/11
f 76/57/15 70/48/9 69/47/8 72/58/11
f 76/57/15 75/69/14 77/72/16 78/61/17
f 77/72/16 79/82/18 80/73/19 78/61/17
f 80/73/19 81/62/20 82/50/21 78/61/17
f 82/50/21 70/48/9 76/57/15 78/61/17
f 82/50/21 81/62/20 83/51/22 84/42/23
f 83/51/22 85/52/24 86/41/25 84/42/23
f 86/41/25 63/38/2 62/37/1 84/42/23
f 62/37/1 70/48/9 82/50/21 84/42/23
f 87/74/26 81/62/20 80/73/19 88/83/27
f 80/73/19 79/82/18 89/88/28 88/83/27
f 89/88/28 90/92/29 91/89/30 88/83/27
f 91/89/30 92/84/31 87/74/26 88/83/27
f 91/89/30 90/92/29 93/95/32 94/93/33
f 93/95/32 95/97/34 96/96/35 94/93/33
f 96/96/35 97/94/36 98/90/37 94/93/33
f 98/90/37 92/84/31 91/89/30 94/93/33
f 98/90/37 97/94/36 99/91/38 100/85/39
f 99/91/38 101/87/40 102/80/41 100/85/39
f 102/80/41 103/70/42 104/75/43 100/85/39
f 104/75/43 92/84/31 98/90/37 100/85/39
f 104/75/43 103/70/42 105/59/44 106/63/45
f 105/59/44 85/52/24 83/51/22 106/63/45
f 83/51/22 81/62/20 87/74/26 106/63/45
f 87/74/26 92/84/31 104/75/43 106/63/45
f 107/60/46 103/70/42 102/80/41 108/71/47
f 102/80/41 101/87/40 109/81/48 108/71/47
f 109/81/48 110/76/49 111/64/50 108/71/47
f 111/64/50 112/53/51 107/60/46 108/71/47
f 111/64/50 110/76/49 113/77/52 114/65/53
f 113/77/52 115/86/54 116/78/55 114/65/53
f 116/78/55 117/66/56 118/54/57 114/65/53
f 118/54/57 112/53/51 111/64/50 114/65/53
f 118/54/57 117/66/56 119/55/58 120/44/59
f 119/55/58 66/45/5 64/39/3 120/44/59
f 64/39/3 63/38/2 121/43/60 120/44/59
f 121/43/60 112/53/51 118/54/57 120/44/59
f 121/43/60 63/38/2 86/41/25 122/49/61
f 86/41/25 85/52/24 105/59/44 122/49/61
f 105/59/44 103/70/42 107/60/46 122/49/61
f 107/60/46 112/53/51 121/43/60 122/49/61
s 2
f 23/98/62 24/99/63 20/100/64 11/101/65
f 20/100/64 24/99/63 21/104/66 6/105/67
f 21/104/66 24/99/63 22/102/68 8/110/69
f 22/102/68 24/99/63 23/98/62 12/103/70
f 22/102/68 28/113/71 25/120/72 8/110/69
f 25/120/72 28/113/71 26/123/73 1/131/74
f 26/123/73 28/113/71 27/112/75 9/124/76
f 27/112/75 28/113/71 22/102/68 12/103/70
f 27/112/75 32/122/77 29/134/78 9/124/76
f 29/134/78 32/122/77 30/133/79 4/143/80
f 30/133/79 32/122/77 31/111/81 10/121/82
f 31/111/81 32/122/77 27/112/75 12/103/70
f 31/111/81 35/109/83 33/118/84 10/121/82
f 33/118/84 35/109/83 34/108/85 7/119/86
f 34/108/85 35/109/83 23/98/62 11/101/65
f 23/98/62 35/109/83 31/111/81 12/103/70
f 38/132/87 39/142/88 30/133/79 10/121/82
f 30/133/79 39/142/88 36/150/89 4/143/80
f 36/150/89 39/142/88 37/149/90 13/155/91
f 37/149/90 39/142/88 38/132/87 16/141/92
f 37/149/90 43/154/93 40/157/94 13/155/91
f 40/157/94 43/154/93 41/156/95 2/158/96
f 41/156/95 43/154/93 42/148/97 14/153/98
f 42/148/97 43/154/93 37/149/90 16/141/92
f 42/148/97 47/147/99 44/152/100 14/153/98
f 44/152/100 47/147/99 45/146/101 5/151/102
f 45/146/101 47/147/99 46/140/103 15/139/104
f 46/140/103 47/147/99 42/148/97 16/141/92
f 46/140/103 49/130/105 48/129/106 15/139/104
f 48/129/106 49/130/105 33/118/84 7/119/86
f 33/118/84 49/130/105 38/132/87 10/121/82
f 38/132/87 49/130/105 46/140/103 16/141/92
f 52/128/107 53/138/108 45/146/101 15/139/104
f 45/146/101 53/138/108 50/145/109 5/151/102
f 50/145/109 53/138/108 51/127/110 17/137/111
f 51/127/110 53/138/108 52/128/107 19/116/112
f 51/127/110 57/126/113 54/136/114 17/137/111
f 54/136/114 57/126/113 55/135/115 3/144/116
f 55/135/115 57/126/113 56/115/117 18/125/118
f 56/115/117 57/126/113 51/127/110 19/116/112
f 56/115/117 60/106/119 58/114/120 18/125/118
f 58/114/120 60/106/119 20/100/64 6/105/67
f 20/100/64 60/106/119 59/107/121 11/101/65
f 59/107/121 60/106/119 56/115/117 19/116/112
f 59/107/121 61/117/122 34/108/85 11/101/65
f 34/108/85 61/117/122 48/129/106 7/119/86
f 48/129/106 61/117/122 52/128/107 15/139/104
f 52/128/107 61/117/122 59/107/121 19/116/112
s 3
f 6/1/123 21/2/124 67/3/125 66/4/126
f 21/2/124 8/5/127 68/6/128 67/3/125
f 8/5/127 25/9/129 71/10/130 68/6/128
f 25/9/129 1/13/131 73/14/132 71/10/130
f 1/13/131 26/15/133 74/16/134 73/14/132
f 26/15/133 9/17/135 75/18/136 74/16/134
f 9/159/135 29/160/137 77/161/138 75/162/136
f 29/160/137 4/163/139 79/164/140 77/161/138
f 4/163/139 36/165/141 89/166/142 79/164/140
f 36/165/141 13/167/143 90/168/144 89/166/142
f 13/29/143 40/25/145 93/26/146 90/30/144
f 40/25/145 2/19/147 95/22/148 93/26/146
f 2/19/147 41/20/149 96/21/150 95/22/148
f 41/20/149 14/23/151 97/24/152 96/21/150
f 14/23/151 44/27/153 99/28/154 97/24/152
f 44/27/153 5/31/155 101/32/156 99/28/154
f 5/31/155 50/33/157 109/34/158 101/32/156
f 50/33/157 17/35/159 110/36/160 109/34/158
f 17/169/159 54/170/161 113/171/162 110/172/160
f 54/170/161 3/173/163 115/174/164 113/171/162
f 3/173/163 55/175/165 116/176/166 115/174/164
f 55/175/165 18/177/167 117/178/168 116/176/166
f 18/11/167 58/7/169 119/8/170 117/12/168
f 58/7/169 6/1/123 66/4/126 119/8/170
