# This file uses centimeters as units for non-parametric coordinates.

mtllib wall1.mtl
g default
v 5.254157 1.653301 1.907269
v 5.254157 1.653301 -1.764167
v 5.254157 0.075296 1.907269
v 5.254157 0.075296 -1.764167
v 5.254157 1.653301 1.907269
v 5.254157 0.075296 1.907269
vt 0.000000 0.000000
vt 1.000000 0.000000
vt 0.000000 1.000000
vt 1.000000 1.000000
vt 0.000000 0.000000
vt 1.000000 0.000000
vt 1.000000 1.000000
vt 0.000000 1.000000
vn -1.000000 -0.000000 0.000000
vn -1.000000 -0.000000 0.000000
vn -1.000000 -0.000000 0.000000
vn -1.000000 -0.000000 0.000000
vn 0.000000 0.000000 0.000000
vn 0.000000 0.000000 0.000000
vn 0.000000 0.000000 0.000000
vn 0.000000 0.000000 0.000000
s off
g pPlane29
usemtl initialShadingGroup
f 1/1/1 2/2/2 4/4/3 3/3/4
f 1/5/5 3/6/6 6/7/7 5/8/8
