# This file uses centimeters as units for non-parametric coordinates.

mtllib ceiling.mtl
g default
v -7.802317 5.481922 11.801987
v -7.802317 5.493530 11.813594
v -7.813925 5.493530 11.801987
v 5.438927 5.493530 11.801987
v 5.427319 5.493530 11.813594
v 5.427319 5.481922 11.801987
v -7.813925 5.712422 11.801987
v -7.802317 5.712422 11.813594
v -7.802317 5.724031 11.801987
v 5.427319 5.724031 11.801987
v 5.427319 5.712422 11.813594
v 5.438927 5.712422 11.801987
v -7.813925 5.712422 -10.276996
v -7.802317 5.724031 -10.276996
v -7.802317 5.712422 -10.288603
v 5.427319 5.712422 -10.288603
v 5.427319 5.724031 -10.276996
v 5.438927 5.712422 -10.276996
v -7.813925 5.493530 -10.276996
v -7.802317 5.493530 -10.288603
v -7.802317 5.481922 -10.276996
v 5.427319 5.481922 -10.276996
v 5.427319 5.493530 -10.288603
v 5.438927 5.493530 -10.276996
vt 0.001992 0.002242
vt 0.002312 0.002242
vt 0.002312 0.610382
vt 0.001992 0.610382
vt 0.015830 0.610702
vt 0.015830 0.610382
vt 0.380225 0.610382
vt 0.380225 0.610702
vt 0.002312 0.001922
vt 0.008341 0.001922
vt 0.008341 0.002242
vt 0.388399 0.610382
vt 0.388080 0.610382
vt 0.388080 0.002242
vt 0.388399 0.002242
vt 0.388399 0.610702
vt 0.394428 0.610382
vt 0.394428 0.610702
vt 0.008661 0.002242
vt 0.008661 0.610382
vt 0.008341 0.610382
vt 0.401722 0.002242
vt 0.401722 0.001922
vt 0.766118 0.001922
vt 0.766118 0.002242
vt 0.394748 0.610382
vt 0.394428 0.002242
vt 0.394748 0.002242
vt 0.008341 0.610702
vt 0.002312 0.610702
vt 0.401722 0.610702
vt 0.401722 0.610382
vt 0.766118 0.610382
vt 0.766118 0.610702
vt 0.394428 0.001922
vt 0.388399 0.001922
vt 0.015830 0.002242
vt 0.015830 0.001922
vt 0.380225 0.001922
vt 0.380225 0.002242
vt 0.773972 0.366317
vt 0.773972 0.001922
vt 0.780001 0.001922
vt 0.780001 0.366317
vt 0.787615 0.366317
vt 0.787615 0.001922
vt 0.793644 0.001922
vt 0.793644 0.366317
vn -0.707098 -0.707116 0.000000
vn -0.707098 -0.707116 0.000000
vn -0.707098 -0.707116 0.000000
vn -0.707098 -0.707116 0.000000
vn 0.000000 -0.707076 0.707138
vn 0.000000 -0.707076 0.707138
vn 0.000000 -0.707076 0.707138
vn 0.000000 -0.707076 0.707138
vn -0.707092 0.000000 0.707121
vn -0.707092 0.000000 0.707121
vn -0.707092 0.000000 0.707121
vn -0.707092 0.000000 0.707121
vn 0.707109 -0.707105 0.000000
vn 0.707109 -0.707105 0.000000
vn 0.707109 -0.707105 0.000000
vn 0.707109 -0.707105 0.000000
vn 0.707092 0.000000 0.707121
vn 0.707092 0.000000 0.707121
vn 0.707092 0.000000 0.707121
vn 0.707092 0.000000 0.707121
vn -0.707127 0.707087 0.000000
vn -0.707127 0.707087 0.000000
vn -0.707127 0.707087 0.000000
vn -0.707127 0.707087 0.000000
vn 0.000000 0.707041 0.707173
vn 0.000000 0.707041 0.707173
vn 0.000000 0.707041 0.707173
vn 0.000000 0.707041 0.707173
vn 0.707138 0.707076 0.000000
vn 0.707138 0.707076 0.000000
vn 0.707138 0.707076 0.000000
vn 0.707138 0.707076 0.000000
vn -0.707059 0.000000 -0.707154
vn -0.707059 0.000000 -0.707154
vn -0.707059 0.000000 -0.707154
vn -0.707059 0.000000 -0.707154
vn 0.000000 0.707041 -0.707173
vn 0.000000 0.707041 -0.707173
vn 0.000000 0.707041 -0.707173
vn 0.000000 0.707041 -0.707173
vn 0.707059 0.000000 -0.707154
vn 0.707059 0.000000 -0.707154
vn 0.707059 0.000000 -0.707154
vn 0.707059 0.000000 -0.707154
vn 0.000000 -0.707076 -0.707138
vn 0.000000 -0.707076 -0.707138
vn 0.000000 -0.707076 -0.707138
vn 0.000000 -0.707076 -0.707138
vn 0.000000 0.000000 1.000000
vn 0.000000 0.000000 1.000000
vn 0.000000 0.000000 1.000000
vn 0.000000 0.000000 1.000000
vn 0.000000 1.000000 0.000000
vn 0.000000 1.000000 0.000000
vn 0.000000 1.000000 0.000000
vn 0.000000 1.000000 0.000000
vn 0.000000 0.000000 -1.000000
vn 0.000000 0.000000 -1.000000
vn 0.000000 0.000000 -1.000000
vn 0.000000 0.000000 -1.000000
vn 0.000000 -1.000000 0.000000
vn 0.000000 -1.000000 0.000000
vn 0.000000 -1.000000 0.000000
vn 0.000000 -1.000000 0.000000
vn 1.000000 0.000000 0.000000
vn 1.000000 0.000000 0.000000
vn 1.000000 0.000000 0.000000
vn 1.000000 0.000000 0.000000
vn -1.000000 0.000000 0.000000
vn -1.000000 0.000000 0.000000
vn -1.000000 0.000000 0.000000
vn -1.000000 0.000000 0.000000
vn -0.577329 -0.577329 0.577393
vn -0.577329 -0.577329 0.577393
vn -0.577329 -0.577329 0.577393
vn 0.577329 -0.577329 0.577393
vn 0.577329 -0.577329 0.577393
vn 0.577329 -0.577329 0.577393
vn -0.577414 0.577286 0.577350
vn -0.577414 0.577286 0.577350
vn -0.577414 0.577286 0.577350
vn 0.577414 0.577286 0.577350
vn 0.577414 0.577286 0.577350
vn 0.577414 0.577286 0.577350
vn -0.577329 0.577329 -0.577393
vn -0.577329 0.577329 -0.577393
vn -0.577329 0.577329 -0.577393
vn 0.577329 0.577329 -0.577393
vn 0.577329 0.577329 -0.577393
vn 0.577329 0.577329 -0.577393
vn -0.577286 -0.577350 -0.577414
vn -0.577286 -0.577350 -0.577414
vn -0.577286 -0.577350 -0.577414
vn 0.577286 -0.577350 -0.577414
vn 0.577286 -0.577350 -0.577414
vn 0.577286 -0.577350 -0.577414
s off
g polySurface425 polySurface415
usemtl initialShadingGroup
f 1/1/1 3/2/2 19/3/3 21/4/4
f 2/5/5 1/6/6 6/7/7 5/8/8
f 3/2/9 2/9/10 8/10/11 7/11/12
f 4/12/13 6/13/14 22/14/15 24/15/16
f 5/16/17 4/12/18 12/17/19 11/18/20
f 7/11/21 9/19/22 14/20/23 13/21/24
f 9/22/25 8/23/26 11/24/27 10/25/28
f 10/26/29 12/17/30 18/27/31 17/28/32
f 13/21/33 15/29/34 20/30/35 19/3/36
f 15/31/37 14/32/38 17/33/39 16/34/40
f 16/35/41 18/27/42 24/15/43 23/36/44
f 21/37/45 20/38/46 23/39/47 22/40/48
f 2/41/49 5/42/50 11/43/51 8/44/52
f 9/22/53 10/25/54 17/33/55 14/32/56
f 15/45/57 16/46/58 23/47/59 20/48/60
f 21/37/61 22/40/62 6/7/63 1/6/64
f 4/12/65 24/15/66 18/27/67 12/17/68
f 19/3/69 3/2/70 7/11/71 13/21/72
f 1/1/73 2/9/74 3/2/75
f 4/12/76 5/16/77 6/13/78
f 7/11/79 8/10/80 9/19/81
f 10/26/82 11/18/83 12/17/84
f 13/21/85 14/20/86 15/29/87
f 16/35/88 17/28/89 18/27/90
f 19/3/91 20/30/92 21/4/93
f 22/14/94 23/36/95 24/15/96
