# This file uses centimeters as units for non-parametric coordinates.

mtllib frame.mtl
g default
v -6.353838 -9.005616 15.739680
v -6.353838 -9.005616 -15.739680
v 5.183422 9.726485 -15.739680
v 5.183422 9.726485 15.739680
v 4.784278 -7.632473 -4.815986
v 0.639981 0.813954 1.221739
v 0.416402 -0.075888 2.795115
v 5.522763 -10.568951 -4.565088
v 4.472185 -7.672987 -4.913033
v 5.210670 -10.609465 -4.662018
v 0.104308 -0.116403 2.698066
v 0.327887 0.773440 1.124810
v 4.284651 -9.620984 -1.300330
v 0.140354 -1.174557 4.737513
v -0.171740 -1.215071 4.640584
v 3.972558 -9.661497 -1.397260
v 0.363933 -0.284714 3.164256
v 0.051839 -0.325228 3.067208
v 0.390155 -0.180349 2.979686
v 5.470294 -10.777776 -4.195947
v 5.585532 -10.857145 -4.507931
v 5.158201 -10.818291 -4.292876
v 0.078062 -0.220864 2.882637
v 5.273463 -10.897564 -4.604860
v 4.279991 9.210993 -14.328224
v -6.299992 -7.966856 -14.328224
v -4.542562 -5.588271 -10.142453
v 2.946588 6.571246 -10.142453
v -6.299992 -7.966856 14.328224
v -4.542562 -5.588271 10.142453
v 4.279991 9.210993 14.328224
v 2.946588 6.571246 10.142453
v -4.330549 -5.718852 -10.142453
v 3.158601 6.440665 -10.142453
v -4.330549 -5.718852 10.142453
v 3.158601 6.440665 10.142453
v 3.149490 6.446277 -10.142453
v -4.339660 -5.713241 -10.142453
v -4.339660 -5.713241 10.142453
v 3.149490 6.446277 10.142453
v -5.432992 -10.747228 -17.707140
v -7.995969 -9.168669 -17.707140
v 4.590133 11.266352 -17.707140
v 7.153110 9.687793 -17.707140
v -5.432992 -10.747228 17.707140
v -7.995969 -9.168669 17.707140
v 7.153110 9.687793 17.707140
v 4.590133 11.266352 17.707140
v -8.096031 -8.872149 -17.313648
v 4.280303 11.222288 -17.313648
v -8.096031 -8.872149 17.313648
v 4.280303 11.222288 17.313648
v -7.776160 -8.678301 -16.825325
v 4.251119 10.849403 -16.825325
v -7.776160 -8.678301 16.825325
v 4.251119 10.849403 16.825325
v -6.999512 -7.608009 -14.890721
v 3.644763 9.674227 -14.890721
v -6.999512 -7.608009 14.890721
v 3.644763 9.674227 14.890721
v -6.654525 -7.484361 -14.470669
v 3.689574 9.310499 -14.470669
v -6.654525 -7.484361 14.470669
v 3.689574 9.310499 14.470669
v -6.512006 -7.836276 -14.328224
v 4.067977 9.341574 -14.328224
v -6.512006 -7.836276 14.328224
v 4.067977 9.341574 14.328224
v -6.299992 -7.966856 -14.328224
v 4.279991 9.210993 -14.328224
v -6.299992 -7.966856 14.328224
v 4.279991 9.210993 14.328224
v 6.628689 8.836333 -15.739680
v -4.908571 -9.895768 -15.739680
v 6.628689 8.836333 15.739680
v -4.908571 -9.895768 15.739680
v 5.183422 9.726485 -15.739680
v -6.353838 -9.005616 -15.739680
v 5.183422 9.726485 15.739680
v -6.353838 -9.005616 15.739680
vt 0.759995 0.778374
vt 0.686735 0.880862
vt 0.667644 0.870064
vt 0.756951 0.742743
vt 0.665404 0.868797
vt 0.756258 0.739247
vt 0.663165 0.867531
vt 0.752472 0.740210
vt 0.644075 0.856733
vt 0.717337 0.754246
vt 0.766184 0.778373
vt 0.769230 0.742742
vt 0.858536 0.870063
vt 0.839446 0.880860
vt 0.769924 0.739247
vt 0.860776 0.868796
vt 0.773709 0.740209
vt 0.863015 0.867529
vt 0.808844 0.754245
vt 0.882106 0.856732
vt 0.947410 0.387746
vt 0.947410 0.735457
vt 0.915379 0.684668
vt 0.915379 0.438535
vt 0.738977 0.735457
vt 0.767838 0.684668
vt 0.913795 0.684668
vt 0.913795 0.438535
vt 0.738977 0.387746
vt 0.767838 0.438535
vt 0.021045 0.001992
vt 0.024643 0.006767
vt 0.024643 0.426928
vt 0.021045 0.431702
vt 0.269000 0.001992
vt 0.268465 0.006767
vt 0.026995 0.012692
vt 0.026995 0.421002
vt 0.268465 0.426928
vt 0.269000 0.431702
vt 0.001891 0.001992
vt 0.001891 0.431702
vt 0.263940 0.012692
vt 0.039982 0.036166
vt 0.039982 0.397528
vt 0.263940 0.421002
vt 0.249681 0.036166
vt 0.249681 0.397528
vt 0.245268 0.041263
vt 0.041482 0.041263
vt 0.041482 0.392431
vt 0.245268 0.392431
vt 0.838644 0.001992
vt 0.838644 0.353161
vt 0.834374 0.351432
vt 0.834374 0.003720
vt 0.832790 0.351432
vt 0.832790 0.003720
vt 0.893774 0.758336
vt 0.889987 0.759514
vt 0.887274 0.740423
vt 0.891061 0.739247
vt 0.894092 0.760576
vt 0.890305 0.761753
vt 0.894411 0.762815
vt 0.890624 0.763993
vt 0.897123 0.781906
vt 0.893337 0.783082
vt 0.947410 0.855167
vt 0.943623 0.856344
vt 0.880052 0.889611
vt 0.876265 0.888435
vt 0.877663 0.884650
vt 0.881450 0.885826
vt 0.865665 0.924746
vt 0.861879 0.923570
vt 0.815379 0.998008
vt 0.811592 0.996832
vt 0.279656 0.431702
vt 0.275897 0.426928
vt 0.275897 0.006767
vt 0.279656 0.001992
vt 0.310755 0.431702
vt 0.310755 0.001992
vt 0.821689 0.363354
vt 0.821689 0.001992
vt 0.825875 0.007089
vt 0.825875 0.358257
vt 0.845741 0.353161
vt 0.845741 0.001992
vt 0.850332 0.003720
vt 0.850332 0.351432
vt 0.852905 0.003720
vt 0.852905 0.351432
vt 0.805007 0.920280
vt 0.801220 0.920772
vt 0.792259 0.885141
vt 0.796046 0.884649
vt 0.805768 0.923777
vt 0.801982 0.924267
vt 0.535132 0.855515
vt 0.444260 0.707973
vt 0.446832 0.706389
vt 0.537704 0.853930
vt 0.544167 0.853930
vt 0.635039 0.706389
vt 0.637612 0.707973
vt 0.546740 0.855515
vt 0.580435 0.702600
vt 0.549336 0.683446
vt 0.702054 0.435491
vt 0.733153 0.454645
vt 0.543512 0.683446
vt 0.512414 0.702600
vt 0.359696 0.454645
vt 0.390795 0.435491
vt 0.292252 0.895054
vt 0.166739 0.691268
vt 0.168468 0.686998
vt 0.296843 0.895431
vt 0.171040 0.685414
vt 0.299416 0.893846
vt 0.305499 0.910552
vt 0.431013 0.706766
vt 0.435604 0.706389
vt 0.307229 0.914822
vt 0.438177 0.707973
vt 0.309801 0.916406
vt 0.053107 0.435491
vt 0.193098 0.662783
vt 0.175561 0.673584
vt 0.035570 0.446292
vt 0.159419 0.688174
vt 0.019428 0.915466
vt 0.001891 0.904665
vt 0.141882 0.677373
vt 0.571920 0.383957
vt 0.571920 0.001992
vt 0.799211 0.001992
vt 0.799211 0.383957
vt 0.353872 0.435491
vt 0.353872 0.681624
vt 0.352288 0.681624
vt 0.352288 0.435491
vt 0.346463 0.681624
vt 0.198922 0.681624
vt 0.198922 0.435491
vt 0.346463 0.435491
vt 0.316600 0.001992
vt 0.564555 0.001992
vt 0.554223 0.025865
vt 0.326932 0.025865
vt 0.564555 0.431702
vt 0.554223 0.407829
vt 0.316600 0.431702
vt 0.326932 0.407829
vt 0.337732 0.025865
vt 0.337732 0.407829
vt 0.805037 0.383957
vt 0.805037 0.001992
vt 0.815838 0.001992
vt 0.815838 0.383957
vn 0.851459 -0.524421 0.000000
vn 0.851459 -0.524421 0.000000
vn 0.851459 -0.524421 0.000000
vn 0.851459 -0.524421 0.000000
vn 0.926065 0.256558 0.276733
vn 0.926065 0.256558 0.276733
vn 0.926065 0.256558 0.276733
vn 0.926065 0.256558 0.276733
vn -0.926054 -0.256597 -0.276735
vn -0.926054 -0.256597 -0.276735
vn -0.926054 -0.256597 -0.276735
vn -0.926054 -0.256597 -0.276735
vn 0.303568 -0.063523 -0.950690
vn 0.303568 -0.063523 -0.950690
vn 0.297546 -0.006716 -0.954684
vn 0.297546 -0.006716 -0.954684
vn -0.156810 -0.624101 0.765447
vn -0.156810 -0.624101 0.765447
vn -0.156810 -0.624101 0.765447
vn -0.156810 -0.624101 0.765447
vn -0.250901 0.857429 0.449293
vn -0.250901 0.857429 0.449293
vn -0.250901 0.857429 0.449293
vn -0.250901 0.857429 0.449293
vn 0.156810 0.624101 -0.765447
vn 0.156810 0.624101 -0.765447
vn 0.156810 0.624101 -0.765447
vn 0.156810 0.624101 -0.765447
vn 0.926054 0.256597 0.276735
vn 0.926054 0.256597 0.276735
vn 0.926054 0.256597 0.276735
vn 0.926054 0.256597 0.276735
vn -0.926054 -0.256597 -0.276735
vn -0.926054 -0.256597 -0.276735
vn -0.926054 -0.256597 -0.276735
vn -0.926054 -0.256597 -0.276735
vn 0.024424 -0.947998 0.317338
vn 0.024424 -0.947998 0.317338
vn 0.249487 -0.861008 -0.443195
vn 0.249487 -0.861008 -0.443195
vn -0.250901 0.857429 0.449293
vn -0.250901 0.857429 0.449293
vn -0.250901 0.857429 0.449293
vn -0.250901 0.857429 0.449293
vn 0.926054 0.256597 0.276735
vn 0.926054 0.256597 0.276735
vn 0.926054 0.256597 0.276735
vn 0.926054 0.256597 0.276735
vn -0.926054 -0.256597 -0.276735
vn -0.926054 -0.256597 -0.276735
vn -0.926054 -0.256597 -0.276735
vn -0.926054 -0.256597 -0.276735
vn 0.249487 -0.861008 -0.443195
vn 0.249487 -0.861008 -0.443195
vn 0.303568 -0.063523 -0.950690
vn 0.303568 -0.063523 -0.950690
vn -0.250901 0.857429 0.449293
vn -0.250901 0.857429 0.449293
vn -0.250901 0.857429 0.449293
vn -0.250901 0.857429 0.449293
vn -0.250901 0.857429 0.449293
vn -0.250901 0.857429 0.449293
vn -0.250901 0.857429 0.449293
vn -0.250901 0.857429 0.449293
vn 0.926054 0.256597 0.276735
vn 0.926054 0.256597 0.276735
vn 0.926054 0.256597 0.276735
vn 0.926054 0.256597 0.276735
vn -0.926054 -0.256597 -0.276735
vn -0.926054 -0.256597 -0.276735
vn -0.926054 -0.256597 -0.276735
vn -0.926054 -0.256597 -0.276735
vn 0.004677 -0.927983 0.372594
vn 0.004677 -0.927983 0.372594
vn 0.024424 -0.947998 0.317338
vn 0.024424 -0.947998 0.317338
vn -0.849957 0.523496 0.059382
vn -0.849957 0.523496 0.059382
vn -0.849957 0.523496 0.059382
vn -0.849957 0.523496 0.059382
vn -0.804277 0.594255 0.000000
vn -0.804277 0.594255 0.000000
vn -0.804277 0.594255 0.000000
vn -0.804277 0.594255 0.000000
vn -0.849958 0.523496 -0.059360
vn -0.849958 0.523496 -0.059360
vn -0.849958 0.523496 -0.059360
vn -0.849958 0.523496 -0.059360
vn -0.892594 0.450862 -0.000000
vn -0.892594 0.450862 -0.000000
vn -0.892594 0.450862 -0.000000
vn -0.892594 0.450862 -0.000000
vn 0.000000 0.000000 1.000000
vn 0.000000 0.000000 1.000000
vn 0.000000 0.000000 1.000000
vn 0.000000 0.000000 1.000000
vn 0.524421 0.851459 0.000000
vn 0.524421 0.851459 0.000000
vn 0.524421 0.851459 0.000000
vn 0.524421 0.851459 0.000000
vn 0.000000 0.000000 -1.000000
vn 0.000000 0.000000 -1.000000
vn 0.000000 0.000000 -1.000000
vn 0.000000 0.000000 -1.000000
vn -0.524421 -0.851459 0.000000
vn -0.524421 -0.851459 0.000000
vn -0.524421 -0.851459 0.000000
vn -0.524421 -0.851459 0.000000
vn -0.851459 0.524421 0.000000
vn -0.851459 0.524421 0.000000
vn -0.851459 0.524421 0.000000
vn -0.851459 0.524421 0.000000
vn 0.000000 0.000000 -1.000000
vn 0.000000 0.000000 -1.000000
vn 0.000000 0.000000 -1.000000
vn 0.000000 0.000000 -1.000000
vn -0.524421 -0.851459 0.000000
vn -0.524421 -0.851459 0.000000
vn -0.524421 -0.851459 0.000000
vn -0.524421 -0.851459 0.000000
vn 0.000000 0.000000 1.000000
vn 0.000000 0.000000 1.000000
vn 0.000000 0.000000 1.000000
vn 0.000000 0.000000 1.000000
vn 0.524421 0.851459 0.000000
vn 0.524421 0.851459 0.000000
vn 0.524421 0.851459 0.000000
vn 0.524421 0.851459 0.000000
vn -0.726389 0.447389 -0.521730
vn -0.726389 0.447389 -0.521730
vn -0.726389 0.447389 -0.521730
vn -0.726389 0.447389 -0.521730
vn -0.947542 -0.319633 0.000000
vn -0.947542 -0.319633 0.000000
vn -0.947542 -0.319633 0.000000
vn -0.947542 -0.319633 0.000000
vn -0.726389 0.447389 0.521730
vn -0.726389 0.447389 0.521730
vn -0.726389 0.447389 0.521730
vn -0.726389 0.447389 0.521730
vn -0.140914 0.990022 0.000000
vn -0.140914 0.990022 0.000000
vn -0.140914 0.990022 0.000000
vn -0.140914 0.990022 0.000000
vn -0.803809 0.495073 0.329840
vn -0.803809 0.495073 0.329840
vn -0.803809 0.495073 0.329840
vn -0.803809 0.495073 0.329840
vn -0.518462 0.855101 0.000000
vn -0.518462 0.855101 0.000000
vn -0.518462 0.855101 0.000000
vn -0.518462 0.855101 0.000000
vn -0.803809 0.495073 -0.329840
vn -0.803809 0.495073 -0.329840
vn -0.803809 0.495073 -0.329840
vn -0.803809 0.495073 -0.329840
vn -0.996934 0.078245 -0.000000
vn -0.996934 0.078245 -0.000000
vn -0.996934 0.078245 -0.000000
vn -0.996934 0.078245 -0.000000
vn -0.850324 0.523721 0.051632
vn -0.850324 0.523721 0.051632
vn -0.850324 0.523721 0.051632
vn -0.850324 0.523721 0.051632
vn -0.809375 0.587293 0.000000
vn -0.809375 0.587293 0.000000
vn -0.809375 0.587293 0.000000
vn -0.809375 0.587293 0.000000
vn -0.850324 0.523721 -0.051632
vn -0.850324 0.523721 -0.051632
vn -0.850324 0.523721 -0.051632
vn -0.850324 0.523721 -0.051632
vn -0.888670 0.458547 -0.000000
vn -0.888670 0.458547 -0.000000
vn -0.888670 0.458547 -0.000000
vn -0.888670 0.458547 -0.000000
vn -0.747608 0.460458 0.478602
vn -0.747608 0.460458 0.478602
vn -0.747608 0.460458 0.478602
vn -0.747608 0.460458 0.478602
vn -0.337422 0.941354 0.000000
vn -0.337422 0.941354 0.000000
vn -0.337422 0.941354 0.000000
vn -0.337422 0.941354 0.000000
vn -0.747608 0.460458 -0.478602
vn -0.747608 0.460458 -0.478602
vn -0.747608 0.460458 -0.478602
vn -0.747608 0.460458 -0.478602
vn -0.992500 -0.122243 0.000000
vn -0.992500 -0.122243 0.000000
vn -0.992500 -0.122243 0.000000
vn -0.992500 -0.122243 0.000000
vn -0.359542 0.221445 0.906472
vn -0.359542 0.221445 0.906472
vn -0.359542 0.221445 0.906472
vn -0.359542 0.221445 0.906472
vn 0.926911 0.375282 0.000000
vn 0.926911 0.375282 0.000000
vn 0.926911 0.375282 0.000000
vn 0.926911 0.375282 0.000000
vn -0.359542 0.221445 -0.906472
vn -0.359542 0.221445 -0.906472
vn -0.359542 0.221445 -0.906472
vn -0.359542 0.221445 -0.906472
vn 0.081934 -0.996638 0.000000
vn 0.081934 -0.996638 0.000000
vn 0.081934 -0.996638 0.000000
vn 0.081934 -0.996638 0.000000
vn 0.000000 0.000000 1.000000
vn 0.000000 0.000000 1.000000
vn 0.000000 0.000000 1.000000
vn 0.000000 0.000000 1.000000
vn 0.524421 0.851459 0.000000
vn 0.524421 0.851459 0.000000
vn 0.524421 0.851459 0.000000
vn 0.524421 0.851459 0.000000
vn 0.000000 0.000000 -1.000000
vn 0.000000 0.000000 -1.000000
vn 0.000000 0.000000 -1.000000
vn 0.000000 0.000000 -1.000000
vn -0.524421 -0.851459 0.000000
vn -0.524421 -0.851459 0.000000
vn -0.524421 -0.851459 0.000000
vn -0.524421 -0.851459 0.000000
vn 0.851459 -0.524421 0.000000
vn 0.851459 -0.524421 0.000000
vn 0.851459 -0.524421 0.000000
vn 0.851459 -0.524421 0.000000
vn 0.851459 -0.524421 0.000000
vn 0.851459 -0.524421 0.000000
vn 0.851459 -0.524421 0.000000
vn 0.851459 -0.524421 0.000000
vn 0.851459 -0.524421 0.000000
vn 0.851459 -0.524421 0.000000
vn 0.851459 -0.524421 0.000000
vn 0.851459 -0.524421 0.000000
vn 0.851459 -0.524421 0.000000
vn 0.851459 -0.524421 0.000000
vn 0.851459 -0.524421 0.000000
vn 0.851459 -0.524421 0.000000
vn 0.000000 0.000000 1.000000
vn 0.000000 0.000000 1.000000
vn 0.000000 0.000000 1.000000
vn 0.000000 0.000000 1.000000
vn -0.524421 -0.851459 0.000000
vn -0.524421 -0.851459 0.000000
vn -0.524421 -0.851459 0.000000
vn -0.524421 -0.851459 0.000000
vn 0.000000 0.000000 -1.000000
vn 0.000000 0.000000 -1.000000
vn 0.000000 0.000000 -1.000000
vn 0.000000 0.000000 -1.000000
vn 0.524421 0.851459 0.000000
vn 0.524421 0.851459 0.000000
vn 0.524421 0.851459 0.000000
vn 0.524421 0.851459 0.000000
s off
g Ikea_Frame:Back3
usemtl texturedFacets8
f 1/137/1 2/138/2 3/139/3 4/140/4
f 5/1/5 6/2/6 7/3/7 8/4/8
f 9/11/9 10/12/10 11/13/11 12/14/12
f 8/95/13 10/96/14 9/97/15 5/98/16
f 13/75/17 14/77/18 15/78/19 16/76/20
f 17/59/21 18/60/22 15/61/23 14/62/24
f 6/67/25 5/69/26 9/70/27 12/68/28
f 19/5/29 17/7/30 20/8/31 21/6/32
f 22/17/33 18/18/34 23/16/35 24/15/36
f 20/71/37 22/72/38 24/73/39 21/74/40
f 7/65/41 11/66/42 23/64/43 19/63/44
f 19/5/45 21/6/46 8/4/47 7/3/48
f 10/12/49 24/15/50 23/16/51 11/13/52
f 21/99/53 24/100/54 10/96/55 8/95/56
f 6/67/57 12/68/58 11/66/59 7/65/60
f 19/63/61 23/64/62 18/60/63 17/59/64
f 17/7/65 14/9/66 13/10/67 20/8/68
f 16/19/69 15/20/70 18/18/71 22/17/72
f 13/75/73 16/76/74 22/72/75 20/71/76
f 25/22/77 26/25/78 27/26/79 28/23/80
f 26/25/81 29/29/82 30/30/83 27/26/84
f 29/29/85 31/21/86 32/24/87 30/30/88
f 31/21/89 25/22/90 28/23/91 32/24/92
f 28/101/93 27/102/94 33/103/95 34/104/96
f 27/141/97 30/142/98 35/143/99 33/144/100
f 30/105/101 32/106/102 36/107/103 35/108/104
f 32/24/105 28/23/106 34/27/107 36/28/108
f 37/145/109 38/146/110 39/147/111 40/148/112
f 41/109/113 42/110/114 43/111/115 44/112/116
f 45/41/117 46/31/118 42/34/119 41/42/120
f 47/113/121 48/114/122 46/115/123 45/116/124
f 44/83/125 43/79/126 48/82/127 47/84/128
f 42/34/129 49/33/130 50/39/131 43/40/132
f 46/31/133 51/32/134 49/33/135 42/34/136
f 48/35/137 52/36/138 51/32/139 46/31/140
f 43/79/141 50/80/142 52/81/143 48/82/144
f 50/39/145 49/33/146 53/38/147 54/46/148
f 49/33/149 51/32/150 55/37/151 53/38/152
f 51/32/153 52/36/154 56/43/155 55/37/156
f 52/36/157 50/39/158 54/46/159 56/43/160
f 54/46/161 53/38/162 57/45/163 58/48/164
f 53/38/165 55/37/166 59/44/167 57/45/168
f 55/37/169 56/43/170 60/47/171 59/44/172
f 56/43/173 54/46/174 58/48/175 60/47/176
f 58/48/177 57/45/178 61/51/179 62/52/180
f 57/85/181 59/86/182 63/87/183 61/88/184
f 59/44/185 60/47/186 64/49/187 63/50/188
f 60/47/189 58/48/190 62/52/191 64/49/192
f 62/117/193 61/118/194 65/119/195 66/120/196
f 61/53/197 63/54/198 67/55/199 65/56/200
f 63/123/201 64/124/202 68/125/203 67/126/204
f 64/89/205 62/90/206 66/91/207 68/92/208
f 66/120/209 65/119/210 69/121/211 70/122/212
f 65/56/213 67/55/214 71/57/215 69/58/216
f 67/126/217 68/125/218 72/127/219 71/128/220
f 68/92/221 66/91/222 70/93/223 72/94/224
f 41/149/225 44/150/226 73/151/227 74/152/228
f 44/150/229 47/153/230 75/154/231 73/151/232
f 47/153/233 45/155/234 76/156/235 75/154/236
f 45/155/237 41/149/238 74/152/239 76/156/240
f 74/129/241 73/130/242 77/131/243 78/132/244
f 73/159/245 75/160/246 79/161/247 77/162/248
f 75/133/249 76/134/250 80/135/251 79/136/252
f 76/156/253 74/152/254 78/157/255 80/158/256
g default
v 4.087793 9.705708 -15.218569
v -6.986667 -8.274982 -15.218569
v -6.986667 -8.274982 15.766349
v 4.087793 9.705708 15.766349
v 3.754069 9.911251 -15.218569
v -7.320391 -8.069439 -15.218569
v -7.320391 -8.069439 15.766349
v 3.754069 9.911251 15.766349
vt 0.912925 0.152434
vt 0.912925 0.109553
vt 0.944904 0.109553
vt 0.944904 0.152434
vt 0.977437 0.152434
vt 0.945459 0.152434
vt 0.945459 0.109553
vt 0.977437 0.109553
vt 0.983345 0.152716
vt 0.983345 0.184694
vt 0.981314 0.184694
vt 0.981314 0.152716
vt 0.980880 0.152716
vt 0.980880 0.184694
vt 0.978849 0.184694
vt 0.978849 0.152716
vt 0.980009 0.109553
vt 0.980009 0.152434
vt 0.977978 0.152434
vt 0.977978 0.109553
vt 0.982489 0.109553
vt 0.982489 0.152434
vt 0.980458 0.152434
vt 0.980458 0.109553
vn -0.851459 0.524421 0.000000
vn -0.851459 0.524421 0.000000
vn -0.851459 0.524421 0.000000
vn -0.851459 0.524421 0.000000
vn 0.851459 -0.524421 0.000000
vn 0.851459 -0.524421 0.000000
vn 0.851459 -0.524421 0.000000
vn 0.851459 -0.524421 0.000000
vn 0.000000 0.000000 -1.000000
vn 0.000000 0.000000 -1.000000
vn 0.000000 0.000000 -1.000000
vn 0.000000 0.000000 -1.000000
vn -0.524421 -0.851459 0.000000
vn -0.524421 -0.851459 0.000000
vn -0.524421 -0.851459 0.000000
vn -0.524421 -0.851459 0.000000
vn 0.000000 0.000000 1.000000
vn 0.000000 0.000000 1.000000
vn 0.000000 0.000000 1.000000
vn 0.000000 0.000000 1.000000
vn 0.524421 0.851459 0.000000
vn 0.524421 0.851459 0.000000
vn 0.524421 0.851459 0.000000
vn 0.524421 0.851459 0.000000
s off
g Ikea_Frame:Back3 Ikea_Frame:Glass
usemtl texturedFacets7
f 85/163/257 86/164/258 87/165/259 88/166/260
f 81/167/261 84/168/262 83/169/263 82/170/264
f 81/179/265 82/180/266 86/181/267 85/182/268
f 82/171/269 83/172/270 87/173/271 86/174/272
f 83/183/273 84/184/274 88/185/275 87/186/276
f 84/175/277 81/176/278 85/177/279 88/178/280
