# This file uses centimeters as units for non-parametric coordinates.

mtllib bedroomtable.mtl
g default
v -10.370345 1.124661 -5.503252
v -9.245688 1.124661 -5.506431
v -9.245688 0.976675 -5.340598
v -10.370345 0.976675 -5.337419
v -10.370345 1.015754 -5.358743
v -10.370345 1.054933 -5.386435
v -10.370345 1.086711 -5.422378
v -10.370345 1.109393 -5.464654
v -9.245688 1.109393 -5.467833
v -9.245688 1.086711 -5.425556
v -9.245688 1.054933 -5.389613
v -9.245688 1.015754 -5.361921
v -9.245688 1.124661 -7.772056
v -10.370345 1.124661 -7.768877
v -10.370345 0.976675 -7.934710
v -9.245688 0.976675 -7.937889
v -9.245688 1.015754 -7.916565
v -9.245688 1.054933 -7.888873
v -9.245688 1.086711 -7.852930
v -9.245688 1.109393 -7.810653
v -10.370345 1.109393 -7.807475
v -10.370345 1.086711 -7.849751
v -10.370345 1.054933 -7.885695
v -10.370345 1.015754 -7.913386
v -10.370345 1.158580 -5.496788
v -10.370345 1.158580 -7.775342
v -9.245688 1.158580 -5.499966
v -9.245688 1.158580 -7.778521
v -10.370345 1.141224 -5.449881
v -9.245688 1.141224 -5.453059
v -9.245688 1.034317 -5.332141
v -10.370345 1.034317 -5.328962
v -10.370345 0.993512 -5.306563
v -9.245688 0.993512 -5.309741
v -10.370345 1.115366 -5.402427
v -9.245688 1.115366 -5.405605
v -10.370345 1.078244 -5.360441
v -9.245688 1.078244 -5.363619
v -9.245688 1.141224 -7.825428
v -10.370345 1.141224 -7.822249
v -10.370345 1.034317 -7.943167
v -9.245688 1.034317 -7.946345
v -9.245688 0.993512 -7.968745
v -10.370345 0.993512 -7.965566
v -9.245688 1.115366 -7.872881
v -10.370345 1.115366 -7.869702
v -9.245688 1.078244 -7.914867
v -10.370345 1.078244 -7.911688
v -9.245688 0.010215 -5.087511
v -10.370345 0.010215 -5.084733
v -9.245688 0.010216 -5.060546
v -10.370345 0.010216 -5.057768
v -10.370345 0.010215 -8.187798
v -9.245688 0.010215 -8.190576
v -10.370345 0.010216 -8.214763
v -9.245688 0.010216 -8.217541
vt 0.240078 0.581029
vt 0.240078 0.097009
vt 0.247324 0.095628
vt 0.247324 0.582410
vt 0.236816 0.088763
vt 0.243616 0.085607
vt 0.236816 0.589274
vt 0.243616 0.592431
vt 0.231971 0.079731
vt 0.238092 0.075469
vt 0.231971 0.598306
vt 0.238092 0.602568
vt 0.225181 0.072052
vt 0.230162 0.066499
vt 0.225181 0.605985
vt 0.230162 0.611538
vt 0.216811 0.066137
vt 0.220777 0.059774
vt 0.216811 0.611901
vt 0.220777 0.618263
vt 0.208463 0.061581
vt 0.212060 0.054989
vt 0.208463 0.616457
vt 0.212060 0.623048
vt 0.001992 0.007598
vt 0.001992 0.001837
vt 0.001992 0.676286
vt 0.001992 0.670525
vt 0.491688 0.581029
vt 0.491688 0.097009
vt 0.498934 0.095628
vt 0.498934 0.582410
vt 0.488426 0.088763
vt 0.495226 0.085607
vt 0.488426 0.589275
vt 0.495226 0.592431
vt 0.483580 0.079732
vt 0.489702 0.075469
vt 0.483580 0.598307
vt 0.489702 0.602569
vt 0.476791 0.072053
vt 0.481771 0.066500
vt 0.476791 0.605985
vt 0.481771 0.611538
vt 0.468421 0.066137
vt 0.472387 0.059775
vt 0.468421 0.611901
vt 0.472387 0.618263
vt 0.460073 0.061581
vt 0.463670 0.054989
vt 0.460073 0.616457
vt 0.463670 0.623049
vt 0.253602 0.007598
vt 0.253602 0.001837
vt 0.253602 0.676286
vt 0.253602 0.670525
vt 0.506966 0.524473
vt 0.506966 0.037691
vt 0.747233 0.038370
vt 0.747233 0.525152
vt 0.506966 0.027670
vt 0.747233 0.028349
vt 0.747233 0.535173
vt 0.506966 0.534494
vt 0.506966 0.017532
vt 0.747233 0.018211
vt 0.747233 0.545310
vt 0.506966 0.544631
vt 0.506966 0.008562
vt 0.747233 0.009241
vt 0.747233 0.554280
vt 0.506966 0.553601
vt 0.506966 0.001837
vt 0.747233 0.002516
vt 0.747233 0.561005
vt 0.506966 0.560326
vt 0.754483 0.033389
vt 0.994750 0.032710
vt 0.994750 0.516729
vt 0.754483 0.517409
vt 0.754483 0.025143
vt 0.994750 0.024464
vt 0.994750 0.524975
vt 0.754483 0.525654
vt 0.754483 0.016111
vt 0.994750 0.015432
vt 0.994750 0.534007
vt 0.754483 0.534686
vt 0.754483 0.008433
vt 0.994750 0.007754
vt 0.994750 0.541686
vt 0.754483 0.542365
vt 0.754483 0.002517
vt 0.994750 0.001837
vt 0.994750 0.547602
vt 0.754483 0.548281
vt 0.100497 0.920544
vt 0.099904 0.680277
vt 0.105664 0.680277
vt 0.106258 0.920544
vt 0.093175 0.680277
vt 0.093769 0.920544
vt 0.088008 0.920544
vt 0.087414 0.680277
vt 0.998008 0.552272
vt 0.998008 0.792540
vt 0.989291 0.792540
vt 0.989291 0.552272
vt 0.779223 0.792540
vt 0.779223 0.552272
vt 0.554303 0.805264
vt 0.554303 0.564996
vt 0.563020 0.564996
vt 0.563020 0.805264
vt 0.773088 0.564996
vt 0.773088 0.805264
vt 0.333348 0.680277
vt 0.341696 0.680277
vt 0.341696 0.920544
vt 0.333348 0.920544
vt 0.548167 0.680277
vt 0.548167 0.920544
vt 0.327212 0.920544
vt 0.318864 0.920544
vt 0.318864 0.680277
vt 0.327212 0.680277
vt 0.112393 0.920544
vt 0.112393 0.680277
vn 0.000000 1.000000 0.000000
vn 0.000000 1.000000 0.000000
vn 0.000000 1.000000 0.000000
vn 0.000000 1.000000 0.000000
vn 0.001177 0.909140 0.416490
vn 0.001177 0.909238 0.416275
vn 0.002385 0.536621 0.843820
vn 0.002385 0.536524 0.843881
vn 0.002566 0.256151 0.966633
vn 0.002566 0.256178 0.966626
vn 0.001628 0.817535 0.575877
vn 0.001627 0.817725 0.575607
vn 0.002094 0.671488 0.741013
vn 0.002094 0.671688 0.740831
vn -0.001177 0.909139 -0.416491
vn -0.001176 0.909237 -0.416277
vn -0.002385 0.536621 -0.843820
vn -0.002385 0.536524 -0.843881
vn -0.002566 0.256152 -0.966633
vn -0.002566 0.256179 -0.966626
vn -0.001628 0.817533 -0.575879
vn -0.001627 0.817724 -0.575609
vn -0.002094 0.671488 -0.741013
vn -0.002094 0.671688 -0.740831
vn 0.000000 -1.000000 0.000000
vn 0.000000 -1.000000 0.000000
vn 0.000000 -1.000000 0.000000
vn 0.000000 -1.000000 0.000000
vn -0.001200 -0.905326 -0.424716
vn -0.001201 -0.905246 -0.424886
vn -0.002395 -0.530859 -0.847457
vn -0.002562 -0.263105 -0.964764
vn -0.002562 -0.263080 -0.964771
vn -0.002395 -0.530766 -0.847515
vn -0.001615 -0.820770 -0.571256
vn -0.001615 -0.820575 -0.571536
vn -0.002104 -0.667752 -0.744381
vn -0.002104 -0.667546 -0.744566
vn 0.001200 -0.905326 0.424716
vn 0.001201 -0.905246 0.424886
vn 0.002395 -0.530859 0.847457
vn 0.002562 -0.263105 0.964764
vn 0.002562 -0.263080 0.964771
vn 0.002395 -0.530766 0.847515
vn 0.001614 -0.820770 0.571256
vn 0.001615 -0.820576 0.571536
vn 0.002104 -0.667752 0.744381
vn 0.002104 -0.667546 0.744566
vn -1.000000 0.000007 0.000000
vn -1.000000 0.000007 0.000000
vn 0.000000 1.000000 0.000000
vn 0.000000 1.000000 0.000000
vn 1.000000 0.000001 0.000000
vn 1.000000 0.000002 0.000000
vn 0.000000 1.000000 0.000000
vn 0.000000 1.000000 0.000000
vn -1.000000 0.000011 0.000000
vn -1.000000 0.000011 0.000000
vn 1.000000 -0.000000 0.000000
vn 1.000000 -0.000000 0.000000
vn -1.000000 -0.000000 0.000000
vn -1.000000 -0.000001 0.000000
vn -1.000000 -0.000001 0.000000
vn -1.000000 -0.000000 0.000000
vn 0.000000 -1.000000 0.000006
vn 0.000000 -1.000000 0.000006
vn 0.000000 -1.000000 0.000006
vn 0.000000 -1.000000 0.000006
vn 1.000000 0.000000 0.000000
vn 1.000000 0.000000 0.000000
vn 1.000000 0.000000 0.000000
vn 1.000000 0.000000 0.000000
vn -1.000000 0.000012 0.000000
vn -1.000000 0.000013 0.000000
vn 1.000000 -0.000004 0.000000
vn 1.000000 -0.000004 0.000000
vn -1.000000 0.000008 0.000000
vn -1.000000 0.000008 0.000000
vn 1.000000 0.000000 0.000000
vn 1.000000 0.000000 0.000000
vn 1.000000 0.000002 0.000000
vn 1.000000 0.000002 0.000000
vn -1.000000 -0.000004 0.000000
vn -1.000000 -0.000004 0.000000
vn 1.000000 -0.000004 0.000000
vn 1.000000 0.000000 0.000000
vn 1.000000 0.000000 0.000000
vn 1.000000 -0.000004 0.000000
vn -0.000000 -1.000000 -0.000006
vn -0.000000 -1.000000 -0.000006
vn -0.000000 -1.000000 -0.000006
vn -0.000000 -1.000000 -0.000006
vn -1.000000 0.000000 0.000000
vn -1.000000 0.000009 0.000000
vn -1.000000 0.000009 0.000000
vn -1.000000 0.000000 0.000000
vn 1.000000 -0.000008 0.000000
vn 1.000000 -0.000008 0.000000
vn -1.000000 0.000000 0.000000
vn -1.000000 0.000000 0.000000
vn 1.000000 -0.000008 0.000000
vn 1.000000 -0.000008 0.000000
vn -1.000000 0.000008 0.000000
vn -1.000000 0.000008 0.000000
vn -0.002562 -0.253140 -0.967426
vn -0.002562 -0.253140 -0.967426
vn 1.000000 0.000000 0.000000
vn 1.000000 0.000000 0.000000
vn 0.002567 0.245476 0.969399
vn 0.002567 0.245476 0.969399
vn -1.000000 0.000000 0.000000
vn -1.000000 0.000000 0.000000
vn 0.002562 -0.253140 0.967426
vn 0.002562 -0.253140 0.967426
vn -1.000000 0.000000 0.000000
vn -1.000000 0.000000 0.000000
vn -0.002567 0.245477 -0.969399
vn -0.002567 0.245477 -0.969399
vn 1.000000 0.000000 0.000000
vn 1.000000 0.000000 0.000000
s 1
g d_model1:d_model1:Componente_1_002
usemtl initialShadingGroup
f 26/57/1 25/58/2 27/59/3 28/60/4
f 27/59/3 25/58/2 29/61/5 30/62/6
f 31/105/7 32/106/8 33/107/9 34/108/10
f 29/61/5 35/65/11 36/66/12 30/62/6
f 35/65/11 37/69/13 38/70/14 36/66/12
f 37/69/13 32/73/8 31/74/7 38/70/14
f 26/57/1 28/60/4 39/63/15 40/64/16
f 41/111/17 42/112/18 43/113/19 44/114/20
f 39/63/15 45/67/21 46/68/22 40/64/16
f 45/67/21 47/71/23 48/72/24 46/68/22
f 47/71/23 42/75/18 41/76/17 48/72/24
s 4
f 14/77/25 13/78/26 2/79/27 1/80/28
f 2/79/27 9/83/29 8/84/30 1/80/28
f 12/117/31 3/118/32 4/119/33 5/120/34
f 8/84/30 9/83/29 10/87/35 7/88/36
f 7/88/36 10/87/35 11/91/37 6/92/38
f 6/92/38 11/91/37 12/95/31 5/96/34
f 14/77/25 21/81/39 20/82/40 13/78/26
f 24/123/41 15/124/42 16/125/43 17/126/44
f 20/82/40 21/81/39 22/85/45 19/86/46
f 19/86/46 22/85/45 23/89/47 18/90/48
f 18/90/48 23/89/47 24/93/41 17/94/44
s 7
f 14/1/49 1/2/50 25/3/51 26/4/52
s 8
f 2/29/53 13/30/54 28/31/55 27/32/56
s 7
f 1/2/50 8/5/57 29/6/58 25/3/51
s 8
f 9/35/59 2/29/53 27/32/56 30/36/60
s 7
f 5/17/61 4/21/62 33/22/63 32/18/64
s off
f 50/97/65 49/98/66 51/99/67 52/100/68
s 8
f 3/51/69 12/47/70 31/48/71 34/52/72
s 7
f 8/5/57 7/9/73 35/10/74 29/6/58
s 8
f 10/39/75 9/35/59 30/36/60 36/40/76
s 7
f 7/9/73 6/13/77 37/14/78 35/10/74
s 8
f 11/43/79 10/39/75 36/40/76 38/44/80
s 7
f 6/13/77 5/17/61 32/18/64 37/14/78
s 8
f 12/47/70 11/43/79 38/44/80 31/48/71
f 13/30/54 20/33/81 39/34/82 28/31/55
s 7
f 21/7/83 14/1/49 26/4/52 40/8/84
s 8
f 17/45/85 16/49/86 43/50/87 42/46/88
s off
f 54/101/89 53/102/90 55/103/91 56/104/92
s 7
f 15/23/93 24/19/94 41/20/95 44/24/96
s 8
f 20/33/81 19/37/97 45/38/98 39/34/82
s 7
f 22/11/99 21/7/83 40/8/84 46/12/100
s 8
f 19/37/97 18/41/101 47/42/102 45/38/98
s 7
f 23/15/103 22/11/99 46/12/100 48/16/104
s 8
f 18/41/101 17/45/85 42/46/88 47/42/102
s 7
f 24/19/94 23/15/103 48/16/104 41/20/95
s 4
f 4/119/33 3/118/32 49/121/105 50/122/106
s 8
f 3/51/69 34/52/72 51/55/107 49/56/108
s 1
f 34/108/10 33/107/9 52/109/109 51/110/110
s 7
f 33/22/63 4/21/62 50/25/111 52/26/112
s 4
f 16/125/43 15/124/42 53/127/113 54/128/114
s 7
f 15/23/93 44/24/96 55/27/115 53/28/116
s 1
f 44/114/20 43/113/19 56/115/117 55/116/118
s 8
f 43/50/87 16/49/86 54/53/119 56/54/120
