# This file uses centimeters as units for non-parametric coordinates.

mtllib cardbox.mtl
g default
v -0.567659 0.317290 -1.518010
v -0.567659 0.317290 -1.349313
v -0.706482 0.317290 -1.349313
v -0.706482 0.317290 -1.518010
v -0.567659 0.578709 -1.181515
v -0.567491 0.566315 -1.349361
v -0.706623 0.563147 -1.349358
v -0.706482 0.579355 -1.181248
v -0.567659 0.319926 -1.177981
v -0.567638 0.448638 -1.185971
v -0.706512 0.448690 -1.187421
v -0.706482 0.319926 -1.177981
v -0.426200 0.319926 -1.349313
v -0.437680 0.449084 -1.349313
v -0.426200 0.449084 -1.180617
v -0.426200 0.319926 -1.180617
v -0.706482 0.319926 -1.520646
v -0.706482 0.449084 -1.514888
v -0.567659 0.449084 -1.510853
v -0.567659 0.319926 -1.520646
v -0.847942 0.319926 -1.349313
v -0.829430 0.448313 -1.349317
v -0.847942 0.449084 -1.518010
v -0.847942 0.319926 -1.518010
v -0.845306 0.319926 -1.177981
v -0.847942 0.319926 -1.180617
v -0.845306 0.317290 -1.180617
v -0.428836 0.317290 -1.180617
v -0.428836 0.319926 -1.177981
v -0.845306 0.319926 -1.520646
v -0.845306 0.317290 -1.518010
v -0.428836 0.317290 -1.518010
v -0.428836 0.319926 -1.520646
v -0.426200 0.319926 -1.518010
v -0.845271 0.578208 -1.178062
v -0.845258 0.580767 -1.180664
v -0.847803 0.578183 -1.180676
v -0.426200 0.578242 -1.180617
v -0.428836 0.580878 -1.180617
v -0.428836 0.578242 -1.177981
v -0.847942 0.578242 -1.518010
v -0.845306 0.580878 -1.518010
v -0.845306 0.578242 -1.520646
v -0.428836 0.578242 -1.520646
v -0.428836 0.580878 -1.518010
v -0.426200 0.578242 -1.518010
v -0.845306 0.317290 -1.349313
v -0.428836 0.317290 -1.349313
v -0.706482 0.317290 -1.180617
v -0.567659 0.317290 -1.180617
v -0.567659 0.577427 -1.179950
v -0.706482 0.577545 -1.179664
v -0.426200 0.578242 -1.349313
v -0.428836 0.580878 -1.349313
v -0.706482 0.578242 -1.520646
v -0.706482 0.580878 -1.518010
v -0.567659 0.580878 -1.518010
v -0.567659 0.578242 -1.520646
v -0.846559 0.577684 -1.349312
v -0.844682 0.579424 -1.349310
v -0.428836 0.449084 -1.177981
v -0.847872 0.449054 -1.180646
v -0.845288 0.449067 -1.178021
v -0.429364 0.449084 -1.519371
v -0.427109 0.449084 -1.517633
v -0.845306 0.449084 -1.520646
vt 0.429000 0.426600
vt 0.429300 0.252200
vt 0.572600 0.252300
vt 0.572600 0.426700
vt 0.327000 0.666800
vt 0.501000 0.667000
vt 0.501100 0.810300
vt 0.326900 0.810700
vt 0.057900 0.667000
vt 0.191200 0.667100
vt 0.191200 0.810500
vt 0.057900 0.810600
vt 0.282200 0.252000
vt 0.148500 0.251900
vt 0.148700 0.077300
vt 0.282300 0.077400
vt 0.946200 0.810500
vt 0.812600 0.810300
vt 0.812600 0.666800
vt 0.946300 0.666500
vt 0.719500 0.252500
vt 0.852800 0.252600
vt 0.853400 0.427300
vt 0.719800 0.427200
vt 0.716900 0.074600
vt 0.720100 0.077700
vt 0.716400 0.078200
vt 0.286000 0.077800
vt 0.285400 0.074200
vt 0.716500 0.430300
vt 0.716000 0.426700
vt 0.285600 0.426200
vt 0.285100 0.429800
vt 0.281900 0.426600
vt 0.324600 0.954200
vt 0.327500 0.954300
vt 0.326100 0.957800
vt 0.326000 0.519600
vt 0.327400 0.523200
vt 0.324500 0.523200
vt 0.677200 0.957400
vt 0.675600 0.953800
vt 0.678800 0.953800
vt 0.678600 0.523500
vt 0.675400 0.523400
vt 0.677000 0.519800
vt 0.715900 0.252500
vt 0.429000 0.430400
vt 0.572600 0.430600
vt 0.285900 0.252000
vt 0.573000 0.074000
vt 0.572900 0.077900
vt 0.429400 0.077700
vt 0.429300 0.073900
vt 0.324700 0.666900
vt 0.324500 0.810600
vt 0.501400 0.519400
vt 0.501300 0.523300
vt 0.679200 0.810300
vt 0.675700 0.810400
vt 0.675600 0.666800
vt 0.679100 0.666900
vt 0.501600 0.956200
vt 0.501500 0.953500
vt 0.058000 0.519700
vt 0.191600 0.519600
vt 0.191500 0.523500
vt 0.058000 0.523500
vt 0.191700 0.957900
vt 0.191600 0.954100
vt 0.945500 0.522800
vt 0.811900 0.523700
vt 0.811700 0.520800
vt 0.945300 0.518900
vt 0.945500 0.958100
vt 0.811900 0.957800
vt 0.812000 0.953900
vt 0.945600 0.954200
vt 0.148300 0.426000
vt 0.853700 0.077900
vt 0.014700 0.251700
vt 0.015100 0.077200
vt 0.987100 0.252700
vt 0.986900 0.427400
vt 0.058100 0.958000
vt 0.058100 0.954200
vt 0.014700 0.426200
vt 0.987300 0.078100
vn 0.000000 -1.000000 0.000000
vn 0.000000 -1.000000 0.000000
vn 0.000000 -1.000000 0.000000
vn 0.000000 -1.000000 0.000000
vn -0.011300 0.996739 -0.079903
vn -0.042400 0.999091 0.004500
vn 0.028100 0.999598 0.003700
vn 0.007100 0.995357 -0.095996
vn -0.002700 0.064600 0.997908
vn -0.020799 0.005900 0.999766
vn 0.015399 0.005300 0.999867
vn 0.000000 0.073102 0.997324
vn 0.997336 0.070203 -0.019801
vn 0.999784 0.000000 -0.020800
vn 0.999600 0.000000 -0.028300
vn 1.000000 0.000000 0.000000
vn 0.007600 0.052001 -0.998618
vn 0.024400 0.000000 -0.999702
vn -0.007700 0.000000 -0.999970
vn -0.000000 0.075603 -0.997138
vn -0.993057 0.113195 0.031999
vn -0.999833 -0.008600 0.016101
vn -0.998855 0.002100 0.047798
vn -1.000000 0.000000 -0.000000
vn -0.577350 -0.577350 0.577350
vn -0.577350 -0.577350 0.577350
vn -0.577350 -0.577350 0.577350
vn 0.577350 -0.577350 0.577350
vn 0.577350 -0.577350 0.577350
vn 0.577350 -0.577350 0.577350
vn -0.577350 -0.577350 -0.577350
vn -0.577350 -0.577350 -0.577350
vn -0.577350 -0.577350 -0.577350
vn 0.577350 -0.577350 -0.577350
vn 0.577350 -0.577350 -0.577350
vn 0.577350 -0.577350 -0.577350
vn -0.589002 0.577602 0.565202
vn -0.589002 0.577602 0.565202
vn -0.589002 0.577602 0.565202
vn 0.577350 0.577350 0.577350
vn 0.577350 0.577350 0.577350
vn 0.577350 0.577350 0.577350
vn -0.577350 0.577350 -0.577350
vn -0.577350 0.577350 -0.577350
vn -0.577350 0.577350 -0.577350
vn 0.577350 0.577350 -0.577350
vn 0.577350 0.577350 -0.577350
vn 0.577350 0.577350 -0.577350
vn -0.707107 -0.707107 -0.000000
vn -0.707107 -0.707107 -0.000000
vn -0.707107 -0.707107 -0.000000
vn -0.707107 -0.707107 -0.000000
vn -0.000000 -0.707107 -0.707107
vn -0.000000 -0.707107 -0.707107
vn -0.000000 -0.707107 -0.707107
vn -0.000000 -0.707107 -0.707107
vn 0.707107 -0.707107 0.000000
vn 0.707107 -0.707107 0.000000
vn 0.707107 -0.707107 0.000000
vn 0.707107 -0.707107 0.000000
vn 0.000000 -0.707107 0.707107
vn 0.000000 -0.707107 0.707107
vn 0.000000 -0.707107 0.707107
vn 0.000000 -0.707107 0.707107
vn 0.003400 0.713623 0.700522
vn 0.003400 0.713623 0.700522
vn 0.003400 0.713623 0.700522
vn 0.003400 0.713623 0.700522
vn 0.707107 0.707107 0.000000
vn 0.707107 0.707107 0.000000
vn 0.707107 0.707107 0.000000
vn 0.707107 0.707107 0.000000
vn -0.000000 0.707107 -0.707107
vn -0.000000 0.707107 -0.707107
vn -0.000000 0.707107 -0.707107
vn -0.000000 0.707107 -0.707107
vn -0.695996 0.717996 0.008400
vn -0.695996 0.717996 0.008400
vn -0.695996 0.717996 0.008400
vn -0.695996 0.717996 0.008400
vn 0.707107 0.000000 0.707107
vn 0.707107 0.000000 0.707107
vn 0.707107 0.000000 0.707107
vn 0.707107 0.000000 0.707107
vn -0.715407 0.000400 0.698707
vn -0.715407 0.000400 0.698707
vn -0.715407 0.000400 0.698707
vn -0.715407 0.000400 0.698707
vn 0.666478 0.008500 -0.745476
vn 0.666478 0.008500 -0.745476
vn 0.666478 0.008500 -0.745476
vn 0.666478 0.008500 -0.745476
vn -0.707107 0.000000 -0.707107
vn -0.707107 0.000000 -0.707107
vn -0.707107 0.000000 -0.707107
vn -0.707107 0.000000 -0.707107
vn 0.000000 -1.000000 0.000000
vn 0.000000 -1.000000 0.000000
vn 0.000000 -1.000000 0.000000
vn 0.000000 -1.000000 0.000000
vn 0.000000 -1.000000 0.000000
vn 0.000000 -1.000000 0.000000
vn 0.000000 -1.000000 0.000000
vn 0.000000 -1.000000 0.000000
vn -0.054597 0.997654 -0.041298
vn -0.104503 0.994525 -0.000000
vn -0.042400 0.999091 0.004500
vn -0.011300 0.996739 -0.079903
vn 0.051301 0.996719 0.062601
vn 0.117102 0.993120 0.000300
vn 0.028100 0.999598 0.003700
vn -0.000000 0.994514 0.104601
vn -0.030100 0.029500 0.999111
vn -0.057503 0.000000 0.998345
vn -0.020799 0.005900 0.999766
vn -0.002700 0.064600 0.997908
vn 0.040798 -0.028499 0.998761
vn 0.067601 0.000300 0.997712
vn 0.015399 0.005300 0.999867
vn 0.006600 -0.060098 0.998171
vn 0.021701 0.021301 -0.999538
vn 0.041402 0.000000 -0.999143
vn 0.024400 0.000000 -0.999702
vn 0.007600 0.052001 -0.998618
vn -0.032101 -0.041201 -0.998635
vn -0.061500 0.000000 -0.998107
vn -0.007700 0.000000 -0.999970
vn -0.000000 -0.075603 -0.997138
vn -0.000000 -0.707107 -0.707107
vn -0.000000 -0.707107 -0.707107
vn -0.000000 -0.707107 -0.707107
vn -0.000000 -0.707107 -0.707107
vn -0.000000 -0.707107 -0.707107
vn -0.000000 -0.707107 -0.707107
vn -0.000000 -0.707107 -0.707107
vn -0.000000 -0.707107 -0.707107
vn 0.000000 -0.707107 0.707107
vn 0.000000 -0.707107 0.707107
vn 0.000000 -0.707107 0.707107
vn 0.000000 -0.707107 0.707107
vn 0.000000 -0.707107 0.707107
vn 0.000000 -0.707107 0.707107
vn 0.000000 -0.707107 0.707107
vn 0.000000 -0.707107 0.707107
vn -0.014900 0.731297 0.681897
vn -0.014900 0.731297 0.681897
vn -0.014900 0.731297 0.681897
vn -0.014900 0.731297 0.681897
vn 0.010900 0.691803 0.722004
vn 0.010900 0.691803 0.722004
vn 0.010900 0.691803 0.722004
vn 0.010900 0.691803 0.722004
vn -0.000000 0.707107 -0.707107
vn -0.000000 0.707107 -0.707107
vn -0.000000 0.707107 -0.707107
vn -0.000000 0.707107 -0.707107
vn -0.000000 0.707107 -0.707107
vn -0.000000 0.707107 -0.707107
vn -0.000000 0.707107 -0.707107
vn -0.000000 0.707107 -0.707107
vn 0.000000 -1.000000 0.000000
vn 0.000000 -1.000000 0.000000
vn 0.000000 -1.000000 0.000000
vn 0.000000 -1.000000 0.000000
vn -0.005000 0.995811 0.091301
vn -0.000000 0.994514 0.104601
vn 0.028100 0.999598 0.003700
vn -0.042400 0.999091 0.004500
vn 0.998489 0.041000 0.036600
vn 0.998032 0.000000 0.062702
vn 0.999784 0.000000 -0.020800
vn 0.997336 0.070203 -0.019801
vn -0.996170 0.059798 -0.063798
vn -0.996506 -0.027100 -0.079001
vn -0.999833 -0.008600 0.016101
vn -0.993057 0.113195 0.031999
vn -0.707107 -0.707107 -0.000000
vn -0.707107 -0.707107 -0.000000
vn -0.707107 -0.707107 -0.000000
vn -0.707107 -0.707107 -0.000000
vn 0.707107 -0.707107 0.000000
vn 0.707107 -0.707107 0.000000
vn 0.707107 -0.707107 0.000000
vn 0.707107 -0.707107 0.000000
vn 0.707107 0.707107 0.000000
vn 0.707107 0.707107 0.000000
vn 0.707107 0.707107 0.000000
vn 0.707107 0.707107 0.000000
vn -0.698990 0.715090 -0.007700
vn -0.698990 0.715090 -0.007700
vn -0.698990 0.715090 -0.007700
vn -0.698990 0.715090 -0.007700
vn 0.000000 -1.000000 0.000000
vn 0.000000 -1.000000 0.000000
vn 0.000000 -1.000000 0.000000
vn 0.000000 -1.000000 0.000000
vn 0.000000 -1.000000 0.000000
vn 0.000000 -1.000000 0.000000
vn 0.000000 -1.000000 0.000000
vn 0.000000 -1.000000 0.000000
vn -0.045899 0.997773 0.048399
vn -0.005000 0.995811 0.091301
vn -0.042400 0.999091 0.004500
vn -0.104503 0.994525 -0.000000
vn 0.056902 0.996734 -0.057302
vn 0.007100 0.995357 -0.095996
vn 0.028100 0.999598 0.003700
vn 0.117102 0.993120 0.000300
vn -0.009200 -0.049901 0.998712
vn 0.006600 -0.060098 0.998171
vn 0.015399 0.005300 0.999867
vn -0.020799 0.005900 0.999766
vn 0.997336 -0.070203 -0.019801
vn 1.000000 0.000000 0.000000
vn 0.999600 0.000000 -0.028300
vn 0.999784 0.000000 -0.020800
vn 0.007600 -0.052001 -0.998618
vn -0.000000 -0.075603 -0.997138
vn -0.007700 0.000000 -0.999970
vn 0.024400 0.000000 -0.999702
vn -0.997046 -0.076804 0.000300
vn -0.999966 0.000000 0.008200
vn -0.998855 0.002100 0.047798
vn -0.999833 -0.008600 0.016101
vn 0.707107 0.000000 0.707107
vn 0.707107 0.000000 0.707107
vn 0.707107 0.000000 0.707107
vn 0.707107 0.000000 0.707107
vn -0.709901 0.000400 0.704301
vn -0.709901 0.000400 0.704301
vn -0.709901 0.000400 0.704301
vn -0.709901 0.000400 0.704301
vn 0.666478 -0.008500 -0.745476
vn 0.666478 -0.008500 -0.745476
vn 0.666478 -0.008500 -0.745476
vn 0.666478 -0.008500 -0.745476
vn -0.707107 0.000000 -0.707107
vn -0.707107 0.000000 -0.707107
vn -0.707107 0.000000 -0.707107
vn -0.707107 0.000000 -0.707107
vn -0.036699 -0.022200 0.999080
vn -0.009200 -0.049901 0.998712
vn -0.020799 0.005900 0.999766
vn -0.057503 0.000000 0.998345
vn 0.035399 0.034999 0.998760
vn 0.000000 0.073102 0.997324
vn 0.015399 0.005300 0.999867
vn 0.067601 0.000300 0.997712
vn 0.021701 -0.021301 -0.999538
vn 0.007600 -0.052001 -0.998618
vn 0.024400 0.000000 -0.999702
vn 0.041402 0.000000 -0.999143
vn -0.032101 0.041201 -0.998635
vn -0.000000 0.075603 -0.997138
vn -0.007700 0.000000 -0.999970
vn -0.061500 0.000000 -0.998107
vn 0.998489 -0.041000 0.036600
vn 0.997336 -0.070203 -0.019801
vn 0.999784 0.000000 -0.020800
vn 0.998032 0.000000 0.062702
vn -0.996506 -0.027100 -0.079001
vn -0.999973 0.000500 -0.007400
vn -0.997046 -0.076804 0.000300
vn -0.999833 -0.008600 0.016101
s off
g Box003
usemtl initialShadingGroup
f 1/1/1 2/2/2 3/3/3 4/4/4
f 5/5/5 6/6/6 7/7/7 8/8/8
f 9/9/9 10/10/10 11/11/11 12/12/12
f 13/13/13 14/14/14 15/15/15 16/16/16
f 17/17/17 18/18/18 19/19/19 20/20/20
f 21/21/21 22/22/22 23/23/23 24/24/24
f 25/25/25 26/26/26 27/27/27
f 28/28/28 16/16/29 29/29/30
f 24/24/31 30/30/32 31/31/33
f 32/32/34 33/33/35 34/34/36
f 35/35/37 36/36/38 37/37/39
f 38/38/40 39/39/41 40/40/42
f 41/41/43 42/42/44 43/43/45
f 44/44/46 45/45/47 46/46/48
f 26/26/49 21/21/50 47/47/51 27/27/52
f 20/48/53 1/1/54 4/4/55 17/49/56
f 34/34/57 13/13/58 48/50/59 32/32/60
f 12/51/61 49/52/62 50/53/63 9/54/64
f 51/55/65 5/5/66 8/8/67 52/56/68
f 38/38/69 53/57/70 54/58/71 39/39/72
f 55/59/73 56/60/74 57/61/75 58/62/76
f 41/41/77 59/63/78 60/64/79 42/42/80
f 16/65/81 15/66/82 61/67/83 29/68/84
f 37/37/85 62/69/86 63/70/87 35/35/88
f 33/71/89 64/72/90 65/73/91 34/74/92
f 24/75/93 23/76/94 66/77/95 30/78/96
f 32/32/97 48/50/98 2/2/99 1/1/100
f 27/27/101 47/47/102 3/3/103 49/52/104
f 39/39/105 54/58/106 6/6/107 5/5/108
f 42/42/109 60/64/110 7/7/111 56/60/112
f 29/68/113 61/67/114 10/10/115 9/9/116
f 35/35/117 63/70/118 11/11/119 52/56/120
f 30/78/121 66/77/122 18/18/123 17/17/124
f 44/44/125 64/72/126 19/19/127 58/62/128
f 33/33/129 32/32/130 1/1/131 20/48/132
f 31/31/133 30/30/134 17/49/135 4/4/136
f 25/25/137 27/27/138 49/52/139 12/51/140
f 28/28/141 29/29/142 9/54/143 50/53/144
f 40/40/145 39/39/146 5/5/147 51/55/148
f 36/36/149 35/35/150 52/56/151 8/8/152
f 43/43/153 42/42/154 56/60/155 55/59/156
f 45/45/157 44/44/158 58/62/159 57/61/160
f 50/53/161 49/52/162 3/3/163 2/2/164
f 57/61/165 56/60/166 7/7/167 6/6/168
f 34/34/169 65/79/170 14/14/171 13/13/172
f 26/26/173 62/80/174 22/22/175 21/21/176
f 24/24/177 31/31/178 47/47/179 21/21/180
f 16/16/181 28/28/182 48/50/183 13/13/184
f 46/46/185 45/45/186 54/58/187 53/57/188
f 37/37/189 36/36/190 60/64/191 59/63/192
f 28/28/193 50/53/194 2/2/195 48/50/196
f 31/31/197 4/4/198 3/3/199 47/47/200
f 45/45/201 57/61/202 6/6/203 54/58/204
f 36/36/205 8/8/206 7/7/207 60/64/208
f 51/55/209 52/56/210 11/11/211 10/10/212
f 53/81/213 38/82/214 15/15/215 14/14/216
f 55/59/217 58/62/218 19/19/219 18/18/220
f 59/83/221 41/84/222 23/23/223 22/22/224
f 38/38/225 40/40/226 61/67/227 15/66/228
f 26/85/229 25/86/230 63/70/231 62/69/232
f 44/44/233 46/46/234 65/73/235 64/72/236
f 41/41/237 43/43/238 66/77/239 23/76/240
f 40/40/241 51/55/242 10/10/243 61/67/244
f 25/86/245 12/12/246 11/11/247 63/70/248
f 43/43/249 55/59/250 18/18/251 66/77/252
f 33/71/253 20/20/254 19/19/255 64/72/256
f 46/87/257 53/81/258 14/14/259 65/79/260
f 62/80/261 37/88/262 59/83/263 22/22/264
