# This file uses centimeters as units for non-parametric coordinates.

mtllib doorframe.mtl
g default
v -0.121373 0.075983 3.318330
v -0.144436 0.075983 3.283975
v -0.144436 0.224130 3.283975
v -0.121373 0.224130 3.318330
v -0.144436 3.948583 3.676824
v -0.121373 3.925523 3.642469
v -0.144436 0.224130 3.676824
v -0.121373 0.224130 3.642469
v 1.493866 0.075983 3.642469
v 1.516928 0.075983 3.676824
v 1.516883 0.224129 3.676824
v 1.493823 0.224129 3.642469
v 1.480983 3.913995 3.318323
v 1.516665 3.947438 3.283975
v 1.516883 0.224129 3.283975
v 1.493823 0.224129 3.318330
v -0.241817 4.051814 3.283975
v -0.264875 4.074874 3.318330
v -0.241817 0.224130 3.283975
v -0.264875 0.224130 3.318330
v -0.144436 3.948583 3.283975
v -0.121373 3.925523 3.318330
v 1.480983 3.913995 3.642476
v 1.516665 3.947438 3.676824
v -0.241817 4.051814 3.676824
v -0.264875 4.074874 3.642469
v 1.634089 4.051814 3.676824
v 1.657142 4.074874 3.642469
v 1.635369 0.224129 3.676824
v 1.658429 0.224129 3.642469
v 1.658471 0.075983 3.318330
v 1.635411 0.075983 3.283975
v 1.635369 0.224129 3.283975
v 1.658429 0.224129 3.318330
v -0.241817 0.224130 3.676824
v -0.264875 0.224130 3.642469
v 1.634089 4.051814 3.283975
v 1.657142 4.074874 3.318330
v -0.264875 0.075983 3.642469
v -0.241817 0.075983 3.676824
v -0.121373 0.075983 3.642469
v -0.144436 0.075983 3.676824
v -0.264875 0.075983 3.318330
v -0.241817 0.075983 3.283975
v 1.658471 0.075983 3.642469
v 1.635411 0.075983 3.676824
v 1.493866 0.075983 3.318330
v 1.516928 0.075983 3.283975
vt 0.953276 0.005769
vt 0.957138 0.001340
vt 0.973448 0.001340
vt 0.977310 0.005769
vt 0.977310 0.047560
vt 0.973448 0.051989
vt 0.957138 0.051989
vt 0.953276 0.047560
vt 0.970439 0.060410
vt 0.974302 0.055981
vt 0.994146 0.055981
vt 0.998008 0.060410
vt 0.998008 0.102201
vt 0.994146 0.106631
vt 0.974302 0.106631
vt 0.970439 0.102201
vt 0.300090 0.001340
vt 0.303953 0.001340
vt 0.303953 0.026152
vt 0.300090 0.026152
vt 0.303953 0.649945
vt 0.300090 0.646082
vt 0.351732 0.649945
vt 0.355594 0.646082
vt 0.623966 0.644151
vt 0.629942 0.649753
vt 0.351732 0.026152
vt 0.355594 0.026152
vt 0.351732 0.001340
vt 0.355594 0.001340
vt 0.626124 0.001340
vt 0.629986 0.001340
vt 0.629979 0.026152
vt 0.626117 0.026152
vt 0.025742 0.649753
vt 0.031719 0.644151
vt 0.025706 0.026152
vt 0.029568 0.026152
vt 0.025699 0.001340
vt 0.029561 0.001340
vt 0.320263 0.667234
vt 0.324125 0.671096
vt 0.002215 0.671096
vt 0.006076 0.667234
vt 0.320263 0.026152
vt 0.324125 0.026152
vt 0.320263 0.001340
vt 0.324125 0.001340
vt 0.335422 0.667234
vt 0.331560 0.671096
vt 0.331560 0.026152
vt 0.335422 0.026152
vt 0.649609 0.667234
vt 0.653470 0.671096
vt 0.649824 0.026152
vt 0.653686 0.026152
vt 0.649831 0.001340
vt 0.653693 0.001340
vt 0.001992 0.001340
vt 0.005854 0.001340
vt 0.005861 0.026152
vt 0.001999 0.026152
vt 0.331560 0.001340
vt 0.335422 0.001340
vt 0.702724 0.001340
vt 0.702724 0.026152
vt 0.660933 0.026152
vt 0.660933 0.001340
vt 0.702724 0.671096
vt 0.660933 0.671096
vt 0.897619 0.001340
vt 0.897619 0.323250
vt 0.855828 0.323250
vt 0.855828 0.001340
vt 0.751448 0.001340
vt 0.751448 0.646284
vt 0.709657 0.646284
vt 0.709657 0.001340
vt 0.751448 0.671096
vt 0.709657 0.671096
vt 0.800172 0.001340
vt 0.800172 0.026152
vt 0.758380 0.026152
vt 0.758380 0.001340
vt 0.800172 0.646082
vt 0.758380 0.646082
vt 0.848896 0.617408
vt 0.848896 0.642221
vt 0.807105 0.642221
vt 0.807105 0.617408
vt 0.807104 0.001340
vt 0.848897 0.001340
vt 0.946344 0.001340
vt 0.946345 0.269711
vt 0.904552 0.269711
vt 0.904553 0.001340
vn 0.000000 -1.000000 0.000000
vn 0.000000 -1.000000 0.000000
vn 0.000000 -1.000000 0.000000
vn 0.000000 -1.000000 0.000000
vn 0.000000 -1.000000 0.000000
vn 0.000000 -1.000000 0.000000
vn 0.000000 -1.000000 0.000000
vn 0.000000 -1.000000 0.000000
vn 0.000000 -1.000000 0.000000
vn 0.000000 -1.000000 0.000000
vn 0.000000 -1.000000 0.000000
vn 0.000000 -1.000000 0.000000
vn 0.000000 -1.000000 0.000000
vn 0.000000 -1.000000 0.000000
vn 0.000000 -1.000000 0.000000
vn 0.000000 -1.000000 0.000000
vn 0.830253 0.000000 -0.557387
vn 0.830253 0.000000 -0.557387
vn 0.830268 0.000000 -0.557365
vn 0.830268 0.000000 -0.557365
vn 0.830268 0.000000 -0.557365
vn 0.830268 0.000000 -0.557365
vn 0.830268 0.000000 -0.557364
vn 0.830268 0.000000 -0.557364
vn -0.002999 -0.772072 0.635528
vn -0.002999 -0.772072 0.635528
vn -0.002999 -0.772072 0.635528
vn -0.002999 -0.772072 0.635528
vn 0.830268 0.000000 0.557364
vn 0.830268 0.000000 0.557364
vn 0.830268 0.000000 0.557365
vn 0.830268 0.000000 0.557365
vn 0.830268 0.000000 0.557365
vn 0.830268 0.000000 0.557365
vn 0.830253 0.000000 0.557387
vn 0.830253 0.000000 0.557387
vn -0.830261 -0.000248 0.557374
vn -0.830261 -0.000248 0.557374
vn -0.762395 -0.001301 0.647111
vn -0.762390 -0.001301 0.647117
vn -0.762390 -0.001301 0.647117
vn -0.762395 -0.001301 0.647111
vn -0.759729 -0.001338 0.650238
vn -0.759729 -0.001338 0.650238
vn -0.002999 -0.772072 -0.635528
vn -0.002999 -0.772072 -0.635528
vn -0.002999 -0.772072 -0.635528
vn -0.002999 -0.772072 -0.635528
vn -0.759728 -0.001338 -0.650240
vn -0.759727 -0.001338 -0.650241
vn -0.762393 -0.001301 -0.647113
vn -0.762389 -0.001301 -0.647118
vn -0.762389 -0.001301 -0.647118
vn -0.762393 -0.001301 -0.647113
vn -0.830261 -0.000247 -0.557374
vn -0.830261 -0.000247 -0.557374
vn 0.000000 0.830298 -0.557320
vn 0.000000 0.830298 -0.557320
vn 0.000000 0.830298 -0.557320
vn 0.000000 0.830298 -0.557320
vn -0.830311 0.000000 -0.557300
vn -0.830311 0.000000 -0.557300
vn -0.830311 0.000000 -0.557300
vn -0.830311 0.000000 -0.557300
vn -0.830311 0.000000 -0.557300
vn -0.830311 0.000000 -0.557300
vn -0.830307 0.000000 -0.557307
vn -0.830307 0.000000 -0.557307
vn -0.830311 0.000000 0.557300
vn -0.830311 0.000000 0.557300
vn -0.830311 0.000000 0.557300
vn -0.830311 0.000000 0.557300
vn 0.000000 0.830295 0.557324
vn 0.000000 0.830295 0.557324
vn 0.000000 0.830295 0.557324
vn 0.000000 0.830295 0.557324
vn 0.830279 0.000278 0.557349
vn 0.830279 0.000278 0.557349
vn 0.830280 0.000277 0.557347
vn 0.830280 0.000277 0.557347
vn 0.830280 0.000277 0.557347
vn 0.830280 0.000277 0.557347
vn 0.830314 0.000237 0.557295
vn 0.830314 0.000237 0.557295
vn 0.830314 0.000236 -0.557295
vn 0.830314 0.000236 -0.557295
vn 0.830280 0.000277 -0.557347
vn 0.830280 0.000277 -0.557347
vn 0.830280 0.000277 -0.557347
vn 0.830280 0.000277 -0.557347
vn 0.830279 0.000278 -0.557349
vn 0.830279 0.000278 -0.557349
vn -0.830311 0.000000 0.557300
vn -0.830311 0.000000 0.557300
vn -0.830307 0.000000 0.557307
vn -0.830307 0.000000 0.557307
vn 0.000000 0.000000 1.000000
vn 0.000000 0.000000 1.000000
vn 0.000000 0.000000 1.000000
vn 0.000000 0.000000 1.000000
vn 0.000000 0.000001 -1.000000
vn 0.000000 0.000000 -1.000000
vn 0.000000 0.000000 -1.000000
vn 0.000000 0.000001 -1.000000
vn 0.000000 0.000000 1.000000
vn 0.000000 0.000000 1.000000
vn 0.000000 0.000000 1.000000
vn 0.000000 0.000000 1.000000
vn 0.000000 0.000000 1.000000
vn 0.000000 0.000000 1.000000
vn 0.000000 0.000000 1.000000
vn 0.000000 0.000000 1.000000
vn 0.000000 0.000000 -1.000000
vn 0.000000 0.000000 -1.000000
vn 0.000000 0.000000 -1.000000
vn 0.000000 0.000000 -1.000000
vn 0.000000 0.000001 -1.000000
vn 0.000000 0.000001 -1.000000
vn 0.000000 0.000001 -1.000000
vn 0.000000 0.000001 -1.000000
vn 0.000000 0.000000 1.000000
vn 0.000000 0.000000 1.000000
vn 0.000000 0.000000 1.000000
vn 0.000000 0.000000 1.000000
vn 0.000000 0.000000 -1.000000
vn 0.000000 0.000000 -1.000000
vn 0.000000 0.000000 -1.000000
vn 0.000000 0.000000 -1.000000
vn 0.000000 0.000000 1.000000
vn 0.000000 0.000000 1.000000
vn 0.000000 0.000000 1.000000
vn 0.000000 0.000000 1.000000
vn 0.000000 0.000000 -1.000000
vn 0.000000 0.000001 -1.000000
vn 0.000000 0.000001 -1.000000
vn 0.000000 0.000000 -1.000000
vn 1.000000 0.000281 0.000000
vn 1.000000 0.000333 0.000000
vn 1.000000 0.000333 0.000000
vn 1.000000 0.000281 0.000000
vn 1.000000 0.000333 0.000000
vn 1.000000 0.000335 0.000000
vn 1.000000 0.000335 0.000000
vn 1.000000 0.000333 0.000000
vn 0.000000 1.000000 0.000000
vn 0.000000 1.000000 0.000000
vn 0.000000 1.000000 0.000000
vn 0.000000 1.000000 0.000000
vn -1.000000 0.000000 0.000000
vn -1.000000 0.000000 0.000000
vn -1.000000 0.000000 0.000000
vn -1.000000 0.000000 0.000000
vn -1.000000 0.000000 0.000000
vn -1.000000 0.000000 0.000000
vn -1.000000 0.000000 0.000000
vn -1.000000 0.000000 0.000000
vn 1.000000 0.000000 0.000000
vn 1.000000 0.000000 0.000000
vn 1.000000 0.000000 0.000000
vn 1.000000 0.000000 0.000000
vn 1.000000 0.000000 0.000000
vn 1.000000 0.000000 0.000000
vn 1.000000 0.000000 0.000000
vn 1.000000 0.000000 0.000000
vn -0.999994 -0.003357 0.000000
vn -1.000000 -0.000288 0.000000
vn -1.000000 -0.000288 0.000000
vn -0.999994 -0.003357 0.000000
vn -0.999994 -0.003357 0.000000
vn -0.999994 -0.003480 0.000000
vn -0.999994 -0.003480 0.000000
vn -0.999994 -0.003357 0.000000
vn -0.007194 -0.999974 0.000000
vn -0.007194 -0.999974 0.000000
vn -0.007194 -0.999974 0.000000
vn -0.007194 -0.999974 0.000000
s off
g polySurface33 pCube104
usemtl doorframe:initialShadingGroup
f 43/1/1 44/2/2 2/3/3 1/4/4 41/5/5 42/6/6 40/7/7 39/8/8
f 47/9/9 48/10/10 32/11/11 31/12/12 45/13/13 46/14/14 10/15/15 9/16/16
f 1/17/17 2/18/18 3/19/19 4/20/20
f 4/20/21 3/19/22 21/21/23 22/22/24
f 5/23/25 6/24/26 23/25/27 24/26/28
f 6/24/29 5/23/30 7/27/31 8/28/32
f 8/28/33 7/27/34 42/29/35 41/30/36
f 9/31/37 10/32/38 11/33/39 12/34/40
f 12/34/41 11/33/42 24/26/43 23/25/44
f 14/35/45 13/36/46 22/22/47 21/21/48
f 13/36/49 14/35/50 15/37/51 16/38/52
f 16/38/53 15/37/54 48/39/55 47/40/56
f 17/41/57 18/42/58 38/43/59 37/44/60
f 18/42/61 17/41/62 19/45/63 20/46/64
f 20/46/65 19/45/66 44/47/67 43/48/68
f 25/49/69 26/50/70 36/51/71 35/52/72
f 26/50/73 25/49/74 27/53/75 28/54/76
f 28/54/77 27/53/78 29/55/79 30/56/80
f 30/56/81 29/55/82 46/57/83 45/58/84
f 31/59/85 32/60/86 33/61/87 34/62/88
f 34/62/89 33/61/90 37/44/91 38/43/92
f 35/52/93 36/51/94 39/63/95 40/64/96
f 5/23/97 24/26/98 27/53/99 25/49/100
f 21/21/101 3/19/102 19/45/103 17/41/104
f 5/23/105 25/49/106 35/52/107 7/27/108
f 29/55/109 11/33/110 10/32/111 46/57/112
f 15/37/113 33/61/114 32/60/115 48/39/116
f 21/21/117 17/41/118 37/44/119 14/35/120
f 7/27/121 35/52/122 40/64/123 42/29/124
f 19/45/125 3/19/126 2/18/127 44/47/128
f 27/53/129 24/26/130 11/33/131 29/55/132
f 15/37/133 14/35/134 37/44/135 33/61/136
f 31/65/137 34/66/138 30/67/139 45/68/140
f 34/66/141 38/69/142 28/70/143 30/67/144
f 38/71/145 18/72/146 26/73/147 28/74/148
f 18/75/149 20/76/150 36/77/151 26/78/152
f 20/76/153 43/79/154 39/80/155 36/77/156
f 1/81/157 4/82/158 8/83/159 41/84/160
f 4/82/161 22/85/162 6/86/163 8/83/164
f 16/87/165 47/88/166 9/89/167 12/90/168
f 12/90/169 23/91/170 13/92/171 16/87/172
f 22/93/173 13/94/174 23/95/175 6/96/176
