# This file uses centimeters as units for non-parametric coordinates.

mtllib ld2.mtl
g default
v 2.349200 4.404300 3.083573
v 3.771161 4.404300 3.083573
v 2.349200 2.584623 3.083573
v 3.771161 2.584623 3.083573
v 3.713581 4.446376 3.083573
v 3.713581 4.404300 3.136790
v 3.713581 2.584623 3.136790
v 3.713581 2.544888 3.083573
v 2.411703 4.446376 3.083573
v 2.411703 4.404300 3.136790
v 2.411703 2.584623 3.136790
v 2.411703 2.544888 3.083573
v 2.350510 2.546198 3.132316
v 2.353674 2.544888 3.132316
v 2.353674 2.546198 3.135480
v 2.353674 2.549362 3.136790
v 2.350510 2.549362 3.135480
v 2.349200 2.549362 3.132316
v 2.411703 2.549362 3.136790
v 2.411703 2.546198 3.135480
v 2.411703 2.544888 3.132316
v 2.350510 4.441903 3.135480
v 2.353674 4.441903 3.136790
v 2.353674 4.445066 3.135480
v 2.353674 4.446376 3.132316
v 2.350510 4.445066 3.132316
v 2.349200 4.441903 3.132316
v 2.411703 4.446376 3.132316
v 2.411703 4.445066 3.135480
v 2.411703 4.441903 3.136790
v 2.349200 2.584623 3.132316
v 2.350510 2.584623 3.135480
v 2.353674 2.584623 3.136790
v 3.766687 2.546198 3.135480
v 3.766687 2.544888 3.132316
v 3.769850 2.546198 3.132316
v 3.771161 2.549362 3.132316
v 3.769850 2.549362 3.135480
v 3.766687 2.549362 3.136790
v 3.771161 2.584623 3.132316
v 3.769850 2.584623 3.135480
v 3.766687 2.584623 3.136790
v 2.349200 4.441903 3.083573
v 2.350510 4.445066 3.083573
v 2.353674 4.446376 3.083573
v 3.766687 4.445066 3.135480
v 3.766687 4.441903 3.136790
v 3.769850 4.441903 3.135480
v 3.771161 4.441903 3.132316
v 3.769850 4.445066 3.132316
v 3.766687 4.446376 3.132316
v 3.766687 4.446376 3.083573
v 3.769850 4.445066 3.083573
v 3.771161 4.441903 3.083573
v 2.353674 2.544888 3.083573
v 2.350510 2.546198 3.083573
v 2.349200 2.549362 3.083573
v 3.771161 2.549362 3.083573
v 3.769850 2.546198 3.083573
v 3.766687 2.544888 3.083573
v 2.353674 4.404300 3.136790
v 2.350510 4.404300 3.135480
v 2.349200 4.404300 3.132316
v 3.771161 4.404300 3.132316
v 3.769850 4.404300 3.135480
v 3.766687 4.404300 3.136790
v 3.709107 4.399826 3.083573
v 3.712271 4.402990 3.082263
v 3.713581 4.404300 3.079100
v 2.416177 4.399826 3.083573
v 2.413013 4.402990 3.082263
v 2.411703 4.404300 3.079100
v 3.713581 4.441903 3.136790
v 3.713581 4.445066 3.135480
v 3.713581 4.446376 3.132316
v 3.713581 2.544888 3.132316
v 3.713581 2.546198 3.135480
v 3.713581 2.549362 3.136790
v 3.709107 2.589097 3.083573
v 3.712271 2.585934 3.082263
v 3.713581 2.584623 3.079100
v 2.416177 2.589097 3.083573
v 2.413013 2.585934 3.082263
v 2.411703 2.584623 3.079100
v 3.769850 4.441903 3.064502
v 3.766687 4.441903 3.063192
v 3.766687 4.445066 3.064502
v 3.766687 4.446376 3.067666
v 3.769850 4.445066 3.067666
v 3.771161 4.441903 3.067666
v 3.713581 4.446376 3.067666
v 3.713581 4.445066 3.064502
v 3.713581 4.441903 3.063192
v 3.766687 4.404300 3.063192
v 3.769850 4.404300 3.064502
v 3.771161 4.404300 3.067666
v 3.718054 4.408773 3.063192
v 3.714891 4.405610 3.064502
v 3.713581 4.404300 3.067666
v 3.713581 2.584623 3.067666
v 3.714891 2.583313 3.064502
v 3.718054 2.580150 3.063192
v 3.766687 2.584623 3.063192
v 3.769850 2.584623 3.064502
v 3.771161 2.584623 3.067666
v 3.766687 2.546198 3.064502
v 3.766687 2.549362 3.063192
v 3.769850 2.549362 3.064502
v 3.771161 2.549362 3.067666
v 3.769850 2.546198 3.067666
v 3.766687 2.544888 3.067666
v 3.713581 2.549362 3.063192
v 3.713581 2.546198 3.064502
v 3.713581 2.544888 3.067666
v 2.411703 4.446376 3.067666
v 2.411703 4.445066 3.064502
v 2.411703 4.441903 3.063192
v 2.407230 4.408773 3.063192
v 2.410393 4.405610 3.064502
v 2.411703 4.404300 3.067666
v 2.411703 2.584623 3.067666
v 2.410393 2.583313 3.064502
v 2.407230 2.580150 3.063192
v 2.411703 2.549362 3.063192
v 2.411703 2.546198 3.064502
v 2.411703 2.544888 3.067666
v 2.350510 4.441903 3.064502
v 2.349200 4.441903 3.067666
v 2.350510 4.445066 3.067666
v 2.353674 4.446376 3.067666
v 2.353674 4.445066 3.064502
v 2.353674 4.441903 3.063192
v 2.349200 4.404300 3.067666
v 2.350510 4.404300 3.064502
v 2.353674 4.404300 3.063192
v 2.350510 2.549362 3.064502
v 2.353674 2.549362 3.063192
v 2.353674 2.546198 3.064502
v 2.353674 2.544888 3.067666
v 2.350510 2.546198 3.067666
v 2.349200 2.549362 3.067666
v 2.353674 2.584623 3.063192
v 2.350510 2.584623 3.064502
v 2.349200 2.584623 3.067666
v 2.351092 2.546780 3.134898
v 2.351092 4.444485 3.134898
v 3.769269 2.546780 3.134898
v 3.769269 4.444485 3.134898
v 3.769269 4.444485 3.065084
v 3.769269 2.546780 3.065084
v 2.351092 4.444485 3.065084
v 2.351092 2.546780 3.065084
vt 0.927958 0.029546
vt 0.927958 0.030311
vt 0.910517 0.030311
vt 0.910517 0.029546
vt 0.929090 0.030311
vt 0.928882 0.029687
vt 0.927958 0.038838
vt 0.910517 0.038838
vt 0.904826 0.030311
vt 0.904825 0.029546
vt 0.929090 0.038838
vt 0.929090 0.029546
vt 0.929559 0.030311
vt 0.927958 0.478880
vt 0.910517 0.478880
vt 0.904825 0.038838
vt 0.903693 0.030311
vt 0.903901 0.029687
vt 0.929559 0.038838
vt 0.929090 0.478880
vt 0.927958 0.487973
vt 0.910517 0.487973
vt 0.904826 0.478880
vt 0.903694 0.038838
vt 0.903224 0.030311
vt 0.903693 0.029546
vt 0.929559 0.478880
vt 0.929091 0.487973
vt 0.927958 0.488738
vt 0.910517 0.488738
vt 0.904826 0.487973
vt 0.903694 0.478880
vt 0.903225 0.038838
vt 0.929559 0.487973
vt 0.928882 0.488598
vt 0.904826 0.488738
vt 0.903694 0.487973
vt 0.903225 0.478880
vt 0.929090 0.488738
vt 0.903901 0.488598
vt 0.903224 0.487973
vt 0.903693 0.488738
vt 0.905875 0.519163
vt 0.905875 0.518398
vt 0.923315 0.518398
vt 0.923315 0.519164
vt 0.904743 0.519163
vt 0.904951 0.518539
vt 0.929007 0.518399
vt 0.929007 0.519164
vt 0.923315 0.527691
vt 0.905875 0.527691
vt 0.904743 0.527690
vt 0.904274 0.519163
vt 0.904743 0.518398
vt 0.930140 0.519163
vt 0.929931 0.518539
vt 0.929007 0.527691
vt 0.923315 0.967732
vt 0.905875 0.967732
vt 0.904743 0.967732
vt 0.904274 0.527691
vt 0.930139 0.527691
vt 0.930139 0.518398
vt 0.930608 0.519163
vt 0.929007 0.967732
vt 0.923315 0.976826
vt 0.905875 0.976826
vt 0.904743 0.976826
vt 0.904274 0.967732
vt 0.930140 0.967732
vt 0.930608 0.527691
vt 0.929007 0.976826
vt 0.905875 0.977591
vt 0.923315 0.977590
vt 0.904951 0.977450
vt 0.904274 0.976826
vt 0.930140 0.976826
vt 0.930608 0.967732
vt 0.929007 0.977590
vt 0.904743 0.977591
vt 0.929932 0.977450
vt 0.930608 0.976826
vt 0.930140 0.977590
vt 0.781410 0.717016
vt 0.780376 0.717470
vt 0.780376 0.078970
vt 0.781410 0.079426
vt 0.779948 0.718577
vt 0.779948 0.077860
vt 0.785147 0.079426
vt 0.785147 0.717016
vt 0.786180 0.716550
vt 0.786180 0.079883
vt 0.786608 0.715447
vt 0.786608 0.080994
vt 0.788499 0.717016
vt 0.788499 0.079426
vt 0.792235 0.079426
vt 0.792235 0.717016
vt 0.787465 0.716550
vt 0.787465 0.079883
vt 0.793269 0.717470
vt 0.793269 0.078970
vt 0.787037 0.715447
vt 0.787037 0.080994
vt 0.793697 0.718577
vt 0.793697 0.077860
vt 0.960113 0.035924
vt 0.960113 0.034902
vt 0.977554 0.034902
vt 0.977553 0.035924
vt 0.958981 0.035924
vt 0.959189 0.035090
vt 0.983246 0.034902
vt 0.983245 0.035924
vt 0.977554 0.054690
vt 0.960113 0.054690
vt 0.958981 0.054690
vt 0.984378 0.035924
vt 0.984170 0.035090
vt 0.983245 0.054690
vt 0.977554 0.475684
vt 0.960113 0.475684
vt 0.958981 0.475684
vt 0.958512 0.035924
vt 0.958512 0.054690
vt 0.984378 0.054690
vt 0.983245 0.475684
vt 0.977554 0.492857
vt 0.960113 0.492857
vt 0.958981 0.492857
vt 0.958512 0.475684
vt 0.984378 0.475684
vt 0.984846 0.054690
vt 0.984846 0.035924
vt 0.983245 0.492857
vt 0.960113 0.493880
vt 0.977553 0.493880
vt 0.959189 0.493692
vt 0.958512 0.492857
vt 0.984378 0.492857
vt 0.984846 0.475684
vt 0.983245 0.493880
vt 0.984169 0.493692
vt 0.984846 0.492857
vt 0.975347 0.519682
vt 0.976479 0.519682
vt 0.976480 0.538447
vt 0.975347 0.538447
vt 0.975347 0.518659
vt 0.976271 0.518847
vt 0.976948 0.519682
vt 0.976948 0.538447
vt 0.976480 0.959441
vt 0.975347 0.959441
vt 0.957907 0.538447
vt 0.957907 0.519682
vt 0.957907 0.518659
vt 0.976948 0.959441
vt 0.976480 0.976614
vt 0.975347 0.976614
vt 0.957907 0.959441
vt 0.952215 0.538447
vt 0.952215 0.519682
vt 0.952215 0.518659
vt 0.976948 0.976614
vt 0.975348 0.977637
vt 0.976271 0.977449
vt 0.957907 0.976614
vt 0.952215 0.959441
vt 0.951083 0.538448
vt 0.951083 0.519682
vt 0.951291 0.518847
vt 0.957907 0.977637
vt 0.952215 0.976614
vt 0.951083 0.959441
vt 0.950614 0.538447
vt 0.950614 0.519682
vt 0.952215 0.977637
vt 0.951083 0.976614
vt 0.950614 0.959441
vt 0.951291 0.977449
vt 0.950614 0.976614
vt 0.839507 0.186415
vt 0.839507 0.796403
vt 0.835772 0.796403
vt 0.835772 0.186415
vt 0.840541 0.187031
vt 0.840541 0.795790
vt 0.834738 0.185799
vt 0.834738 0.797013
vt 0.840969 0.188520
vt 0.840969 0.794306
vt 0.834310 0.184319
vt 0.834310 0.798500
vt 0.861479 0.969527
vt 0.861479 0.359536
vt 0.865215 0.359536
vt 0.865215 0.969527
vt 0.860445 0.360153
vt 0.860445 0.968916
vt 0.866249 0.358926
vt 0.866249 0.970139
vt 0.860017 0.361633
vt 0.860017 0.967419
vt 0.866677 0.357439
vt 0.866677 0.971621
vt 0.085841 0.073587
vt 0.124351 0.073587
vt 0.124351 0.113839
vt 0.085841 0.113839
vt 0.085841 0.072807
vt 0.124351 0.072807
vt 0.125922 0.073587
vt 0.125922 0.113839
vt 0.124351 0.114671
vt 0.085841 0.114671
vt 0.084125 0.073587
vt 0.084125 0.113839
vt 0.125922 0.072807
vt 0.084125 0.072807
vt 0.125922 0.114671
vt 0.084125 0.114671
vt 0.725410 0.051825
vt 0.752207 0.051825
vt 0.752207 0.067052
vt 0.727667 0.065240
vt 0.727667 0.805729
vt 0.752207 0.803918
vt 0.068467 0.051825
vt 0.066210 0.065240
vt 0.752207 0.818196
vt 0.725410 0.818196
vt 0.039185 0.051825
vt 0.039185 0.067052
vt 0.066210 0.805729
vt 0.068467 0.818196
vt 0.039185 0.803918
vt 0.039185 0.818196
vt 0.114735 0.780239
vt 0.114735 0.118226
vt 0.648202 0.118226
vt 0.648202 0.780239
vn 0.000000 0.000000 1.000000
vn 0.000000 0.000000 1.000000
vn 0.000000 0.000000 1.000000
vn 0.000000 0.000000 1.000000
vn -0.021043 -0.999469 0.024874
vn -0.380670 -0.924555 0.016973
vn -0.382616 -0.923908 0.000000
vn -0.021402 -0.999771 0.000000
vn -0.924530 -0.380730 0.017022
vn -0.999134 -0.033516 0.024660
vn -0.999419 -0.034079 0.000000
vn -0.923879 -0.382685 0.000000
vn -0.019799 -0.032523 0.999275
vn -0.026138 -0.379528 0.924811
vn 0.000000 -0.382570 0.923927
vn 0.000000 -0.034067 0.999420
vn -0.001614 -0.924017 0.382349
vn 0.000000 -0.999682 0.025229
vn 0.000000 -0.923946 0.382524
vn -0.924008 -0.002105 0.382367
vn -0.923913 0.000000 0.382602
vn -0.999682 0.000000 0.025235
vn -0.377674 -0.041139 0.925024
vn -0.021400 0.000000 0.999771
vn -0.382579 0.000000 0.923923
vn -0.019892 0.030650 0.999332
vn -0.377960 0.038871 0.925006
vn -0.382579 0.000000 0.923923
vn -0.021400 0.000000 0.999771
vn -0.924003 0.001975 0.382381
vn -0.999196 0.031592 0.024693
vn -0.999682 0.000000 0.025235
vn -0.923913 0.000000 0.382602
vn -0.021054 0.999469 0.024887
vn -0.001614 0.923945 0.382521
vn 0.000000 0.923875 0.382694
vn 0.000000 0.999681 0.025242
vn -0.026138 0.379554 0.924800
vn 0.000000 0.032113 0.999484
vn 0.000000 0.382589 0.923918
vn -0.924521 0.380751 0.017022
vn -0.923869 0.382708 0.000000
vn -0.999484 0.032124 0.000000
vn -0.380833 0.924488 0.016975
vn -0.021413 0.999771 0.000000
vn -0.382785 0.923837 0.000000
vn 0.022885 -0.999429 0.024842
vn 0.001763 -0.924027 0.382322
vn 0.000000 -0.923946 0.382524
vn 0.000000 -0.999682 0.025229
vn 0.028361 -0.379264 0.924854
vn 0.021538 -0.032387 0.999243
vn 0.000000 -0.034067 0.999420
vn 0.000000 -0.382570 0.923926
vn 0.999134 -0.033516 0.024660
vn 0.924530 -0.380730 0.017022
vn 0.923879 -0.382685 0.000000
vn 0.999419 -0.034079 0.000000
vn 0.380670 -0.924555 0.016973
vn 0.023274 -0.999729 0.000000
vn 0.382616 -0.923908 0.000000
vn 0.021638 0.030521 0.999300
vn 0.028360 0.379283 0.924846
vn 0.000000 0.382589 0.923918
vn 0.000000 0.032113 0.999484
vn 0.001763 0.923959 0.382487
vn 0.022896 0.999429 0.024854
vn 0.000000 0.999681 0.025242
vn 0.000000 0.923876 0.382693
vn 0.999196 0.031592 0.024693
vn 0.924003 0.001975 0.382381
vn 0.923913 0.000000 0.382602
vn 0.999682 0.000000 0.025235
vn 0.377960 0.038871 0.925005
vn 0.023271 0.000000 0.999729
vn 0.382579 0.000000 0.923923
vn 0.380833 0.924488 0.016975
vn 0.382785 0.923837 0.000000
vn 0.023286 0.999729 0.000000
vn 0.924521 0.380752 0.017022
vn 0.999484 0.032124 0.000000
vn 0.923869 0.382708 0.000000
vn 0.023752 0.033502 -0.999156
vn 0.378050 0.038869 -0.924969
vn 0.382681 0.000000 -0.923881
vn 0.024283 0.000000 -0.999705
vn 0.924003 0.001976 -0.382381
vn 0.997271 0.030629 -0.067182
vn 0.997648 0.000000 -0.068542
vn 0.923913 0.000000 -0.382602
vn 0.022193 0.997467 -0.067586
vn 0.001764 0.923959 -0.382487
vn 0.000000 0.923876 -0.382693
vn 0.000000 0.997647 -0.068561
vn 0.028358 0.379376 -0.924808
vn 0.000000 0.032812 -0.999462
vn 0.000000 0.382691 -0.923877
vn -0.995945 0.000000 -0.089969
vn -0.923904 0.000000 -0.382624
vn -0.923904 0.000000 -0.382624
vn -0.995945 0.000000 -0.089969
vn -0.382680 0.000000 -0.923881
vn -0.016993 -0.011989 -0.999784
vn -0.017403 0.012279 -0.999773
vn -0.382680 0.000000 -0.923881
vn 0.023719 -0.035666 -0.999082
vn 0.028358 -0.379358 -0.924815
vn 0.000000 -0.382671 -0.923885
vn -0.000000 -0.034864 -0.999392
vn 0.001764 -0.924027 -0.382322
vn 0.022182 -0.997469 -0.067553
vn 0.000000 -0.997649 -0.068526
vn 0.000000 -0.923946 -0.382524
vn -0.997271 0.030629 -0.067182
vn -0.924003 0.001976 -0.382381
vn -0.923913 0.000000 -0.382602
vn -0.997648 0.000000 -0.068542
vn -0.378050 0.038868 -0.924969
vn -0.021769 0.033543 -0.999200
vn -0.022250 0.000000 -0.999752
vn -0.382681 0.000000 -0.923881
vn -0.021739 -0.035710 -0.999126
vn -0.377764 -0.041137 -0.924988
vn -0.382681 0.000000 -0.923881
vn -0.022249 0.000000 -0.999752
vn -0.924008 -0.002106 -0.382366
vn -0.997217 -0.032499 -0.067096
vn -0.997648 0.000000 -0.068542
vn -0.923913 0.000000 -0.382602
vn 0.000000 1.000000 0.000000
vn 0.000000 -1.000000 0.000000
vn 1.000000 0.000000 0.000000
vn -1.000000 0.000000 0.000000
vn -1.000000 0.000000 0.000000
vn 0.023271 0.000000 0.999729
vn 0.999682 0.000000 0.025235
vn 1.000000 0.000000 0.000000
vn 0.024281 0.000000 -0.999705
vn 0.000000 0.032828 -0.999461
vn 0.015910 -0.011225 -0.999810
vn 0.000000 1.000000 0.000000
vn 0.000000 -1.000000 0.000000
vn 0.016271 0.011479 -0.999802
vn 0.000000 -0.034882 -0.999391
vn 0.001054 0.000764 -0.999999
vn 0.001054 -0.000764 -0.999999
vn -0.001054 -0.000764 -0.999999
vn -0.001054 0.000764 -0.999999
vn -0.996046 0.000000 -0.088843
vn -0.996046 0.000000 -0.088843
vn 0.997648 0.000000 -0.068542
vn 0.997217 -0.032499 -0.067096
vn 0.000000 0.997647 -0.068562
vn 0.000000 -0.996064 -0.088638
vn 0.000000 -0.996064 -0.088638
vn 0.000000 -0.995928 -0.090149
vn 0.000000 -0.995928 -0.090149
vn 0.000000 0.996061 -0.088671
vn 0.000000 0.996061 -0.088671
vn 0.000000 0.995927 -0.090166
vn 0.000000 0.995927 -0.090166
vn 0.000000 -0.997649 -0.068526
vn -0.020405 0.997499 -0.067669
vn -0.020396 -0.997502 -0.067634
vn 0.996046 0.000000 -0.088840
vn 0.996046 0.000000 -0.088840
vn 0.995945 0.000000 -0.089963
vn 0.995945 0.000000 -0.089963
vn 0.377674 -0.041139 0.925024
vn 0.382579 0.000000 0.923923
vn 0.924008 -0.002105 0.382367
vn 0.923913 0.000000 0.382602
vn -0.925009 0.376991 -0.047279
vn -0.377079 0.924979 -0.047161
vn 0.377079 0.924980 -0.047161
vn 0.925010 0.376990 -0.047279
vn -0.376927 -0.925042 -0.047155
vn -0.925018 -0.376971 -0.047278
vn 0.925017 -0.376972 -0.047278
vn 0.376928 -0.925042 -0.047156
vn -0.382782 0.000000 -0.923839
vn -0.382782 0.000000 -0.923839
vn -0.923878 0.000000 -0.382686
vn -0.923878 0.000000 -0.382686
vn 0.000000 -0.923896 -0.382643
vn 0.000000 -0.923896 -0.382643
vn 0.000000 -0.382740 -0.923856
vn 0.000000 -0.382740 -0.923856
vn 0.000000 0.382817 -0.923824
vn 0.000000 0.382817 -0.923824
vn 0.000000 0.923845 -0.382767
vn 0.000000 0.923845 -0.382767
vn 0.923883 0.000000 -0.382676
vn 0.923883 0.000000 -0.382676
vn 0.382769 0.000000 -0.923844
vn 0.382769 0.000000 -0.923844
vn 0.000000 0.923875 -0.382694
vn 0.000000 0.382691 -0.923877
vn 0.382681 0.000000 -0.923881
vn 0.923913 0.000000 -0.382602
vn 0.000000 -0.382646 -0.923895
vn 0.000000 -0.382646 -0.923895
vn 0.000000 -0.923922 -0.382581
vn 0.000000 -0.923922 -0.382581
vn 0.000000 0.923897 -0.382643
vn 0.000000 0.923897 -0.382643
vn 0.000000 0.382691 -0.923877
vn 0.000000 0.382691 -0.923877
vn 0.377764 -0.041137 -0.924988
vn 0.924008 -0.002106 -0.382366
vn 0.000000 -0.382671 -0.923885
vn 0.000000 -0.923946 -0.382524
vn -0.001615 0.923945 -0.382521
vn -0.026136 0.379648 -0.924762
vn 0.382667 0.000000 -0.923886
vn 0.382667 0.000000 -0.923886
vn 0.923913 0.000000 -0.382603
vn 0.923913 0.000000 -0.382603
vn -0.026137 -0.379623 -0.924772
vn -0.001615 -0.924017 -0.382349
vn -0.887934 -0.325290 0.325208
vn -0.325295 -0.887939 0.325187
vn -0.325279 -0.325271 0.887915
vn -0.887940 0.325286 0.325195
vn -0.325267 0.325282 0.887915
vn -0.325322 0.887910 0.325240
vn 0.325281 -0.325274 0.887913
vn 0.325294 -0.887941 0.325182
vn 0.887935 -0.325287 0.325208
vn 0.325323 0.887911 0.325237
vn 0.325269 0.325283 0.887914
vn 0.887939 0.325290 0.325194
vn 0.887959 0.325252 -0.325176
vn 0.325268 0.325282 -0.887915
vn 0.325299 0.887927 -0.325216
vn 0.325272 -0.887956 -0.325165
vn 0.325279 -0.325271 -0.887915
vn 0.887952 -0.325260 -0.325189
vn -0.325269 0.325283 -0.887914
vn -0.887957 0.325259 -0.325175
vn -0.325301 0.887927 -0.325215
vn -0.887954 -0.325253 -0.325190
vn -0.325281 -0.325274 -0.887913
vn -0.325271 -0.887959 -0.325159
s 1
g pCube35
usemtl initialShadingGroup
f 11/209/1 7/210/2 6/211/3 10/212/4
s 2
f 14/109/5 13/110/6 56/111/7 55/112/8
s 3
f 13/1/9 18/2/10 57/3/11 56/4/12
s 1
f 16/126/13 15/113/14 20/119/15 19/127/16
s 2
f 15/113/17 14/109/5 21/118/18 20/119/19
s 3
f 18/2/10 17/5/20 32/11/21 31/7/22
s 1
f 17/5/23 16/13/13 33/19/24 32/11/25
f 23/34/26 22/28/27 62/20/28 61/27/29
s 3
f 22/28/30 27/21/31 63/14/32 62/20/33
s 7
f 25/147/34 24/148/35 29/149/36 28/150/37
s 1
f 24/148/38 23/153/26 30/154/39 29/149/40
s 3
f 27/21/31 26/29/41 44/30/42 43/22/43
s 7
f 26/151/44 25/147/34 45/158/45 44/159/46
s 2
f 35/131/47 34/132/48 77/125/49 76/124/50
s 1
f 34/132/51 39/141/52 78/133/53 77/125/54
s 10
f 37/43/55 36/44/56 59/45/57 58/46/58
s 2
f 36/138/59 35/131/47 60/130/60 59/139/61
s 1
f 47/167/62 46/161/63 74/155/64 73/160/65
s 7
f 46/161/66 51/162/67 75/156/68 74/155/69
s 10
f 49/68/70 48/69/71 65/61/72 64/60/73
s 1
f 48/69/74 47/77/62 66/70/75 65/61/76
s 7
f 51/162/67 50/168/77 53/175/78 52/170/79
s 10
f 50/74/80 49/68/70 54/67/81 53/75/82
s 14
f 86/83/83 85/78/84 95/71/85 94/79/86
s 10
f 85/78/87 90/73/88 96/66/89 95/71/90
s 7
f 88/176/91 87/181/92 92/177/93 91/171/94
s 14
f 87/181/95 86/184/83 93/182/96 92/177/97
s 17
f 99/85/98 98/86/99 101/87/100 100/88/101
s 14
f 98/86/102 97/89/103 102/90/104 101/87/105
f 107/146/106 106/142/107 113/134/108 112/143/109
s 2
f 106/142/110 111/137/111 114/129/112 113/134/113
s 3
f 128/31/114 127/37/115 134/32/116 133/23/117
s 14
f 127/37/118 132/41/119 135/38/120 134/32/121
f 137/25/122 136/17/123 143/24/124 142/33/125
s 3
f 136/17/126 141/9/127 144/16/128 143/24/129
s 1
f 6/211/3 66/216/75 47/223/62 73/217/65
s 7
f 75/156/68 51/162/67 52/170/79 5/163/130
s 14
f 93/225/96 86/226/83 94/227/86 97/228/103
s 2
f 8/123/131 60/130/60 35/131/47 76/124/50
s 10
f 64/60/73 2/59/132 54/67/81 49/68/70
s 3
f 1/15/133 63/14/32 27/21/31 43/22/43
f 3/8/134 31/7/22 63/14/32 1/15/133
s 1
f 7/210/2 42/215/135 66/216/75 6/211/3
s 10
f 40/52/136 4/51/137 2/59/132 64/60/73
s 14
f 102/229/104 97/228/103 94/227/86 103/230/138
s 3
f 57/3/11 18/2/10 31/7/22 3/8/134
s 1
f 78/214/53 39/221/52 42/215/135 7/210/2
s 10
f 37/43/55 58/46/58 4/51/137 40/52/136
s 14
f 102/229/104 103/230/138 107/233/106 112/234/109
f 117/231/139 93/225/96 97/228/103 118/232/140
s 7
f 28/150/37 75/156/68 5/163/130 9/157/141
s 1
f 10/212/4 6/211/3 73/217/65 30/218/39
f 19/213/16 78/214/53 7/210/2 11/209/1
s 2
f 12/117/142 8/123/131 76/124/50 21/118/18
s 14
f 123/237/143 102/229/104 112/234/109 124/238/144
s 25
f 82/241/145 70/242/146 67/243/147 79/244/148
s 14
f 132/235/119 117/231/139 118/232/140 135/236/120
s 7
f 25/147/34 28/150/37 9/157/141 45/158/45
s 1
f 61/220/29 10/212/4 30/218/39 23/224/26
f 33/219/24 11/209/1 10/212/4 61/220/29
f 16/222/13 19/213/16 11/209/1 33/219/24
s 2
f 55/112/8 12/117/142 21/118/18 14/109/5
s 14
f 142/239/125 123/237/143 124/238/144 137/240/122
f 135/236/120 118/232/140 123/237/143 142/239/125
s 7
f 5/163/130 52/170/79 88/176/91 91/171/94
s 10
f 54/67/81 2/59/132 96/66/89 90/73/88
s 17
f 81/91/149 69/92/150 99/85/98 100/88/101
s 10
f 2/59/132 4/51/137 105/58/151 96/66/89
f 4/51/137 58/46/58 109/50/152 105/58/151
s 2
f 60/130/60 8/123/131 114/129/112 111/137/111
s 7
f 9/157/141 5/163/130 91/171/94 115/164/153
s 26
f 69/185/154 72/186/155 120/187/156 99/188/157
s 27
f 84/197/158 81/198/159 100/199/160 121/200/161
s 2
f 8/123/131 12/117/142 126/122/162 114/129/112
s 7
f 45/158/45 9/157/141 115/164/153 130/165/163
s 3
f 1/15/133 43/22/43 128/31/114 133/23/117
s 2
f 12/117/142 55/112/8 139/116/164 126/122/162
s 3
f 57/3/11 3/8/134 144/16/128 141/9/127
s 28
f 72/97/165 84/98/166 121/99/167 120/100/168
s 3
f 3/8/134 1/15/133 133/23/117 144/16/128
s 1
f 39/54/52 38/47/169 41/53/170 42/62/135
s 10
f 38/47/171 37/43/55 40/52/136 41/53/172
s 3
f 43/22/43 44/30/42 129/36/173 128/31/114
s 7
f 44/159/46 45/158/45 130/165/163 129/166/174
f 52/170/79 53/175/78 89/180/175 88/176/91
s 10
f 53/75/82 54/67/81 90/73/88 89/80/176
s 2
f 55/112/8 56/111/7 140/115/177 139/116/164
s 3
f 56/4/12 57/3/11 141/9/127 140/10/178
s 10
f 58/46/58 59/45/57 110/49/179 109/50/152
s 2
f 59/139/61 60/130/60 111/137/111 110/144/180
s 3
f 31/7/22 32/11/21 62/20/33 63/14/32
s 1
f 32/11/25 33/19/24 61/27/29 62/20/28
f 42/62/135 41/53/170 65/61/76 66/70/75
s 10
f 41/53/172 40/52/136 64/60/73 65/61/72
s 25
f 67/95/147 68/93/181 80/94/182 79/96/148
s 17
f 68/93/183 69/92/150 81/91/149 80/94/184
s 26
f 69/185/154 68/189/185 71/190/186 72/186/155
s 25
f 68/189/187 67/193/147 70/194/146 71/190/188
s 7
f 28/150/37 29/149/36 74/155/69 75/156/68
s 1
f 29/149/40 30/154/39 73/160/65 74/155/64
f 19/127/16 20/119/15 77/125/54 78/133/53
s 2
f 20/119/19 21/118/18 76/124/50 77/125/49
s 25
f 79/205/148 80/201/189 83/202/190 82/206/145
s 27
f 80/201/191 81/198/159 84/197/158 83/202/192
s 28
f 72/97/165 71/101/193 83/102/194 84/98/166
s 25
f 71/101/195 70/105/146 82/106/145 83/102/196
s 7
f 91/171/94 92/177/93 116/172/197 115/164/153
s 14
f 92/177/97 93/182/96 117/178/139 116/172/198
f 94/79/86 95/71/85 104/63/199 103/72/138
s 10
f 95/71/90 96/66/89 105/58/151 104/63/200
s 14
f 97/195/103 98/191/201 119/192/202 118/196/140
s 26
f 98/191/203 99/188/157 120/187/156 119/192/204
s 27
f 100/199/160 101/203/205 122/204/206 121/200/161
s 14
f 101/203/207 102/207/104 123/208/143 122/204/208
f 103/72/138 104/63/199 108/56/209 107/65/106
s 10
f 104/63/200 105/58/151 109/50/152 108/56/210
s 14
f 112/143/109 113/134/108 125/128/211 124/135/144
s 2
f 113/134/113 114/129/112 126/122/162 125/128/212
s 7
f 115/164/153 116/172/197 131/173/213 130/165/163
s 14
f 116/172/198 117/178/139 132/179/119 131/173/214
f 118/107/140 119/103/215 122/104/216 123/108/143
s 28
f 119/103/217 120/100/168 121/99/167 122/104/218
s 14
f 124/135/144 125/128/211 138/120/219 137/136/122
s 2
f 125/128/212 126/122/162 139/116/164 138/120/220
s 3
f 133/23/117 134/32/116 143/24/129 144/16/128
s 14
f 134/32/121 135/38/120 142/33/125 143/24/124
s 3
f 17/5/20 18/2/10 13/1/9 145/6/221
s 2
f 13/110/6 14/109/5 15/113/17 145/114/222
s 1
f 15/12/14 16/13/13 17/5/23 145/6/223
s 3
f 26/29/41 27/21/31 22/28/30 146/35/224
s 1
f 22/28/27 23/34/26 24/39/38 146/35/225
s 7
f 24/148/35 25/147/34 26/151/44 146/152/226
s 1
f 38/47/169 39/54/52 34/55/51 147/48/227
s 2
f 34/132/48 35/131/47 36/138/59 147/140/228
s 10
f 36/44/56 37/43/55 38/47/171 147/48/229
s 7
f 50/168/77 51/162/67 46/161/66 148/169/230
s 1
f 46/81/63 47/77/62 48/69/74 148/76/231
s 10
f 48/69/71 49/68/70 50/74/80 148/76/232
f 89/80/176 90/73/88 85/78/87 149/82/233
s 14
f 85/78/84 86/83/83 87/84/95 149/82/234
s 7
f 87/181/92 88/176/91 89/180/175 149/183/235
s 2
f 110/144/180 111/137/111 106/142/110 150/145/236
s 14
f 106/64/107 107/65/106 108/56/209 150/57/237
s 10
f 108/56/210 109/50/152 110/49/179 150/57/238
s 14
f 131/42/214 132/41/119 127/37/118 151/40/239
s 3
f 127/37/115 128/31/114 129/36/173 151/40/240
s 7
f 129/166/174 130/165/163 131/173/213 151/174/241
s 3
f 140/10/178 141/9/127 136/17/126 152/18/242
s 14
f 136/17/123 137/25/122 138/26/219 152/18/243
s 2
f 138/120/220 139/116/164 140/115/177 152/121/244
