# This file uses centimeters as units for non-parametric coordinates.

mtllib rug.mtl
g default
v -4.830184 0.139868 -3.056567
v -1.116736 0.139868 -3.056567
v -4.830184 0.139868 -8.307567
v -1.116736 0.139868 -8.307567
v -1.132734 0.139868 -3.056567
v -1.132734 0.139868 -8.307567
v -4.830184 0.139868 -3.070387
v -1.132734 0.139868 -3.070387
v -1.116736 0.139868 -3.070387
v -4.809384 0.139868 -8.307567
v -4.809384 0.139868 -3.070387
v -4.809384 0.139868 -3.056567
v -4.830184 0.139868 -8.288155
v -1.116736 0.139868 -8.288155
v -1.132734 0.139868 -8.288155
v -4.809384 0.139868 -8.288155
vt 0.005347 0.003777
vt 0.495176 0.003777
vt 0.005347 0.495811
vt 0.495176 0.495811
vt 0.495176 0.002408
vt 0.005347 0.002408
vt 0.002434 0.003777
vt 0.002434 0.495811
vt 0.005347 0.497734
vt 0.495176 0.497734
vt 0.497417 0.495811
vt 0.497417 0.003777
vt 0.497417 0.002408
vt 0.497417 0.497734
vt 0.002434 0.002408
vt 0.002434 0.497734
vn 0.000000 1.000000 0.000000
vn 0.000000 1.000000 0.000000
vn 0.000000 1.000000 0.000000
vn 0.000000 1.000000 0.000000
vn 0.000000 1.000000 0.000000
vn 0.000000 1.000000 0.000000
vn 0.000000 1.000000 0.000000
vn 0.000000 1.000000 0.000000
vn 0.000000 1.000000 0.000000
vn 0.000000 1.000000 0.000000
vn 0.000000 1.000000 0.000000
vn 0.000000 1.000000 0.000000
vn 0.000000 1.000000 0.000000
vn 0.000000 1.000000 0.000000
vn 0.000000 1.000000 0.000000
vn 0.000000 1.000000 0.000000
vn 0.000000 1.000000 0.000000
vn 0.000000 1.000000 0.000000
vn 0.000000 1.000000 0.000000
vn 0.000000 1.000000 0.000000
vn 0.000000 1.000000 0.000000
vn 0.000000 1.000000 0.000000
vn 0.000000 1.000000 0.000000
vn 0.000000 1.000000 0.000000
vn 0.000000 1.000000 0.000000
vn 0.000000 1.000000 0.000000
vn 0.000000 1.000000 0.000000
vn 0.000000 1.000000 0.000000
vn 0.000000 1.000000 0.000000
vn 0.000000 1.000000 0.000000
vn 0.000000 1.000000 0.000000
vn 0.000000 1.000000 0.000000
vn 0.000000 1.000000 0.000000
vn 0.000000 1.000000 0.000000
vn 0.000000 1.000000 0.000000
vn 0.000000 1.000000 0.000000
s off
g rug:pPlane5
usemtl rug:initialShadingGroup
f 16/3/1 11/1/2 8/2/3 15/4/4
f 8/2/5 9/12/6 14/11/7 15/4/8
f 11/1/9 12/6/10 5/5/11 8/2/12
f 9/12/13 8/2/14 5/5/15 2/13/16
f 11/1/17 16/3/18 13/8/19 7/7/20
f 1/15/21 12/6/22 11/1/23 7/7/24
f 6/10/25 15/4/26 14/11/27 4/14/28
f 16/3/29 15/4/30 6/10/31 10/9/32
f 13/8/33 16/3/34 10/9/35 3/16/36
