# This file uses centimeters as units for non-parametric coordinates.

mtllib tp.mtl
g default
v -3.599922 1.364256 9.532729
v -3.599922 1.364256 9.269550
v -3.607004 1.352282 9.269550
v -3.607004 1.352282 9.532729
v -3.506292 1.329059 9.269550
v -3.506164 1.328887 9.269550
v -3.531023 1.287154 9.269550
v -3.506164 1.328887 9.532729
v -3.531023 1.287154 9.532729
v -3.506292 1.329059 9.532729
v -3.617754 1.343453 9.269550
v -3.617754 1.343453 9.532729
v -3.568630 1.256265 9.269550
v -3.568630 1.256265 9.532729
v -3.630875 1.338832 9.269550
v -3.630875 1.338832 9.532729
v -3.614534 1.240102 9.269550
v -3.614534 1.240102 9.532729
v -3.644785 1.338978 9.269550
v -3.644785 1.338979 9.532729
v -3.663197 1.240613 9.269550
v -3.663197 1.240613 9.532729
v -3.657807 1.343873 9.269550
v -3.657807 1.343873 9.532729
v -3.708751 1.257738 9.269550
v -3.708751 1.257738 9.532729
v -3.668369 1.352927 9.269550
v -3.668369 1.352927 9.532729
v -3.745701 1.289410 9.269550
v -3.745701 1.289410 9.532729
v -3.675197 1.365047 9.269550
v -3.675198 1.365047 9.532729
v -3.769590 1.331809 9.269550
v -3.769590 1.331809 9.532729
v -3.677469 1.378771 9.269550
v -3.677469 1.378771 9.532729
v -3.777537 1.379822 9.269550
v -3.777537 1.379822 9.532729
v -3.674910 1.392445 9.269550
v -3.674910 1.392445 9.532729
v -3.768583 1.427658 9.269550
v -3.768583 1.427658 9.532729
v -3.667828 1.404418 9.269550
v -3.667828 1.404418 9.532729
v -3.743809 1.469546 9.269550
v -3.743809 1.469546 9.532729
v -3.657078 1.413248 9.269550
v -3.657078 1.413248 9.532729
v -3.706202 1.500435 9.269550
v -3.706202 1.500435 9.532729
v -3.643957 1.417868 9.269550
v -3.643957 1.417868 9.532729
v -3.660298 1.516599 9.269550
v -3.660298 1.516599 9.532729
v -3.630046 1.417722 9.269550
v -3.630046 1.417722 9.532729
v -3.611638 1.516067 9.269550
v -3.611638 1.516067 9.532729
v -3.617025 1.412827 9.269550
v -3.617025 1.412827 9.532729
v -3.566080 1.498963 9.269550
v -3.566080 1.498963 9.532729
v -3.606463 1.403774 9.269550
v -3.606463 1.403774 9.532729
v -3.529130 1.467291 9.269550
v -3.529130 1.467291 9.532729
v -3.599634 1.391654 9.269550
v -3.599634 1.391654 9.532729
v -3.505241 1.424891 9.269550
v -3.505241 1.424891 9.532729
v -3.597362 1.377929 9.269550
v -3.597362 1.377929 9.532729
v -3.497294 1.376878 9.269550
v -3.497294 1.376878 9.532729
v -3.505945 1.328978 9.269550
v -3.505945 1.328978 9.532729
v -3.567966 1.155237 9.269550
v -3.567945 1.155226 9.269550
v -3.567945 1.155226 9.532729
v -3.567966 1.155237 9.532729
v -3.525256 1.270551 9.269550
v -3.538495 1.241792 9.269550
v -3.538711 1.241864 9.269550
v -3.525527 1.270627 9.269550
v -3.525256 1.270551 9.532729
v -3.538495 1.241792 9.532729
v -3.525527 1.270627 9.532729
v -3.538711 1.241864 9.532729
v -3.554227 1.182887 9.269550
v -3.554356 1.182932 9.269550
v -3.548824 1.213724 9.269550
v -3.549004 1.213764 9.269550
v -3.516970 1.300223 9.269550
v -3.516762 1.300201 9.269550
v -3.554227 1.182887 9.532729
v -3.548824 1.213724 9.532729
v -3.516762 1.300201 9.532729
v -3.554356 1.182932 9.532729
v -3.549004 1.213764 9.532729
v -3.516970 1.300223 9.532729
v -3.554503 1.182991 9.532729
v -3.549100 1.213828 9.532729
vt 0.597784 0.379665
vt 0.597784 0.018549
vt 0.565331 0.018549
vt 0.565331 0.379665
vt 0.314370 0.767365
vt 0.314370 0.965767
vt 0.314463 0.965844
vt 0.410468 0.948784
vt 0.343409 0.762204
vt 0.963350 1.000132
vt 0.612564 1.000132
vt 0.612564 0.933456
vt 0.963350 0.933456
vt 0.314463 0.965844
vt 0.314370 0.965767
vt 0.314370 0.767365
vt 0.343409 0.762204
vt 0.410468 0.948784
vt 0.532878 0.018549
vt 0.532878 0.379665
vt 0.494975 0.899614
vt 0.368945 0.747346
vt 0.612564 0.866717
vt 0.963350 0.866717
vt 0.368945 0.747346
vt 0.494975 0.899614
vt 0.500425 0.018549
vt 0.500425 0.379665
vt 0.557698 0.824282
vt 0.387899 0.724583
vt 0.612564 0.799977
vt 0.963350 0.799977
vt 0.387899 0.724583
vt 0.557698 0.824282
vt 0.467972 0.018549
vt 0.467972 0.379665
vt 0.591072 0.731874
vt 0.397984 0.696659
vt 0.612564 0.733237
vt 0.963350 0.733237
vt 0.397984 0.696659
vt 0.591072 0.731874
vt 0.435519 0.018549
vt 0.435519 0.379665
vt 0.591072 0.633535
vt 0.397984 0.666943
vt 0.612564 0.666497
vt 0.963350 0.666497
vt 0.397984 0.666943
vt 0.591072 0.633535
vt 0.403066 0.018549
vt 0.403066 0.379665
vt 0.557698 0.541126
vt 0.387899 0.639019
vt 0.612564 0.599757
vt 0.963350 0.599757
vt 0.387899 0.639019
vt 0.557698 0.541126
vt 0.370613 0.018549
vt 0.370613 0.379665
vt 0.494975 0.465794
vt 0.368945 0.616255
vt 0.612564 0.533018
vt 0.963350 0.533018
vt 0.368945 0.616255
vt 0.494975 0.465794
vt 0.338160 0.018549
vt 0.338160 0.379665
vt 0.410468 0.416625
vt 0.343409 0.601397
vt 0.612564 0.466278
vt 0.963350 0.466278
vt 0.343409 0.601397
vt 0.410468 0.416625
vt 0.305707 0.018549
vt 0.305707 0.379665
vt 0.314370 0.399549
vt 0.314370 0.596237
vt 0.612564 0.399538
vt 0.963350 0.399538
vt 0.314370 0.596237
vt 0.314370 0.399549
vt 0.273254 0.018549
vt 0.273254 0.379665
vt 0.218273 0.416625
vt 0.285332 0.601397
vt 0.612564 0.332798
vt 0.963350 0.332798
vt 0.285332 0.601397
vt 0.218273 0.416625
vt 0.240800 0.018549
vt 0.240801 0.379665
vt 0.133766 0.465795
vt 0.259795 0.616255
vt 0.612564 0.266059
vt 0.963350 0.266059
vt 0.259795 0.616255
vt 0.133766 0.465795
vt 0.208347 0.018549
vt 0.208348 0.379665
vt 0.071043 0.541127
vt 0.240842 0.639019
vt 0.612564 0.199319
vt 0.963350 0.199319
vt 0.240842 0.639019
vt 0.071043 0.541127
vt 0.175894 0.018549
vt 0.175895 0.379665
vt 0.037709 0.633542
vt 0.230757 0.666943
vt 0.612564 0.132644
vt 0.963350 0.132644
vt 0.230757 0.666943
vt 0.037709 0.633542
vt 0.143441 0.018549
vt 0.143442 0.379665
vt 0.037668 0.731874
vt 0.230757 0.696659
vt 0.612564 0.060228
vt 0.963350 0.060228
vt 0.230757 0.696659
vt 0.037668 0.731874
vt 0.110988 0.018549
vt 0.110988 0.379665
vt 0.071043 0.824283
vt 0.240842 0.724583
vt 0.612564 -0.012059
vt 0.963350 -0.012060
vt 0.240842 0.724583
vt 0.071043 0.824283
vt 0.078535 0.018549
vt 0.078535 0.379665
vt 0.133766 0.899614
vt 0.259795 0.747346
vt 0.612564 -0.084347
vt 0.963350 -0.084347
vt 0.259795 0.747346
vt 0.133766 0.899614
vt 0.046082 0.018549
vt 0.046082 0.379665
vt 0.218273 0.948784
vt 0.285332 0.762204
vt 0.612564 -0.155642
vt 0.963350 -0.155642
vt 0.285332 0.762204
vt 0.218273 0.948784
vt 0.013629 0.018549
vt 0.013629 0.379665
vt 0.314278 0.965844
vt 0.612803 -0.228194
vt 0.963119 -0.228194
vt 0.314278 0.965844
vt 0.964131 -0.590033
vt 0.964131 -0.589851
vt 0.612758 -0.589851
vt 0.612758 -0.590033
vt 0.963119 -0.228320
vt 0.612758 -0.348567
vt 0.612758 -0.408888
vt 0.964131 -0.408888
vt 0.964131 -0.348567
vt 0.612758 -0.348749
vt 0.612758 -0.409070
vt 0.612758 -0.529530
vt 0.964131 -0.529530
vt 0.612758 -0.469209
vt 0.964131 -0.469209
vt 0.964131 -0.288246
vt 0.964131 -0.227926
vt 0.612758 -0.227925
vt 0.612758 -0.288246
vt 0.612758 -0.529712
vt 0.612758 -0.469391
vt 0.612758 -0.228107
vt 0.612758 -0.288428
vt 0.963119 -0.228194
vt 0.963119 -0.228194
vt 0.963119 -0.228320
vt 0.963119 -0.228194
vt 0.963119 -0.228194
vt 0.963119 -0.228320
vt 0.963119 -0.228320
vt 0.963119 -0.228194
vt 0.963119 -0.228194
vt 0.963119 -0.228320
vt 0.963119 -0.228320
vt 0.963119 -0.228194
vt 0.963119 -0.228194
vt 0.963119 -0.228320
vt 0.963119 -0.228320
vt 0.963119 -0.228320
vt 0.963119 -0.228194
vt 0.963119 -0.228320
vt 0.963119 -0.228320
vt 0.963119 -0.228194
vt 0.963119 -0.228194
vt 0.612758 -0.348567
vt 0.964131 -0.348567
vt 0.964131 -0.408888
vt 0.612758 -0.408888
vt 0.612758 -0.529530
vt 0.964131 -0.529530
vt 0.964131 -0.589851
vt 0.612758 -0.589851
vt 0.612758 -0.469209
vt 0.964131 -0.469209
vt 0.964131 -0.529530
vt 0.612758 -0.529530
vt 0.612758 -0.408888
vt 0.964131 -0.408888
vt 0.964131 -0.469209
vt 0.612758 -0.469209
vt 0.964131 -0.288246
vt 0.612758 -0.288246
vt 0.612758 -0.227925
vt 0.964131 -0.227926
vt 0.964131 -0.348567
vt 0.612758 -0.348567
vt 0.612758 -0.288246
vt 0.964131 -0.288246
vn -0.860725 0.509070 -0.000000
vn -0.860725 0.509070 -0.000000
vn -0.860725 0.509070 -0.000000
vn -0.860725 0.509070 -0.000000
vn -0.620839 0.233368 -0.748397
vn 0.000000 0.000000 -1.000000
vn -0.019681 -0.040861 -0.998971
vn 0.562646 -0.483808 -0.670343
vn -0.503564 0.431653 -0.748397
vn -0.019681 -0.040861 -0.998971
vn -0.019681 -0.040861 0.998971
vn 0.562646 -0.483808 0.670343
vn 0.562646 -0.483808 -0.670343
vn -0.019681 -0.040861 0.998971
vn -0.000000 -0.000000 1.000000
vn -0.620840 0.233368 0.748397
vn -0.503565 0.431654 0.748397
vn 0.562646 -0.483808 0.670343
vn -0.503565 0.431654 0.748397
vn -0.503564 0.431653 -0.748397
vn -0.325593 0.577880 -0.748361
vn -0.325593 0.577881 0.748360
vn -0.503564 0.431653 -0.748397
vn 0.562646 -0.483808 -0.670343
vn 0.364387 -0.646705 -0.670071
vn -0.325593 0.577880 -0.748361
vn 0.562646 -0.483808 -0.670343
vn 0.562646 -0.483808 0.670343
vn 0.364386 -0.646704 0.670072
vn 0.364387 -0.646705 -0.670071
vn 0.562646 -0.483808 0.670343
vn -0.503565 0.431654 0.748397
vn -0.325593 0.577881 0.748360
vn 0.364386 -0.646704 0.670072
vn -0.325593 0.577881 0.748360
vn -0.325593 0.577880 -0.748361
vn -0.108311 0.654389 -0.748361
vn -0.108311 0.654389 0.748361
vn -0.325593 0.577880 -0.748361
vn 0.364387 -0.646705 -0.670071
vn 0.121198 -0.732336 -0.670071
vn -0.108311 0.654389 -0.748361
vn 0.364387 -0.646705 -0.670071
vn 0.364386 -0.646704 0.670072
vn 0.121197 -0.732335 0.670072
vn 0.121198 -0.732336 -0.670071
vn 0.364386 -0.646704 0.670072
vn -0.325593 0.577881 0.748360
vn -0.108311 0.654389 0.748361
vn 0.121197 -0.732335 0.670072
vn -0.108311 0.654389 0.748361
vn -0.108311 0.654389 -0.748361
vn 0.122035 0.651969 -0.748361
vn 0.122035 0.651969 0.748361
vn -0.108311 0.654389 -0.748361
vn 0.121198 -0.732336 -0.670071
vn -0.136578 -0.729661 -0.670031
vn 0.122035 0.651969 -0.748361
vn 0.121198 -0.732336 -0.670071
vn 0.121197 -0.732335 0.670072
vn -0.136578 -0.729661 0.670031
vn -0.136578 -0.729661 -0.670031
vn 0.121197 -0.732335 0.670072
vn -0.108311 0.654389 0.748361
vn 0.122035 0.651969 0.748361
vn -0.136578 -0.729661 0.670031
vn 0.122035 0.651969 0.748361
vn 0.122035 0.651969 -0.748361
vn 0.337663 0.570911 -0.748361
vn 0.337662 0.570912 0.748361
vn 0.122035 0.651969 -0.748361
vn -0.136578 -0.729661 -0.670031
vn -0.377900 -0.638945 -0.670031
vn 0.337663 0.570911 -0.748361
vn -0.136578 -0.729661 -0.670031
vn -0.136578 -0.729661 0.670031
vn -0.377900 -0.638945 0.670031
vn -0.377900 -0.638945 -0.670031
vn -0.136578 -0.729661 0.670031
vn 0.122035 0.651969 0.748361
vn 0.337662 0.570912 0.748361
vn -0.377900 -0.638945 0.670031
vn 0.337662 0.570912 0.748361
vn 0.337663 0.570911 -0.748361
vn 0.512562 0.420994 -0.748361
vn 0.512562 0.420994 0.748361
vn 0.337663 0.570911 -0.748361
vn -0.377900 -0.638945 -0.670031
vn -0.573642 -0.471162 -0.670031
vn 0.512562 0.420994 -0.748361
vn -0.377900 -0.638945 -0.670031
vn -0.377900 -0.638945 0.670031
vn -0.573642 -0.471162 0.670031
vn -0.573642 -0.471162 -0.670031
vn -0.377900 -0.638945 0.670031
vn 0.337662 0.570912 0.748361
vn 0.512562 0.420994 0.748361
vn -0.573642 -0.471162 0.670031
vn 0.512562 0.420994 0.748361
vn 0.512562 0.420994 -0.748361
vn 0.625640 0.220299 -0.748360
vn 0.625639 0.220299 0.748361
vn 0.512562 0.420994 -0.748361
vn -0.573642 -0.471162 -0.670031
vn -0.700194 -0.246550 -0.670031
vn 0.625640 0.220299 -0.748360
vn -0.573642 -0.471162 -0.670031
vn -0.573642 -0.471162 0.670031
vn -0.700194 -0.246550 0.670031
vn -0.700194 -0.246550 -0.670031
vn -0.573642 -0.471162 0.670031
vn 0.512562 0.420994 0.748361
vn 0.625639 0.220299 0.748361
vn -0.700194 -0.246550 0.670031
vn 0.625639 0.220299 0.748361
vn 0.625640 0.220299 -0.748360
vn 0.663256 -0.006969 -0.748360
vn 0.663255 -0.006968 0.748361
vn 0.625640 0.220299 -0.748360
vn -0.700194 -0.246550 -0.670031
vn -0.742292 0.007798 -0.670031
vn 0.663256 -0.006969 -0.748360
vn -0.700194 -0.246550 -0.670031
vn -0.700194 -0.246550 0.670031
vn -0.742292 0.007798 0.670031
vn -0.742292 0.007798 -0.670031
vn -0.700194 -0.246550 0.670031
vn 0.625639 0.220299 0.748361
vn 0.663255 -0.006968 0.748361
vn -0.742292 0.007798 0.670031
vn 0.663255 -0.006968 0.748361
vn 0.663256 -0.006969 -0.748360
vn 0.620873 -0.233395 -0.748360
vn 0.620873 -0.233395 0.748361
vn 0.663256 -0.006969 -0.748360
vn -0.742292 0.007798 -0.670031
vn -0.694830 0.261181 -0.670072
vn 0.620873 -0.233395 -0.748360
vn -0.742292 0.007798 -0.670031
vn -0.742292 0.007798 0.670031
vn -0.694830 0.261181 0.670071
vn -0.694830 0.261181 -0.670072
vn -0.742292 0.007798 0.670031
vn 0.663255 -0.006968 0.748361
vn 0.620873 -0.233395 0.748361
vn -0.694830 0.261181 0.670071
vn 0.620873 -0.233395 0.748361
vn 0.620873 -0.233395 -0.748360
vn 0.503605 -0.431670 -0.748360
vn 0.503603 -0.431671 0.748361
vn 0.620873 -0.233395 -0.748360
vn -0.694830 0.261181 -0.670072
vn -0.563579 0.483097 -0.670072
vn 0.503605 -0.431670 -0.748360
vn -0.694830 0.261181 -0.670072
vn -0.694830 0.261181 0.670071
vn -0.563579 0.483097 0.670071
vn -0.563579 0.483097 -0.670072
vn -0.694830 0.261181 0.670071
vn 0.620873 -0.233395 0.748361
vn 0.503603 -0.431671 0.748361
vn -0.563579 0.483097 0.670071
vn 0.503603 -0.431671 0.748361
vn 0.503605 -0.431670 -0.748360
vn 0.325593 -0.577881 -0.748360
vn 0.325593 -0.577880 0.748361
vn 0.503605 -0.431670 -0.748360
vn -0.563579 0.483097 -0.670072
vn -0.364392 0.646743 -0.670031
vn 0.325593 -0.577881 -0.748360
vn -0.563579 0.483097 -0.670072
vn -0.563579 0.483097 0.670071
vn -0.364392 0.646743 0.670031
vn -0.364392 0.646743 -0.670031
vn -0.563579 0.483097 0.670071
vn 0.503603 -0.431671 0.748361
vn 0.325593 -0.577880 0.748361
vn -0.364392 0.646743 0.670031
vn 0.325593 -0.577880 0.748361
vn 0.325593 -0.577881 -0.748360
vn 0.108317 -0.654347 -0.748397
vn 0.108317 -0.654347 0.748397
vn 0.325593 -0.577881 -0.748360
vn -0.364392 0.646743 -0.670031
vn -0.121067 0.732433 -0.669988
vn 0.108317 -0.654347 -0.748397
vn -0.364392 0.646743 -0.670031
vn -0.364392 0.646743 0.670031
vn -0.121067 0.732433 0.669988
vn -0.121067 0.732433 -0.669988
vn -0.364392 0.646743 0.670031
vn 0.325593 -0.577880 0.748361
vn 0.108317 -0.654347 0.748397
vn -0.121067 0.732433 0.669988
vn 0.108317 -0.654347 0.748397
vn 0.108317 -0.654347 -0.748397
vn -0.122040 -0.651927 -0.748397
vn -0.122040 -0.651927 0.748397
vn 0.108317 -0.654347 -0.748397
vn -0.121067 0.732433 -0.669988
vn 0.136543 0.729552 -0.670157
vn -0.122040 -0.651927 -0.748397
vn -0.121067 0.732433 -0.669988
vn -0.121067 0.732433 0.669988
vn 0.136543 0.729552 0.670157
vn 0.136543 0.729552 -0.670157
vn -0.121067 0.732433 0.669988
vn 0.108317 -0.654347 0.748397
vn -0.122040 -0.651927 0.748397
vn 0.136543 0.729552 0.670157
vn -0.122040 -0.651927 0.748397
vn -0.122040 -0.651927 -0.748397
vn -0.337630 -0.570884 -0.748397
vn -0.337631 -0.570883 0.748397
vn -0.122040 -0.651927 -0.748397
vn 0.136543 0.729552 -0.670157
vn 0.377745 0.638995 -0.670070
vn -0.337630 -0.570884 -0.748397
vn 0.136543 0.729552 -0.670157
vn 0.136543 0.729552 0.670157
vn 0.377745 0.638995 0.670070
vn 0.377745 0.638995 -0.670070
vn 0.136543 0.729552 0.670157
vn -0.122040 -0.651927 0.748397
vn -0.337631 -0.570883 0.748397
vn 0.377745 0.638995 0.670070
vn -0.337631 -0.570883 0.748397
vn -0.337630 -0.570884 -0.748397
vn -0.512539 -0.420958 -0.748397
vn -0.512539 -0.420958 0.748397
vn -0.337630 -0.570884 -0.748397
vn 0.377745 0.638995 -0.670070
vn 0.573623 0.471128 -0.670071
vn -0.512539 -0.420958 -0.748397
vn 0.377745 0.638995 -0.670070
vn 0.377745 0.638995 0.670070
vn 0.573622 0.471128 0.670072
vn 0.573623 0.471128 -0.670071
vn 0.377745 0.638995 0.670070
vn -0.337631 -0.570883 0.748397
vn -0.512539 -0.420958 0.748397
vn 0.573622 0.471128 0.670072
vn -0.512539 -0.420958 0.748397
vn -0.512539 -0.420958 -0.748397
vn -0.625639 -0.220299 -0.748361
vn -0.625640 -0.220298 0.748361
vn -0.512539 -0.420958 -0.748397
vn 0.573623 0.471128 -0.670071
vn 0.700194 0.246550 -0.670031
vn -0.625639 -0.220299 -0.748361
vn 0.573623 0.471128 -0.670071
vn 0.573622 0.471128 0.670072
vn 0.700194 0.246550 0.670031
vn 0.700194 0.246550 -0.670031
vn 0.573622 0.471128 0.670072
vn -0.512539 -0.420958 0.748397
vn -0.625640 -0.220298 0.748361
vn 0.700194 0.246550 0.670031
vn -0.625640 -0.220298 0.748361
vn -0.625639 -0.220299 -0.748361
vn -0.663255 0.006968 -0.748361
vn -0.663256 0.006969 0.748360
vn -0.625639 -0.220299 -0.748361
vn 0.700194 0.246550 -0.670031
vn 0.741702 -0.005415 -0.670707
vn -0.663255 0.006968 -0.748361
vn 0.700194 0.246550 -0.670031
vn 0.700194 0.246550 0.670031
vn 0.741702 -0.005415 0.670708
vn 0.741702 -0.005415 -0.670707
vn 0.700194 0.246550 0.670031
vn -0.625640 -0.220298 0.748361
vn -0.663256 0.006969 0.748360
vn 0.741702 -0.005415 0.670708
vn -0.663256 0.006969 0.748360
vn -0.663255 0.006968 -0.748361
vn -0.620839 0.233368 -0.748397
vn -0.620840 0.233368 0.748397
vn -0.663255 0.006968 -0.748361
vn 0.741702 -0.005415 -0.670707
vn 0.700163 -0.193119 -0.687369
vn 0.000000 0.000000 -1.000000
vn -0.620839 0.233368 -0.748397
vn 0.741702 -0.005415 -0.670707
vn 0.741702 -0.005415 0.670708
vn 0.700163 -0.193119 0.687370
vn 0.700163 -0.193119 -0.687369
vn 0.741702 -0.005415 0.670708
vn -0.663256 0.006969 0.748360
vn -0.620840 0.233368 0.748397
vn -0.000000 -0.000000 1.000000
vn 0.700163 -0.193119 0.687370
vn 0.000000 0.000000 -1.000000
vn 0.700163 -0.193119 -0.687369
vn -0.019681 -0.040861 -0.998971
vn -0.000000 -0.000000 1.000000
vn -0.019681 -0.040861 0.998971
vn 0.700163 -0.193119 0.687370
vn -0.773337 -0.261299 -0.577645
vn 0.259985 -0.774074 -0.577250
vn 0.259985 -0.774074 0.577250
vn -0.773319 -0.263501 0.576667
vn 0.678259 -0.251602 -0.690407
vn 0.645105 -0.266689 -0.716042
vn -0.661876 0.272419 -0.698361
vn -0.646469 0.240112 -0.724172
vn 0.678334 -0.251616 0.690328
vn 0.645030 -0.266665 0.716119
vn 0.645105 -0.266689 -0.716042
vn 0.678259 -0.251602 -0.690407
vn -0.646469 0.240112 0.724171
vn -0.661351 0.273658 0.698374
vn 0.645030 -0.266665 0.716119
vn 0.678334 -0.251616 0.690328
vn 0.699942 -0.229568 -0.676299
vn 0.259985 -0.774074 -0.577250
vn -0.773337 -0.261299 -0.577645
vn -0.638940 0.207720 -0.740681
vn 0.662157 -0.178299 -0.727845
vn 0.699942 -0.229568 -0.676299
vn -0.638940 0.207720 -0.740681
vn -0.701348 0.187685 -0.687666
vn 0.645105 -0.266689 -0.716042
vn 0.662157 -0.178299 -0.727845
vn -0.701348 0.187685 -0.687666
vn -0.661876 0.272419 -0.698361
vn -0.679226 0.225833 -0.698321
vn -0.019681 -0.040861 -0.998971
vn 0.700163 -0.193119 -0.687369
vn 0.662579 -0.219046 -0.716246
vn -0.646469 0.240112 -0.724172
vn -0.679226 0.225833 -0.698321
vn 0.662579 -0.219046 -0.716246
vn 0.678259 -0.251602 -0.690407
vn 0.699942 -0.229568 0.676299
vn 0.259985 -0.774074 0.577250
vn 0.259985 -0.774074 -0.577250
vn 0.699942 -0.229568 -0.676299
vn 0.662230 -0.178333 0.727769
vn 0.699942 -0.229568 0.676299
vn 0.699942 -0.229568 -0.676299
vn 0.662157 -0.178299 -0.727845
vn 0.645030 -0.266665 0.716119
vn 0.662230 -0.178333 0.727769
vn 0.662157 -0.178299 -0.727845
vn 0.645105 -0.266689 -0.716042
vn 0.662579 -0.219046 -0.716246
vn 0.700163 -0.193119 -0.687369
vn 0.700163 -0.193119 0.687370
vn 0.662502 -0.219027 0.716323
vn 0.678259 -0.251602 -0.690407
vn 0.662579 -0.219046 -0.716246
vn 0.662502 -0.219027 0.716323
vn 0.678334 -0.251616 0.690328
vn -0.000000 -0.000000 1.000000
vn -0.773319 -0.263501 0.576667
vn 0.259985 -0.774074 0.577250
vn 0.699942 -0.229568 0.676299
vn -0.000000 -0.000000 1.000000
vn -0.000000 -0.000000 1.000000
vn 0.699942 -0.229568 0.676299
vn 0.662230 -0.178333 0.727769
vn -0.661351 0.273658 0.698374
vn -0.000000 -0.000000 1.000000
vn 0.662230 -0.178333 0.727769
vn 0.645030 -0.266665 0.716119
vn 0.662502 -0.219027 0.716323
vn 0.700163 -0.193119 0.687370
vn -0.019681 -0.040861 0.998971
vn -0.679226 0.225833 0.698320
vn 0.678334 -0.251616 0.690328
vn 0.662502 -0.219027 0.716323
vn -0.679226 0.225833 0.698320
vn -0.646469 0.240112 0.724171
vn -0.646469 0.240112 0.724171
vn -0.646469 0.240112 -0.724172
vn -0.661876 0.272419 -0.698361
vn -0.661351 0.273658 0.698374
vn -0.951551 0.307489 -0.000601
vn -0.638940 0.207720 -0.740681
vn -0.773337 -0.261299 -0.577645
vn -0.773319 -0.263501 0.576667
vn -0.965308 0.261114 -0.000416
vn -0.701348 0.187685 -0.687666
vn -0.638940 0.207720 -0.740681
vn -0.951551 0.307489 -0.000601
vn -0.661351 0.273658 0.698374
vn -0.661876 0.272419 -0.698361
vn -0.701348 0.187685 -0.687666
vn -0.965308 0.261114 -0.000416
vn -0.679226 0.225833 -0.698321
vn -0.679226 0.225833 0.698320
vn -0.019681 -0.040861 0.998971
vn -0.019681 -0.040861 -0.998971
vn -0.646469 0.240112 -0.724172
vn -0.646469 0.240112 0.724171
vn -0.679226 0.225833 0.698320
vn -0.679226 0.225833 -0.698321
s off
g tp:Tube002
usemtl initialShadingGroup
f 1/1/1 2/2/2 3/3/3 4/4/4
f 2/5/5 5/6/6 6/7/7 7/8/8 3/9/9
f 6/10/10 8/11/11 9/12/12 7/13/13
f 8/14/14 10/15/15 1/16/16 4/17/17 9/18/18
f 4/4/19 3/3/20 11/19/21 12/20/22
f 3/9/23 7/8/24 13/21/25 11/22/26
f 7/13/27 9/12/28 14/23/29 13/24/30
f 9/18/31 4/17/32 12/25/33 14/26/34
f 12/20/35 11/19/36 15/27/37 16/28/38
f 11/22/39 13/21/40 17/29/41 15/30/42
f 13/24/43 14/23/44 18/31/45 17/32/46
f 14/26/47 12/25/48 16/33/49 18/34/50
f 16/28/51 15/27/52 19/35/53 20/36/54
f 15/30/55 17/29/56 21/37/57 19/38/58
f 17/32/59 18/31/60 22/39/61 21/40/62
f 18/34/63 16/33/64 20/41/65 22/42/66
f 20/36/67 19/35/68 23/43/69 24/44/70
f 19/38/71 21/37/72 25/45/73 23/46/74
f 21/40/75 22/39/76 26/47/77 25/48/78
f 22/42/79 20/41/80 24/49/81 26/50/82
f 24/44/83 23/43/84 27/51/85 28/52/86
f 23/46/87 25/45/88 29/53/89 27/54/90
f 25/48/91 26/47/92 30/55/93 29/56/94
f 26/50/95 24/49/96 28/57/97 30/58/98
f 28/52/99 27/51/100 31/59/101 32/60/102
f 27/54/103 29/53/104 33/61/105 31/62/106
f 29/56/107 30/55/108 34/63/109 33/64/110
f 30/58/111 28/57/112 32/65/113 34/66/114
f 32/60/115 31/59/116 35/67/117 36/68/118
f 31/62/119 33/61/120 37/69/121 35/70/122
f 33/64/123 34/63/124 38/71/125 37/72/126
f 34/66/127 32/65/128 36/73/129 38/74/130
f 36/68/131 35/67/132 39/75/133 40/76/134
f 35/70/135 37/69/136 41/77/137 39/78/138
f 37/72/139 38/71/140 42/79/141 41/80/142
f 38/74/143 36/73/144 40/81/145 42/82/146
f 40/76/147 39/75/148 43/83/149 44/84/150
f 39/78/151 41/77/152 45/85/153 43/86/154
f 41/80/155 42/79/156 46/87/157 45/88/158
f 42/82/159 40/81/160 44/89/161 46/90/162
f 44/84/163 43/83/164 47/91/165 48/92/166
f 43/86/167 45/85/168 49/93/169 47/94/170
f 45/88/171 46/87/172 50/95/173 49/96/174
f 46/90/175 44/89/176 48/97/177 50/98/178
f 48/92/179 47/91/180 51/99/181 52/100/182
f 47/94/183 49/93/184 53/101/185 51/102/186
f 49/96/187 50/95/188 54/103/189 53/104/190
f 50/98/191 48/97/192 52/105/193 54/106/194
f 52/100/195 51/99/196 55/107/197 56/108/198
f 51/102/199 53/101/200 57/109/201 55/110/202
f 53/104/203 54/103/204 58/111/205 57/112/206
f 54/106/207 52/105/208 56/113/209 58/114/210
f 56/108/211 55/107/212 59/115/213 60/116/214
f 55/110/215 57/109/216 61/117/217 59/118/218
f 57/112/219 58/111/220 62/119/221 61/120/222
f 58/114/223 56/113/224 60/121/225 62/122/226
f 60/116/227 59/115/228 63/123/229 64/124/230
f 59/118/231 61/117/232 65/125/233 63/126/234
f 61/120/235 62/119/236 66/127/237 65/128/238
f 62/122/239 60/121/240 64/129/241 66/130/242
f 64/124/243 63/123/244 67/131/245 68/132/246
f 63/126/247 65/125/248 69/133/249 67/134/250
f 65/128/251 66/127/252 70/135/253 69/136/254
f 66/130/255 64/129/256 68/137/257 70/138/258
f 68/132/259 67/131/260 71/139/261 72/140/262
f 67/134/263 69/133/264 73/141/265 71/142/266
f 69/136/267 70/135/268 74/143/269 73/144/270
f 70/138/271 68/137/272 72/145/273 74/146/274
f 72/140/275 71/139/276 2/147/277 1/148/278
f 71/142/279 73/141/280 75/149/281 5/6/282 2/5/283
f 73/144/284 74/143/285 76/150/286 75/151/287
f 74/146/288 72/145/289 1/16/290 10/15/291 76/152/292
f 5/6/293 75/149/294 6/7/295
f 10/15/296 8/14/297 76/152/298
f 77/153/299 78/154/300 79/155/301 80/156/302
f 81/176/303 82/177/304 83/157/305 84/178/306
f 85/158/307 86/159/308 82/160/309 81/161/310
f 87/162/311 88/163/312 86/159/313 85/158/314
f 89/179/315 78/180/316 77/181/317 90/182/318
f 91/183/319 89/184/320 90/185/321 92/186/322
f 82/187/323 91/188/324 92/189/325 83/157/326
f 93/190/327 6/191/328 75/151/329 94/192/330
f 84/193/331 93/194/332 94/195/333 81/196/334
f 95/164/335 79/155/336 78/154/337 89/165/338
f 96/166/339 95/164/340 89/165/341 91/167/342
f 86/159/343 96/166/344 91/167/345 82/160/346
f 94/168/347 75/169/348 76/170/349 97/171/350
f 81/161/351 94/168/352 97/171/353 85/158/354
f 98/172/355 80/156/356 79/155/357 95/164/358
f 99/173/359 98/172/360 95/164/361 96/166/362
f 88/163/363 99/173/364 96/166/365 86/159/366
f 97/171/367 76/170/368 8/174/369 100/175/370
f 85/158/371 97/171/372 100/175/373 87/162/374
f 87/197/375 84/198/376 83/199/377 88/200/378
f 101/201/379 90/202/380 77/203/381 80/204/382
f 102/205/383 92/206/384 90/207/385 101/208/386
f 88/209/387 83/210/388 92/211/389 102/212/390
f 93/213/391 100/214/392 8/215/393 6/216/394
f 84/217/395 87/218/396 100/219/397 93/220/398
