# This file uses centimeters as units for non-parametric coordinates.

mtllib roof.mtl
g default
v -9.594959 3.143146 7.010967
v -8.056994 3.143146 7.010967
v -9.594959 3.143146 2.896808
v -8.056994 3.143146 2.896808
v -7.941771 3.143146 7.010967
v -7.941771 3.143146 2.896808
v -6.555762 3.143146 7.010967
v -6.555762 3.143146 2.896808
v -6.444890 3.143146 7.010967
v -6.444890 3.143146 2.896808
v -4.967195 3.143146 7.010967
v -4.967195 3.143146 2.896808
v -4.967195 3.143146 6.680437
v -6.444890 3.143146 6.680437
v -6.555762 3.143146 6.680437
v -7.941771 3.143146 6.680437
v -8.056994 3.143146 6.680437
v -9.594959 3.143146 6.680437
v -4.852168 3.143146 6.680437
v -4.852168 3.143146 2.896808
v -3.634491 3.143146 6.680437
v -3.634491 3.143146 2.896808
v -3.505862 3.143146 6.680437
v -3.505862 3.143146 2.896808
v -2.347058 3.143146 6.680437
v -2.347058 3.143146 2.896808
v -2.216152 3.143146 6.680437
v -2.216152 3.143146 2.896808
v -0.865134 3.143146 6.680437
v -0.865134 3.143146 2.896808
v -9.594959 3.114046 7.010967
v -9.594959 3.114046 6.680437
v -8.056994 3.114046 6.680437
v -8.056994 3.114046 7.010967
v -7.941771 3.114046 6.680437
v -7.941771 3.114046 7.010967
v -6.555762 3.114046 6.680437
v -6.555762 3.114046 7.010967
v -6.444890 3.114046 6.680437
v -6.444890 3.114046 7.010967
v -4.967195 3.114046 6.680437
v -4.967195 3.114046 7.010967
v -6.444890 3.114046 2.896808
v -4.967195 3.114046 2.896808
v -6.555762 3.114046 2.896808
v -7.941771 3.114046 2.896808
v -8.056994 3.114046 2.896808
v -9.594959 3.114046 2.896808
v -4.852168 3.114046 2.896808
v -4.852168 3.114046 6.680437
v -3.634491 3.114046 2.896808
v -3.634491 3.114046 6.680437
v -3.505862 3.114046 2.896808
v -3.505862 3.114046 6.680437
v -2.347058 3.114046 2.896808
v -2.347058 3.114046 6.680437
v -2.216152 3.114046 2.896808
v -2.216152 3.114046 6.680437
v -0.865134 3.114046 2.896808
v -0.865134 3.114046 6.680437
vt 0.192644 0.946867
vt 0.211808 0.946867
vt 0.192644 0.940186
vt 0.211808 0.940186
vt 0.431176 0.946867
vt 0.192644 0.859828
vt 0.211808 0.859828
vt 0.431176 0.940186
vt 0.192644 0.853400
vt 0.211808 0.853400
vt 0.431176 0.859828
vt 0.211808 0.767725
vt 0.431176 0.853400
vt 0.431176 0.767725
vt 0.211808 0.761056
vt 0.431176 0.761056
vt 0.211808 0.690457
vt 0.431176 0.690457
vt 0.211808 0.683000
vt 0.431176 0.683000
vt 0.211808 0.615814
vt 0.431176 0.615814
vt 0.211808 0.608224
vt 0.431176 0.608224
vt 0.001913 0.001992
vt 0.203563 0.001992
vt 0.203563 0.045329
vt 0.001913 0.045329
vt 0.203563 0.541422
vt 0.001913 0.541422
vt 0.209798 0.045329
vt 0.209798 0.001992
vt 0.391525 0.001992
vt 0.391525 0.045329
vt 0.209798 0.541422
vt 0.391525 0.541422
vt 0.398785 0.045329
vt 0.398785 0.001992
vt 0.592534 0.001992
vt 0.592534 0.045329
vt 0.398785 0.541422
vt 0.592534 0.541422
vt 0.598999 0.498084
vt 0.598999 0.001992
vt 0.758655 0.001992
vt 0.758655 0.498084
vt 0.765532 0.498084
vt 0.765532 0.001992
vt 0.917469 0.001992
vt 0.917469 0.498084
vt 0.781032 0.998008
vt 0.781032 0.501916
vt 0.958171 0.501916
vt 0.958171 0.998008
vt 0.001913 0.001992
vt 0.001913 0.045329
vt 0.203563 0.045329
vt 0.203563 0.001992
vt 0.211808 0.946867
vt 0.211808 0.940186
vt 0.192644 0.940186
vt 0.192644 0.946867
vt 0.209798 0.045329
vt 0.391525 0.045329
vt 0.391525 0.001992
vt 0.209798 0.001992
vt 0.211808 0.859828
vt 0.211808 0.853400
vt 0.192644 0.853400
vt 0.192644 0.859828
vt 0.398785 0.045329
vt 0.592534 0.045329
vt 0.592534 0.001992
vt 0.398785 0.001992
vt 0.398785 0.541422
vt 0.592534 0.541422
vt 0.431176 0.859828
vt 0.431176 0.853400
vt 0.209798 0.541422
vt 0.391525 0.541422
vt 0.431176 0.946867
vt 0.431176 0.940186
vt 0.001913 0.541422
vt 0.203563 0.541422
vt 0.431176 0.767725
vt 0.431176 0.761056
vt 0.211808 0.761056
vt 0.211808 0.767725
vt 0.598999 0.498084
vt 0.758655 0.498084
vt 0.758655 0.001992
vt 0.598999 0.001992
vt 0.431176 0.690457
vt 0.431176 0.683000
vt 0.211808 0.683000
vt 0.211808 0.690457
vt 0.765532 0.498084
vt 0.917469 0.498084
vt 0.917469 0.001992
vt 0.765532 0.001992
vt 0.431176 0.615814
vt 0.431176 0.608224
vt 0.211808 0.608224
vt 0.211808 0.615814
vt 0.781032 0.998008
vt 0.958171 0.998008
vt 0.958171 0.501916
vt 0.781032 0.501916
vt 0.001913 0.001992
vt 0.001913 0.045329
vt 0.203563 0.001992
vt 0.192644 0.940186
vt 0.192644 0.946867
vt 0.391525 0.001992
vt 0.209798 0.001992
vt 0.192644 0.853400
vt 0.192644 0.859828
vt 0.592534 0.045329
vt 0.592534 0.001992
vt 0.398785 0.001992
vt 0.398785 0.541422
vt 0.592534 0.541422
vt 0.431176 0.859828
vt 0.431176 0.853400
vt 0.209798 0.541422
vt 0.391525 0.541422
vt 0.431176 0.946867
vt 0.431176 0.940186
vt 0.001913 0.541422
vt 0.203563 0.541422
vt 0.431176 0.767725
vt 0.431176 0.761056
vt 0.211808 0.761056
vt 0.211808 0.767725
vt 0.598999 0.498084
vt 0.758655 0.498084
vt 0.758655 0.001992
vt 0.598999 0.001992
vt 0.431176 0.690457
vt 0.431176 0.683000
vt 0.211808 0.683000
vt 0.211808 0.690457
vt 0.765532 0.498084
vt 0.917469 0.498084
vt 0.917469 0.001992
vt 0.765532 0.001992
vt 0.431176 0.615814
vt 0.431176 0.608224
vt 0.211808 0.608224
vt 0.211808 0.615814
vt 0.781032 0.998008
vt 0.958171 0.998008
vt 0.958171 0.501916
vt 0.781032 0.501916
vn 0.000000 -1.000000 0.000000
vn 0.000000 -1.000000 0.000000
vn 0.000000 -1.000000 0.000000
vn 0.000000 -1.000000 0.000000
vn 0.000000 -1.000000 0.000000
vn 0.000000 -1.000000 0.000000
vn 0.000000 -1.000000 0.000000
vn 0.000000 -1.000000 0.000000
vn 0.000000 -1.000000 0.000000
vn 0.000000 -1.000000 0.000000
vn 0.000000 -1.000000 0.000000
vn 0.000000 -1.000000 0.000000
vn 0.000000 -1.000000 0.000000
vn 0.000000 -1.000000 0.000000
vn 0.000000 -1.000000 0.000000
vn 0.000000 -1.000000 0.000000
vn 0.000000 -1.000000 0.000000
vn 0.000000 -1.000000 0.000000
vn 0.000000 -1.000000 0.000000
vn 0.000000 -1.000000 0.000000
vn 0.000000 -1.000000 0.000000
vn 0.000000 -1.000000 0.000000
vn 0.000000 -1.000000 0.000000
vn 0.000000 -1.000000 0.000000
vn 0.000000 -1.000000 0.000000
vn 0.000000 -1.000000 0.000000
vn 0.000000 -1.000000 0.000000
vn 0.000000 -1.000000 0.000000
vn 0.000000 -1.000000 0.000000
vn 0.000000 -1.000000 0.000000
vn 0.000000 1.000000 0.000000
vn 0.000000 1.000000 0.000000
vn 0.000000 1.000000 0.000000
vn 0.000000 1.000000 0.000000
vn 0.000000 1.000000 0.000000
vn 0.000000 1.000000 0.000000
vn 0.000000 1.000000 0.000000
vn 0.000000 1.000000 0.000000
vn 0.000000 1.000000 0.000000
vn 0.000000 1.000000 0.000000
vn 0.000000 1.000000 0.000000
vn 0.000000 1.000000 0.000000
vn 0.000000 1.000000 0.000000
vn 0.000000 1.000000 0.000000
vn 0.000000 1.000000 0.000000
vn 0.000000 1.000000 0.000000
vn 0.000000 1.000000 0.000000
vn 0.000000 1.000000 0.000000
vn 0.000000 1.000000 0.000000
vn 0.000000 1.000000 0.000000
vn 0.000000 1.000000 0.000000
vn 0.000000 1.000000 0.000000
vn 0.000000 1.000000 0.000000
vn 0.000000 1.000000 0.000000
vn 0.000000 1.000000 0.000000
vn 0.000000 1.000000 0.000000
vn 0.000000 1.000000 0.000000
vn 0.000000 1.000000 0.000000
vn 0.000000 1.000000 0.000000
vn 0.000000 1.000000 0.000000
vn -1.000000 0.000000 0.000000
vn -1.000000 0.000000 0.000000
vn -1.000000 0.000000 0.000000
vn -1.000000 0.000000 0.000000
vn 0.000000 0.000000 1.000000
vn 0.000000 0.000000 1.000000
vn 0.000000 0.000000 1.000000
vn 0.000000 0.000000 1.000000
vn 0.000000 0.000000 1.000000
vn 0.000000 0.000000 1.000000
vn 0.000000 0.000000 1.000000
vn 0.000000 0.000000 1.000000
vn 0.000000 0.000000 1.000000
vn 0.000000 0.000000 1.000000
vn 1.000000 0.000000 0.000000
vn 1.000000 0.000000 0.000000
vn 1.000000 0.000000 0.000000
vn 1.000000 0.000000 0.000000
vn 0.000000 0.000000 1.000000
vn 0.000000 0.000000 1.000000
vn 0.000000 0.000000 -1.000000
vn 0.000000 0.000000 -1.000000
vn 0.000000 0.000000 -1.000000
vn 0.000000 0.000000 -1.000000
vn 0.000000 0.000000 -1.000000
vn 0.000000 0.000000 -1.000000
vn 0.000000 0.000000 -1.000000
vn 0.000000 0.000000 -1.000000
vn 0.000000 0.000000 -1.000000
vn 0.000000 0.000000 -1.000000
vn -1.000000 0.000000 0.000000
vn -1.000000 0.000000 0.000000
vn 0.000000 0.000000 -1.000000
vn 0.000000 0.000000 -1.000000
vn 0.000000 0.000000 -1.000000
vn 0.000000 0.000000 -1.000000
vn 0.000000 0.000000 1.000000
vn 0.000000 0.000000 1.000000
vn 0.000000 0.000000 1.000000
vn 0.000000 0.000000 1.000000
vn 0.000000 0.000000 -1.000000
vn 0.000000 0.000000 -1.000000
vn 0.000000 0.000000 1.000000
vn 0.000000 0.000000 1.000000
vn 0.000000 0.000000 -1.000000
vn 0.000000 0.000000 -1.000000
vn 0.000000 0.000000 1.000000
vn 0.000000 0.000000 1.000000
vn 0.000000 0.000000 -1.000000
vn 0.000000 0.000000 -1.000000
vn 0.000000 0.000000 1.000000
vn 0.000000 0.000000 1.000000
vn 0.000000 0.000000 -1.000000
vn 0.000000 0.000000 -1.000000
vn 0.000000 0.000000 1.000000
vn 0.000000 0.000000 1.000000
vn 0.000000 0.000000 -1.000000
vn 0.000000 0.000000 -1.000000
vn 1.000000 0.000000 0.000000
vn 1.000000 0.000000 0.000000
vn 1.000000 0.000000 0.000000
vn 1.000000 0.000000 0.000000
vn 0.000000 0.000000 1.000000
vn 0.000000 0.000000 1.000000
s 1
g pPlane28
usemtl initialShadingGroup
f 31/109/1 32/110/2 33/27/3 34/111/4
f 33/2/3 35/4/5 36/112/6 34/113/4
f 35/31/5 37/34/7 38/114/8 36/115/6
f 37/7/7 39/10/9 40/116/10 38/117/8
f 39/37/9 41/118/11 42/119/12 40/120/10
f 43/121/13 44/122/14 41/118/11 39/37/9
f 45/123/15 43/124/13 39/10/9 37/7/7
f 46/125/16 45/126/15 37/34/7 35/31/5
f 47/127/17 46/128/16 35/4/5 33/2/3
f 32/110/2 48/129/18 47/130/17 33/27/3
f 44/131/14 49/132/19 50/133/20 41/134/11
f 49/135/19 51/136/21 52/137/22 50/138/20
f 51/139/21 53/140/23 54/141/24 52/142/22
f 53/143/23 55/144/25 56/145/26 54/146/24
f 55/147/25 57/148/27 58/149/28 56/150/26
f 57/151/27 59/152/29 60/153/30 58/154/28
s 2
f 1/55/31 2/58/32 17/57/33 18/56/34
f 17/59/33 2/62/32 5/61/35 16/60/36
f 16/63/36 5/66/35 7/65/37 15/64/38
f 15/67/38 7/70/37 9/69/39 14/68/40
f 14/71/40 9/74/39 11/73/41 13/72/42
f 10/75/43 14/71/40 13/72/42 12/76/44
f 8/77/45 15/67/38 14/68/40 10/78/43
f 6/79/46 16/63/36 15/64/38 8/80/45
f 4/81/47 17/59/33 16/60/36 6/82/46
f 18/56/34 17/57/33 4/84/47 3/83/48
f 12/85/44 13/88/42 19/87/49 20/86/50
f 20/89/50 19/92/49 21/91/51 22/90/52
f 22/93/52 21/96/51 23/95/53 24/94/54
f 24/97/54 23/100/53 25/99/55 26/98/56
f 26/101/56 25/104/55 27/103/57 28/102/58
f 28/105/58 27/108/57 29/107/59 30/106/60
s 3
f 1/25/61 18/28/62 32/110/63 31/109/64
s 4
f 2/26/65 1/25/66 31/109/67 34/111/68
f 5/3/69 2/1/65 34/113/68 36/112/70
f 7/33/71 5/32/69 36/115/70 38/114/72
f 9/9/73 7/6/71 38/117/72 40/116/74
s off
f 13/40/75 11/39/76 42/119/77 41/118/78
s 4
f 11/39/79 9/38/73 40/120/74 42/119/80
s 5
f 10/41/81 12/42/82 44/122/83 43/121/84
f 8/11/85 10/13/81 43/124/84 45/123/86
f 6/35/87 8/36/85 45/126/86 46/125/88
f 4/5/89 6/8/87 46/128/88 47/127/90
s 3
f 18/28/62 3/30/91 48/129/92 32/110/63
s 5
f 3/30/93 4/29/89 47/130/90 48/129/94
f 12/14/82 20/16/95 49/132/96 44/131/83
s 6
f 19/15/97 13/12/98 41/134/99 50/133/100
s 5
f 20/43/95 22/46/101 51/136/102 49/135/96
s 6
f 21/45/103 19/44/97 50/138/100 52/137/104
s 5
f 22/18/101 24/20/105 53/140/106 51/139/102
s 6
f 23/19/107 21/17/103 52/142/104 54/141/108
s 5
f 24/47/105 26/50/109 55/144/110 53/143/106
s 6
f 25/49/111 23/48/107 54/146/108 56/145/112
s 5
f 26/22/109 28/24/113 57/148/114 55/147/110
s 6
f 27/23/115 25/21/111 56/150/112 58/149/116
s 5
f 28/51/113 30/54/117 59/152/118 57/151/114
s off
f 30/54/119 29/53/120 60/153/121 59/152/122
s 6
f 29/53/123 27/52/115 58/154/116 60/153/124
