# This file uses centimeters as units for non-parametric coordinates.

mtllib doorframe.mtl
g default
v -4.886566 6.262346 -21.273712
v -4.886566 7.262346 -21.273712
v -4.465259 6.262346 -21.349524
v -4.465259 7.262346 -21.349524
v -4.487836 6.262346 -21.311615
v -4.554524 6.262346 -21.273712
v -4.554524 7.262346 -21.273712
v -4.487836 7.262346 -21.311615
v -4.886566 6.262346 -21.263348
v -4.551964 6.262346 -21.264025
v -4.551964 7.262346 -21.264025
v -4.886566 7.262346 -21.263348
v -4.480824 7.262346 -21.304459
v -4.480824 6.262346 -21.304459
v -4.456355 6.262346 -21.344221
v -4.456355 7.262346 -21.344221
v -4.547968 16.105862 -21.834648
v -4.532340 16.089272 -21.817102
v -4.532340 16.072079 -21.833387
v -4.547968 16.090229 -21.850279
v -4.547968 16.090229 -15.109980
v -4.532340 16.072685 -15.126566
v -4.532340 16.088970 -15.143763
v -4.547968 16.105862 -15.125609
v -4.548622 0.013432 -21.850279
v -4.532340 0.013432 -21.833994
v -4.532340 0.013432 -15.126264
v -4.548622 0.013432 -15.109980
v -4.548295 15.529202 -15.702593
v -4.532340 15.545646 -15.686637
v -4.532340 15.529202 -15.670036
v -4.548295 15.513244 -15.686637
v -4.548622 0.013437 -15.686637
v -4.532340 0.013437 -15.670350
v -4.548295 15.513244 -21.273621
v -4.532340 15.529202 -21.290064
v -4.532340 15.545803 -21.273621
v -4.548295 15.529202 -21.257664
v -4.532340 0.013437 -21.289906
v -4.548622 0.013437 -21.273621
v -5.669888 16.089272 -15.143155
v -5.669888 16.072079 -15.126871
v -5.653929 16.089905 -15.109980
v -5.653929 16.105862 -15.125936
v -5.653603 0.013432 -15.109980
v -5.669888 0.013432 -15.126264
v -4.911522 15.512310 -15.720421
v -4.895565 15.529202 -15.702593
v -4.895891 15.513573 -15.686637
v -4.911522 15.495419 -15.703528
v -5.290707 15.495419 -15.703528
v -5.306662 15.513244 -15.686637
v -5.306334 15.529203 -15.702267
v -5.290707 15.512310 -15.720421
v -5.653767 15.529203 -15.702757
v -5.653929 15.513244 -15.686637
v -5.669888 15.529202 -15.670194
v -5.669888 15.545646 -15.686637
v -4.911522 0.013437 -15.702921
v -4.895237 0.013437 -15.686637
v -5.306993 0.013437 -15.686637
v -5.290707 0.013437 -15.702921
v -5.669888 0.013437 -15.670350
v -5.653603 0.013437 -15.686637
v -5.669888 16.072685 -21.833691
v -5.669888 16.088970 -21.816496
v -5.653929 16.105862 -21.834322
v -5.653929 16.089905 -21.850279
v -4.911522 15.495419 -21.256729
v -4.895565 15.513244 -21.273621
v -4.895891 15.529202 -21.257992
v -4.911522 15.512310 -21.239836
v -5.290707 15.512310 -21.239836
v -5.306662 15.529202 -21.257664
v -5.306334 15.513573 -21.273621
v -5.290707 15.495419 -21.256729
v -5.653767 15.513080 -21.273621
v -5.653929 15.529202 -21.257664
v -5.669888 15.545646 -21.273621
v -5.669888 15.529202 -21.290064
v -5.669888 0.013432 -21.833994
v -5.653603 0.013432 -21.850279
v -4.895237 0.013437 -21.273621
v -4.911522 0.013437 -21.257336
v -5.290707 0.013437 -21.257336
v -5.306993 0.013437 -21.273621
v -5.653603 0.013437 -21.273621
v -5.669888 0.013437 -21.289906
v -4.911522 15.368494 -16.082226
v -4.911522 15.352042 -16.065638
v -4.927694 15.335868 -16.082411
v -4.927691 15.352041 -16.098392
v -4.927805 0.013437 -16.040958
v -4.911522 0.013437 -16.024670
v -5.274539 15.352041 -16.098392
v -5.274693 15.336027 -16.082411
v -5.290707 15.352042 -16.065796
v -5.290707 15.368494 -16.082226
v -5.290707 0.013437 -16.024670
v -5.274422 0.013437 -16.040958
v -4.911522 15.352042 -20.944931
v -4.911522 15.368647 -20.928501
v -4.927691 15.352041 -20.912333
v -4.927694 15.335868 -20.928314
v -5.274532 15.335868 -20.928314
v -5.274703 15.352041 -20.912497
v -5.290707 15.368494 -20.928501
v -5.290707 15.352042 -20.944931
v -4.911522 0.013437 -20.935583
v -4.927805 0.013437 -20.919296
v -5.274422 0.013437 -20.919296
v -5.290707 0.013437 -20.935583
vt 0.001992 0.001851
vt 0.311651 0.001851
vt 0.311651 0.927307
vt 0.001992 0.927307
vt 0.377488 0.927307
vt 0.377488 0.001851
vt 0.400133 0.001851
vt 0.400133 0.927307
vt 0.408017 0.927307
vt 0.408017 0.001851
vt 0.715307 0.001851
vt 0.715307 0.927307
vt 0.777023 0.001851
vt 0.797918 0.001851
vt 0.797918 0.927307
vt 0.777023 0.927307
vt 0.901735 0.399992
vt 0.901735 0.092702
vt 0.910700 0.090333
vt 0.911326 0.399992
vt 0.927848 0.092702
vt 0.927848 0.399992
vt 0.918256 0.399992
vt 0.918883 0.090333
vt 0.813844 0.927307
vt 0.813844 0.001851
vt 0.823436 0.001851
vt 0.823436 0.927307
vt 0.866657 0.030985
vt 0.831574 0.010091
vt 0.836482 0.001851
vt 0.873280 0.024496
vt 0.806158 0.001851
vt 0.806158 0.927307
vt 0.998008 0.010091
vt 0.962925 0.030985
vt 0.956303 0.024496
vt 0.993101 0.001851
vt 0.002330 0.516607
vt 0.002330 0.516107
vt 0.037697 0.516097
vt 0.037697 0.516607
vt 0.046055 0.002523
vt 0.045494 0.001992
vt 0.260040 0.001992
vt 0.259460 0.002532
vt 0.045534 0.003073
vt 0.063435 0.019902
vt 0.062909 0.020433
vt 0.001831 0.515527
vt 0.001831 0.001992
vt 0.002351 0.001992
vt 0.267580 0.002492
vt 0.267580 0.001992
vt 0.302947 0.001992
vt 0.302947 0.002502
vt 0.267080 0.003053
vt 0.267601 0.516607
vt 0.267080 0.516607
vt 0.260009 0.003053
vt 0.242630 0.020433
vt 0.242099 0.019907
vt 0.532660 0.498166
vt 0.532660 0.497656
vt 0.543776 0.497666
vt 0.543765 0.498166
vt 0.241589 0.020433
vt 0.063945 0.020433
vt 0.532150 0.498166
vt 0.532150 0.001992
vt 0.532671 0.001992
vt 0.550570 0.002502
vt 0.550570 0.001992
vt 0.561686 0.001992
vt 0.561675 0.002502
vt 0.550060 0.001992
vt 0.550581 0.498166
vt 0.550060 0.498166
vt 0.524549 0.516076
vt 0.525100 0.516607
vt 0.310575 0.516607
vt 0.311145 0.516067
vt 0.525070 0.515527
vt 0.507169 0.498692
vt 0.507695 0.498166
vt 0.303457 0.003072
vt 0.303457 0.516607
vt 0.302936 0.516607
vt 0.745554 0.002532
vt 0.746095 0.003072
vt 0.734515 0.007658
vt 0.733984 0.007131
vt 0.746124 0.001992
vt 0.569051 0.002532
vt 0.568470 0.001992
vt 0.544276 0.497086
vt 0.543755 0.001992
vt 0.544276 0.001992
vt 0.916592 0.996927
vt 0.916052 0.997468
vt 0.904482 0.992868
vt 0.905007 0.992342
vt 0.721214 0.997498
vt 0.720704 0.996927
vt 0.720704 0.501834
vt 0.721225 0.501834
vt 0.721204 0.998008
vt 0.732320 0.997498
vt 0.732314 0.998008
vt 0.916633 0.998008
vt 0.738978 0.998008
vt 0.739548 0.997468
vt 0.506654 0.498166
vt 0.328505 0.498692
vt 0.329015 0.498166
vt 0.732830 0.998008
vt 0.732309 0.501834
vt 0.732830 0.501834
vt 0.038208 0.515546
vt 0.037687 0.001992
vt 0.038208 0.001992
vt 0.310595 0.515546
vt 0.327979 0.498166
vt 0.568511 0.003072
vt 0.579007 0.007127
vt 0.578481 0.007658
vt 0.562186 0.003073
vt 0.562186 0.498166
vt 0.561665 0.498166
vt 0.739008 0.996927
vt 0.748979 0.992342
vt 0.749504 0.992868
vt 0.703441 0.502334
vt 0.703451 0.501834
vt 0.714556 0.501834
vt 0.714551 0.502350
vt 0.702941 0.502914
vt 0.703462 0.998008
vt 0.702941 0.998008
vt 0.715066 0.501834
vt 0.715066 0.998008
vt 0.714546 0.998008
vt 0.733467 0.007658
vt 0.579524 0.007658
vt 0.685694 0.991825
vt 0.685177 0.992342
vt 0.685177 0.501834
vt 0.685698 0.501834
vt 0.685694 0.992342
vt 0.696791 0.991830
vt 0.696786 0.992342
vt 0.903965 0.992342
vt 0.750016 0.992342
vt 0.697303 0.992342
vt 0.696782 0.501834
vt 0.697303 0.501834
vt 0.667414 0.501834
vt 0.667930 0.502351
vt 0.667934 0.992343
vt 0.667414 0.992343
vt 0.667930 0.501834
vt 0.679027 0.501834
vt 0.679022 0.502351
vt 0.679539 0.501834
vt 0.679539 0.992343
vt 0.679018 0.992343
vt 0.525089 0.001992
vt 0.507690 0.001992
vt 0.310585 0.001992
vt 0.327984 0.001992
vt 0.260019 0.516607
vt 0.242620 0.516607
vt 0.062914 0.516607
vt 0.045515 0.516607
vt 0.661776 0.501834
vt 0.661776 0.716381
vt 0.626408 0.716370
vt 0.626408 0.501845
vt 0.609654 0.679478
vt 0.609654 0.501834
vt 0.620759 0.501834
vt 0.620770 0.679488
vt 0.576165 0.655778
vt 0.576165 0.501834
vt 0.587257 0.501834
vt 0.587262 0.655783
vt 0.592910 0.679488
vt 0.592900 0.501834
vt 0.604010 0.501850
vt 0.604016 0.679488
vt 0.746114 0.498166
vt 0.735825 0.498166
vt 0.916612 0.501834
vt 0.906323 0.501834
vt 0.568491 0.498166
vt 0.578780 0.498166
vt 0.738989 0.501834
vt 0.749278 0.501834
vt 0.044994 0.002492
vt 0.260540 0.002492
vt 0.242099 0.020943
vt 0.063435 0.020943
vt 0.525610 0.516096
vt 0.746635 0.002492
vt 0.917132 0.997498
vt 0.507169 0.497656
vt 0.310064 0.516096
vt 0.567970 0.002502
vt 0.738468 0.997508
vt 0.328505 0.497650
vt 0.733978 0.008175
vt 0.904476 0.991830
vt 0.579013 0.008175
vt 0.749510 0.991825
vn 0.002024 0.000000 0.999998
vn 0.100807 0.000000 0.994906
vn 0.100807 0.000000 0.994906
vn 0.002024 0.000000 0.999998
vn 0.642652 0.000000 0.766158
vn 0.642652 0.000000 0.766158
vn 0.851657 0.000000 0.524100
vn 0.851657 0.000000 0.524100
vn 0.000000 0.000000 -1.000000
vn 0.000000 0.000000 -1.000000
vn -0.094632 0.000000 -0.995512
vn -0.094632 0.000000 -0.995512
vn -0.647330 0.000000 -0.762210
vn -0.859162 0.000000 -0.511704
vn -0.859162 0.000000 -0.511704
vn -0.647330 0.000000 -0.762210
vn 0.000000 -1.000000 0.000071
vn 0.000000 -1.000000 0.000055
vn 0.000000 -1.000000 0.000055
vn 0.000000 -1.000000 0.000071
vn 0.000000 1.000000 -0.000062
vn 0.000000 1.000000 -0.000066
vn 0.000000 1.000000 -0.000066
vn 0.000000 1.000000 -0.000062
vn -1.000000 0.000000 0.000000
vn -1.000000 0.000000 0.000000
vn -1.000000 0.000000 0.000000
vn -1.000000 0.000000 0.000000
vn 0.000000 -1.000000 -0.000012
vn 0.000000 -1.000000 -0.000008
vn 0.000000 -1.000000 -0.000008
vn 0.000000 -1.000000 -0.000012
vn 0.511678 0.000000 -0.859177
vn 0.511678 0.000000 -0.859177
vn 0.511678 0.000000 -0.859177
vn 0.511678 0.000000 -0.859177
vn 0.000000 1.000000 0.000000
vn 0.000000 1.000000 -0.000027
vn 0.000000 1.000000 -0.000027
vn 0.000000 1.000000 0.000000
vn -0.000209 0.707103 -0.707110
vn -0.000209 0.707103 -0.707110
vn -0.000209 0.707103 -0.707110
vn -0.000209 0.707103 -0.707110
vn 0.731614 0.681718 -0.001162
vn 0.732524 0.680735 -0.002883
vn 0.732510 0.680750 0.002882
vn 0.731574 0.681761 0.001116
vn 1.000000 0.000000 0.000000
vn 1.000000 0.000000 0.000000
vn 1.000000 0.000000 0.000000
vn 1.000000 0.000000 0.000000
vn 0.721406 0.001191 -0.692512
vn 0.720991 0.000455 -0.692944
vn 0.720733 -0.000002 -0.693213
vn 0.720733 -0.000002 -0.693213
vn -0.000209 0.707082 0.707132
vn -0.000209 0.707082 0.707132
vn -0.000209 0.707082 0.707132
vn -0.000209 0.707082 0.707132
vn 0.717792 0.000483 0.696257
vn 0.718205 0.001203 0.695831
vn 0.717511 -0.000008 0.696547
vn 0.717511 -0.000008 0.696547
vn 1.000000 0.000000 0.000000
vn 1.000000 0.000000 0.000000
vn 1.000000 0.000000 0.000000
vn 1.000000 0.000000 0.000000
vn -0.000338 -0.710699 -0.703496
vn -0.000338 -0.710699 -0.703496
vn -0.000338 -0.710699 -0.703496
vn -0.000338 -0.710699 -0.703496
vn 0.720919 -0.693011 -0.003266
vn 0.720059 -0.693912 -0.001473
vn 0.720065 -0.693906 0.001466
vn 0.720912 -0.693019 0.003230
vn 0.714423 -0.000530 -0.699714
vn 0.714739 -0.001167 -0.699390
vn 0.714160 -0.000000 -0.699983
vn 0.714160 -0.000000 -0.699983
vn -0.000336 -0.703431 0.710763
vn -0.000336 -0.703431 0.710763
vn -0.000336 -0.703431 0.710763
vn -0.000336 -0.703431 0.710763
vn 0.713047 -0.001179 0.701115
vn 0.712722 -0.000530 0.701446
vn 0.712458 -0.000004 0.701715
vn 0.712458 -0.000004 0.701715
vn -0.724435 0.689342 0.001200
vn -0.725312 0.688414 0.002886
vn -0.725298 0.688429 -0.002887
vn -0.724395 0.689384 -0.001152
vn -1.000000 0.000000 0.000000
vn -1.000000 0.000000 0.000000
vn -1.000000 0.000000 0.000000
vn -1.000000 0.000000 0.000000
vn -0.717766 0.001206 0.696284
vn -0.717372 0.000480 0.696691
vn -0.717114 0.000006 0.696956
vn -0.717114 0.000006 0.696956
vn 1.000000 0.000000 0.000000
vn 1.000000 0.000000 0.000000
vn 1.000000 0.000000 0.000000
vn 1.000000 0.000000 0.000000
vn 0.732271 -0.681005 -0.003444
vn 0.731188 -0.682175 -0.001397
vn 0.731202 -0.682160 0.001383
vn 0.732361 -0.680907 0.003579
vn 0.720901 -0.000504 -0.693038
vn 0.721346 -0.001298 -0.692574
vn 0.720618 0.000002 -0.693333
vn 0.720618 0.000002 -0.693333
vn -1.000000 0.000000 0.000000
vn -1.000000 0.000001 0.000000
vn -1.000000 0.000001 0.000000
vn -1.000000 0.000000 0.000000
vn -0.717848 -0.001235 -0.696198
vn -0.717426 -0.000498 -0.696635
vn -0.717143 -0.000006 -0.696926
vn -0.717143 -0.000006 -0.696926
vn 0.000499 -0.705247 -0.708961
vn 0.000499 -0.705247 -0.708961
vn 0.000499 -0.705247 -0.708961
vn 0.000499 -0.705247 -0.708961
vn -0.731286 -0.682070 -0.001383
vn -0.732445 -0.680817 -0.003578
vn -0.732354 -0.680915 0.003443
vn -0.731272 -0.682085 0.001397
vn -0.716528 -0.697557 -0.001455
vn -0.717417 -0.696636 -0.003288
vn -0.717401 -0.696653 0.003275
vn -0.716534 -0.697550 0.001489
vn -0.712955 -0.001182 -0.701209
vn -0.712634 -0.000536 -0.701536
vn -0.712369 -0.000004 -0.701805
vn -0.712369 -0.000004 -0.701805
vn -0.713894 -0.000001 -0.700254
vn -0.713894 -0.000001 -0.700254
vn -0.713894 -0.000001 -0.700254
vn -0.713894 -0.000001 -0.700254
vn -1.000000 0.000000 0.000000
vn -1.000000 0.000000 0.000000
vn -1.000000 0.000000 0.000000
vn -1.000000 0.000000 0.000000
vn 1.000000 0.000000 0.000000
vn 1.000000 0.000000 0.000000
vn 1.000000 0.000000 0.000000
vn 1.000000 0.000000 0.000000
vn 0.717817 -0.001235 0.696230
vn 0.717395 -0.000499 0.696666
vn 0.717112 -0.000006 0.696958
vn 0.717112 -0.000006 0.696958
vn -1.000000 0.000001 0.000000
vn -1.000000 0.000000 0.000000
vn -1.000000 0.000000 0.000000
vn -1.000000 0.000001 0.000000
vn 0.000506 -0.708895 0.705314
vn 0.000506 -0.708895 0.705314
vn 0.000506 -0.708895 0.705314
vn 0.000506 -0.708895 0.705314
vn -0.720973 -0.000504 0.692963
vn -0.721418 -0.001298 0.692498
vn -0.720690 0.000002 0.693258
vn -0.720690 0.000002 0.693258
vn -0.710872 -0.000526 0.703321
vn -0.711204 -0.001188 0.702984
vn -0.710608 -0.000000 0.703588
vn -0.710608 -0.000000 0.703588
vn 0.716738 -0.697332 -0.003836
vn 0.715703 -0.698402 -0.001718
vn 0.715710 -0.698395 0.001709
vn 0.716729 -0.697341 0.003796
vn 0.714044 -0.001885 -0.700099
vn 0.714044 -0.001885 -0.700099
vn 0.714044 -0.001885 -0.700099
vn 0.714044 -0.001885 -0.700099
vn -0.000163 -0.704603 -0.709602
vn -0.000163 -0.704603 -0.709602
vn -0.000163 -0.704603 -0.709602
vn -0.000163 -0.704603 -0.709602
vn -0.715868 -0.698234 -0.001686
vn -0.716901 -0.697165 -0.003804
vn -0.716882 -0.697184 0.003788
vn -0.715875 -0.698227 0.001725
vn -0.714668 -0.003066 -0.699457
vn -0.714352 -0.002425 -0.699783
vn -0.714088 -0.001892 -0.700053
vn -0.714088 -0.001892 -0.700053
vn 0.711888 0.000418 0.702293
vn 0.711888 0.000418 0.702293
vn 0.711888 0.000418 0.702293
vn 0.711888 0.000418 0.702293
vn -0.000170 -0.701048 0.713114
vn -0.000170 -0.701048 0.713114
vn -0.000170 -0.701048 0.713114
vn -0.000170 -0.701048 0.713114
vn -0.711821 0.000418 0.702361
vn -0.711821 0.000418 0.702361
vn -0.711821 0.000418 0.702361
vn -0.711821 0.000418 0.702361
vn -1.000000 0.000000 0.000000
vn -1.000000 0.000000 0.000000
vn -1.000000 0.000000 0.000000
vn -1.000000 0.000000 0.000000
vn 1.000000 0.000000 0.000000
vn 1.000000 0.000000 0.000000
vn 1.000000 0.000000 0.000000
vn 1.000000 0.000000 0.000000
vn 0.000001 0.000000 1.000000
vn 0.000001 0.000000 1.000000
vn 0.000001 0.000000 1.000000
vn 0.000001 0.000000 1.000000
vn 0.000002 0.000000 -1.000000
vn 0.000002 0.000000 -1.000000
vn 0.000002 0.000000 -1.000000
vn 0.000002 0.000000 -1.000000
vn 0.000000 -0.002705 -0.999996
vn 0.000000 -0.002705 -0.999996
vn 0.000000 -0.002705 -0.999996
vn 0.000000 -0.002705 -0.999996
vn 0.000000 0.000000 -1.000000
vn 0.000000 0.000000 -1.000000
vn 0.000000 0.000000 -1.000000
vn 0.000000 0.000000 -1.000000
vn 0.000000 1.000000 0.000000
vn 0.000000 1.000000 0.000000
vn 0.000000 1.000000 0.000000
vn 0.000000 1.000000 0.000000
vn 0.000000 -1.000000 0.000000
vn 0.000000 -1.000000 0.000000
vn 0.000000 -1.000000 0.000000
vn 0.000000 -1.000000 0.000000
vn 0.000000 -1.000000 0.000000
vn 0.000000 -1.000000 0.000000
vn 0.000000 -1.000000 0.000000
vn 0.000000 -1.000000 0.000000
vn -0.000000 -1.000000 0.000000
vn -0.000000 -1.000000 0.000000
vn -0.000000 -1.000000 0.000000
vn -0.000000 -1.000000 0.000000
vn 0.000000 0.000000 -1.000000
vn 0.000000 0.000000 -1.000000
vn 0.000000 0.000000 -1.000000
vn 0.000000 0.000000 -1.000000
vn 0.000000 0.000000 1.000000
vn 0.000000 0.000000 1.000000
vn 0.000000 0.000000 1.000000
vn 0.000000 0.000000 1.000000
vn 0.000000 0.000589 1.000000
vn 0.000000 0.000589 1.000000
vn 0.000000 0.000589 1.000000
vn 0.000000 0.000589 1.000000
vn -0.000006 0.000000 1.000000
vn -0.000006 0.000000 1.000000
vn -0.000006 0.000000 1.000000
vn -0.000006 0.000000 1.000000
vn 1.000000 0.000000 0.000000
vn 1.000000 0.000000 0.000000
vn -1.000000 0.000000 0.000000
vn -1.000000 0.000000 0.000000
vn 1.000000 0.000000 0.000000
vn 1.000000 0.000000 0.000000
vn -1.000000 0.000000 0.000000
vn -1.000000 0.000000 0.000000
vn -0.835061 0.394381 -0.383584
vn -0.835061 0.394381 -0.383584
vn 0.820151 -0.404277 -0.404860
vn 0.820151 -0.404277 -0.404860
vn 0.820174 -0.402309 0.406770
vn 0.820174 -0.402309 0.406770
vn -0.820195 -0.404334 0.404715
vn -0.820195 -0.404334 0.404715
s 1
g polySurface386
usemtl lambert7SG
f 9/1/1 10/2/2 11/3/3 12/4/4
f 13/5/5 14/6/6 15/7/7 16/8/8
f 10/2/2 14/6/6 13/5/5 11/3/3
s 2
f 1/9/9 2/10/10 7/11/11 6/12/12
f 8/13/13 4/14/14 3/15/15 5/16/16
f 6/12/12 7/11/11 8/13/13 5/16/16
s 3
f 1/17/17 6/18/18 10/19/19 9/20/20
s 4
f 7/21/21 2/22/22 12/23/23 11/24/24
s off
f 2/25/25 1/26/26 9/27/27 12/28/28
s 3
f 5/29/29 3/30/30 15/31/31 14/32/32
s off
f 3/15/33 4/14/34 16/33/35 15/34/36
s 4
f 4/35/37 8/36/38 13/37/39 16/38/40
s 3
f 6/18/18 5/29/29 14/32/32 10/19/19
s 4
f 8/36/38 7/21/21 11/24/24 13/37/39
s off
usemtl initialShadingGroup
f 17/39/41 20/40/42 68/41/43 67/42/44
s 5
f 18/43/45 17/44/46 24/45/47 23/46/48
s 6
f 19/47/49 18/43/50 37/48/51 36/49/52
s 5
f 20/40/53 19/50/54 26/51/55 25/52/56
s off
f 21/53/57 24/54/58 44/55/59 43/56/60
s 5
f 22/57/61 21/53/62 28/58/63 27/59/64
s 6
f 23/46/65 22/60/66 31/61/67 30/62/68
s off
f 29/63/69 32/64/70 49/65/71 48/66/72
s 8
f 30/62/73 29/67/74 38/68/75 37/48/76
f 32/64/77 31/69/78 34/70/79 33/71/80
s off
f 35/72/81 38/73/82 71/74/83 70/75/84
s 8
f 36/76/85 35/72/86 40/77/87 39/78/88
s 9
f 41/79/89 44/80/90 67/81/91 66/82/92
s 10
f 42/83/93 41/79/94 58/84/95 57/85/96
s 9
f 43/56/97 42/86/98 46/87/99 45/88/100
s 11
f 47/89/101 50/90/102 90/91/103 89/92/104
s 12
f 48/93/105 47/89/106 72/94/107 71/95/108
f 50/96/109 49/65/110 60/97/111 59/98/112
s 13
f 51/99/113 54/100/114 98/101/115 97/102/116
s 14
f 52/103/117 51/104/118 62/105/119 61/106/120
s off
f 53/107/121 52/103/122 56/108/123 55/109/124
s 14
f 54/100/125 53/110/126 74/111/127 73/112/128
s 15
f 55/113/129 58/84/130 79/114/131 78/115/132
f 57/116/133 56/108/134 64/117/135 63/118/136
s off
f 65/119/137 68/41/138 82/120/139 81/121/140
s 10
f 66/82/141 65/122/142 80/123/143 79/114/144
s 11
f 69/124/145 72/94/146 102/125/147 101/126/148
s 12
f 70/75/149 69/127/150 84/128/151 83/129/152
s 13
f 73/112/153 76/130/154 108/131/155 107/132/156
s off
f 75/133/157 74/134/158 78/135/159 77/136/160
s 14
f 76/137/161 75/133/162 86/138/163 85/139/164
s 15
f 77/136/165 80/140/166 88/141/167 87/142/168
s 18
f 89/92/169 92/143/170 103/144/171 102/125/172
s off
f 91/145/173 90/146/174 94/147/175 93/148/176
f 92/149/177 91/145/178 96/150/179 95/151/180
s 19
f 95/152/181 98/101/182 107/132/183 106/153/184
f 97/154/185 96/150/186 100/155/187 99/156/188
s off
f 101/157/189 104/158/190 110/159/191 109/160/192
f 104/158/193 103/161/194 106/162/195 105/163/196
f 105/163/197 108/164/198 112/165/199 111/166/200
s 10
f 46/167/201 42/83/93 57/85/96 63/168/202
f 41/79/94 66/82/141 79/114/144 58/84/95
f 65/122/142 81/169/203 88/170/204 80/123/143
s 6
f 22/60/66 27/171/205 34/172/206 31/61/67
f 23/46/65 30/62/68 37/48/51 18/43/50
f 19/47/49 36/49/52 39/173/207 26/174/208
s off
f 21/53/209 43/56/210 45/88/211 28/58/212
f 32/64/213 33/71/214 60/97/215 49/65/216
f 91/145/217 93/148/218 100/155/219 96/150/220
f 52/103/221 61/106/222 64/117/223 56/108/224
f 24/175/225 17/176/226 67/177/227 44/178/228
f 38/179/229 29/180/230 48/181/231 71/182/232
f 103/183/233 92/184/234 95/185/235 106/186/236
f 74/187/237 53/188/238 55/189/239 78/190/240
f 20/40/241 25/52/242 82/120/243 68/41/244
f 40/77/245 35/72/246 70/75/247 83/129/248
f 110/159/249 104/158/250 105/163/251 111/166/252
f 86/138/253 75/133/254 77/136/255 87/142/256
s 11
f 50/90/102 59/191/257 94/192/258 90/91/103
s 13
f 62/193/259 51/99/113 97/102/116 99/194/260
s 11
f 72/94/146 47/89/101 89/92/104 102/125/147
s 13
f 54/100/114 73/112/153 107/132/156 98/101/115
s 11
f 84/195/261 69/124/145 101/126/148 109/196/262
s 13
f 76/130/154 85/197/263 112/198/264 108/131/155
s 5
f 17/44/46 18/43/45 19/47/54 20/199/53
f 21/200/62 22/60/61 23/46/48 24/45/47
s 8
f 29/67/74 30/62/73 31/61/78 32/201/77
f 35/202/86 36/49/85 37/48/76 38/68/75
s 9
f 41/79/89 42/83/98 43/203/97 44/80/90
s 12
f 47/89/106 48/93/105 49/204/110 50/90/109
s 14
f 51/99/118 52/205/117 53/110/126 54/100/125
s 15
f 55/113/129 56/206/134 57/85/133 58/84/130
s 9
f 65/122/265 66/82/92 67/81/91 68/207/266
s 12
f 69/124/150 70/208/149 71/95/108 72/94/107
s 14
f 73/112/128 74/111/127 75/209/162 76/130/161
s 15
f 77/210/165 78/115/132 79/114/131 80/123/166
s 18
f 89/92/169 90/91/267 91/211/268 92/143/170
s 19
f 95/152/181 96/212/186 97/102/185 98/101/182
s 18
f 101/126/269 102/125/172 103/144/171 104/213/270
s 19
f 105/214/271 106/153/184 107/132/183 108/131/272
