# This file uses centimeters as units for non-parametric coordinates.

mtllib chest.mtl
g default
v -31.148800 0.100000 15.306400
v -31.148800 0.100000 -13.593100
v -31.148800 36.425201 -13.593100
v -31.148800 36.425201 15.306400
v -32.754501 0.100000 15.306400
v -32.754501 36.425201 15.306400
v -32.754501 36.425201 -13.593100
v -32.754501 0.100000 -13.593100
v -31.248800 0.100000 15.406400
v -31.248800 36.425201 15.406400
v -32.654499 36.425201 15.406400
v -32.654499 0.100000 15.406400
v -31.248800 36.525200 15.306400
v -31.248800 36.525200 -13.593100
v -32.654499 36.525200 -13.593100
v -32.654499 36.525200 15.306400
v -31.248800 36.425201 -13.693100
v -31.248800 0.100000 -13.693100
v -32.654499 0.100000 -13.693100
v -32.654499 36.425201 -13.693100
v -31.248800 0.000000 -13.593100
v -31.248800 0.000000 15.306400
v -32.654499 0.000000 15.306400
v -32.654499 0.000000 -13.593100
v 32.754601 0.100000 15.306400
v 32.754601 0.100000 -13.593100
v 32.754501 36.425201 -13.593100
v 32.754501 36.425201 15.306400
v 31.148800 0.100000 15.306400
v 31.148800 36.525200 15.306400
v 31.148800 36.425201 -13.593100
v 31.148800 0.100000 -13.593100
v 32.654598 0.100000 15.406400
v 32.654499 36.425201 15.406400
v 31.248800 36.425201 15.406400
v 31.248800 0.100000 15.406400
v 32.654499 36.525200 15.306400
v 32.654499 36.525200 -13.593100
v 31.248800 36.525200 -13.593100
v 31.248800 36.525200 15.306400
v 32.654499 36.425201 -13.693100
v 32.654598 0.100000 -13.693100
v 31.248800 0.100000 -13.693100
v 31.248800 36.425201 -13.693100
v 32.654598 0.000000 -13.593100
v 32.654598 0.000000 15.306400
v 31.248800 0.000000 15.306400
v 31.248800 0.000000 -13.593100
v 31.148800 3.200000 13.693100
v 31.148800 3.200000 -13.116200
v -31.148800 3.200000 -13.116200
v -31.148800 3.200000 13.693100
v -31.148800 0.000000 13.693100
v 31.148800 0.000000 13.693100
v -31.148800 0.000000 -13.116200
v 31.148800 0.000000 -13.116200
v 31.148800 36.458500 15.406400
v -31.148800 36.525200 15.406400
v -31.148800 0.110000 15.406400
v 31.148800 0.210000 15.406400
v 31.148800 36.425201 13.593100
v 31.148800 0.100000 13.593100
v 31.048800 0.000000 13.593100
v -31.148800 36.525200 13.693100
v 31.048800 36.525200 13.593100
v 31.148800 0.000000 15.336900
v 31.148800 36.525200 13.693100
v -31.148800 0.000000 15.296400
v -32.654499 36.525200 -15.306400
v 32.654499 36.525200 -15.306400
v -32.654499 38.130901 15.306400
v 32.654499 38.130901 15.306400
v 32.654499 38.130901 -15.306400
v -32.654499 38.130901 -15.306400
v -32.654499 36.625198 15.406400
v 32.654499 36.625198 15.406400
v 32.654499 38.030899 15.406400
v -32.654499 38.030899 15.406400
v 32.754501 36.625198 15.306400
v 32.754501 36.625198 -15.306400
v 32.754501 38.030899 -15.306400
v 32.754501 38.030899 15.306400
v 32.654499 36.625198 -15.406400
v -32.654499 36.625198 -15.406400
v -32.654499 38.030899 -15.406400
v 32.654499 38.030899 -15.406400
v -32.754501 36.625198 -15.306400
v -32.754501 36.625198 15.306400
v -32.754501 38.030899 15.306400
v -32.754501 38.030899 -15.306400
vt 0.497332 0.435546
vt 0.696317 0.435546
vt 0.696317 0.685660
vt 0.497332 0.685660
vt 0.497332 0.434857
vt 0.696317 0.434857
vt 0.697005 0.435546
vt 0.697005 0.685660
vt 0.696317 0.686348
vt 0.497332 0.686348
vt 0.496643 0.685660
vt 0.496643 0.435546
vt 0.489819 0.456280
vt 0.489819 0.706394
vt 0.290835 0.706394
vt 0.290835 0.456280
vt 0.490508 0.456280
vt 0.490508 0.706394
vt 0.489819 0.707083
vt 0.290835 0.707083
vt 0.290146 0.706394
vt 0.290146 0.456280
vt 0.290835 0.455592
vt 0.489819 0.455592
vt 0.084337 0.456280
vt 0.283322 0.456280
vt 0.283322 0.706394
vt 0.084337 0.706394
vt 0.084337 0.455592
vt 0.283322 0.455592
vt 0.284011 0.456280
vt 0.284011 0.706394
vt 0.283322 0.707083
vt 0.084337 0.707083
vt 0.083649 0.706394
vt 0.083649 0.456280
vt 0.201665 0.711763
vt 0.201665 0.962565
vt 0.002681 0.961876
vt 0.002681 0.711763
vt 0.202354 0.711763
vt 0.202354 0.961876
vt 0.001992 0.961876
vt 0.001992 0.711763
vt 0.002681 0.711074
vt 0.201665 0.711074
vt 0.002681 0.962565
vt 0.445194 0.711074
vt 0.445194 0.895667
vt 0.423161 0.895667
vt 0.423161 0.711074
vt 0.474428 0.711074
vt 0.474428 0.895667
vt 0.452395 0.895667
vt 0.452395 0.711074
vt 0.209254 0.711074
vt 0.220573 0.711074
vt 0.221261 0.711763
vt 0.208776 0.962106
vt 0.221261 0.711074
vt 0.221261 0.961876
vt 0.220573 0.962565
vt 0.208776 0.712520
vt 0.221261 0.962565
vt 0.209464 0.962565
vt 0.240062 0.711832
vt 0.240062 0.962565
vt 0.228265 0.962565
vt 0.239305 0.711074
vt 0.228265 0.711074
vt 0.318606 0.922544
vt 0.318606 0.711763
vt 0.328285 0.711763
vt 0.328285 0.922544
vt 0.317917 0.711763
vt 0.317917 0.922544
vt 0.318606 0.711074
vt 0.328285 0.711074
vt 0.328973 0.922544
vt 0.328973 0.711763
vt 0.318606 0.923233
vt 0.328285 0.923233
vt 0.336146 0.922544
vt 0.336146 0.711763
vt 0.345825 0.711763
vt 0.345825 0.922544
vt 0.335458 0.711763
vt 0.335458 0.922544
vt 0.345825 0.711074
vt 0.336146 0.711074
vt 0.346514 0.922544
vt 0.346514 0.711763
vt 0.336146 0.923233
vt 0.345825 0.923233
vt 0.362677 0.711763
vt 0.362677 0.910747
vt 0.352998 0.910747
vt 0.352998 0.711763
vt 0.362677 0.911436
vt 0.352998 0.911436
vt 0.362677 0.711074
vt 0.352998 0.711074
vt 0.380218 0.711763
vt 0.380218 0.910748
vt 0.370539 0.910748
vt 0.370539 0.711763
vt 0.370539 0.911436
vt 0.380218 0.911436
vt 0.380218 0.711074
vt 0.370539 0.711074
vt 0.398447 0.711763
vt 0.398447 0.910747
vt 0.388768 0.910747
vt 0.388768 0.711763
vt 0.398447 0.911436
vt 0.388768 0.911436
vt 0.388079 0.711763
vt 0.388079 0.910747
vt 0.398447 0.711074
vt 0.388768 0.711074
vt 0.415300 0.711763
vt 0.415300 0.910748
vt 0.405620 0.910748
vt 0.405620 0.711763
vt 0.405620 0.911436
vt 0.415300 0.911436
vt 0.415300 0.711074
vt 0.405620 0.711074
vt 0.475782 0.001921
vt 0.660375 0.001921
vt 0.660375 0.430866
vt 0.475782 0.430866
vt 0.739903 0.434857
vt 0.739625 0.863801
vt 0.728585 0.863801
vt 0.728585 0.434857
vt 0.740382 0.863801
vt 0.722450 0.863802
vt 0.721761 0.435546
vt 0.722450 0.434857
vt 0.703141 0.863802
vt 0.703141 0.434857
vt 0.703829 0.434857
vt 0.715626 0.435546
vt 0.714937 0.434857
vt 0.714937 0.863802
vt 0.213462 0.451600
vt 0.002681 0.451600
vt 0.002681 0.001921
vt 0.213462 0.001921
vt 0.001992 0.451600
vt 0.001992 0.001921
vt 0.214151 0.001921
vt 0.214151 0.451600
vt 0.221158 0.451600
vt 0.221158 0.001921
vt 0.431940 0.001921
vt 0.431940 0.451600
vt 0.220470 0.451600
vt 0.220470 0.001921
vt 0.432628 0.001921
vt 0.432628 0.451600
vt 0.257434 0.711074
vt 0.257434 0.961188
vt 0.247755 0.961188
vt 0.247755 0.711074
vt 0.274974 0.711074
vt 0.274974 0.961188
vt 0.265295 0.961188
vt 0.265295 0.711074
vt 0.292516 0.711074
vt 0.292515 0.961188
vt 0.282836 0.961188
vt 0.282836 0.711074
vt 0.310055 0.711074
vt 0.310056 0.961188
vt 0.300377 0.961188
vt 0.300377 0.711074
vt 0.688813 0.001921
vt 0.688813 0.430866
vt 0.666780 0.430866
vt 0.666780 0.001921
vt 0.696014 0.430866
vt 0.696014 0.001921
vt 0.718047 0.001921
vt 0.718047 0.430866
vt 0.976280 0.001921
vt 0.976739 0.430866
vt 0.726006 0.430866
vt 0.726694 0.001921
vt 0.725248 0.001921
vt 0.747206 0.434857
vt 0.997320 0.434857
vt 0.998008 0.435546
vt 0.998008 0.863802
vt 0.746517 0.863802
vt 0.746517 0.435546
vt 0.440701 0.451600
vt 0.440701 0.001921
vt 0.450380 0.001921
vt 0.450380 0.451600
vt 0.467921 0.001921
vt 0.467921 0.451600
vt 0.458242 0.451600
vt 0.458242 0.001921
vn 0.875575 -0.341590 0.341590
vn 0.875575 -0.341590 -0.341590
vn 0.875605 0.341502 -0.341602
vn 0.875575 0.341590 0.341590
vn -0.875575 -0.341590 0.341590
vn -0.875575 0.341590 0.341590
vn -0.875575 0.341590 -0.341590
vn -0.875575 -0.341590 -0.341590
vn 0.341590 -0.341590 0.875575
vn 0.341590 0.341590 0.875575
vn -0.341590 0.341590 0.875575
vn -0.341590 -0.341590 0.875575
vn 0.341590 0.875575 0.341590
vn 0.341602 0.875605 -0.341502
vn -0.341590 0.875575 -0.341590
vn -0.341590 0.875575 0.341590
vn 0.341502 0.341602 -0.875605
vn 0.341590 -0.341590 -0.875575
vn -0.341590 -0.341590 -0.875575
vn -0.341590 0.341590 -0.875575
vn 0.341590 -0.875575 -0.341590
vn 0.341590 -0.875575 0.341590
vn -0.341590 -0.875575 0.341590
vn -0.341590 -0.875575 -0.341590
vn 0.875575 -0.341590 0.341590
vn 0.875575 -0.341590 -0.341590
vn 0.875605 0.341502 -0.341602
vn 0.875575 0.341590 0.341590
vn -0.875575 -0.341590 0.341590
vn -0.650521 0.651521 0.390312
vn -0.875522 0.341109 -0.342209
vn -0.875575 -0.341590 -0.341590
vn 0.341590 -0.341590 0.875575
vn 0.341590 0.341590 0.875575
vn -0.300202 0.300202 0.905405
vn -0.341590 -0.341590 0.875575
vn 0.341590 0.875575 0.341590
vn 0.341602 0.875605 -0.341502
vn -0.341602 0.875605 -0.341502
vn 0.000000 0.923877 0.382690
vn 0.341590 0.341590 -0.875575
vn 0.341590 -0.341590 -0.875575
vn -0.341590 -0.341590 -0.875575
vn -0.341602 0.341502 -0.875605
vn 0.341590 -0.875575 -0.341590
vn 0.341590 -0.875575 0.341590
vn -0.341590 -0.875575 0.341590
vn -0.341590 -0.875575 -0.341590
vn 0.341590 -0.341590 0.875575
vn 0.341590 -0.875575 0.341590
vn 0.875575 -0.341590 0.341590
vn 0.875575 0.341590 0.341590
vn 0.341590 0.875575 0.341590
vn 0.341590 0.341590 0.875575
vn 0.341590 -0.875575 -0.341590
vn 0.341590 -0.341590 -0.875575
vn 0.875575 -0.341590 -0.341590
vn 0.875605 0.341502 -0.341602
vn 0.341502 0.341602 -0.875605
vn 0.341602 0.875605 -0.341502
vn -0.341590 -0.341590 0.875575
vn -0.875575 -0.341590 0.341590
vn -0.341590 -0.875575 0.341590
vn -0.341590 0.875575 0.341590
vn -0.875575 0.341590 0.341590
vn -0.341590 0.341590 0.875575
vn -0.341590 -0.875575 -0.341590
vn -0.875575 -0.341590 -0.341590
vn -0.341590 -0.341590 -0.875575
vn -0.341590 0.341590 -0.875575
vn -0.875575 0.341590 -0.341590
vn -0.341590 0.875575 -0.341590
vn 0.341590 -0.341590 0.875575
vn 0.341590 -0.875575 0.341590
vn 0.875575 -0.341590 0.341590
vn 0.875575 0.341590 0.341590
vn 0.341590 0.875575 0.341590
vn 0.341590 0.341590 0.875575
vn 0.341590 -0.875575 -0.341590
vn 0.341590 -0.341590 -0.875575
vn 0.875575 -0.341590 -0.341590
vn 0.875605 0.341502 -0.341602
vn 0.341590 0.341590 -0.875575
vn 0.341602 0.875605 -0.341502
vn -0.341590 -0.341590 0.875575
vn -0.875575 -0.341590 0.341590
vn -0.341590 -0.875575 0.341590
vn 0.000000 0.923877 0.382690
vn -0.650521 0.651521 0.390312
vn -0.300202 0.300202 0.905405
vn -0.341590 -0.875575 -0.341590
vn -0.875575 -0.341590 -0.341590
vn -0.341590 -0.341590 -0.875575
vn -0.341602 0.341502 -0.875605
vn -0.875522 0.341109 -0.342209
vn -0.341602 0.875605 -0.341502
vn 0.875575 -0.341590 0.341590
vn 0.341590 -0.875575 0.341590
vn 0.341590 -0.875575 -0.341590
vn 0.875575 -0.341590 -0.341590
vn 0.875575 -0.341590 -0.341590
vn 0.341590 -0.341590 -0.875575
vn 0.341502 0.341602 -0.875605
vn 0.875605 0.341502 -0.341602
vn 0.875605 0.341502 -0.341602
vn 0.341602 0.875605 -0.341502
vn 0.341590 0.875575 0.341590
vn 0.875575 0.341590 0.341590
vn 0.875575 0.341590 0.341590
vn 0.341590 0.341590 0.875575
vn 0.341590 -0.341590 0.875575
vn 0.875575 -0.341590 0.341590
vn -0.875575 -0.341590 0.341590
vn -0.341590 -0.341590 0.875575
vn -0.341590 0.341590 0.875575
vn -0.875575 0.341590 0.341590
vn -0.875575 0.341590 0.341590
vn -0.341590 0.875575 0.341590
vn -0.341590 0.875575 -0.341590
vn -0.875575 0.341590 -0.341590
vn -0.875575 0.341590 -0.341590
vn -0.341590 0.341590 -0.875575
vn -0.341590 -0.341590 -0.875575
vn -0.875575 -0.341590 -0.341590
vn -0.875575 -0.341590 -0.341590
vn -0.341590 -0.875575 -0.341590
vn -0.341590 -0.875575 0.341590
vn -0.875575 -0.341590 0.341590
vn 0.341590 0.341590 0.875575
vn 0.341590 0.875575 0.341590
vn -0.341590 0.875575 0.341590
vn -0.341590 0.341590 0.875575
vn -0.341590 -0.341590 0.875575
vn -0.341590 -0.875575 0.341590
vn 0.341590 -0.875575 0.341590
vn 0.341590 -0.341590 0.875575
vn 0.341602 0.875605 -0.341502
vn 0.341502 0.341602 -0.875605
vn -0.341590 0.341590 -0.875575
vn -0.341590 0.875575 -0.341590
vn 0.341590 -0.341590 -0.875575
vn 0.341590 -0.875575 -0.341590
vn -0.341590 -0.875575 -0.341590
vn -0.341590 -0.341590 -0.875575
vn 0.875575 -0.341590 0.341590
vn 0.341590 -0.875575 0.341590
vn 0.341590 -0.875575 -0.341590
vn 0.875575 -0.341590 -0.341590
vn 0.875575 -0.341590 -0.341590
vn 0.341590 -0.341590 -0.875575
vn 0.341590 0.341590 -0.875575
vn 0.875605 0.341502 -0.341602
vn 0.875605 0.341502 -0.341602
vn 0.341602 0.875605 -0.341502
vn 0.341590 0.875575 0.341590
vn 0.875575 0.341590 0.341590
vn 0.875575 0.341590 0.341590
vn 0.341590 0.341590 0.875575
vn 0.341590 -0.341590 0.875575
vn 0.875575 -0.341590 0.341590
vn -0.875575 -0.341590 0.341590
vn -0.341590 -0.341590 0.875575
vn -0.300202 0.300202 0.905405
vn -0.650521 0.651521 0.390312
vn -0.650521 0.651521 0.390312
vn 0.000000 0.923877 0.382690
vn -0.341602 0.875605 -0.341502
vn -0.875522 0.341109 -0.342209
vn -0.875522 0.341109 -0.342209
vn -0.341602 0.341502 -0.875605
vn -0.341590 -0.341590 -0.875575
vn -0.875575 -0.341590 -0.341590
vn -0.875575 -0.341590 -0.341590
vn -0.341590 -0.875575 -0.341590
vn -0.341590 -0.875575 0.341590
vn -0.875575 -0.341590 0.341590
vn 0.341590 0.341590 0.875575
vn 0.341590 0.875575 0.341590
vn 0.000000 0.923877 0.382690
vn -0.300202 0.300202 0.905405
vn -0.341590 -0.341590 0.875575
vn -0.341590 -0.875575 0.341590
vn 0.341590 -0.875575 0.341590
vn 0.341590 -0.341590 0.875575
vn 0.341602 0.875605 -0.341502
vn 0.341590 0.341590 -0.875575
vn -0.341602 0.341502 -0.875605
vn -0.341602 0.875605 -0.341502
vn 0.341590 -0.341590 -0.875575
vn 0.341590 -0.875575 -0.341590
vn -0.341590 -0.875575 -0.341590
vn -0.341590 -0.341590 -0.875575
vn 0.577350 0.577350 0.577350
vn 0.577384 0.577284 -0.577384
vn -0.577384 0.577284 -0.577384
vn -0.577317 0.577417 0.577317
vn 0.577350 0.577350 0.577350
vn -0.577317 0.577417 0.577317
vn -0.707107 0.000000 0.707107
vn 0.707107 0.000000 0.707107
vn -0.577317 0.577417 0.577317
vn -0.577384 0.577284 -0.577384
vn -0.707107 0.000000 -0.707107
vn -0.707107 0.000000 0.707107
vn -0.577384 0.577284 -0.577384
vn 0.577384 0.577284 -0.577384
vn 0.707107 0.000000 -0.707107
vn -0.707107 0.000000 -0.707107
vn 0.577384 0.577284 -0.577384
vn 0.577350 0.577350 0.577350
vn 0.707107 0.000000 0.707107
vn 0.707107 0.000000 -0.707107
vn 0.614902 0.371901 0.695403
vn -0.577317 0.577417 0.577317
vn -0.630358 -0.296980 0.717253
vn 0.673071 -0.117595 0.730169
vn 0.699520 0.142704 -0.700220
vn 0.699849 -0.142910 -0.699849
vn 0.142194 -0.699271 -0.700571
vn -0.577817 -0.577417 -0.576817
vn 0.699520 0.142704 -0.700220
vn -0.577817 -0.577417 -0.576817
vn -0.577717 0.577417 -0.576917
vn 0.142194 0.699271 -0.700571
vn 0.596192 -0.650892 0.469994
vn 0.699849 -0.699849 -0.142910
vn 0.699849 -0.142910 -0.699849
vn 0.614902 0.371901 0.695403
vn 0.699849 -0.142910 -0.699849
vn 0.699520 0.142704 -0.700220
vn 0.699849 0.699849 -0.142910
vn 0.614902 0.371901 0.695403
vn 0.052100 0.883093 0.466296
vn 0.614902 0.371901 0.695403
vn 0.699849 0.699849 -0.142910
vn 0.596192 -0.650892 0.469994
vn -0.630358 -0.717253 0.296980
vn -0.577817 -0.577417 -0.576817
vn 0.699849 -0.699849 -0.142910
vn -0.577817 -0.577417 -0.576817
vn 0.142194 -0.699271 -0.700571
vn 0.699849 -0.699849 -0.142910
vn -0.630358 -0.296980 0.717253
vn -0.577317 0.577417 0.577317
vn -0.577717 0.577417 -0.576917
vn -0.630358 -0.717253 0.296980
vn -0.577717 0.577417 -0.576917
vn -0.577817 -0.577417 -0.576817
vn -0.630358 -0.717253 0.296980
vn -0.577317 0.577417 0.577317
vn 0.614902 0.371901 0.695403
vn 0.052100 0.883093 0.466296
vn 0.142194 0.699271 -0.700571
vn 0.052100 0.883093 0.466296
vn 0.699849 0.699849 -0.142910
vn 0.142194 0.699271 -0.700571
vn -0.577317 0.577417 0.577317
vn 0.142194 0.699271 -0.700571
vn -0.577717 0.577417 -0.576917
vn 0.699520 0.142704 -0.700220
vn 0.142194 0.699271 -0.700571
vn 0.699849 0.699849 -0.142910
vn 0.699849 -0.142910 -0.699849
vn 0.699849 -0.699849 -0.142910
vn 0.142194 -0.699271 -0.700571
vn -0.341590 -0.875575 0.341590
vn -0.341590 -0.875575 -0.341590
vn 0.341590 -0.875575 -0.341590
vn 0.341502 -0.875605 0.341602
vn -0.341590 0.875575 0.341590
vn 0.341590 0.875575 0.341590
vn 0.341502 0.875605 -0.341602
vn -0.341590 0.875575 -0.341590
vn -0.341590 -0.341590 0.875575
vn 0.341590 -0.341590 0.875575
vn 0.341590 0.341590 0.875575
vn -0.341590 0.341590 0.875575
vn 0.875575 -0.341590 0.341590
vn 0.875575 -0.341590 -0.341590
vn 0.875575 0.341590 -0.341590
vn 0.875575 0.341590 0.341590
vn 0.341590 -0.341590 -0.875575
vn -0.341590 -0.341590 -0.875575
vn -0.341590 0.341590 -0.875575
vn 0.341590 0.341590 -0.875575
vn -0.875575 -0.341590 -0.341590
vn -0.875575 -0.341590 0.341590
vn -0.875575 0.341590 0.341590
vn -0.875575 0.341590 -0.341590
vn -0.341590 -0.341590 0.875575
vn -0.875575 -0.341590 0.341590
vn -0.341590 -0.875575 0.341590
vn 0.341502 -0.875605 0.341602
vn 0.875575 -0.341590 0.341590
vn 0.341590 -0.341590 0.875575
vn -0.875575 -0.341590 -0.341590
vn -0.341590 -0.341590 -0.875575
vn -0.341590 -0.875575 -0.341590
vn 0.341590 -0.875575 -0.341590
vn 0.341590 -0.341590 -0.875575
vn 0.875575 -0.341590 -0.341590
vn -0.341590 0.341590 0.875575
vn -0.341590 0.875575 0.341590
vn -0.875575 0.341590 0.341590
vn 0.875575 0.341590 0.341590
vn 0.341590 0.875575 0.341590
vn 0.341590 0.341590 0.875575
vn -0.875575 0.341590 -0.341590
vn -0.341590 0.875575 -0.341590
vn -0.341590 0.341590 -0.875575
vn 0.341590 0.341590 -0.875575
vn 0.341502 0.875605 -0.341602
vn 0.875575 0.341590 -0.341590
vn -0.341590 -0.875575 0.341590
vn -0.875575 -0.341590 0.341590
vn -0.875575 -0.341590 -0.341590
vn -0.341590 -0.875575 -0.341590
vn -0.341590 -0.875575 -0.341590
vn -0.341590 -0.341590 -0.875575
vn 0.341590 -0.341590 -0.875575
vn 0.341590 -0.875575 -0.341590
vn 0.341590 -0.875575 -0.341590
vn 0.875575 -0.341590 -0.341590
vn 0.875575 -0.341590 0.341590
vn 0.341502 -0.875605 0.341602
vn 0.341502 -0.875605 0.341602
vn 0.341590 -0.341590 0.875575
vn -0.341590 -0.341590 0.875575
vn -0.341590 -0.875575 0.341590
vn -0.341590 0.875575 0.341590
vn -0.341590 0.341590 0.875575
vn 0.341590 0.341590 0.875575
vn 0.341590 0.875575 0.341590
vn 0.341590 0.875575 0.341590
vn 0.875575 0.341590 0.341590
vn 0.875575 0.341590 -0.341590
vn 0.341502 0.875605 -0.341602
vn 0.341502 0.875605 -0.341602
vn 0.341590 0.341590 -0.875575
vn -0.341590 0.341590 -0.875575
vn -0.341590 0.875575 -0.341590
vn -0.341590 0.875575 -0.341590
vn -0.875575 0.341590 -0.341590
vn -0.875575 0.341590 0.341590
vn -0.341590 0.875575 0.341590
vn 0.341590 -0.341590 0.875575
vn 0.875575 -0.341590 0.341590
vn 0.875575 0.341590 0.341590
vn 0.341590 0.341590 0.875575
vn -0.341590 0.341590 0.875575
vn -0.875575 0.341590 0.341590
vn -0.875575 -0.341590 0.341590
vn -0.341590 -0.341590 0.875575
vn 0.875575 -0.341590 -0.341590
vn 0.341590 -0.341590 -0.875575
vn 0.341590 0.341590 -0.875575
vn 0.875575 0.341590 -0.341590
vn -0.341590 -0.341590 -0.875575
vn -0.875575 -0.341590 -0.341590
vn -0.875575 0.341590 -0.341590
vn -0.341590 0.341590 -0.875575
vn -0.630358 -0.717253 0.296980
vn 0.596192 -0.650892 0.469994
vn -0.630358 -0.296980 0.717253
vn 0.614902 0.371901 0.695403
vn 0.673071 -0.117595 0.730169
vn 0.596192 -0.650892 0.469994
vn -0.630358 -0.296980 0.717253
vn 0.596192 -0.650892 0.469994
vn 0.673071 -0.117595 0.730169
s off
g polySurface1
usemtl TEMPORARY_IMPORT_NAMESPACE___hestOfDrawers1:Line006SG
f 1/1/1 2/2/2 3/3/3 4/4/4
f 5/13/5 6/14/6 7/15/7 8/16/8
f 9/163/9 10/164/10 11/165/11 12/166/12
f 13/95/13 14/96/14 15/97/15 16/98/16
f 17/167/17 18/168/18 19/169/19 20/170/20
f 21/103/21 22/104/22 23/105/23 24/106/24
f 25/25/25 26/26/26 27/27/27 28/28/28
f 29/37/29 30/38/30 31/39/31 32/40/32
f 33/171/33 34/172/34 35/173/35 36/174/36
f 37/111/37 38/112/38 39/113/39 40/114/40
f 41/175/41 42/176/42 43/177/43 44/178/44
f 45/121/45 46/122/46 47/123/47 48/124/48
f 9/12/49 22/5/50 1/1/51
f 4/4/52 13/10/53 10/11/54
f 21/6/55 18/7/56 2/2/57
f 3/3/58 17/8/59 14/9/60
f 12/17/61 5/13/62 23/24/63
f 16/19/64 6/14/65 11/18/66
f 24/23/67 8/16/68 19/22/69
f 20/21/70 7/15/71 15/20/72
f 33/36/73 46/29/74 25/25/75
f 28/28/76 37/34/77 34/35/78
f 45/30/79 42/31/80 26/26/81
f 27/27/82 41/32/83 38/33/84
f 36/41/85 29/37/86 47/46/87
f 40/114/88 30/117/89 35/120/90
f 48/45/91 32/40/92 43/44/93
f 44/43/94 31/39/95 39/47/96
f 1/1/97 22/5/98 21/6/99 2/2/100
f 2/2/101 18/7/102 17/8/103 3/3/104
f 3/3/105 14/9/106 13/10/107 4/4/108
f 4/4/109 10/11/110 9/12/111 1/1/112
f 5/13/113 12/17/114 11/18/115 6/14/116
f 6/14/117 16/19/118 15/20/119 7/15/120
f 7/15/121 20/21/122 19/22/123 8/16/124
f 8/16/125 24/23/126 23/24/127 5/13/128
f 10/101/129 13/95/130 16/98/131 11/102/132
f 12/107/133 23/105/134 22/104/135 9/108/136
f 14/96/137 17/99/138 20/100/139 15/97/140
f 18/109/141 21/103/142 24/106/143 19/110/144
f 25/25/145 46/29/146 45/30/147 26/26/148
f 26/26/149 42/31/150 41/32/151 27/27/152
f 27/27/153 38/33/154 37/34/155 28/28/156
f 28/28/157 34/35/158 33/36/159 25/25/160
f 29/37/161 36/41/162 35/42/163 30/38/164
f 30/117/165 40/114/166 39/113/167 31/118/168
f 31/39/169 44/43/170 43/44/171 32/40/172
f 32/40/173 48/45/174 47/46/175 29/37/176
f 34/119/177 37/111/178 40/114/179 35/120/180
f 36/125/181 47/123/182 46/122/183 33/126/184
f 38/112/185 41/115/186 44/116/187 39/113/188
f 42/127/189 45/121/190 48/124/191 43/128/192
f 49/129/193 50/130/194 51/131/195 52/132/196
f 49/179/197 52/180/198 53/181/199 54/182/200
f 52/48/201 51/49/202 55/50/203 53/51/204
f 51/183/205 50/184/206 56/185/207 55/186/208
f 50/52/209 49/53/210 54/54/211 56/55/212
f 57/187/213 58/188/214 59/189/215 60/190/216
f 61/192/217 62/193/218 63/194/219 53/195/220
f 61/192/221 53/195/222 64/196/223 65/197/224
f 66/56/225 54/57/226 62/58/227 57/59/228
f 62/58/229 61/61/230 67/62/231 57/59/232
f 30/65/233 57/59/234 67/62/235
f 66/133/236 68/134/237 53/135/238 54/136/239
f 53/138/240 63/139/241 54/140/242
f 59/66/243 58/67/244 64/68/245 68/69/246
f 64/68/247 53/70/248 68/69/249
f 58/141/250 57/142/251 30/143/252 65/144/253
f 30/143/254 67/145/255 65/144/256
f 58/141/257 65/144/258 64/146/259
f 61/61/260 65/64/261 67/62/262
f 62/58/263 54/57/264 63/60/265
f 16/147/266 69/148/267 70/149/268 37/150/269
f 71/155/270 72/156/271 73/157/272 74/158/273
f 75/198/274 76/199/275 77/200/276 78/201/277
f 79/71/278 80/72/279 81/73/280 82/74/281
f 83/202/282 84/203/283 85/204/284 86/205/285
f 87/83/286 88/84/287 89/85/288 90/86/289
f 75/90/290 88/84/291 16/87/292
f 37/76/293 79/71/294 76/81/295
f 87/83/296 84/93/297 69/88/298
f 70/75/299 83/77/300 80/72/301
f 78/89/302 71/92/303 89/85/304
f 82/74/305 72/79/306 77/82/307
f 90/86/308 74/91/309 85/94/310
f 86/78/311 73/80/312 81/73/313
f 16/87/314 88/84/315 87/83/316 69/88/317
f 69/148/318 84/151/319 83/152/320 70/149/321
f 70/75/322 80/72/323 79/71/324 37/76/325
f 37/150/326 76/153/327 75/154/328 16/147/329
f 71/155/330 78/159/331 77/160/332 72/156/333
f 72/79/334 82/74/335 81/73/336 73/80/337
f 73/157/338 86/161/339 85/162/340 74/158/341
f 74/91/342 90/86/343 89/85/344 71/92/345
f 76/81/346 79/71/347 82/74/348 77/82/349
f 78/89/350 89/85/351 88/84/352 75/90/353
f 80/72/354 83/77/355 86/78/356 81/73/357
f 84/93/358 87/83/359 90/86/360 85/94/361
f 68/134/362 66/133/363 59/137/364
f 57/59/365 60/63/366 66/56/367
f 59/189/368 66/191/369 60/190/370
