# This file uses centimeters as units for non-parametric coordinates.

mtllib box2.mtl
g default
v 1.131935 0.000000 -0.386355
v 1.131935 0.620673 -0.386355
v 0.614708 0.620673 -0.386355
v 0.614708 0.000000 -0.386355
v 0.614708 0.000000 -0.800136
v 1.131935 0.000000 -0.800136
v 0.614708 0.620673 -0.800136
v 1.131935 0.620673 -0.800136
vt 0.632600 0.346200
vt 0.982900 0.346200
vt 0.982900 0.720500
vt 0.632600 0.720500
vt 0.367200 0.720500
vt 0.367200 0.346200
vt 0.016900 0.720500
vt 0.016900 0.346200
vt 0.982900 0.985900
vt 0.632600 0.985900
vt 0.632600 0.080800
vt 0.982900 0.080800
vt 0.056000 0.308300
vt 0.056000 0.042900
vt 0.430300 0.042900
vt 0.430300 0.308300
vn 0.000000 0.000000 1.000000
vn 0.000000 0.000000 1.000000
vn 0.000000 0.000000 1.000000
vn 0.000000 0.000000 1.000000
vn 0.000000 -1.000000 0.000000
vn 0.000000 -1.000000 0.000000
vn 0.000000 -1.000000 0.000000
vn 0.000000 -1.000000 0.000000
vn 0.000000 0.000000 -1.000000
vn 0.000000 0.000000 -1.000000
vn 0.000000 0.000000 -1.000000
vn 0.000000 0.000000 -1.000000
vn -1.000000 0.000000 0.000000
vn -1.000000 0.000000 0.000000
vn -1.000000 0.000000 0.000000
vn -1.000000 0.000000 0.000000
vn 1.000000 0.000000 0.000000
vn 1.000000 0.000000 0.000000
vn 1.000000 0.000000 0.000000
vn 1.000000 0.000000 0.000000
vn 0.000000 1.000000 0.000000
vn 0.000000 1.000000 0.000000
vn 0.000000 1.000000 0.000000
vn 0.000000 1.000000 0.000000
s off
g box_collections:CardboardBox5group2
usemtl initialShadingGroup
f 1/1/1 2/2/2 3/3/3 4/4/4
f 5/5/5 6/6/6 1/1/7 4/4/8
f 7/7/9 8/8/10 6/6/11 5/5/12
f 3/3/13 7/9/14 5/10/15 4/4/16
f 1/1/17 6/11/18 8/12/19 2/2/20
f 2/13/21 8/14/22 7/15/23 3/16/24
