# This file uses centimeters as units for non-parametric coordinates.

mtllib box3.mtl
g default
v 0.464210 0.473064 1.156087
v 0.464210 0.074180 1.156087
v 1.225105 0.074180 1.156087
v 1.225105 0.473064 1.156087
v 0.466398 0.072037 1.154009
v 0.466398 0.471011 1.154009
v 1.222918 0.471011 1.154009
v 1.222918 0.072037 1.154009
v 1.225105 0.473064 0.712489
v 0.464210 0.473064 0.712489
v 1.222918 0.471011 0.714568
v 1.222918 0.072037 0.714568
v 1.225105 0.074180 0.712489
v 0.464210 0.074180 0.712489
v 0.466398 0.072037 0.714568
v 0.466398 0.471011 0.714568
v 1.225105 0.072037 1.156087
v 0.464210 0.072037 1.156087
v 0.464210 0.072037 0.712489
v 1.225105 0.072037 0.712489
v 0.464210 0.079927 1.368664
v 0.464210 0.077784 1.368664
v 1.225105 0.077784 1.368664
v 1.225105 0.079927 1.368664
v 0.311682 0.083515 0.712489
v 0.311682 0.081371 0.712489
v 0.311682 0.081371 1.156087
v 0.311682 0.083515 1.156087
v 1.377752 0.076391 1.156087
v 1.377752 0.074247 1.156087
v 1.377752 0.074247 0.712489
v 1.377752 0.076391 0.712489
v 1.225105 0.076248 0.499912
v 1.225105 0.074105 0.499912
v 0.464210 0.074105 0.499912
v 0.464210 0.076248 0.499912
vt 0.521600 0.230500
vt 0.521600 0.071300
vt 0.825200 0.071300
vt 0.825200 0.230500
vt 0.174300 0.937000
vt 0.174300 0.777800
vt 0.476200 0.777800
vt 0.476200 0.937000
vt 0.825200 0.407500
vt 0.521600 0.407500
vt 0.476200 0.602400
vt 0.635400 0.602400
vt 0.635400 0.777800
vt 0.825200 0.566700
vt 0.521600 0.566700
vt 0.174300 0.443200
vt 0.476200 0.443200
vt 0.174300 0.602400
vt 0.984400 0.230500
vt 0.984400 0.407500
vt 0.015100 0.777800
vt 0.015100 0.602400
vt 0.340200 0.026400
vt 0.340200 0.029500
vt 0.037000 0.029500
vt 0.037000 0.026400
vt 0.899600 0.795300
vt 0.899600 0.798400
vt 0.594500 0.798400
vt 0.594500 0.795300
vt 0.721300 0.617600
vt 0.721300 0.614300
vt 0.899600 0.614300
vt 0.899600 0.617600
vt 0.267500 0.284900
vt 0.267500 0.284900
vt 0.079800 0.284900
vt 0.080700 0.284900
vt 0.362500 0.407500
vt 0.362500 0.230500
vt 0.037000 0.117400
vt 0.037000 0.110600
vt 0.340200 0.110600
vt 0.340200 0.117400
vt 0.079800 0.343200
vt 0.079800 0.339400
vt 0.267500 0.339400
vt 0.267500 0.343200
vt 0.721300 0.679500
vt 0.721300 0.673900
vt 0.899600 0.673900
vt 0.899600 0.679500
vt 0.594500 0.882500
vt 0.594500 0.874500
vt 0.899600 0.874500
vt 0.899600 0.882500
vt 0.340200 0.202700
vt 0.037000 0.202700
vt 0.034400 0.202700
vt 0.034400 0.117400
vt 0.343000 0.202800
vt 0.343000 0.117400
vt 0.267500 0.404700
vt 0.079800 0.404700
vt 0.077600 0.404700
vt 0.077600 0.343200
vt 0.267500 0.284900
vt 0.270100 0.404800
vt 0.270100 0.343200
vt 0.899600 0.741000
vt 0.721300 0.741000
vt 0.716600 0.741000
vt 0.716600 0.679500
vt 0.903300 0.741100
vt 0.903300 0.679600
vt 0.899600 0.967900
vt 0.594500 0.967900
vt 0.589700 0.967900
vt 0.589700 0.882500
vt 0.904500 0.967900
vt 0.904500 0.882500
vn 0.000000 0.000000 1.000000
vn 0.000000 0.000000 1.000000
vn 0.000000 0.000000 1.000000
vn 0.000000 0.000000 1.000000
vn 0.000000 0.000000 -1.000000
vn 0.000000 0.000000 -1.000000
vn 0.000000 0.000000 -1.000000
vn 0.000000 0.000000 -1.000000
vn 0.000000 1.000000 0.000000
vn 0.000000 1.000000 0.000000
vn 0.000000 1.000000 0.000000
vn 0.000000 1.000000 0.000000
vn -1.000000 0.000000 0.000000
vn -1.000000 0.000000 0.000000
vn -1.000000 0.000000 0.000000
vn -1.000000 0.000000 0.000000
vn 0.000000 0.000000 -1.000000
vn 0.000000 0.000000 -1.000000
vn 0.000000 0.000000 -1.000000
vn 0.000000 0.000000 -1.000000
vn 0.000000 0.000000 1.000000
vn 0.000000 0.000000 1.000000
vn 0.000000 0.000000 1.000000
vn 0.000000 0.000000 1.000000
vn 0.000000 -1.000000 0.000000
vn 0.000000 -1.000000 0.000000
vn 0.000000 -1.000000 0.000000
vn 0.000000 -1.000000 0.000000
vn 1.000000 0.000000 0.000000
vn 1.000000 0.000000 0.000000
vn 1.000000 0.000000 0.000000
vn 1.000000 0.000000 0.000000
vn 1.000000 0.000000 0.000000
vn 1.000000 0.000000 0.000000
vn 1.000000 0.000000 0.000000
vn 1.000000 0.000000 0.000000
vn 0.000000 -1.000000 0.000000
vn 0.000000 -1.000000 0.000000
vn 0.000000 -1.000000 0.000000
vn 0.000000 -1.000000 0.000000
vn 0.000000 -1.000000 0.000000
vn 0.000000 -1.000000 0.000000
vn 0.000000 -1.000000 0.000000
vn 0.000000 -1.000000 0.000000
vn 0.000000 -1.000000 0.000000
vn 0.000000 -1.000000 0.000000
vn 0.000000 -1.000000 0.000000
vn 0.000000 -1.000000 0.000000
vn 0.000000 -1.000000 0.000000
vn 0.000000 -1.000000 0.000000
vn 0.000000 -1.000000 0.000000
vn 0.000000 -1.000000 0.000000
vn -1.000000 0.000000 0.000000
vn -1.000000 0.000000 0.000000
vn -1.000000 0.000000 0.000000
vn -1.000000 0.000000 0.000000
vn 0.000000 0.000000 1.000000
vn 0.000000 0.000000 1.000000
vn 0.000000 0.000000 1.000000
vn 0.000000 0.000000 1.000000
vn -1.000000 -0.000100 0.000000
vn -1.000000 -0.000100 0.000000
vn -1.000000 -0.000100 0.000000
vn -1.000000 -0.000100 0.000000
vn 1.000000 0.000000 0.000000
vn 1.000000 0.000000 0.000000
vn 1.000000 0.000000 0.000000
vn 1.000000 0.000000 0.000000
vn 0.000000 0.000000 -1.000000
vn 0.000000 0.000000 -1.000000
vn 0.000000 0.000000 -1.000000
vn 0.000000 0.000000 -1.000000
vn 0.000000 0.999635 -0.027001
vn 0.000000 0.999635 -0.027001
vn 0.000000 0.999635 -0.027001
vn 0.000000 0.999635 -0.027001
vn -1.000000 0.000000 0.000000
vn -1.000000 0.000000 0.000000
vn -1.000000 0.000000 0.000000
vn -1.000000 0.000000 0.000000
vn 0.000000 -0.999635 0.027001
vn 0.000000 -0.999635 0.027001
vn 0.000000 -0.999635 0.027001
vn 0.000000 -0.999635 0.027001
vn 1.000000 0.000000 0.000000
vn 1.000000 0.000000 0.000000
vn 1.000000 0.000000 0.000000
vn 1.000000 0.000000 0.000000
vn 0.061102 0.998132 0.000000
vn 0.061102 0.998132 0.000000
vn 0.061102 0.998132 0.000000
vn 0.061102 0.998132 0.000000
vn 0.000000 0.000000 -1.000000
vn 0.000000 0.000000 -1.000000
vn 0.000000 0.000000 -1.000000
vn 0.000000 0.000000 -1.000000
vn -0.061102 -0.998132 0.000000
vn -0.061102 -0.998132 0.000000
vn -0.061102 -0.998132 0.000000
vn -0.061102 -0.998132 0.000000
vn 0.000000 0.000000 1.000000
vn 0.000000 0.000000 1.000000
vn 0.000000 0.000000 1.000000
vn 0.000000 0.000000 1.000000
vn -0.014500 0.999895 0.000000
vn -0.014500 0.999895 0.000000
vn -0.014500 0.999895 0.000000
vn -0.014500 0.999895 0.000000
vn 0.000000 0.000000 1.000000
vn 0.000000 0.000000 1.000000
vn 0.000000 0.000000 1.000000
vn 0.000000 0.000000 1.000000
vn 0.014500 -0.999895 0.000000
vn 0.014500 -0.999895 0.000000
vn 0.014500 -0.999895 0.000000
vn 0.014500 -0.999895 0.000000
vn 0.000000 0.000000 -1.000000
vn 0.000000 0.000000 -1.000000
vn 0.000000 0.000000 -1.000000
vn 0.000000 0.000000 -1.000000
vn 0.000000 0.999953 0.009700
vn 0.000000 0.999953 0.009700
vn 0.000000 0.999953 0.009700
vn 0.000000 0.999953 0.009700
vn 1.000000 0.000000 0.000000
vn 1.000000 0.000000 0.000000
vn 1.000000 0.000000 0.000000
vn 1.000000 0.000000 0.000000
vn 0.000000 -0.999953 -0.009700
vn 0.000000 -0.999953 -0.009700
vn 0.000000 -0.999953 -0.009700
vn 0.000000 -0.999953 -0.009700
vn -1.000000 0.000000 0.000000
vn -1.000000 0.000000 0.000000
vn -1.000000 0.000000 0.000000
vn -1.000000 0.000000 0.000000
s off
g box_collections:CardboardBox2group1
usemtl initialShadingGroup
f 1/1/1 2/2/2 3/3/3 4/4/4
f 5/5/5 6/6/6 7/7/7 8/8/8
f 9/9/9 10/10/10 1/1/11 4/4/12
f 7/7/13 11/11/14 12/12/15 8/13/16
f 13/14/17 14/15/18 10/10/19 9/9/20
f 15/16/21 12/17/22 11/11/23 16/18/24
f 16/18/25 11/11/26 7/7/27 6/6/28
f 3/19/29 13/20/30 9/9/31 4/4/32
f 5/21/33 15/22/34 16/18/35 6/6/36
f 8/23/37 17/24/38 18/25/39 5/26/40
f 15/27/41 19/28/42 20/29/43 12/30/44
f 17/31/45 8/32/46 12/33/47 20/34/48
f 5/35/49 18/36/50 19/37/51 15/38/52
f 1/1/53 10/10/54 14/39/55 2/40/56
f 21/41/57 22/42/58 23/43/59 24/44/60
f 25/45/61 26/46/62 27/47/63 28/48/64
f 29/49/65 30/50/66 31/51/67 32/52/68
f 33/53/69 34/54/70 35/55/71 36/56/72
f 3/57/73 2/58/74 21/41/75 24/44/76
f 2/58/77 18/59/78 22/60/79 21/41/80
f 18/25/81 17/24/82 23/43/83 22/42/84
f 17/61/85 3/57/86 24/44/87 23/62/88
f 2/63/89 14/64/90 25/45/91 28/48/92
f 14/64/93 19/65/94 26/66/95 25/45/96
f 19/37/97 18/67/98 27/47/99 26/46/100
f 18/68/101 2/63/102 28/48/103 27/69/104
f 13/70/105 3/71/106 29/49/107 32/52/108
f 3/71/109 17/72/110 30/73/111 29/49/112
f 17/31/113 20/34/114 31/51/115 30/50/116
f 20/74/117 13/70/118 32/52/119 31/75/120
f 14/76/121 13/77/122 33/53/123 36/56/124
f 13/77/125 20/78/126 34/79/127 33/53/128
f 20/29/129 19/28/130 35/55/131 34/54/132
f 19/80/133 14/76/134 36/56/135 35/81/136
