# This file uses centimeters as units for non-parametric coordinates.

mtllib shelf.mtl
g default
v -0.428255 11.546081 -10.029548
v -0.428255 11.701656 -9.957804
v -0.500000 11.701656 -10.029548
v 15.672430 11.701656 -10.029548
v 15.600685 11.701656 -9.957804
v 15.600685 11.546081 -10.029548
v -0.500000 12.012868 -10.029548
v -0.428255 12.012868 -9.957804
v -0.428255 12.168438 -10.029548
v 15.600685 12.168438 -10.029548
v 15.600685 12.012868 -9.957804
v 15.672430 12.012868 -10.029548
v -0.500000 12.012868 -12.333880
v -0.428255 12.168438 -12.333880
v -0.428255 12.012868 -12.405625
v 15.600685 12.012868 -12.405625
v 15.600685 12.168438 -12.333880
v 15.672430 12.012868 -12.333880
v -0.500000 11.701656 -12.333880
v -0.428255 11.701656 -12.405625
v -0.428255 11.546081 -12.333880
v 15.600685 11.546081 -12.333880
v 15.600685 11.701656 -12.405625
v 15.672430 11.701656 -12.333880
vt 0.491593 0.007266
vt 0.507127 0.007266
vt 0.507127 0.176651
vt 0.491593 0.176651
vt 0.507127 0.001992
vt 0.538199 0.007266
vt 0.538199 0.176651
vt 0.507127 0.181925
vt 0.538199 0.001992
vt 0.553732 0.007266
vt 0.553732 0.176651
vt 0.538199 0.181925
vt 0.576642 0.176651
vt 0.561109 0.176651
vt 0.561109 0.007266
vt 0.576642 0.007266
vt 0.576642 0.181925
vt 0.576642 0.001992
vt 0.607714 0.007266
vt 0.607714 0.176651
vt 0.607714 0.181925
vt 0.607714 0.001992
vt 0.623247 0.176651
vt 0.623247 0.007266
vt 0.138670 0.998008
vt 0.138670 0.001992
vt 0.308055 0.001992
vt 0.308055 0.998008
vt 0.315132 0.998008
vt 0.315132 0.001992
vt 0.484517 0.001992
vt 0.484517 0.998008
vt 0.016777 0.998008
vt 0.001244 0.998008
vt 0.001244 0.001992
vt 0.016777 0.001992
vt 0.047850 0.001992
vt 0.047850 0.998008
vt 0.063383 0.998008
vt 0.063383 0.001992
vt 0.084688 0.998008
vt 0.069155 0.998008
vt 0.069155 0.001992
vt 0.084688 0.001992
vt 0.115760 0.001992
vt 0.115760 0.998008
vt 0.131294 0.998008
vt 0.131294 0.001992
vn -0.908090 -0.418774 0.000000
vn -0.908090 -0.418774 0.000000
vn -0.908090 -0.418774 0.000000
vn -0.908090 -0.418774 0.000000
vn 0.000000 -0.418767 0.908094
vn 0.000000 -0.418767 0.908094
vn 0.000000 -0.418767 0.908094
vn 0.000000 -0.418767 0.908094
vn -0.707099 0.000000 0.707114
vn -0.707099 0.000000 0.707114
vn -0.707099 0.000000 0.707114
vn -0.707099 0.000000 0.707114
vn 0.908090 -0.418775 0.000000
vn 0.908090 -0.418775 0.000000
vn 0.908090 -0.418775 0.000000
vn 0.908090 -0.418775 0.000000
vn 0.707099 0.000000 0.707114
vn 0.707099 0.000000 0.707114
vn 0.707099 0.000000 0.707114
vn 0.707099 0.000000 0.707114
vn -0.908086 0.418785 0.000000
vn -0.908086 0.418785 0.000000
vn -0.908086 0.418785 0.000000
vn -0.908086 0.418785 0.000000
vn 0.000000 0.418778 0.908089
vn 0.000000 0.418778 0.908089
vn 0.000000 0.418778 0.908089
vn 0.000000 0.418778 0.908089
vn 0.908085 0.418786 0.000000
vn 0.908085 0.418786 0.000000
vn 0.908085 0.418786 0.000000
vn 0.908085 0.418786 0.000000
vn -0.707107 0.000000 -0.707106
vn -0.707107 0.000000 -0.707106
vn -0.707107 0.000000 -0.707106
vn -0.707107 0.000000 -0.707106
vn 0.000000 0.418785 -0.908085
vn 0.000000 0.418785 -0.908085
vn 0.000000 0.418785 -0.908085
vn 0.000000 0.418785 -0.908085
vn 0.707107 0.000000 -0.707106
vn 0.707107 0.000000 -0.707106
vn 0.707107 0.000000 -0.707106
vn 0.707107 0.000000 -0.707106
vn 0.000000 -0.418775 -0.908090
vn 0.000000 -0.418775 -0.908090
vn 0.000000 -0.418775 -0.908090
vn 0.000000 -0.418775 -0.908090
vn 0.000000 0.000000 1.000000
vn 0.000000 0.000000 1.000000
vn 0.000000 0.000000 1.000000
vn 0.000000 0.000000 1.000000
vn 0.000000 1.000000 0.000000
vn 0.000000 1.000000 0.000000
vn 0.000000 1.000000 0.000000
vn 0.000000 1.000000 0.000000
vn 0.000000 0.000000 -1.000000
vn 0.000000 0.000000 -1.000000
vn 0.000000 0.000000 -1.000000
vn 0.000000 0.000000 -1.000000
vn 0.000000 -1.000000 0.000000
vn 0.000000 -1.000000 0.000000
vn 0.000000 -1.000000 0.000000
vn 0.000000 -1.000000 0.000000
vn 1.000000 0.000000 0.000000
vn 1.000000 0.000000 0.000000
vn 1.000000 0.000000 0.000000
vn 1.000000 0.000000 0.000000
vn -1.000000 0.000000 0.000000
vn -1.000000 0.000000 0.000000
vn -1.000000 0.000000 0.000000
vn -1.000000 0.000000 0.000000
vn -0.672261 -0.310019 0.672275
vn -0.672261 -0.310019 0.672275
vn -0.672261 -0.310019 0.672275
vn 0.672260 -0.310021 0.672275
vn 0.672260 -0.310021 0.672275
vn 0.672260 -0.310021 0.672275
vn -0.672259 0.310028 0.672273
vn -0.672259 0.310028 0.672273
vn -0.672259 0.310028 0.672273
vn 0.672258 0.310029 0.672273
vn 0.672258 0.310029 0.672273
vn 0.672258 0.310029 0.672273
vn -0.672265 0.310031 -0.672265
vn -0.672265 0.310031 -0.672265
vn -0.672265 0.310031 -0.672265
vn 0.672266 0.310026 -0.672266
vn 0.672266 0.310026 -0.672266
vn 0.672266 0.310026 -0.672266
vn -0.672266 -0.310023 -0.672268
vn -0.672266 -0.310023 -0.672268
vn -0.672266 -0.310023 -0.672268
vn 0.672267 -0.310018 -0.672269
vn 0.672267 -0.310018 -0.672269
vn 0.672267 -0.310018 -0.672269
s off
g pCube320
usemtl initialShadingGroup
f 1/1/1 3/2/2 19/3/3 21/4/4
f 2/33/5 1/34/6 6/35/7 5/36/8
f 3/2/9 2/5/10 8/9/11 7/6/12
f 4/13/13 6/14/14 22/15/15 24/16/16
f 5/17/17 4/13/18 12/20/19 11/21/20
f 7/6/21 9/10/22 14/11/23 13/7/24
f 9/39/25 8/38/26 11/37/27 10/40/28
f 10/23/29 12/20/30 18/19/31 17/24/32
f 13/7/33 15/12/34 20/8/35 19/3/36
f 15/41/37 14/42/38 17/43/39 16/44/40
f 16/22/41 18/19/42 24/16/43 23/18/44
f 21/47/45 20/46/46 23/45/47 22/48/48
f 2/33/49 5/36/50 11/37/51 8/38/52
f 9/25/53 10/26/54 17/27/55 14/28/56
f 15/41/57 16/44/58 23/45/59 20/46/60
f 21/29/61 22/30/62 6/31/63 1/32/64
f 4/13/65 24/16/66 18/19/67 12/20/68
f 19/3/69 3/2/70 7/6/71 13/7/72
f 1/1/73 2/5/74 3/2/75
f 4/13/76 5/17/77 6/14/78
f 7/6/79 8/9/80 9/10/81
f 10/23/82 11/21/83 12/20/84
f 13/7/85 14/11/86 15/12/87
f 16/22/88 17/24/89 18/19/90
f 19/3/91 20/8/92 21/4/93
f 22/15/94 23/18/95 24/16/96
