# This file uses centimeters as units for non-parametric coordinates.

mtllib celling.mtl
g default
v -15.555393 18.904115 15.510525
v 16.157364 18.904115 15.510525
v -15.555393 19.625157 15.510525
v 16.157364 19.625157 15.510525
v -15.555393 19.625157 -28.144809
v 16.157364 19.625157 -28.144809
v -15.555393 18.904115 -28.144809
v 16.157364 18.904115 -28.144809
vt 0.657035 0.452430
vt 0.657035 0.001811
vt 0.977242 0.001811
vt 0.977242 0.452430
vt 0.677803 0.907040
vt 0.677803 0.456421
vt 0.998008 0.456421
vt 0.998008 0.907040
vt 0.001992 0.001811
vt 0.322197 0.001811
vt 0.322197 0.452430
vt 0.001992 0.452430
vt 0.329611 0.001810
vt 0.649816 0.001810
vt 0.649816 0.452429
vt 0.329611 0.452429
vt 0.351463 0.456421
vt 0.671668 0.456421
vt 0.671668 0.776626
vt 0.351463 0.776626
vt 0.025123 0.456421
vt 0.345328 0.456421
vt 0.345328 0.776627
vt 0.025123 0.776627
vn 0.000000 0.000000 1.000000
vn 0.000000 0.000000 1.000000
vn 0.000000 0.000000 1.000000
vn 0.000000 0.000000 1.000000
vn 0.000000 1.000000 0.000000
vn 0.000000 1.000000 0.000000
vn 0.000000 1.000000 0.000000
vn 0.000000 1.000000 0.000000
vn 0.000000 0.000000 -1.000000
vn 0.000000 0.000000 -1.000000
vn 0.000000 0.000000 -1.000000
vn 0.000000 0.000000 -1.000000
vn 0.000000 -1.000000 0.000000
vn 0.000000 -1.000000 0.000000
vn 0.000000 -1.000000 0.000000
vn 0.000000 -1.000000 0.000000
vn 1.000000 0.000000 0.000000
vn 1.000000 0.000000 0.000000
vn 1.000000 0.000000 0.000000
vn 1.000000 0.000000 0.000000
vn -1.000000 0.000000 0.000000
vn -1.000000 0.000000 0.000000
vn -1.000000 0.000000 0.000000
vn -1.000000 0.000000 0.000000
s off
g pCube350
usemtl initialShadingGroup
f 1/17/1 2/18/2 4/19/3 3/20/4
f 3/9/5 4/10/6 6/11/7 5/12/8
f 5/21/9 6/22/10 8/23/11 7/24/12
f 7/13/13 8/14/14 2/15/15 1/16/16
f 2/1/17 8/2/18 6/3/19 4/4/20
f 7/5/21 1/6/22 3/7/23 5/8/24
