# This file uses centimeters as units for non-parametric coordinates.

mtllib wall.mtl
g default
v -14.820749 0.000000 13.775845
v 15.517412 0.000000 13.775845
v 15.517412 0.000000 -13.664733
v -4.857221 0.000000 -13.664733
v -14.820749 0.000000 -27.225830
v -4.857221 0.000000 -27.225830
v 15.517412 0.000000 -27.225830
v -5.385277 0.000000 -27.225830
v -5.385277 0.000000 -13.107811
v 15.517412 0.000000 -13.107811
v -14.820749 0.000000 15.502866
v 15.517412 0.000000 15.502866
v -14.820749 0.000000 -27.676850
v -5.385277 0.000000 -27.676850
v -4.857221 0.000000 -27.676850
v 15.517412 0.000000 -27.676850
v -15.432485 0.000000 13.775845
v -15.432485 0.000000 -27.225830
v 16.129147 0.000000 13.775845
v 16.129147 0.000000 -13.107811
v 16.129147 0.000000 -13.664733
v 16.129147 0.000000 -27.225830
v -15.432485 0.000000 15.502866
v 16.129147 0.000000 15.502866
v -15.432485 0.000000 -27.676850
v 16.129147 0.000000 -27.676850
v -5.385277 19.492367 -13.107811
v 15.517412 19.492367 -13.107811
v 15.517412 19.492367 -13.664733
v -4.857221 19.492367 -13.664733
v -4.857221 19.492367 -27.225830
v -5.385277 19.492367 -27.225830
v -14.820749 19.492367 13.775845
v 15.517412 19.492367 13.775845
v -14.820749 19.492367 15.502866
v 15.517412 19.492367 15.502866
v -14.820749 19.492367 -27.225830
v -5.385277 19.492369 -27.676850
v -14.820749 19.492367 -27.676850
v 15.517412 19.492367 -27.225830
v 15.517412 19.492367 -27.676850
v -4.857221 19.492369 -27.676850
v -15.432485 19.492367 -27.225830
v -15.432485 19.492367 13.775845
v 16.129147 19.492367 13.775845
v 16.129147 19.492367 -13.107811
v 16.129147 19.492367 -13.664733
v 16.129147 19.492367 -27.225830
v -15.432485 19.492367 15.502866
v 16.129147 19.492367 15.502866
v -15.432485 19.492367 -27.676850
v 16.129147 19.492367 -27.676850
v -7.011879 4.330830 13.775845
v 0.186829 4.330830 13.775845
v -7.011879 16.398088 13.775845
v 0.186829 16.398088 13.775845
v -7.011879 4.330830 15.502866
v 0.186829 4.330830 15.502866
v 0.186829 16.398088 15.502866
v -7.011879 16.398088 15.502866
v 16.129147 0.000000 -21.617237
v 16.129147 19.492367 -21.617237
v 15.517412 19.492367 -21.617237
v 15.517412 0.000000 -21.617237
v -4.857221 0.000000 -21.617237
v -4.857221 19.492367 -21.617237
v -5.385277 19.492367 -21.617237
v -5.385277 0.000000 -21.617237
v -14.820749 0.000000 -21.617177
v -14.820749 19.492367 -21.617177
v -15.432485 19.492367 -21.617177
v -15.432485 0.000000 -21.617177
v -15.432485 0.000000 -15.393337
v -15.432485 19.492367 -15.393337
v -14.820749 19.492367 -15.393337
v -14.820749 0.000000 -15.393337
v -5.385277 0.000000 -15.393424
v -5.385277 19.492367 -15.393424
v -4.857221 19.492367 -15.393426
v -4.857221 0.000000 -15.393426
v 15.517412 0.000000 -15.393426
v 15.517412 19.492367 -15.393426
v 16.129147 19.492367 -15.393426
v 16.129147 0.000000 -15.393426
v -5.385277 15.982983 -15.393424
v -5.385277 15.982983 -21.617237
v -5.385277 15.982983 -27.225830
v -14.820748 15.982983 -27.225830
v -14.820748 15.982983 -21.617177
v -14.820748 15.982983 -15.393337
v -14.820748 15.982983 13.775845
v -7.011879 15.982950 13.775845
v -7.011879 15.982950 15.502866
v -14.820748 15.982983 15.502866
v -15.432485 15.982983 15.502866
v -15.432485 15.982983 13.775845
v -15.432485 15.982983 -15.393337
v -15.432485 15.982983 -21.617177
v -15.432485 15.982983 -27.225830
v -15.432485 15.982983 -27.676850
v -14.820748 15.982983 -27.676850
v -5.385277 15.982982 -27.676850
v -4.857221 15.982982 -27.676850
v 15.517412 15.982983 -27.676850
v 16.129147 15.982983 -27.676850
v 16.129147 15.982983 -27.225830
v 16.129147 15.982983 -21.617237
v 16.129147 15.982983 -15.393424
v 16.129147 15.982983 -13.664733
v 16.129147 15.982983 -13.107811
v 16.129147 15.982983 13.775845
v 16.129147 15.982983 15.502866
v 15.517412 15.982983 15.502866
v 0.186829 15.982950 15.502866
v 0.186829 15.982950 13.775845
v 15.517412 15.982983 13.775845
v 15.517412 15.982983 -13.107811
v -5.385277 15.982983 -13.107811
v -4.857221 15.982982 -21.617237
v -4.857221 15.982982 -15.393426
v -4.857221 15.982982 -13.664733
v 15.517412 15.982993 -13.664733
v 15.517412 15.982993 -15.393426
v 15.517412 15.982993 -21.617237
v 15.517412 15.982993 -27.225830
v -4.857221 15.982993 -27.225830
vt 0.000000 0.000000
vt 1.000000 0.000000
vt 1.000000 1.000000
vt 1.000000 0.000000
vt 1.000000 1.000000
vt 0.000000 1.000000
vt 0.000000 0.000000
vt 1.000000 0.000000
vt 1.000000 1.000000
vt 0.000000 1.000000
vt 0.982055 1.000000
vt 0.982055 0.000000
vt 1.000000 0.982055
vt 0.000000 0.000000
vt 1.000000 0.000000
vt 1.000000 1.000000
vt 0.000000 1.000000
vt 0.000000 0.000000
vt 1.000000 0.000000
vt 1.000000 1.000000
vt 0.000000 1.000000
vt 0.000000 0.000000
vt 1.000000 0.000000
vt 1.000000 1.000000
vt 0.000000 1.000000
vt 0.000000 0.000000
vt 1.000000 0.000000
vt 1.000000 1.000000
vt 0.000000 1.000000
vt 0.000000 0.000000
vt 1.000000 0.000000
vt 1.000000 1.000000
vt 0.000000 1.000000
vt 0.000000 0.000000
vt 1.000000 0.000000
vt 1.000000 1.000000
vt 0.000000 1.000000
vt 0.000000 0.000000
vt 1.000000 0.000000
vt 1.000000 1.000000
vt 0.000000 1.000000
vt 0.000000 0.000000
vt 1.000000 0.000000
vt 1.000000 1.000000
vt 0.000000 1.000000
vt 0.000000 0.000000
vt 1.000000 0.000000
vt 1.000000 1.000000
vt 0.000000 1.000000
vt 0.000000 0.000000
vt 1.000000 0.000000
vt 1.000000 1.000000
vt 0.000000 1.000000
vt 0.000000 0.000000
vt 1.000000 0.000000
vt 1.000000 1.000000
vt 0.000000 1.000000
vt 0.000000 0.000000
vt 1.000000 0.000000
vt 1.000000 1.000000
vt 0.000000 1.000000
vt 0.982055 0.000000
vt 1.000000 0.982055
vt 1.000000 1.000000
vt 1.000000 0.000000
vt 1.000000 1.000000
vt 0.982055 1.000000
vt 0.000000 0.000000
vt 1.000000 0.000000
vt 1.000000 1.000000
vt 0.000000 1.000000
vt 0.000000 0.000000
vt 1.000000 0.000000
vt 1.000000 1.000000
vt 0.000000 1.000000
vt 0.000000 0.000000
vt 1.000000 0.000000
vt 1.000000 1.000000
vt 0.000000 1.000000
vt 1.000000 1.000000
vt 0.000000 1.000000
vt 0.000000 0.000000
vt 1.000000 0.000000
vt 1.000000 1.000000
vt 0.000000 1.000000
vt 0.000000 0.000000
vt 1.000000 0.000000
vt 1.000000 1.000000
vt 0.000000 1.000000
vt 0.000000 0.000000
vt 1.000000 0.000000
vt 1.000000 1.000000
vt 0.000000 1.000000
vt 1.000000 1.000000
vt 0.000000 1.000000
vt 1.000000 1.000000
vt 0.000000 1.000000
vt 0.000000 0.000000
vt 1.000000 0.000000
vt 1.000000 1.000000
vt 0.000000 1.000000
vt 1.000000 0.000000
vt 1.000000 1.000000
vt 0.000000 1.000000
vt 1.000000 1.000000
vt 0.000000 1.000000
vt 0.000000 0.000000
vt 0.000000 0.000000
vt 1.000000 0.000000
vt 1.000000 0.000000
vt 0.000000 0.000000
vt 1.000000 1.000000
vt 0.000000 1.000000
vt 0.000000 1.000000
vt 1.000000 1.000000
vt 0.240772 1.000000
vt 0.240772 1.000000
vt 0.240772 0.000000
vt 1.000000 0.759228
vt 0.240772 0.000000
vt 1.000000 0.759228
vt 0.000000 0.759228
vt 1.000000 0.759228
vt 0.982055 0.759228
vt 0.982055 0.759228
vt 0.759228 0.000000
vt 0.000000 0.759228
vt 0.759228 0.000000
vt 0.759228 1.000000
vt 0.759228 1.000000
vt 0.293874 1.000000
vt 0.293874 1.000000
vt 0.293874 0.000000
vt 0.293874 0.000000
vt 0.000000 0.293874
vt 0.982055 0.293874
vt 0.982055 0.293874
vt 1.000000 0.293874
vt 1.000000 0.293874
vt 0.000000 0.293874
vt 1.000000 0.293874
vt 0.706126 0.000000
vt 0.706126 0.000000
vt 0.706126 1.000000
vt 0.706126 1.000000
vt 0.982055 0.293874
vt 0.982055 0.759228
vt 1.000000 0.000000
vt 0.982055 1.000000
vt 1.000000 0.000000
vt 0.000000 0.000000
vt 0.759228 0.000000
vt 0.293874 0.000000
vt 1.000000 0.000000
vt 0.000000 0.000000
vt 1.000000 0.000000
vt 1.000000 1.000000
vt 0.000000 0.000000
vt 1.000000 1.000000
vt 0.000000 1.000000
vt 0.000000 1.000000
vt 1.000000 1.000000
vt 0.293874 1.000000
vt 0.759228 1.000000
vt 0.000000 1.000000
vt 1.000000 1.000000
vt 1.000000 1.000000
vt 0.000000 1.000000
vt 1.000000 0.000000
vt 0.000000 1.000000
vt 1.000000 1.000000
vt 0.000000 1.000000
vt 1.000000 1.000000
vt 0.000000 0.000000
vt 1.000000 1.000000
vt 0.000000 1.000000
vt 0.000000 1.000000
vt 1.000000 1.000000
vt 0.240772 1.000000
vt 0.706126 1.000000
vt 0.000000 1.000000
vt 1.000000 1.000000
vt 0.000000 1.000000
vt 1.000000 1.000000
vt 0.000000 1.000000
vt 1.000000 1.000000
vt 1.000000 1.000000
vt 0.000000 1.000000
vt 1.000000 0.000000
vt 0.000000 1.000000
vt 0.000000 0.000000
vt 1.000000 0.000000
vt 0.000000 0.000000
vt 1.000000 0.982055
vt 0.000000 0.000000
vt 0.982055 0.000000
vt 1.000000 0.759228
vt 1.000000 0.293874
vt 1.000000 0.000000
vt 1.000000 0.000000
vt 1.000000 1.000000
vt 0.706126 0.000000
vt 0.240772 0.000000
vt 1.000000 0.000000
vt 0.000000 0.000000
vt 1.000000 1.000000
vt 0.000000 0.000000
vn 0.000000 1.000000 0.000003
vn 0.000000 1.000000 0.000001
vn 0.000000 1.000000 0.000003
vn 0.000000 1.000000 0.000003
vn 0.000000 1.000000 0.000000
vn 0.000000 1.000000 0.000000
vn 0.000000 1.000000 0.000000
vn 0.000000 1.000000 0.000000
vn 0.000000 1.000000 0.000000
vn 0.000000 1.000000 0.000000
vn 0.000000 1.000000 0.000000
vn 0.000000 1.000000 0.000000
vn 0.000000 1.000000 0.000000
vn 0.000000 1.000000 0.000000
vn 0.000000 1.000000 0.000000
vn 0.000000 1.000000 0.000000
vn 0.000000 1.000000 0.000000
vn 0.000000 1.000000 0.000000
vn 0.000000 1.000000 0.000000
vn 0.000000 1.000000 0.000000
vn 0.000000 1.000000 0.000000
vn 0.000000 1.000000 0.000000
vn 0.000000 1.000000 0.000000
vn 0.000000 1.000000 0.000000
vn -0.000000 1.000000 0.000000
vn -0.000000 1.000000 0.000000
vn -0.000000 1.000000 0.000000
vn -0.000000 1.000000 0.000000
vn 0.000000 1.000000 0.000000
vn 0.000000 1.000000 0.000000
vn 0.000000 1.000000 0.000000
vn 0.000000 1.000000 0.000000
vn 0.000000 1.000000 0.000000
vn 0.000000 1.000000 0.000000
vn 0.000000 1.000000 0.000000
vn 0.000000 1.000000 0.000000
vn 0.000000 1.000000 0.000000
vn 0.000000 1.000000 0.000000
vn 0.000000 1.000000 0.000000
vn 0.000000 1.000000 0.000000
vn 0.000000 1.000000 0.000000
vn 0.000000 1.000000 0.000000
vn 0.000000 1.000000 0.000000
vn 0.000000 1.000000 0.000000
vn 0.000000 1.000000 0.000000
vn 0.000000 1.000000 0.000000
vn 0.000000 1.000000 0.000000
vn 0.000000 1.000000 0.000000
vn 0.000000 1.000000 0.000000
vn 0.000000 1.000000 0.000000
vn 0.000000 0.000000 1.000000
vn 0.000000 0.000000 1.000000
vn 0.000000 0.000000 1.000000
vn 0.000000 0.000000 1.000000
vn 0.000000 0.000000 -1.000000
vn 0.000000 0.000000 -1.000000
vn 0.000000 0.000000 -1.000000
vn 0.000000 0.000000 -1.000000
vn 0.000000 0.000000 1.000000
vn 0.000000 0.000000 1.000000
vn 0.000000 0.000000 1.000000
vn 0.000000 0.000000 1.000000
vn 0.000000 0.000000 -1.000000
vn 0.000000 0.000000 -1.000000
vn 0.000000 0.000000 -1.000000
vn 0.000000 0.000000 -1.000000
vn 0.000000 0.000000 1.000000
vn 0.000000 0.000000 1.000000
vn 0.000000 0.000000 1.000000
vn 0.000000 0.000000 1.000000
vn 0.000000 0.000000 -1.000000
vn 0.000000 0.000000 -1.000000
vn -0.000000 0.000000 -1.000000
vn -0.000000 0.000000 -1.000000
vn 1.000000 -0.000000 0.000000
vn 1.000000 -0.000000 0.000000
vn 1.000000 -0.000000 0.000000
vn 1.000000 0.000000 0.000000
vn -1.000000 0.000000 0.000000
vn -1.000000 0.000000 0.000000
vn -1.000000 0.000000 0.000000
vn -1.000000 0.000000 0.000000
vn -1.000000 0.000000 0.000000
vn -1.000000 0.000000 0.000000
vn -1.000000 0.000000 0.000000
vn -1.000000 0.000000 0.000000
vn 1.000000 0.000000 0.000000
vn 1.000000 0.000000 0.000000
vn 1.000000 0.000000 0.000000
vn 1.000000 0.000000 0.000000
vn -1.000000 0.000000 0.000000
vn -1.000000 0.000000 0.000000
vn -1.000000 0.000000 0.000000
vn -1.000000 0.000000 0.000000
vn 1.000000 0.000000 0.000000
vn 1.000000 0.000000 0.000000
vn 1.000000 0.000000 0.000000
vn 1.000000 0.000000 0.000000
vn 1.000000 0.000000 0.000000
vn 1.000000 0.000000 0.000000
vn -1.000000 0.000000 0.000000
vn -1.000000 0.000000 0.000000
vn -1.000000 0.000000 0.000000
vn -1.000000 0.000000 0.000000
vn 0.000000 0.000000 1.000000
vn -0.000000 0.000000 1.000000
vn -0.000000 0.000000 1.000000
vn 0.000000 0.000000 1.000000
vn 0.000000 0.000000 1.000000
vn 0.000000 0.000000 1.000000
vn 0.000000 0.000000 1.000000
vn 0.000000 0.000000 1.000000
vn 1.000000 0.000000 0.000000
vn 1.000000 0.000000 0.000000
vn 0.000000 0.000000 -1.000000
vn 0.000000 0.000000 -1.000000
vn -1.000000 0.000000 0.000000
vn -1.000000 0.000000 0.000000
vn -1.000000 0.000000 0.000000
vn -1.000000 0.000000 0.000000
vn 1.000000 0.000000 0.000000
vn 1.000000 0.000000 0.000000
vn 1.000000 0.000000 0.000000
vn 1.000000 0.000000 0.000000
vn 0.000000 0.000000 -1.000000
vn 0.000000 0.000000 -1.000000
vn 0.000000 0.000000 -1.000000
vn 0.000000 0.000000 -1.000000
vn 0.000000 0.000000 -1.000000
vn 0.000000 0.000000 -1.000000
vn 0.000000 0.000000 -1.000000
vn 0.000000 0.000000 -1.000000
vn 0.000000 0.000000 -1.000000
vn 0.000000 0.000000 -1.000000
vn 0.000000 0.000000 -1.000000
vn 0.000000 0.000000 -1.000000
vn 0.000000 0.000000 -1.000000
vn 0.000000 0.000000 -1.000000
vn 0.000000 0.000000 -1.000000
vn 0.000000 0.000000 -1.000000
vn 0.000000 0.000000 -1.000000
vn 0.000000 0.000000 -1.000000
vn 0.000000 0.000000 1.000000
vn 0.000000 0.000000 1.000000
vn 0.000000 0.000000 1.000000
vn 0.000000 0.000000 1.000000
vn 0.000000 0.000000 1.000000
vn 0.000000 0.000000 1.000000
vn 0.000000 0.000000 1.000000
vn 0.000000 0.000000 1.000000
vn 0.000000 0.000000 1.000000
vn 0.000000 0.000000 1.000000
vn -0.000000 0.000000 1.000000
vn -0.000000 0.000000 1.000000
vn 0.000000 1.000000 0.000000
vn 0.000000 1.000000 0.000000
vn 0.000000 1.000000 0.000000
vn 0.000000 1.000000 0.000000
vn 1.000000 0.000000 0.000000
vn 1.000000 0.000000 0.000000
vn 1.000000 0.000000 0.000000
vn 1.000000 0.000000 0.000000
vn 0.000000 -1.000000 0.000000
vn 0.000000 -1.000000 0.000000
vn 0.000000 -1.000000 0.000000
vn 0.000000 -1.000000 0.000000
vn -1.000000 0.000000 0.000000
vn -1.000000 0.000000 0.000000
vn -1.000000 0.000000 0.000000
vn -1.000000 0.000000 0.000000
vn -1.000000 0.000000 0.000000
vn -1.000000 0.000000 0.000000
vn 0.000000 1.000000 0.000000
vn 0.000000 1.000000 0.000000
vn 1.000000 0.000000 0.000000
vn 1.000000 0.000000 0.000000
vn 1.000000 0.000000 0.000000
vn 1.000000 0.000000 0.000000
vn -1.000000 0.000000 0.000000
vn -1.000000 0.000000 0.000000
vn -1.000000 0.000000 0.000000
vn -1.000000 0.000000 0.000000
vn 0.000000 1.000000 0.000000
vn 0.000000 1.000000 0.000000
vn 1.000000 -0.000000 0.000000
vn 1.000000 -0.000000 0.000000
vn 1.000000 0.000000 0.000000
vn 1.000000 -0.000000 0.000000
vn -1.000000 0.000000 0.000000
vn -1.000000 0.000000 0.000000
vn -1.000000 0.000000 0.000000
vn -1.000000 0.000000 0.000000
vn 1.000000 0.000000 0.000000
vn 1.000000 0.000000 0.000000
vn 1.000000 0.000000 0.000000
vn 1.000000 0.000000 0.000000
vn 0.000000 1.000000 0.000000
vn 0.000000 1.000000 0.000000
vn -1.000000 0.000000 0.000000
vn -1.000000 0.000000 0.000000
vn -1.000000 0.000000 0.000000
vn -1.000000 0.000000 0.000000
vn -1.000000 0.000000 0.000000
vn 0.000000 0.000000 1.000000
vn 0.000000 0.000000 1.000000
vn 1.000000 0.000000 0.000000
vn 1.000000 0.000000 0.000000
vn 1.000000 0.000000 0.000000
vn 1.000000 0.000000 0.000000
vn 0.000000 0.000000 -1.000000
vn 0.000000 0.000000 -1.000000
vn 1.000000 0.000000 0.000000
vn 1.000000 0.000000 0.000000
vn 0.000000 0.000000 1.000000
vn 0.000000 0.000000 1.000000
vn 0.000000 0.000000 1.000000
vn -1.000000 0.000000 0.000000
vn -1.000000 0.000000 0.000000
vn -1.000000 0.000000 0.000000
vn -1.000000 0.000000 0.000000
vn -1.000000 0.000000 0.000000
vn -1.000000 0.000000 0.000000
vn 0.000000 0.000000 -1.000000
vn 0.000000 0.000000 -1.000000
vn 0.000000 0.000000 -1.000000
vn -0.000000 0.000000 -1.000000
vn -0.000000 0.000000 -1.000000
vn 0.000000 0.000000 -1.000000
vn 1.000000 0.000000 0.000000
vn 1.000000 0.000000 0.000000
vn 1.000000 -0.000000 0.000000
vn 1.000000 -0.000000 0.000000
vn 1.000000 0.000000 0.000000
vn 1.000000 0.000000 0.000000
vn 1.000000 0.000000 0.000000
vn 1.000000 0.000000 0.000000
vn 0.000000 0.000000 1.000000
vn -0.000000 0.000000 1.000000
vn -0.000000 0.000000 1.000000
vn -1.000000 0.000000 0.000000
vn -1.000000 0.000000 0.000000
vn 0.000000 0.000000 -1.000000
vn 0.000000 0.000000 -1.000000
vn -1.000000 0.000000 0.000000
vn -1.000000 0.000000 0.000000
vn 0.000000 0.000000 1.000000
vn 0.000000 0.000000 1.000000
vn -1.000000 0.000000 0.000000
vn 1.000000 0.000000 0.000000
vn 1.000000 0.000000 0.000000
vn 1.000000 0.000000 0.000000
vn 0.000000 0.000000 -1.000000
vn 0.000000 0.000000 -1.000000
vn -1.000000 0.000000 0.000000
vn -1.000000 0.000000 0.000000
vn -1.000000 0.000000 0.000000
vn -1.000000 0.000000 0.000000
vn 0.000000 0.000000 1.000000
vn 0.000000 0.000000 1.000000
vn 1.000000 0.000000 0.000000
vn -0.000004 -1.000000 0.000000
vn -0.000004 -1.000000 0.000000
vn -0.000004 -1.000000 0.000000
vn -0.000004 -1.000000 0.000000
vn -0.000005 0.000000 -1.000000
vn -0.000005 0.000000 -1.000000
vn -0.000005 0.000000 -1.000000
vn -0.000005 0.000000 -1.000000
vn 0.000000 1.000000 0.000000
vn 0.000000 1.000000 0.000000
vn 0.000000 1.000000 0.000000
vn 0.000000 1.000000 0.000000
vn 0.000000 0.000000 1.000000
vn 0.000000 0.000000 1.000000
vn 0.000000 0.000000 1.000000
vn 0.000000 0.000000 1.000000
s 1
g pPlane45
usemtl initialShadingGroup
f 27/62/1 28/63/2 29/64/3 30/65/4
s 2
f 80/140/5 81/141/6 64/119/7 65/122/8
s 1
f 78/137/9 79/138/10 66/123/11 67/124/12
s 3
f 76/135/13 77/136/14 68/125/15 69/127/16
f 1/1/17 2/2/18 10/13/19 9/12/20
s 1
f 34/68/21 33/69/22 35/70/23 36/71/24
f 37/72/25 32/73/26 38/74/27 39/75/28
f 31/76/29 40/77/30 41/78/31 42/79/32
f 32/26/26 31/27/29 42/80/32 38/81/27
f 75/133/33 70/128/34 71/129/35 74/132/36
f 28/86/2 34/87/21 45/88/37 46/89/38
f 63/118/39 82/143/40 83/144/41 62/117/42
f 29/42/3 28/43/2 46/94/38 47/95/43
f 35/98/23 33/47/22 44/96/44 49/97/45
f 34/50/21 36/99/24 50/100/46 45/101/37
f 37/54/25 39/102/28 51/103/47 43/104/48
f 41/107/31 40/59/30 48/105/49 52/106/50
s 9
f 9/12/51 10/13/52 117/194/53 118/196/54
s 10
f 3/3/55 4/4/56 121/199/57 122/201/58
s 11
f 5/18/59 8/19/60 87/148/61 88/151/62
s 12
f 14/20/63 13/21/64 101/168/65 102/171/66
s 13
f 6/22/67 7/23/68 125/204/69 126/207/70
s 12
f 16/24/71 15/25/72 103/172/73 104/175/74
f 15/28/72 14/29/63 102/170/66 103/173/73
s 14
f 76/134/75 69/126/76 89/152/77 90/153/78
s 15
f 72/130/79 73/131/80 97/163/81 98/164/82
s 16
f 10/34/83 2/35/84 116/192/85 117/195/86
s 17
f 19/36/87 20/37/88 110/183/89 111/186/90
s 18
f 64/120/91 81/142/92 123/202/93 124/203/94
s 17
f 84/145/95 61/116/96 107/179/97 108/180/98
f 20/44/88 21/45/99 109/181/100 110/184/89
s 15
f 17/48/101 23/49/102 95/160/103 96/162/104
s 21
f 23/49/105 11/46/106 94/158/107 95/160/108
s 22
f 12/51/109 24/52/110 112/187/111 113/189/112
s 17
f 24/52/113 19/53/87 111/185/90 112/187/114
s 12
f 13/55/64 25/56/115 100/167/116 101/169/65
s 15
f 25/56/117 18/57/118 99/165/119 100/167/120
s 17
f 22/60/121 26/61/122 105/176/123 106/178/124
s 12
f 26/61/125 16/58/71 104/174/74 105/176/126
s off
f 2/14/127 1/15/128 53/109/129 54/108/130
s 24
f 1/15/131 91/154/132 92/156/133 53/109/134
s off
f 33/69/135 34/68/136 56/111/137 55/110/138
s 25
f 116/193/139 2/14/140 54/108/141 115/191/142
s off
f 11/16/143 12/17/144 58/113/145 57/112/146
s 22
f 12/17/109 113/188/112 114/190/147 58/113/148
s off
f 36/71/149 35/70/150 60/115/151 59/114/152
s 21
f 94/159/107 11/16/106 57/112/153 93/157/154
s off
f 54/108/155 53/109/156 57/112/157 58/113/158
s 26
f 53/109/159 92/156/160 93/157/161 57/112/162
s off
f 55/110/163 56/111/164 59/114/165 60/115/166
s 27
f 115/191/167 54/108/168 58/113/169 114/190/170
s 17
f 61/116/96 22/41/121 106/177/124 107/179/97
s 1
f 40/90/30 63/118/39 62/117/42 48/93/49
s 18
f 7/38/171 64/120/91 124/203/94 125/205/172
s 2
f 65/122/8 64/119/7 7/9/173 6/10/174
s 28
f 126/206/175 119/197/176 65/121/177 6/5/178
s 1
f 67/124/12 66/123/11 31/66/29 32/67/26
s 29
f 8/11/179 68/125/180 86/147/181 87/149/182
s 3
f 69/127/16 68/125/15 8/11/183 5/6/184
s 14
f 89/152/77 69/126/76 5/31/185 88/150/186
s 1
f 71/129/35 70/128/34 37/83/25 43/84/48
s 15
f 18/32/118 72/130/79 98/164/82 99/166/119
f 73/131/80 17/33/101 96/161/104 97/163/81
s 1
f 44/85/44 33/82/22 75/133/33 74/132/36
s 14
f 90/153/78 91/155/187 1/30/188 76/134/75
s 29
f 118/196/189 85/146/190 77/136/191 9/12/192
s 1
f 27/62/1 30/65/4 79/138/10 78/137/9
s 28
f 4/4/193 80/139/194 120/198/195 121/199/196
s 2
f 4/7/197 3/8/198 81/141/6 80/140/5
s 18
f 123/202/93 81/142/92 3/39/199 122/200/200
s 1
f 83/144/41 82/143/40 29/91/3 47/92/43
s 17
f 21/40/99 84/145/95 108/180/98 109/182/100
s 29
f 86/147/181 85/146/190 78/137/201 67/124/202
f 87/149/182 86/147/181 67/124/202 32/67/203
s 11
f 88/151/62 87/148/61 32/73/204 37/72/205
s 14
f 70/128/206 89/152/77 88/150/186 37/83/207
f 90/153/78 89/152/77 70/128/206 75/133/208
f 33/82/209 91/155/187 90/153/78 75/133/208
s 24
f 92/156/133 91/154/132 33/69/210 55/110/211
s 26
f 93/157/161 92/156/160 55/110/212 60/115/213
s 21
f 35/70/214 94/159/107 93/157/154 60/115/215
f 95/160/108 94/158/107 35/98/214 49/97/216
s 15
f 96/162/104 95/160/103 49/97/217 44/96/218
f 96/161/104 44/85/218 74/132/219 97/163/81
f 98/164/82 97/163/81 74/132/219 71/129/220
f 99/166/119 98/164/82 71/129/220 43/84/221
f 100/167/120 99/165/119 43/104/221 51/103/222
s 12
f 101/169/65 100/167/116 51/103/223 39/102/224
f 102/171/66 101/168/65 39/75/224 38/74/225
f 103/173/73 102/170/66 38/81/225 42/80/226
f 104/175/74 103/172/73 42/79/226 41/78/227
f 105/176/126 104/174/74 41/107/227 52/106/228
s 17
f 106/178/124 105/176/123 52/106/229 48/105/230
f 107/179/97 106/177/124 48/93/230 62/117/231
f 108/180/98 107/179/97 62/117/231 83/144/232
f 109/182/100 108/180/98 83/144/232 47/92/233
f 110/184/89 109/181/100 47/95/233 46/94/234
f 111/186/90 110/183/89 46/89/234 45/88/235
f 112/187/114 111/185/90 45/101/235 50/100/236
s 22
f 113/189/112 112/187/111 50/100/237 36/99/238
f 114/190/147 113/188/112 36/71/238 59/114/239
s 27
f 56/111/240 115/191/167 114/190/170 59/114/241
s 25
f 34/68/242 116/193/139 115/191/142 56/111/243
s 16
f 117/195/86 116/192/85 34/87/244 28/86/245
s 9
f 118/196/54 117/194/53 28/63/246 27/62/247
s 29
f 78/137/201 85/146/190 118/196/189 27/62/248
s 28
f 120/198/195 119/197/176 66/123/249 79/138/250
f 121/199/196 120/198/195 79/138/250 30/65/251
s 10
f 122/201/58 121/199/57 30/65/252 29/64/253
s 18
f 82/143/254 123/202/93 122/200/200 29/91/255
f 124/203/94 123/202/93 82/143/254 63/118/256
f 125/205/172 124/203/94 63/118/256 40/90/257
s 13
f 126/207/70 125/204/69 40/77/258 31/76/259
s 28
f 66/123/249 119/197/176 126/206/175 31/66/260
s off
f 119/197/261 120/198/262 85/146/263 86/147/264
f 120/198/265 80/139/266 77/136/267 85/146/268
f 80/140/269 65/122/270 68/125/271 77/136/272
f 65/121/273 119/197/274 86/147/275 68/125/276
s 3
f 1/1/17 9/12/20 77/136/14 76/135/13
