# This file uses centimeters as units for non-parametric coordinates.

mtllib log.mtl
g default
v 4.056307 0.177568 -2.470006
v 3.915946 0.204866 -2.513714
v 3.807422 0.302012 -2.547508
v 3.766513 0.434168 -2.583850
v 4.309712 0.488105 -2.391098
v 4.283648 0.341096 -2.399214
v 4.190896 0.227432 -2.428096
v 4.287028 0.192408 -3.246364
v 4.161263 0.229379 -3.285527
v 4.034353 0.298354 -3.325046
v 4.011235 0.466010 -3.332245
v 4.562820 0.476078 -3.160484
v 4.525583 0.315819 -3.172079
v 4.424924 0.215855 -3.203424
v 4.517179 0.177616 -4.022900
v 4.382803 0.228104 -4.064743
v 4.290533 0.342198 -4.093476
v 4.249417 0.489326 -4.051063
v 4.814794 0.441643 -3.930224
v 4.766589 0.300903 -3.945235
v 4.657655 0.204263 -3.979156
vt 0.560656 0.613817
vt 0.468260 0.612953
vt 0.978022 0.613904
vt 0.891094 0.617809
vt 0.796614 0.615392
vt 0.789977 0.311983
vt 0.469616 0.309329
vt 0.557375 0.310240
vt 0.890836 0.599936
vt 0.892925 0.314514
vt 0.702079 0.613490
vt 0.700074 0.310381
vt 0.375623 0.610975
vt 0.374469 0.307989
vt 0.891778 0.304495
vt 0.788487 0.008743
vt 0.881327 0.010899
vt 0.653258 0.614358
vt 0.997979 0.311469
vt 0.897601 0.020683
vt 0.992381 0.007105
vt 0.420869 0.704051
vt 0.492079 0.643444
vt 0.584101 0.626608
vt 0.549467 0.987144
vt 0.466420 0.955697
vt 0.406121 0.884158
vt 0.389450 0.792123
vt 0.003287 0.788621
vt 0.037839 0.701479
vt 0.111456 0.642719
vt 0.207691 0.631235
vt 0.158472 0.989958
vt 0.073225 0.954612
vt 0.016361 0.881092
vt 0.650257 0.311132
vt 0.464767 0.005731
vt 0.556455 0.007133
vt 0.372185 0.003208
vt 0.741118 0.312897
vt 0.648549 0.008215
vt 0.741389 0.009695
vt 0.375773 0.609807
vt 0.013677 0.610005
vt 0.012373 0.306611
vt 0.373739 0.314601
vt 0.010678 0.002652
vt 0.371824 0.030853
vn 0.077796 -0.996966 -0.002624
vn -0.387143 -0.912260 -0.133796
vn -0.355839 -0.925172 -0.132042
vn -0.355839 -0.925172 -0.132042
vn -0.050479 -0.998667 -0.010749
vn 0.077796 -0.996966 -0.002624
vn -0.387143 -0.912260 -0.133796
vn -0.787934 -0.564532 -0.245892
vn -0.773224 -0.575990 -0.265255
vn -0.773224 -0.575990 -0.265255
vn -0.355839 -0.925172 -0.132042
vn -0.387143 -0.912260 -0.133796
vn -0.787934 -0.564532 -0.245892
vn -0.883248 -0.357005 -0.304008
vn -0.940117 -0.162200 -0.299787
vn -0.940117 -0.162200 -0.299787
vn -0.773224 -0.575990 -0.265255
vn -0.787934 -0.564532 -0.245892
vn 0.933736 -0.193933 0.300876
vn 0.858655 -0.432613 0.274876
vn 0.821265 -0.502874 0.269522
vn 0.821265 -0.502874 0.269522
vn 0.921082 -0.246122 0.301713
vn 0.933736 -0.193933 0.300876
vn 0.858655 -0.432613 0.274876
vn 0.532692 -0.831202 0.159193
vn 0.424970 -0.893330 0.146158
vn 0.424970 -0.893330 0.146158
vn 0.821265 -0.502874 0.269522
vn 0.858655 -0.432613 0.274876
vn 0.532692 -0.831202 0.159193
vn 0.077796 -0.996966 -0.002624
vn -0.050479 -0.998667 -0.010749
vn -0.050479 -0.998667 -0.010749
vn 0.424970 -0.893330 0.146158
vn 0.532692 -0.831202 0.159193
vn -0.050479 -0.998667 -0.010749
vn -0.355839 -0.925172 -0.132042
vn -0.549385 -0.822057 -0.149660
vn -0.549385 -0.822057 -0.149660
vn -0.088919 -0.996000 -0.008806
vn -0.050479 -0.998667 -0.010749
vn -0.355839 -0.925172 -0.132042
vn -0.773224 -0.575990 -0.265255
vn -0.842691 -0.462996 -0.274785
vn -0.842691 -0.462996 -0.274785
vn -0.549385 -0.822057 -0.149660
vn -0.355839 -0.925172 -0.132042
vn -0.773224 -0.575990 -0.265255
vn -0.940117 -0.162200 -0.299787
vn -0.933485 -0.163045 -0.319409
vn -0.933485 -0.163045 -0.319409
vn -0.842691 -0.462996 -0.274785
vn -0.773224 -0.575990 -0.265255
vn 0.921082 -0.246122 0.301713
vn 0.821265 -0.502874 0.269522
vn 0.782414 -0.564096 0.263863
vn 0.782414 -0.564096 0.263863
vn 0.890035 -0.337529 0.306451
vn 0.921082 -0.246122 0.301713
vn 0.821265 -0.502874 0.269522
vn 0.424970 -0.893330 0.146158
vn 0.404476 -0.903892 0.139206
vn 0.404476 -0.903892 0.139206
vn 0.782414 -0.564096 0.263863
vn 0.821265 -0.502874 0.269522
vn 0.424970 -0.893330 0.146158
vn -0.050479 -0.998667 -0.010749
vn -0.088919 -0.996000 -0.008806
vn -0.088919 -0.996000 -0.008806
vn 0.404476 -0.903892 0.139206
vn 0.424970 -0.893330 0.146158
vn -0.329354 0.018571 0.944024
vn -0.335060 0.007388 0.942168
vn -0.271663 0.092749 0.957913
vn -0.271663 0.092749 0.957913
vn -0.087270 0.238934 0.967106
vn -0.257679 0.125125 0.958095
vn -0.271663 0.092749 0.957913
vn -0.257679 0.125125 0.958095
vn -0.315087 0.055719 0.947426
vn -0.329354 0.018571 0.944024
vn -0.271663 0.092749 0.957913
vn -0.315087 0.055719 0.947426
vn -0.297314 -0.000000 0.954780
vn -0.329354 0.018571 0.944024
vn -0.315087 0.055719 0.947426
vn 0.321239 0.172840 -0.931092
vn 0.662838 0.372478 -0.649543
vn 0.353643 0.203210 -0.913040
vn 0.353643 0.203210 -0.913040
vn 0.211467 0.031759 -0.976869
vn 0.239152 0.056130 -0.969359
vn 0.321239 0.172840 -0.931092
vn 0.353643 0.203210 -0.913040
vn 0.239152 0.056130 -0.969359
vn 0.321239 0.172840 -0.931092
vn 0.239152 0.056130 -0.969359
vn 0.297314 0.000000 -0.954780
vn 0.297314 0.000000 -0.954780
vn 0.321239 0.172840 -0.931092
vn 0.297314 0.000000 -0.954780
vn -0.012137 0.999734 -0.019621
vn -0.012137 0.999734 -0.019621
vn -0.012137 0.999734 -0.019621
vn -0.101961 0.994748 0.008983
vn 0.071984 0.995824 0.056153
vn 0.071984 0.995824 0.056153
vn 0.071984 0.995824 0.056153
vn -0.003918 0.998935 -0.045969
s off
g Cylinder001
usemtl Cylinder001SG
f 1/1/1 2/2/2 9/7/3
f 9/7/4 8/8/5 1/1/6
f 2/2/7 3/13/8 10/14/9
f 10/14/10 9/7/11 2/2/12
f 3/3/13 4/9/14 11/15/15
f 11/15/16 10/19/17 3/3/18
f 5/4/19 6/5/20 13/6/21
f 13/6/22 12/10/23 5/4/24
f 6/5/25 7/11/26 14/12/27
f 14/12/28 13/6/29 6/5/30
f 7/18/31 1/1/32 8/8/33
f 8/8/34 14/36/35 7/18/36
f 8/8/37 9/7/38 16/37/39
f 16/37/40 15/38/41 8/8/42
f 9/7/43 10/14/44 17/39/45
f 17/39/46 16/37/47 9/7/48
f 10/19/49 11/15/50 18/20/51
f 18/20/52 17/21/53 10/19/54
f 12/10/55 13/6/56 20/16/57
f 20/16/58 19/17/59 12/10/60
f 13/40/61 14/36/62 21/41/63
f 21/41/64 20/42/65 13/40/66
f 14/36/67 8/8/68 15/38/69
f 15/38/70 21/41/71 14/36/72
f 6/23/73 5/24/74 4/25/75
f 4/25/76 3/26/77 2/27/78
f 4/25/79 2/27/80 1/28/81
f 6/23/82 4/25/83 1/28/84
f 7/22/85 6/23/86 1/28/87
f 16/30/88 17/31/89 18/32/90
f 18/32/91 19/33/92 20/34/93
f 16/30/94 18/32/95 20/34/96
f 16/30/97 20/34/98 21/35/99
f 15/29/100 16/30/101 21/35/102
f 5/44/103 12/45/104 11/46/105 4/43/106
f 19/47/107 18/48/108 11/46/109 12/45/110
