# This file uses centimeters as units for non-parametric coordinates.

mtllib shelf.mtl
g default
v 1.411839 3.099176 1.282123
v 0.354273 3.099176 1.284283
v 0.354273 1.140319 1.284283
v 1.411839 1.140319 1.282123
v 1.411991 3.099176 1.356463
v 0.354425 3.099176 1.358623
v 0.354425 1.140319 1.358623
v 1.411991 1.140319 1.356463
v 2.405657 3.099176 1.280093
v 1.426732 3.099176 1.282092
v 1.426732 1.140319 1.282092
v 2.405657 1.140319 1.280093
v 2.405809 3.099176 1.354433
v 1.426884 3.099176 1.356433
v 1.426884 1.140319 1.356432
v 2.405809 1.140319 1.354433
v 3.646183 3.105886 1.310965
v -0.797475 3.105886 1.320041
v -0.797475 3.031546 1.320041
v 3.646183 3.031546 1.310965
v 3.647701 3.105886 1.939090
v -0.795957 3.105886 1.948166
v -0.795957 3.031546 1.948166
v 3.647701 3.031546 1.939090
v 3.646183 1.213052 1.310966
v -0.797475 1.213052 1.320041
v -0.797475 1.138711 1.320041
v 3.646183 1.138711 1.310966
v 3.647701 1.213052 1.939090
v -0.795957 1.213052 1.948166
v -0.795957 1.138711 1.948166
v 3.647701 1.138711 2.054368
v -0.838591 0.236469 1.274349
v -0.838591 0.236469 1.332420
v -0.838591 4.156508 1.274349
v -0.838591 4.156508 1.332420
v 3.707066 4.156508 1.274349
v 3.707066 4.156508 1.332420
v 3.707066 0.236469 1.274349
v 3.707066 0.236469 1.332420
v 3.720524 4.161032 1.310814
v -0.871815 4.161032 1.320193
v -0.871815 0.177875 1.320193
v 3.720524 0.177875 1.310814
v 3.722042 4.161032 2.054216
v -0.870297 4.161032 2.063596
v -0.870297 0.177875 2.063596
v 3.722042 0.177875 2.054216
v 3.646183 0.252215 1.310965
v -0.797475 0.252215 1.320041
v -0.797474 4.086692 1.320041
v 3.646183 4.086692 1.310966
v 3.647701 0.252215 2.054368
v -0.795957 0.252215 2.063444
v -0.795956 4.086692 2.063444
v 3.647701 4.086692 2.054368
v 2.411782 0.252215 1.313487
v 2.411782 4.089172 1.313487
v 2.337442 4.089172 1.313639
v 2.337442 0.252215 1.313638
v 2.413300 0.252215 2.056889
v 2.413300 4.089172 2.056889
v 2.338960 4.089172 2.057041
v 2.338960 0.252215 2.057041
v 0.435334 0.252215 1.317523
v 0.435334 4.074550 1.317523
v 0.360993 4.074550 1.317675
v 0.360993 0.252215 1.317675
v 0.436852 0.252215 2.060926
v 0.436852 4.074550 2.060926
v 0.362512 4.074550 2.061078
v 0.362512 0.252215 2.061078
vt 0.887811 0.904533
vt 0.887969 0.827016
vt 0.893418 0.827027
vt 0.893260 0.904544
vt 0.601417 0.823132
vt 0.601417 0.679552
vt 0.606866 0.679552
vt 0.606866 0.823132
vt 0.876392 0.904544
vt 0.876233 0.827027
vt 0.881682 0.827016
vt 0.881841 0.904533
vt 0.614693 0.823132
vt 0.614693 0.679552
vt 0.620142 0.679552
vt 0.620142 0.823132
vt 0.705485 0.679552
vt 0.627968 0.823132
vt 0.627968 0.679552
vt 0.705485 0.823132
vt 0.713310 0.679552
vt 0.790827 0.679552
vt 0.790827 0.823132
vt 0.713310 0.823132
vt 0.864668 0.898769
vt 0.864814 0.827016
vt 0.870263 0.827027
vt 0.870117 0.898780
vt 0.798652 0.823132
vt 0.798652 0.679552
vt 0.804101 0.679552
vt 0.804101 0.823132
vt 0.853249 0.898780
vt 0.853102 0.827027
vt 0.858551 0.827016
vt 0.858697 0.898769
vt 0.811927 0.823132
vt 0.811927 0.679552
vt 0.817376 0.679552
vt 0.817376 0.823132
vt 0.896955 0.679552
vt 0.825203 0.823132
vt 0.825203 0.679552
vt 0.896955 0.823132
vt 0.899388 0.827016
vt 0.971141 0.827016
vt 0.971141 0.970595
vt 0.899388 0.970595
vt 0.207138 0.668192
vt 0.207803 0.342483
vt 0.262293 0.342594
vt 0.261627 0.668304
vt 0.778172 0.881505
vt 0.772723 0.881505
vt 0.772723 0.827016
vt 0.778172 0.827016
vt 0.146678 0.668303
vt 0.146013 0.342594
vt 0.200502 0.342483
vt 0.201168 0.668192
vt 0.766753 0.881505
vt 0.761304 0.881505
vt 0.761304 0.827016
vt 0.766753 0.827016
vt 0.013507 0.672299
vt 0.018956 0.998008
vt 0.013507 0.998008
vt 0.018956 0.672299
vt 0.026782 0.998008
vt 0.026782 0.672299
vt 0.032231 0.672299
vt 0.032231 0.998008
vt 0.329388 0.668192
vt 0.330053 0.342483
vt 0.384542 0.342594
vt 0.383877 0.668304
vt 0.801010 0.881505
vt 0.795561 0.881505
vt 0.795561 0.827016
vt 0.801010 0.827016
vt 0.268928 0.668303
vt 0.268263 0.342594
vt 0.322752 0.342483
vt 0.323417 0.668192
vt 0.789591 0.881505
vt 0.784142 0.881505
vt 0.784142 0.827016
vt 0.789591 0.827016
vt 0.012344 0.342594
vt 0.017793 0.668303
vt 0.012344 0.668303
vt 0.017793 0.342594
vt 0.001938 0.668303
vt 0.001938 0.342594
vt 0.007387 0.342594
vt 0.007387 0.668303
vt 0.161433 0.672188
vt 0.165689 0.672188
vt 0.165689 0.959517
vt 0.161433 0.959517
vt 0.726585 0.001992
vt 0.730842 0.001992
vt 0.730842 0.335177
vt 0.726585 0.335177
vt 0.172812 0.672188
vt 0.177068 0.672188
vt 0.177068 0.959517
vt 0.172812 0.959517
vt 0.737964 0.001992
vt 0.742221 0.001992
vt 0.742221 0.335177
vt 0.737964 0.335177
vt 0.683812 0.675668
vt 0.683812 0.342483
vt 0.971141 0.342483
vt 0.971141 0.675668
vt 0.390513 0.675668
vt 0.390513 0.342483
vt 0.677842 0.342483
vt 0.677842 0.675668
vt 0.001938 0.338599
vt 0.002626 0.001992
vt 0.057115 0.002103
vt 0.056428 0.338710
vt 0.040058 0.964254
vt 0.040058 0.672299
vt 0.094547 0.672299
vt 0.094547 0.964254
vt 0.065400 0.338710
vt 0.064712 0.002103
vt 0.119202 0.001992
vt 0.119889 0.338599
vt 0.100745 0.964254
vt 0.100745 0.672299
vt 0.155235 0.672299
vt 0.155235 0.964254
vt 0.084888 0.668304
vt 0.085553 0.342594
vt 0.140043 0.342706
vt 0.139378 0.668415
vt 0.332116 0.960610
vt 0.332116 0.679552
vt 0.386606 0.679552
vt 0.386606 0.960610
vt 0.024428 0.668415
vt 0.023763 0.342706
vt 0.078253 0.342594
vt 0.078918 0.668304
vt 0.392804 0.960610
vt 0.392804 0.679552
vt 0.447293 0.679552
vt 0.447293 0.960610
vt 0.127296 0.338599
vt 0.132745 0.333150
vt 0.419252 0.338599
vt 0.413803 0.333150
vt 0.419252 0.001992
vt 0.413803 0.007441
vt 0.127296 0.001992
vt 0.132745 0.007441
vt 0.426941 0.001992
vt 0.718896 0.001992
vt 0.432390 0.007441
vt 0.713447 0.007441
vt 0.718896 0.338599
vt 0.713447 0.333150
vt 0.426941 0.338599
vt 0.432390 0.333150
vt 0.184191 0.953427
vt 0.184191 0.672188
vt 0.238680 0.672188
vt 0.238680 0.953427
vt 0.823960 0.881517
vt 0.818511 0.881505
vt 0.818622 0.827016
vt 0.824071 0.827027
vt 0.244878 0.953427
vt 0.244878 0.672187
vt 0.299368 0.672187
vt 0.299368 0.953427
vt 0.812541 0.881505
vt 0.807092 0.881517
vt 0.806980 0.827027
vt 0.812429 0.827016
vt 0.311015 0.953427
vt 0.305566 0.672187
vt 0.311015 0.672187
vt 0.305566 0.953427
vt 0.318841 0.953427
vt 0.318841 0.672187
vt 0.324290 0.672187
vt 0.324290 0.953427
vt 0.453491 0.959720
vt 0.453491 0.679552
vt 0.507981 0.679552
vt 0.507981 0.959720
vt 0.847021 0.881517
vt 0.841572 0.881505
vt 0.841683 0.827016
vt 0.847132 0.827027
vt 0.514179 0.959720
vt 0.514179 0.679552
vt 0.568669 0.679552
vt 0.568669 0.959720
vt 0.835601 0.881505
vt 0.830152 0.881517
vt 0.830041 0.827027
vt 0.835490 0.827016
vt 0.580315 0.959720
vt 0.574866 0.679552
vt 0.580315 0.679552
vt 0.574866 0.959720
vt 0.588142 0.959720
vt 0.588142 0.679552
vt 0.593591 0.679552
vt 0.593591 0.959720
vn 0.000000 1.000000 0.000000
vn 0.000000 1.000000 0.000000
vn 0.000000 1.000000 0.000000
vn 0.000000 1.000000 0.000000
vn 0.000000 1.000000 0.000000
vn 0.000000 1.000000 0.000000
vn -0.999998 0.000000 0.002042
vn -0.999998 0.000000 0.002042
vn -0.999998 0.000000 0.002042
vn -0.999998 0.000000 0.002042
vn -0.999998 0.000000 0.002042
vn -0.999998 0.000000 0.002042
vn 0.000000 -1.000000 0.000000
vn 0.000000 -1.000000 0.000000
vn 0.000000 -1.000000 0.000000
vn 0.000000 -1.000000 0.000000
vn 0.000000 -1.000000 0.000000
vn 0.000000 -1.000000 0.000000
vn 0.999998 0.000000 -0.002042
vn 0.999998 0.000000 -0.002042
vn 0.999998 0.000000 -0.002042
vn 0.999998 0.000000 -0.002042
vn 0.999998 0.000000 -0.002042
vn 0.999998 0.000000 -0.002042
vn -0.002042 0.000000 -0.999998
vn -0.002042 0.000000 -0.999998
vn -0.002042 0.000000 -0.999998
vn -0.002042 0.000000 -0.999998
vn -0.002042 0.000000 -0.999998
vn -0.002042 0.000000 -0.999998
vn 0.002042 0.000000 0.999998
vn 0.002042 0.000000 0.999998
vn 0.002042 0.000000 0.999998
vn 0.002042 0.000000 0.999998
vn 0.002042 0.000000 0.999998
vn 0.002042 0.000000 0.999998
vn 0.000000 1.000000 0.000000
vn 0.000000 1.000000 0.000000
vn 0.000000 1.000000 0.000000
vn 0.000000 1.000000 0.000000
vn 0.000000 1.000000 0.000000
vn 0.000000 1.000000 0.000000
vn -0.999998 0.000000 0.002042
vn -0.999998 0.000000 0.002042
vn -0.999998 0.000000 0.002042
vn -0.999998 0.000000 0.002042
vn -0.999998 0.000000 0.002042
vn -0.999998 0.000000 0.002042
vn 0.000000 -1.000000 0.000000
vn 0.000000 -1.000000 0.000000
vn 0.000000 -1.000000 0.000000
vn 0.000000 -1.000000 0.000000
vn 0.000000 -1.000000 0.000000
vn 0.000000 -1.000000 0.000000
vn 0.999998 0.000000 -0.002042
vn 0.999998 0.000000 -0.002042
vn 0.999998 0.000000 -0.002042
vn 0.999998 0.000000 -0.002042
vn 0.999998 0.000000 -0.002042
vn 0.999998 0.000000 -0.002042
vn -0.002042 0.000000 -0.999998
vn -0.002042 0.000000 -0.999998
vn -0.002042 0.000000 -0.999998
vn -0.002042 0.000000 -0.999998
vn -0.002042 0.000000 -0.999998
vn -0.002042 0.000000 -0.999998
vn 0.002042 0.000000 0.999998
vn 0.002042 0.000000 0.999998
vn 0.002042 0.000000 0.999998
vn 0.002042 0.000000 0.999998
vn 0.002042 0.000000 0.999998
vn 0.002042 0.000000 0.999998
vn 0.000000 1.000000 0.000000
vn 0.000000 1.000000 0.000000
vn 0.000000 1.000000 0.000000
vn 0.000000 1.000000 0.000000
vn 0.000000 1.000000 0.000000
vn 0.000000 1.000000 0.000000
vn -0.999998 0.000000 0.002042
vn -0.999998 0.000000 0.002042
vn -0.999998 0.000000 0.002042
vn -0.999998 0.000000 0.002042
vn -0.999998 0.000000 0.002042
vn -0.999998 0.000000 0.002042
vn 0.000000 -1.000000 0.000000
vn 0.000000 -1.000000 0.000000
vn 0.000000 -1.000000 0.000000
vn 0.000000 -1.000000 0.000000
vn 0.000000 -1.000000 0.000000
vn 0.000000 -1.000000 0.000000
vn 0.999998 0.000000 -0.002042
vn 0.999998 0.000000 -0.002042
vn 0.999998 0.000000 -0.002042
vn 0.999998 0.000000 -0.002042
vn 0.999998 0.000000 -0.002042
vn 0.999998 0.000000 -0.002042
vn -0.002042 0.000000 -0.999998
vn -0.002042 0.000000 -0.999998
vn -0.002042 0.000000 -0.999998
vn -0.002042 0.000000 -0.999998
vn -0.002042 0.000000 -0.999998
vn -0.002042 0.000000 -0.999998
vn 0.002042 0.000000 0.999998
vn 0.002042 0.000000 0.999998
vn 0.002042 0.000000 0.999998
vn 0.002042 0.000000 0.999998
vn 0.002042 0.000000 0.999998
vn 0.002042 0.000000 0.999998
vn 0.000000 1.000000 0.000000
vn 0.000000 1.000000 0.000000
vn 0.000000 1.000000 0.000000
vn 0.000000 1.000000 0.000000
vn 0.000000 1.000000 0.000000
vn 0.000000 1.000000 0.000000
vn -0.999998 0.000000 0.002042
vn -0.999998 0.000000 0.002042
vn -0.999998 0.000000 0.002042
vn -0.999998 0.000000 0.002042
vn -0.999998 0.000000 0.002042
vn -0.999998 0.000000 0.002042
vn 0.000000 -1.000000 0.000000
vn 0.000000 -1.000000 0.000000
vn 0.000000 -1.000000 0.000000
vn 0.000000 -1.000000 0.000000
vn 0.000000 -1.000000 0.000000
vn 0.000000 -1.000000 0.000000
vn 0.999998 0.000000 -0.002042
vn 0.999998 0.000000 -0.002042
vn 0.999998 0.000000 -0.002042
vn 0.999998 0.000000 -0.002042
vn 0.999998 0.000000 -0.002042
vn 0.999998 0.000000 -0.002042
vn -0.002042 0.000000 -0.999998
vn -0.002042 0.000000 -0.999998
vn -0.002042 0.000000 -0.999998
vn -0.002042 0.000000 -0.999998
vn -0.002042 0.000000 -0.999998
vn -0.002042 0.000000 -0.999998
vn 0.002042 0.000000 0.999998
vn 0.002042 0.000000 0.999998
vn 0.002042 0.000000 0.999998
vn 0.002042 0.000000 0.999998
vn 0.002042 0.000000 0.999998
vn 0.002042 0.000000 0.999998
vn -1.000000 0.000000 0.000000
vn -1.000000 0.000000 0.000000
vn -1.000000 0.000000 0.000000
vn -1.000000 0.000000 0.000000
vn 0.000000 1.000000 0.000000
vn 0.000000 1.000000 0.000000
vn 0.000000 1.000000 0.000000
vn 0.000000 1.000000 0.000000
vn 1.000000 0.000000 0.000000
vn 1.000000 0.000000 0.000000
vn 1.000000 0.000000 0.000000
vn 1.000000 0.000000 0.000000
vn 0.000000 -1.000000 0.000000
vn 0.000000 -1.000000 0.000000
vn 0.000000 -1.000000 0.000000
vn 0.000000 -1.000000 0.000000
vn 0.000000 0.000000 1.000000
vn 0.000000 0.000000 1.000000
vn 0.000000 0.000000 1.000000
vn 0.000000 0.000000 1.000000
vn -0.000000 0.000000 -1.000000
vn -0.000000 0.000000 -1.000000
vn -0.000000 0.000000 -1.000000
vn -0.000000 0.000000 -1.000000
vn 0.000000 1.000000 0.000000
vn 0.000000 1.000000 0.000000
vn 0.000000 1.000000 0.000000
vn 0.000000 1.000000 0.000000
vn 0.000000 1.000000 0.000000
vn 0.000000 1.000000 0.000000
vn -0.999998 0.000000 0.002042
vn -0.999998 0.000000 0.002042
vn -0.999998 0.000000 0.002042
vn -0.999998 0.000000 0.002042
vn -0.999998 0.000000 0.002042
vn -0.999998 0.000000 0.002042
vn 0.000000 -1.000000 0.000000
vn 0.000000 -1.000000 0.000000
vn 0.000000 -1.000000 0.000000
vn 0.000000 -1.000000 0.000000
vn 0.000000 -1.000000 0.000000
vn 0.000000 -1.000000 0.000000
vn 0.999998 0.000000 -0.002042
vn 0.999998 0.000000 -0.002042
vn 0.999998 0.000000 -0.002042
vn 0.999998 0.000000 -0.002042
vn 0.999998 0.000000 -0.002042
vn 0.999998 0.000000 -0.002042
vn 0.000000 1.000000 0.000000
vn 0.000000 1.000000 0.000000
vn 0.000000 1.000000 0.000000
vn 0.000000 1.000000 0.000000
vn 0.000000 1.000000 0.000000
vn 0.000000 1.000000 0.000000
vn 0.999998 0.000000 -0.002042
vn 0.999998 0.000000 -0.002042
vn 0.999998 0.000000 -0.002042
vn 0.999998 0.000000 -0.002042
vn 0.999998 0.000000 -0.002042
vn 0.999998 0.000000 -0.002042
vn 0.000000 -1.000000 0.000000
vn 0.000000 -1.000000 0.000000
vn 0.000000 -1.000000 0.000000
vn 0.000000 -1.000000 0.000000
vn 0.000000 -1.000000 0.000000
vn 0.000000 -1.000000 0.000000
vn -0.999998 0.000000 0.002042
vn -0.999998 0.000000 0.002042
vn -0.999998 0.000000 0.002042
vn -0.999998 0.000000 0.002042
vn -0.999998 0.000000 0.002042
vn -0.999998 0.000000 0.002042
vn -0.002042 0.000000 -0.999998
vn -0.002042 0.000000 -0.999998
vn -0.002042 0.000000 -0.999998
vn -0.002042 0.000000 -0.999998
vn -0.002042 0.000000 -0.999998
vn -0.002042 0.000000 -0.999998
vn -0.002042 0.000000 -0.999998
vn -0.002042 0.000000 -0.999998
vn -0.002042 0.000000 -0.999998
vn -0.002042 0.000000 -0.999998
vn -0.002042 0.000000 -0.999998
vn -0.002042 0.000000 -0.999998
vn -0.002042 0.000000 -0.999998
vn -0.002042 0.000000 -0.999998
vn -0.002042 0.000000 -0.999998
vn -0.002042 0.000000 -0.999998
vn -0.002042 0.000000 -0.999998
vn -0.002042 0.000000 -0.999998
vn -0.002042 0.000000 -0.999998
vn -0.002042 0.000000 -0.999998
vn -0.002042 0.000000 -0.999998
vn -0.002042 0.000000 -0.999998
vn -0.002042 0.000000 -0.999998
vn -0.002042 0.000000 -0.999998
vn 0.002042 0.000000 0.999998
vn 0.002042 0.000000 0.999998
vn 0.002042 0.000000 0.999998
vn 0.002042 0.000000 0.999998
vn 0.002042 0.000000 0.999998
vn 0.002042 0.000000 0.999998
vn 0.002042 0.000000 0.999998
vn 0.002042 0.000000 0.999998
vn 0.002042 0.000000 0.999998
vn 0.002042 0.000000 0.999998
vn 0.002042 0.000000 0.999998
vn 0.002042 0.000000 0.999998
vn 0.002042 0.000000 0.999998
vn 0.002042 0.000000 0.999998
vn 0.002042 0.000000 0.999998
vn 0.002042 0.000000 0.999998
vn 0.002042 0.000000 0.999998
vn 0.002042 0.000000 0.999998
vn 0.002042 0.000000 0.999998
vn 0.002042 0.000000 0.999998
vn 0.002042 0.000000 0.999998
vn 0.002042 0.000000 0.999998
vn 0.002042 0.000000 0.999998
vn 0.002042 0.000000 0.999998
vn 0.999998 0.000000 -0.002042
vn 0.999998 0.000000 -0.002042
vn 0.999998 0.000000 -0.002042
vn 0.999998 0.000000 -0.002042
vn 0.999998 0.000000 -0.002042
vn 0.999998 0.000000 -0.002042
vn 0.000000 1.000000 0.000000
vn 0.000000 1.000000 0.000000
vn 0.000000 1.000000 0.000000
vn 0.000000 1.000000 0.000000
vn 0.000000 1.000000 0.000000
vn 0.000000 1.000000 0.000000
vn -0.999998 0.000000 0.002042
vn -0.999998 0.000000 0.002042
vn -0.999998 0.000000 0.002042
vn -0.999998 0.000000 0.002042
vn -0.999998 0.000000 0.002042
vn -0.999998 0.000000 0.002042
vn 0.000000 -1.000000 0.000000
vn 0.000000 -1.000000 0.000000
vn 0.000000 -1.000000 0.000000
vn 0.000000 -1.000000 0.000000
vn 0.000000 -1.000000 0.000000
vn 0.000000 -1.000000 0.000000
vn -0.002042 0.000000 -0.999998
vn -0.002042 0.000000 -0.999998
vn -0.002042 0.000000 -0.999998
vn -0.002042 0.000000 -0.999998
vn -0.002042 0.000000 -0.999998
vn -0.002042 0.000000 -0.999998
vn 0.002042 0.000000 0.999998
vn 0.002042 0.000000 0.999998
vn 0.002042 0.000000 0.999998
vn 0.002042 0.000000 0.999998
vn 0.002042 0.000000 0.999998
vn 0.002042 0.000000 0.999998
vn 0.999998 0.000000 -0.002042
vn 0.999998 0.000000 -0.002042
vn 0.999998 0.000000 -0.002042
vn 0.999998 0.000000 -0.002042
vn 0.999998 0.000000 -0.002042
vn 0.999998 0.000000 -0.002042
vn 0.000000 1.000000 0.000000
vn 0.000000 1.000000 0.000000
vn 0.000000 1.000000 0.000000
vn 0.000000 1.000000 0.000000
vn 0.000000 1.000000 0.000000
vn 0.000000 1.000000 0.000000
vn -0.999998 0.000000 0.002042
vn -0.999998 0.000000 0.002042
vn -0.999998 0.000000 0.002042
vn -0.999998 0.000000 0.002042
vn -0.999998 0.000000 0.002042
vn -0.999998 0.000000 0.002042
vn 0.000000 -1.000000 0.000000
vn 0.000000 -1.000000 0.000000
vn 0.000000 -1.000000 0.000000
vn 0.000000 -1.000000 0.000000
vn 0.000000 -1.000000 0.000000
vn 0.000000 -1.000000 0.000000
vn -0.002042 0.000000 -0.999998
vn -0.002042 0.000000 -0.999998
vn -0.002042 0.000000 -0.999998
vn -0.002042 0.000000 -0.999998
vn -0.002042 0.000000 -0.999998
vn -0.002042 0.000000 -0.999998
vn 0.002042 0.000000 0.999998
vn 0.002042 0.000000 0.999998
vn 0.002042 0.000000 0.999998
vn 0.002042 0.000000 0.999998
vn 0.002042 0.000000 0.999998
vn 0.002042 0.000000 0.999998
s off
g polySurface24
usemtl shelf:Rectangle48SG
f 1/1/1 2/2/2 6/3/3
f 1/1/4 6/3/5 5/4/6
f 2/5/7 3/6/8 7/7/9
f 2/5/10 7/7/11 6/8/12
f 3/9/13 4/10/14 8/11/15
f 3/9/16 8/11/17 7/12/18
f 4/13/19 1/14/20 5/15/21
f 4/13/22 5/15/23 8/16/24
f 3/17/25 1/18/26 4/19/27
f 2/20/28 1/18/29 3/17/30
f 7/21/31 8/22/32 5/23/33
f 6/24/34 7/21/35 5/23/36
f 9/25/37 10/26/38 14/27/39
f 9/25/40 14/27/41 13/28/42
f 10/29/43 11/30/44 15/31/45
f 10/29/46 15/31/47 14/32/48
f 11/33/49 12/34/50 16/35/51
f 11/33/52 16/35/53 15/36/54
f 12/37/55 9/38/56 13/39/57
f 12/37/58 13/39/59 16/40/60
f 11/41/61 9/42/62 12/43/63
f 10/44/64 9/42/65 11/41/66
f 15/45/67 16/46/68 13/47/69
f 14/48/70 15/45/71 13/47/72
f 17/49/73 18/50/74 22/51/75
f 17/49/76 22/51/77 21/52/78
f 18/53/79 19/54/80 23/55/81
f 18/53/82 23/55/83 22/56/84
f 19/57/85 20/58/86 24/59/87
f 19/57/88 24/59/89 23/60/90
f 20/61/91 17/62/92 21/63/93
f 20/61/94 21/63/95 24/64/96
f 19/65/97 17/66/98 20/67/99
f 19/65/100 18/68/101 17/66/102
f 23/69/103 24/70/104 21/71/105
f 23/69/106 21/71/107 22/72/108
f 25/73/109 26/74/110 30/75/111
f 25/73/112 30/75/113 29/76/114
f 26/77/115 27/78/116 31/79/117
f 26/77/118 31/79/119 30/80/120
f 27/81/121 28/82/122 32/83/123
f 27/81/124 32/83/125 31/84/126
f 28/85/127 25/86/128 29/87/129
f 28/85/130 29/87/131 32/88/132
f 27/89/133 25/90/134 28/91/135
f 27/89/136 26/92/137 25/90/138
f 31/93/139 32/94/140 29/95/141
f 31/93/142 29/95/143 30/96/144
usemtl shelf:initialShadingGroup
f 33/97/145 34/98/146 36/99/147 35/100/148
f 35/101/149 36/102/150 38/103/151 37/104/152
f 37/105/153 38/106/154 40/107/155 39/108/156
f 39/109/157 40/110/158 34/111/159 33/112/160
f 34/113/161 40/114/162 38/115/163 36/116/164
f 39/117/165 33/118/166 35/119/167 37/120/168
usemtl shelf:Rectangle48SG
f 41/121/169 42/122/170 46/123/171
f 41/121/172 46/123/173 45/124/174
f 42/125/175 43/126/176 47/127/177
f 42/125/178 47/127/179 46/128/180
f 43/129/181 44/130/182 48/131/183
f 43/129/184 48/131/185 47/132/186
f 44/133/187 41/134/188 45/135/189
f 44/133/190 45/135/191 48/136/192
f 49/137/193 50/138/194 54/139/195
f 49/137/196 54/139/197 53/140/198
f 50/141/199 51/142/200 55/143/201
f 50/141/202 55/143/203 54/144/204
f 51/145/205 52/146/206 56/147/207
f 51/145/208 56/147/209 55/148/210
f 52/149/211 49/150/212 53/151/213
f 52/149/214 53/151/215 56/152/216
f 44/153/217 49/154/218 41/155/219
f 52/156/220 41/155/221 49/154/222
f 52/156/223 42/157/224 41/155/225
f 51/158/226 42/157/227 52/156/228
f 43/159/229 49/154/230 44/153/231
f 43/159/232 50/160/233 49/154/234
f 42/157/235 50/160/236 43/159/237
f 42/157/238 51/158/239 50/160/240
f 48/161/241 45/162/242 53/163/243
f 56/164/244 53/163/245 45/162/246
f 56/164/247 45/162/248 46/165/249
f 55/166/250 56/164/251 46/165/252
f 47/167/253 48/161/254 53/163/255
f 47/167/256 53/163/257 54/168/258
f 46/165/259 47/167/260 54/168/261
f 46/165/262 54/168/263 55/166/264
f 57/169/265 58/170/266 62/171/267
f 57/169/268 62/171/269 61/172/270
f 58/173/271 59/174/272 63/175/273
f 58/173/274 63/175/275 62/176/276
f 59/177/277 60/178/278 64/179/279
f 59/177/280 64/179/281 63/180/282
f 60/181/283 57/182/284 61/183/285
f 60/181/286 61/183/287 64/184/288
f 59/185/289 57/186/290 60/187/291
f 59/185/292 58/188/293 57/186/294
f 63/189/295 64/190/296 61/191/297
f 63/189/298 61/191/299 62/192/300
f 65/193/301 66/194/302 70/195/303
f 65/193/304 70/195/305 69/196/306
f 66/197/307 67/198/308 71/199/309
f 66/197/310 71/199/311 70/200/312
f 67/201/313 68/202/314 72/203/315
f 67/201/316 72/203/317 71/204/318
f 68/205/319 65/206/320 69/207/321
f 68/205/322 69/207/323 72/208/324
f 67/209/325 65/210/326 68/211/327
f 67/209/328 66/212/329 65/210/330
f 71/213/331 72/214/332 69/215/333
f 71/213/334 69/215/335 70/216/336
