# This file uses centimeters as units for non-parametric coordinates.

mtllib shelf.mtl
g default
v -20.815046 50.025143 0.712393
v -20.698823 50.025143 57.616347
v -20.698831 -55.374180 57.616347
v -20.815049 -55.374180 0.712393
v -16.815053 50.025143 0.704222
v -16.698835 50.025143 57.608176
v -16.698838 -55.374180 57.608176
v -16.815053 -55.374180 0.704222
v -20.924260 50.025143 -52.761507
v -20.816686 50.025143 -0.088941
v -20.816686 -55.374180 -0.088941
v -20.924264 -55.374180 -52.761507
v -16.924268 50.025143 -52.769670
v -16.816690 50.025143 -0.097116
v -16.816694 -55.374180 -0.097116
v -16.924272 -55.374180 -52.769670
v -19.263112 -51.460674 -119.509920
v -18.774781 -51.460674 119.587935
v -18.774781 -55.460674 119.587935
v -19.263112 -55.460674 -119.509920
v 20.736804 -51.460674 -119.591600
v 21.225135 -51.460674 119.506239
v 21.225135 -55.460674 119.506239
v 20.736804 -55.460674 -119.591600
v -19.263120 50.386196 -119.509920
v -18.774789 50.386196 119.587935
v -18.774789 46.386211 119.587935
v -19.263120 46.386211 -119.509920
v 20.736792 50.386196 -119.591600
v 21.225123 50.386196 119.506239
v 21.225123 46.386211 119.506239
v 20.736792 46.386211 -119.591600
v -18.910264 -103.159962 53.254767
v -18.910253 102.506634 53.254767
v -18.902086 102.506634 57.254767
v -18.902097 -103.159962 57.254767
v 21.089656 -103.159962 53.173087
v 21.089659 102.506634 53.173071
v 21.097834 102.506634 57.173064
v 21.097823 -103.159962 57.173071
v -19.127462 -103.159962 -53.091051
v -19.127454 103.293407 -53.091051
v -19.119283 103.293407 -49.091055
v -19.119294 -103.159962 -49.091055
v 20.872454 -103.159962 -53.172746
v 20.872458 103.293407 -53.172746
v 20.880629 103.293407 -49.172758
v 20.880629 -103.159962 -49.172750
v -19.271276 107.159954 -123.509904
v -18.766607 107.159954 123.587935
v -18.766614 -107.159954 123.587935
v -19.271287 -107.159954 -123.509904
v 20.728640 107.159954 -123.591615
v 21.233309 107.159954 123.506239
v 21.233302 -107.159954 123.506239
v 20.728633 -107.159954 -123.591615
v -19.263120 -103.159954 -119.509904
v -18.774785 -103.159985 119.587935
v -18.774774 103.159969 119.587904
v -19.263109 103.159969 -119.509920
v 20.736800 -103.159954 -119.591600
v 21.225131 -103.159969 119.506239
v 21.225142 103.159969 119.506209
v 20.736811 103.159969 -119.591600
v -21.233312 -104.007206 121.800269
v -18.108709 -104.007206 121.800269
v -21.233312 106.916500 121.800269
v -18.108709 106.916500 121.800269
v -21.233312 106.916500 -122.785814
v -18.108709 106.916500 -122.785814
v -21.233312 -104.007206 -122.785814
v -18.108709 -104.007206 -122.785814
vt 0.705485 0.679552
vt 0.627968 0.823132
vt 0.627968 0.679552
vt 0.705485 0.823132
vt 0.713310 0.679552
vt 0.790827 0.679552
vt 0.790827 0.823132
vt 0.713310 0.823132
vt 0.896955 0.679552
vt 0.825203 0.823132
vt 0.825203 0.679552
vt 0.896955 0.823132
vt 0.899388 0.827016
vt 0.971141 0.827016
vt 0.971141 0.970595
vt 0.899388 0.970595
vt 0.012344 0.342594
vt 0.017793 0.668303
vt 0.012344 0.668303
vt 0.017793 0.342594
vt 0.001938 0.668303
vt 0.001938 0.342594
vt 0.007387 0.342594
vt 0.007387 0.668303
vt 0.013507 0.672299
vt 0.018956 0.998008
vt 0.013507 0.998008
vt 0.018956 0.672299
vt 0.026782 0.998008
vt 0.026782 0.672299
vt 0.032231 0.672299
vt 0.032231 0.998008
vt 0.580315 0.959720
vt 0.574866 0.679552
vt 0.580315 0.679552
vt 0.574866 0.959720
vt 0.588142 0.959720
vt 0.588142 0.679552
vt 0.593591 0.679552
vt 0.593591 0.959720
vt 0.311015 0.953427
vt 0.305566 0.672187
vt 0.311015 0.672187
vt 0.305566 0.953427
vt 0.318841 0.953427
vt 0.318841 0.672187
vt 0.324290 0.672187
vt 0.324290 0.953427
vt 0.127296 0.338599
vt 0.132745 0.333150
vt 0.419252 0.338599
vt 0.127296 0.001992
vt 0.413803 0.333150
vt 0.132745 0.007441
vt 0.419252 0.001992
vt 0.413803 0.007441
vt 0.426941 0.001992
vt 0.718896 0.001992
vt 0.432390 0.007441
vt 0.713447 0.007441
vt 0.426941 0.338599
vt 0.718896 0.338599
vt 0.432390 0.333150
vt 0.713447 0.333150
vt 0.683812 0.675668
vt 0.683812 0.342483
vt 0.971141 0.342483
vt 0.971141 0.675668
vt 0.390513 0.675668
vt 0.390513 0.342483
vt 0.677842 0.342483
vt 0.677842 0.675668
vt 0.887811 0.904533
vt 0.887969 0.827016
vt 0.893418 0.827027
vt 0.893260 0.904544
vt 0.876392 0.904544
vt 0.876233 0.827027
vt 0.881682 0.827016
vt 0.881841 0.904533
vt 0.864668 0.898769
vt 0.864814 0.827016
vt 0.870263 0.827027
vt 0.870117 0.898780
vt 0.853249 0.898780
vt 0.853102 0.827027
vt 0.858551 0.827016
vt 0.858697 0.898769
vt 0.329388 0.668192
vt 0.330053 0.342483
vt 0.384542 0.342594
vt 0.383877 0.668304
vt 0.268928 0.668303
vt 0.268263 0.342594
vt 0.322752 0.342483
vt 0.323417 0.668192
vt 0.207138 0.668192
vt 0.207803 0.342483
vt 0.262293 0.342594
vt 0.261627 0.668304
vt 0.146678 0.668303
vt 0.146013 0.342594
vt 0.200502 0.342483
vt 0.201168 0.668192
vt 0.847021 0.881517
vt 0.841572 0.881505
vt 0.841683 0.827016
vt 0.847132 0.827027
vt 0.835601 0.881505
vt 0.830152 0.881517
vt 0.830041 0.827027
vt 0.835490 0.827016
vt 0.823960 0.881517
vt 0.818511 0.881505
vt 0.818622 0.827016
vt 0.824071 0.827027
vt 0.812541 0.881505
vt 0.807092 0.881517
vt 0.806980 0.827027
vt 0.812429 0.827016
vt 0.001938 0.338599
vt 0.002626 0.001992
vt 0.057115 0.002103
vt 0.056428 0.338710
vt 0.065400 0.338710
vt 0.064712 0.002103
vt 0.119202 0.001992
vt 0.119889 0.338599
vt 0.084888 0.668304
vt 0.085553 0.342594
vt 0.140043 0.342706
vt 0.139378 0.668415
vt 0.024428 0.668415
vt 0.023763 0.342706
vt 0.078253 0.342594
vt 0.078918 0.668304
vt 0.726585 0.001992
vt 0.730842 0.001992
vt 0.730842 0.335177
vt 0.726585 0.335177
vt 0.737964 0.001992
vt 0.742221 0.001992
vt 0.742221 0.335177
vt 0.737964 0.335177
vt 0.601417 0.823132
vt 0.601417 0.679552
vt 0.606866 0.679552
vt 0.606866 0.823132
vt 0.614693 0.823132
vt 0.614693 0.679552
vt 0.620142 0.679552
vt 0.620142 0.823132
vt 0.798652 0.823132
vt 0.798652 0.679552
vt 0.804101 0.679552
vt 0.804101 0.823132
vt 0.811927 0.823132
vt 0.811927 0.679552
vt 0.817376 0.679552
vt 0.817376 0.823132
vt 0.801010 0.881505
vt 0.795561 0.881505
vt 0.795561 0.827016
vt 0.801010 0.827016
vt 0.789591 0.881505
vt 0.784142 0.881505
vt 0.784142 0.827016
vt 0.789591 0.827016
vt 0.778172 0.881505
vt 0.772723 0.881505
vt 0.772723 0.827016
vt 0.778172 0.827016
vt 0.766753 0.881505
vt 0.761304 0.881505
vt 0.761304 0.827016
vt 0.766753 0.827016
vt 0.453491 0.959720
vt 0.453491 0.679552
vt 0.507981 0.679552
vt 0.507981 0.959720
vt 0.514179 0.959720
vt 0.514179 0.679552
vt 0.568669 0.679552
vt 0.568669 0.959720
vt 0.184191 0.953427
vt 0.184191 0.672188
vt 0.238680 0.672188
vt 0.238680 0.953427
vt 0.244878 0.953427
vt 0.244878 0.672187
vt 0.299368 0.672187
vt 0.299368 0.953427
vt 0.040058 0.964254
vt 0.040058 0.672299
vt 0.094547 0.672299
vt 0.094547 0.964254
vt 0.100745 0.964254
vt 0.100745 0.672299
vt 0.155235 0.672299
vt 0.155235 0.964254
vt 0.332116 0.960610
vt 0.332116 0.679552
vt 0.386606 0.679552
vt 0.386606 0.960610
vt 0.392804 0.960610
vt 0.392804 0.679552
vt 0.447293 0.679552
vt 0.447293 0.960610
vt 0.161433 0.672188
vt 0.165689 0.672188
vt 0.165689 0.959517
vt 0.161433 0.959517
vt 0.172812 0.672188
vt 0.177068 0.672188
vt 0.177068 0.959517
vt 0.172812 0.959517
vn 0.000000 1.000000 -0.000000
vn 0.000000 1.000000 -0.000000
vn 0.000000 1.000000 -0.000000
vn 0.000000 1.000000 -0.000000
vn 0.000000 1.000000 -0.000000
vn 0.000000 1.000000 -0.000000
vn 0.002042 -0.000000 0.999998
vn 0.002042 -0.000000 0.999998
vn 0.002042 -0.000000 0.999998
vn 0.002042 -0.000000 0.999998
vn 0.002042 -0.000000 0.999998
vn 0.002042 -0.000000 0.999998
vn -0.000000 -1.000000 0.000000
vn -0.000000 -1.000000 0.000000
vn -0.000000 -1.000000 0.000000
vn -0.000000 -1.000000 0.000000
vn -0.000000 -1.000000 0.000000
vn -0.000000 -1.000000 0.000000
vn -0.002042 0.000000 -0.999998
vn -0.002042 0.000000 -0.999998
vn -0.002042 0.000000 -0.999998
vn -0.002042 0.000000 -0.999998
vn -0.002042 0.000000 -0.999998
vn -0.002042 0.000000 -0.999998
vn -0.999998 0.000000 0.002042
vn -0.999998 0.000000 0.002042
vn -0.999998 0.000000 0.002042
vn -0.999998 0.000000 0.002042
vn -0.999998 0.000000 0.002042
vn -0.999998 0.000000 0.002042
vn 0.999998 -0.000000 -0.002042
vn 0.999998 -0.000000 -0.002042
vn 0.999998 -0.000000 -0.002042
vn 0.999998 -0.000000 -0.002042
vn 0.999998 -0.000000 -0.002042
vn 0.999998 -0.000000 -0.002042
vn 0.000000 1.000000 -0.000000
vn 0.000000 1.000000 -0.000000
vn 0.000000 1.000000 -0.000000
vn 0.000000 1.000000 -0.000000
vn 0.000000 1.000000 -0.000000
vn 0.000000 1.000000 -0.000000
vn 0.002042 -0.000000 0.999998
vn 0.002042 -0.000000 0.999998
vn 0.002042 -0.000000 0.999998
vn 0.002042 -0.000000 0.999998
vn 0.002042 -0.000000 0.999998
vn 0.002042 -0.000000 0.999998
vn -0.000000 -1.000000 0.000000
vn -0.000000 -1.000000 0.000000
vn -0.000000 -1.000000 0.000000
vn -0.000000 -1.000000 0.000000
vn -0.000000 -1.000000 0.000000
vn -0.000000 -1.000000 0.000000
vn -0.002042 0.000000 -0.999998
vn -0.002042 0.000000 -0.999998
vn -0.002042 0.000000 -0.999998
vn -0.002042 0.000000 -0.999998
vn -0.002042 0.000000 -0.999998
vn -0.002042 0.000000 -0.999998
vn -0.999998 0.000000 0.002042
vn -0.999998 0.000000 0.002042
vn -0.999998 0.000000 0.002042
vn -0.999998 0.000000 0.002042
vn -0.999998 0.000000 0.002042
vn -0.999998 0.000000 0.002042
vn 0.999998 -0.000000 -0.002042
vn 0.999998 -0.000000 -0.002042
vn 0.999998 -0.000000 -0.002042
vn 0.999998 -0.000000 -0.002042
vn 0.999998 -0.000000 -0.002042
vn 0.999998 -0.000000 -0.002042
vn 0.000000 1.000000 -0.000000
vn 0.000000 1.000000 -0.000000
vn 0.000000 1.000000 -0.000000
vn 0.000000 1.000000 -0.000000
vn 0.000000 1.000000 -0.000000
vn 0.000000 1.000000 -0.000000
vn 0.002042 -0.000000 0.999998
vn 0.002042 -0.000000 0.999998
vn 0.002042 -0.000000 0.999998
vn 0.002042 -0.000000 0.999998
vn 0.002042 -0.000000 0.999998
vn 0.002042 -0.000000 0.999998
vn -0.000000 -1.000000 0.000000
vn -0.000000 -1.000000 0.000000
vn -0.000000 -1.000000 0.000000
vn -0.000000 -1.000000 0.000000
vn -0.000000 -1.000000 0.000000
vn -0.000000 -1.000000 0.000000
vn -0.002042 0.000000 -0.999998
vn -0.002042 0.000000 -0.999998
vn -0.002042 0.000000 -0.999998
vn -0.002042 0.000000 -0.999998
vn -0.002042 0.000000 -0.999998
vn -0.002042 0.000000 -0.999998
vn -0.999998 0.000000 0.002042
vn -0.999998 0.000000 0.002042
vn -0.999998 0.000000 0.002042
vn -0.999998 0.000000 0.002042
vn -0.999998 0.000000 0.002042
vn -0.999998 0.000000 0.002042
vn 0.999998 -0.000000 -0.002042
vn 0.999998 -0.000000 -0.002042
vn 0.999998 -0.000000 -0.002042
vn 0.999998 -0.000000 -0.002042
vn 0.999998 -0.000000 -0.002042
vn 0.999998 -0.000000 -0.002042
vn 0.000000 1.000000 -0.000000
vn 0.000000 1.000000 -0.000000
vn 0.000000 1.000000 -0.000000
vn 0.000000 1.000000 -0.000000
vn 0.000000 1.000000 -0.000000
vn 0.000000 1.000000 -0.000000
vn 0.002042 -0.000000 0.999998
vn 0.002042 -0.000000 0.999998
vn 0.002042 -0.000000 0.999998
vn 0.002042 -0.000000 0.999998
vn 0.002042 -0.000000 0.999998
vn 0.002042 -0.000000 0.999998
vn -0.000000 -1.000000 0.000000
vn -0.000000 -1.000000 0.000000
vn -0.000000 -1.000000 0.000000
vn -0.000000 -1.000000 0.000000
vn -0.000000 -1.000000 0.000000
vn -0.000000 -1.000000 0.000000
vn -0.002042 0.000000 -0.999998
vn -0.002042 0.000000 -0.999998
vn -0.002042 0.000000 -0.999998
vn -0.002042 0.000000 -0.999998
vn -0.002042 0.000000 -0.999998
vn -0.002042 0.000000 -0.999998
vn -0.999998 0.000000 0.002042
vn -0.999998 0.000000 0.002042
vn -0.999998 0.000000 0.002042
vn -0.999998 0.000000 0.002042
vn -0.999998 0.000000 0.002042
vn -0.999998 0.000000 0.002042
vn 0.999998 -0.000000 -0.002042
vn 0.999998 -0.000000 -0.002042
vn 0.999998 -0.000000 -0.002042
vn 0.999998 -0.000000 -0.002042
vn 0.999998 -0.000000 -0.002042
vn 0.999998 -0.000000 -0.002042
vn -0.002042 -0.000000 -0.999998
vn -0.002042 0.000000 -0.999998
vn -0.002042 -0.000000 -0.999998
vn -0.002042 -0.000000 -0.999998
vn -0.002042 -0.000000 -0.999998
vn -0.002042 -0.000000 -0.999998
vn 0.000000 1.000000 -0.000000
vn 0.000000 1.000000 -0.000000
vn 0.000000 1.000000 -0.000000
vn 0.000000 1.000000 -0.000000
vn 0.000000 1.000000 -0.000000
vn 0.000000 1.000000 -0.000000
vn 0.002042 0.000000 0.999998
vn 0.002042 -0.000000 0.999998
vn 0.002042 0.000000 0.999998
vn 0.002042 0.000000 0.999998
vn 0.002042 0.000000 0.999998
vn 0.002042 0.000000 0.999998
vn -0.000000 -1.000000 0.000000
vn -0.000000 -1.000000 0.000000
vn -0.000000 -1.000000 0.000000
vn -0.000000 -1.000000 0.000000
vn -0.000000 -1.000000 0.000000
vn -0.000000 -1.000000 0.000000
vn -0.999998 0.000000 0.002042
vn -0.999998 0.000000 0.002042
vn -0.999998 0.000000 0.002042
vn -0.999998 0.000000 0.002042
vn -0.999998 0.000000 0.002042
vn -0.999998 0.000000 0.002042
vn 0.999998 -0.000000 -0.002042
vn 0.999998 -0.000000 -0.002042
vn 0.999998 -0.000000 -0.002042
vn 0.999998 -0.000000 -0.002042
vn 0.999998 -0.000000 -0.002042
vn 0.999998 -0.000000 -0.002042
vn -0.002042 -0.000000 -0.999998
vn -0.002042 -0.000000 -0.999998
vn -0.002042 -0.000000 -0.999998
vn -0.002042 -0.000000 -0.999998
vn -0.002042 -0.000000 -0.999998
vn -0.002042 -0.000000 -0.999998
vn 0.000000 1.000000 -0.000000
vn 0.000000 1.000000 -0.000000
vn 0.000000 1.000000 -0.000000
vn 0.000000 1.000000 -0.000000
vn 0.000000 1.000000 -0.000000
vn 0.000000 1.000000 -0.000000
vn 0.002042 0.000000 0.999998
vn 0.002042 0.000000 0.999998
vn 0.002042 0.000000 0.999998
vn 0.002042 0.000000 0.999998
vn 0.002042 0.000000 0.999998
vn 0.002042 0.000000 0.999998
vn -0.000000 -1.000000 0.000000
vn -0.000000 -1.000000 0.000000
vn -0.000000 -1.000000 0.000000
vn -0.000000 -1.000000 0.000000
vn -0.000000 -1.000000 0.000000
vn -0.000000 -1.000000 0.000000
vn -0.999998 0.000000 0.002042
vn -0.999998 0.000000 0.002042
vn -0.999998 0.000000 0.002042
vn -0.999998 0.000000 0.002042
vn -0.999998 0.000000 0.002042
vn -0.999998 0.000000 0.002042
vn 0.999998 -0.000000 -0.002042
vn 0.999998 -0.000000 -0.002042
vn 0.999998 -0.000000 -0.002042
vn 0.999998 -0.000000 -0.002042
vn 0.999998 -0.000000 -0.002042
vn 0.999998 -0.000000 -0.002042
vn 0.000000 1.000000 -0.000000
vn 0.000000 1.000000 -0.000000
vn 0.000000 1.000000 -0.000000
vn 0.000000 1.000000 -0.000000
vn 0.000000 1.000000 -0.000000
vn 0.000000 1.000000 -0.000000
vn 0.002042 -0.000000 0.999998
vn 0.002042 -0.000000 0.999998
vn 0.002042 -0.000000 0.999998
vn 0.002042 -0.000000 0.999998
vn 0.002042 -0.000000 0.999998
vn 0.002042 -0.000000 0.999998
vn -0.000000 -1.000000 0.000000
vn -0.000000 -1.000000 0.000000
vn -0.000000 -1.000000 0.000000
vn -0.000000 -1.000000 0.000000
vn -0.000000 -1.000000 0.000000
vn -0.000000 -1.000000 0.000000
vn -0.002042 0.000000 -0.999998
vn -0.002042 0.000000 -0.999998
vn -0.002042 0.000000 -0.999998
vn -0.002042 0.000000 -0.999998
vn -0.002042 0.000000 -0.999998
vn -0.002042 0.000000 -0.999998
vn 0.000000 1.000000 0.000000
vn 0.000000 1.000000 0.000000
vn 0.000000 1.000000 0.000000
vn 0.000000 1.000000 0.000000
vn 0.000000 1.000000 0.000000
vn 0.000000 1.000000 0.000000
vn -0.002042 -0.000000 -0.999998
vn -0.002042 -0.000000 -0.999998
vn -0.002042 -0.000000 -0.999998
vn -0.002042 -0.000000 -0.999998
vn -0.002042 -0.000000 -0.999998
vn -0.002042 -0.000000 -0.999998
vn -0.000000 -1.000000 -0.000000
vn -0.000000 -1.000000 -0.000000
vn -0.000000 -1.000000 -0.000000
vn -0.000000 -1.000000 -0.000000
vn -0.000000 -1.000000 -0.000000
vn -0.000000 -1.000000 -0.000000
vn 0.002042 0.000000 0.999998
vn 0.002042 0.000000 0.999998
vn 0.002042 0.000000 0.999998
vn 0.002042 0.000000 0.999998
vn 0.002042 0.000000 0.999998
vn 0.002042 0.000000 0.999998
vn -0.999998 0.000000 0.002042
vn -0.999998 0.000000 0.002042
vn -0.999998 0.000000 0.002042
vn -0.999998 0.000000 0.002042
vn -0.999998 0.000000 0.002042
vn -0.999998 0.000000 0.002042
vn -0.999998 0.000000 0.002042
vn -0.999998 0.000000 0.002042
vn -0.999998 0.000000 0.002042
vn -0.999998 0.000000 0.002042
vn -0.999998 0.000000 0.002042
vn -0.999998 0.000000 0.002042
vn -0.999998 0.000000 0.002042
vn -0.999998 0.000000 0.002042
vn -0.999998 0.000000 0.002042
vn -0.999998 0.000000 0.002042
vn -0.999998 0.000000 0.002042
vn -0.999998 0.000000 0.002042
vn -0.999998 0.000000 0.002042
vn -0.999998 0.000000 0.002042
vn -0.999998 0.000000 0.002042
vn -0.999998 0.000000 0.002042
vn -0.999998 0.000000 0.002042
vn -0.999998 0.000000 0.002042
vn 0.999998 -0.000000 -0.002042
vn 0.999998 -0.000000 -0.002042
vn 0.999998 -0.000000 -0.002042
vn 0.999998 -0.000000 -0.002042
vn 0.999998 -0.000000 -0.002042
vn 0.999998 -0.000000 -0.002042
vn 0.999998 -0.000000 -0.002042
vn 0.999998 -0.000000 -0.002042
vn 0.999998 -0.000000 -0.002042
vn 0.999998 -0.000000 -0.002042
vn 0.999998 -0.000000 -0.002042
vn 0.999998 -0.000000 -0.002042
vn 0.999998 -0.000000 -0.002042
vn 0.999998 -0.000000 -0.002042
vn 0.999998 -0.000000 -0.002042
vn 0.999998 -0.000000 -0.002042
vn 0.999998 -0.000000 -0.002042
vn 0.999998 -0.000000 -0.002042
vn 0.999998 -0.000000 -0.002042
vn 0.999998 -0.000000 -0.002042
vn 0.999998 -0.000000 -0.002042
vn 0.999998 -0.000000 -0.002042
vn 0.999998 -0.000000 -0.002042
vn 0.999998 -0.000000 -0.002042
vn 0.000000 0.000000 1.000000
vn 0.000000 0.000000 1.000000
vn 0.000000 0.000000 1.000000
vn 0.000000 0.000000 1.000000
vn 0.000000 1.000000 0.000000
vn 0.000000 1.000000 0.000000
vn 0.000000 1.000000 0.000000
vn 0.000000 1.000000 0.000000
vn 0.000000 0.000000 -1.000000
vn 0.000000 0.000000 -1.000000
vn 0.000000 0.000000 -1.000000
vn 0.000000 0.000000 -1.000000
vn 0.000000 -1.000000 0.000000
vn 0.000000 -1.000000 0.000000
vn 0.000000 -1.000000 0.000000
vn 0.000000 -1.000000 0.000000
vn 1.000000 0.000000 0.000000
vn 1.000000 0.000000 0.000000
vn 1.000000 0.000000 0.000000
vn 1.000000 0.000000 0.000000
vn -1.000000 0.000000 0.000000
vn -1.000000 0.000000 0.000000
vn -1.000000 0.000000 0.000000
vn -1.000000 0.000000 0.000000
s off
g Rectangle48
usemtl Rectangle48SG
f 1/73/1 2/74/2 6/75/3
f 1/73/4 6/75/5 5/76/6
f 2/145/7 3/146/8 7/147/9
f 2/145/10 7/147/11 6/148/12
f 3/77/13 4/78/14 8/79/15
f 3/77/16 8/79/17 7/80/18
f 4/149/19 1/150/20 5/151/21
f 4/149/22 5/151/23 8/152/24
f 3/1/25 1/2/26 4/3/27
f 2/4/28 1/2/29 3/1/30
f 7/5/31 8/6/32 5/7/33
f 6/8/34 7/5/35 5/7/36
f 9/81/37 10/82/38 14/83/39
f 9/81/40 14/83/41 13/84/42
f 10/153/43 11/154/44 15/155/45
f 10/153/46 15/155/47 14/156/48
f 11/85/49 12/86/50 16/87/51
f 11/85/52 16/87/53 15/88/54
f 12/157/55 9/158/56 13/159/57
f 12/157/58 13/159/59 16/160/60
f 11/9/61 9/10/62 12/11/63
f 10/12/64 9/10/65 11/9/66
f 15/13/67 16/14/68 13/15/69
f 14/16/70 15/13/71 13/15/72
f 17/89/73 18/90/74 22/91/75
f 17/89/76 22/91/77 21/92/78
f 18/161/79 19/162/80 23/163/81
f 18/161/82 23/163/83 22/164/84
f 19/93/85 20/94/86 24/95/87
f 19/93/88 24/95/89 23/96/90
f 20/165/91 17/166/92 21/167/93
f 20/165/94 21/167/95 24/168/96
f 19/17/97 17/18/98 20/19/99
f 19/17/100 18/20/101 17/18/102
f 23/21/103 24/22/104 21/23/105
f 23/21/106 21/23/107 22/24/108
f 25/97/109 26/98/110 30/99/111
f 25/97/112 30/99/113 29/100/114
f 26/169/115 27/170/116 31/171/117
f 26/169/118 31/171/119 30/172/120
f 27/101/121 28/102/122 32/103/123
f 27/101/124 32/103/125 31/104/126
f 28/173/127 25/174/128 29/175/129
f 28/173/130 29/175/131 32/176/132
f 27/25/133 25/26/134 28/27/135
f 27/25/136 26/28/137 25/26/138
f 31/29/139 32/30/140 29/31/141
f 31/29/142 29/31/143 30/32/144
f 33/177/145 34/178/146 38/179/147
f 33/177/148 38/179/149 37/180/150
f 34/105/151 35/106/152 39/107/153
f 34/105/154 39/107/155 38/108/156
f 35/181/157 36/182/158 40/183/159
f 35/181/160 40/183/161 39/184/162
f 36/109/163 33/110/164 37/111/165
f 36/109/166 37/111/167 40/112/168
f 35/33/169 33/34/170 36/35/171
f 35/33/172 34/36/173 33/34/174
f 39/37/175 40/38/176 37/39/177
f 39/37/178 37/39/179 38/40/180
f 41/185/181 42/186/182 46/187/183
f 41/185/184 46/187/185 45/188/186
f 42/113/187 43/114/188 47/115/189
f 42/113/190 47/115/191 46/116/192
f 43/189/193 44/190/194 48/191/195
f 43/189/196 48/191/197 47/192/198
f 44/117/199 41/118/200 45/119/201
f 44/117/202 45/119/203 48/120/204
f 43/41/205 41/42/206 44/43/207
f 43/41/208 42/44/209 41/42/210
f 47/45/211 48/46/212 45/47/213
f 47/45/214 45/47/215 46/48/216
f 49/121/217 50/122/218 54/123/219
f 49/121/220 54/123/221 53/124/222
f 50/193/223 51/194/224 55/195/225
f 50/193/226 55/195/227 54/196/228
f 51/125/229 52/126/230 56/127/231
f 51/125/232 56/127/233 55/128/234
f 52/197/235 49/198/236 53/199/237
f 52/197/238 53/199/239 56/200/240
f 57/129/241 58/130/242 62/131/243
f 57/129/244 62/131/245 61/132/246
f 58/201/247 59/202/248 63/203/249
f 58/201/250 63/203/251 62/204/252
f 59/133/253 60/134/254 64/135/255
f 59/133/256 64/135/257 63/136/258
f 60/205/259 57/206/260 61/207/261
f 60/205/262 61/207/263 64/208/264
f 52/49/265 57/50/266 49/51/267
f 60/53/268 49/51/269 57/50/270
f 60/53/271 50/55/272 49/51/273
f 59/56/274 50/55/275 60/53/276
f 51/52/277 57/50/278 52/49/279
f 51/52/280 58/54/281 57/50/282
f 50/55/283 58/54/284 51/52/285
f 50/55/286 59/56/287 58/54/288
f 56/57/289 53/58/290 61/59/291
f 64/60/292 61/59/293 53/58/294
f 64/60/295 53/58/296 54/62/297
f 63/64/298 64/60/299 54/62/300
f 55/61/301 56/57/302 61/59/303
f 55/61/304 61/59/305 62/63/306
f 54/62/307 55/61/308 62/63/309
f 54/62/310 62/63/311 63/64/312
usemtl initialShadingGroup
f 65/209/313 66/210/314 68/211/315 67/212/316
f 67/137/317 68/138/318 70/139/319 69/140/320
f 69/213/321 70/214/322 72/215/323 71/216/324
f 71/141/325 72/142/326 66/143/327 65/144/328
f 66/65/329 72/66/330 70/67/331 68/68/332
f 71/69/333 65/70/334 67/71/335 69/72/336
