# This file uses centimeters as units for non-parametric coordinates.

mtllib ceiling.mtl
g default
v -7.627475 5.483608 11.801987
v 5.602161 5.483608 11.801987
v -7.627475 5.483608 -10.276996
v 5.602161 5.483608 -10.276996
v 5.602161 5.483608 0.842522
v -7.627475 5.483608 0.842522
v 5.602161 5.483608 5.411407
v -7.627475 5.483608 5.411407
v -2.879328 5.483608 11.801987
v -2.879328 5.483608 5.411407
v -2.879328 5.483608 0.842522
v -2.879328 5.483608 -10.276996
vt 0.175796 0.958696
vt 0.725169 0.958696
vt 0.175796 0.041846
vt 0.725169 0.041846
vt 0.725169 0.503594
vt 0.175796 0.503594
vt 0.725169 0.693322
vt 0.175796 0.693322
vt 0.372967 0.958696
vt 0.372967 0.693322
vt 0.372967 0.503594
vt 0.372967 0.041846
vn 0.000000 -1.000000 0.000000
vn 0.000000 -1.000000 0.000000
vn 0.000000 -1.000000 0.000000
vn 0.000000 -1.000000 0.000000
vn 0.000000 -1.000000 0.000000
vn 0.000000 -1.000000 -0.000000
vn 0.000000 -1.000000 0.000000
vn 0.000000 -1.000000 -0.000000
vn 0.000000 -1.000000 0.000000
vn 0.000000 -1.000000 0.000000
vn 0.000000 -1.000000 0.000000
vn 0.000000 -1.000000 0.000000
s 1
g ceiling:polySurface425polySurface415
usemtl ceiling:initialShadingGroup
f 12/12/1 4/4/2 5/5/3 11/11/4
f 11/11/4 5/5/3 7/7/5 10/10/6
f 10/10/6 7/7/5 2/2/7 9/9/8
f 8/8/9 10/10/6 9/9/8 1/1/10
f 6/6/11 11/11/4 10/10/6 8/8/9
f 3/3/12 12/12/1 11/11/4 6/6/11
