# This file uses centimeters as units for non-parametric coordinates.

mtllib Ear.mtl
g default
v -0.881261 -0.041928 0.072844
v -0.817753 -0.032008 0.072468
v -0.952010 0.396723 0.056243
v -0.888502 0.406643 0.055868
v -0.952010 0.391652 -0.077757
v -0.888502 0.401571 -0.078133
v -0.881261 -0.046999 -0.061157
v -0.817753 -0.037080 -0.061532
v -0.969775 0.453047 -0.012985
v -0.845172 0.192262 -0.087862
v -0.840096 -0.102871 -0.076692
v -0.925388 0.179733 -0.087388
v -0.799989 -0.093404 0.007696
v -0.880204 -0.105933 0.008170
v -0.840096 -0.096466 0.092558
v -0.845172 0.198667 0.081389
v -0.929667 0.462514 0.071404
v -0.925388 0.186138 0.081863
v -0.889559 0.465576 -0.013459
v -0.929667 0.456109 -0.097847
v -0.885280 0.193574 0.112576
v -0.946192 0.564957 -0.017220
v -0.885280 0.184826 -0.118574
v -0.823572 -0.205314 0.011931
v -0.830504 0.197755 -0.003323
v -0.940056 0.180644 -0.002676
v -0.943847 0.316047 -0.086713
v -0.869153 0.327713 -0.087155
v -0.863413 0.188535 -0.110937
v -0.826713 0.056388 -0.076887
v -0.824370 -0.079827 -0.071732
v -0.860645 0.027626 -0.104848
v -0.862042 -0.085711 -0.071509
v -0.901407 0.044721 -0.076445
v -0.827718 -0.180551 -0.035210
v -0.849585 -0.182220 0.011057
v -0.880553 -0.087124 -0.032342
v -0.805859 -0.075458 -0.032783
v -0.805851 -0.175389 0.010798
v -0.805859 -0.072450 0.046703
v -0.827718 -0.177059 0.057067
v -0.880553 -0.084116 0.047145
v -0.809550 0.039687 0.002659
v -0.834185 0.198926 0.042838
v -0.834185 0.195434 -0.049439
v -0.858819 0.354673 -0.009262
v -0.911741 0.023725 0.003263
v -0.936375 0.179472 -0.048835
v -0.936375 0.182965 0.043442
v -0.961010 0.338712 -0.008658
v -0.862042 -0.079746 0.086093
v -0.860645 0.035786 0.110770
v -0.907147 0.189864 0.104939
v -0.901407 0.050685 0.081157
v -0.824370 -0.073862 0.085870
v -0.826713 0.062352 0.080715
v -0.863413 0.196695 0.104680
v -0.869153 0.333678 0.070447
v -0.907721 0.445354 0.066221
v -0.909915 0.350773 0.098849
v -0.945393 0.439470 0.066443
v -0.943847 0.322011 0.070889
v -0.942045 0.540194 0.029922
v -0.963912 0.535032 -0.016087
v -0.963904 0.435101 0.027495
v -0.889210 0.446768 0.027053
v -0.920178 0.541863 -0.016346
v -0.889210 0.443760 -0.052433
v -0.907721 0.439389 -0.091381
v -0.942045 0.536702 -0.062354
v -0.945393 0.433506 -0.091159
v -0.963904 0.432093 -0.051991
v -0.909915 0.342613 -0.116768
v -0.907147 0.181704 -0.110679
v -0.882704 0.043247 0.103168
v -0.842001 0.049604 0.102928
v -0.887856 0.342760 0.091833
v -0.928559 0.336403 0.092074
v -0.958494 0.511945 0.027789
v -0.917791 0.518303 0.027549
v -0.917791 0.515052 -0.058333
v -0.958494 0.508695 -0.058092
v -0.928559 0.328796 -0.108925
v -0.887856 0.335153 -0.109166
v -0.842001 0.041997 -0.098071
v -0.882704 0.035640 -0.097831
v -0.851972 -0.158659 -0.032836
v -0.811269 -0.152302 -0.033077
v -0.811269 -0.149052 0.052804
v -0.851972 -0.155409 0.053045
v -0.814722 0.051687 0.045208
v -0.814722 0.048436 -0.040674
v -0.860576 0.341593 -0.051768
v -0.860576 0.344843 0.034113
v -0.909984 0.033557 -0.040111
v -0.909984 0.036807 0.045771
v -0.955838 0.329963 0.034676
v -0.955838 0.326713 -0.051205
vt 0.510259 0.070812
vt 0.515308 0.054440
vt 0.524592 0.106711
vt 0.515308 0.110245
vt 0.546819 0.342726
vt 0.556202 0.335479
vt 0.547416 0.391687
vt 0.537985 0.394997
vt 0.536884 0.459070
vt 0.527535 0.457609
vt 0.527719 0.169323
vt 0.517800 0.168104
vt 0.562926 0.345244
vt 0.555388 0.397717
vt 0.547579 0.056957
vt 0.552628 0.075056
vt 0.547579 0.115237
vt 0.538295 0.109431
vt 0.545087 0.173465
vt 0.535168 0.172246
vt 0.546233 0.460532
vt 0.535783 0.523144
vt 0.526352 0.526454
vt 0.547579 0.231323
vt 0.538295 0.234858
vt 0.552628 0.262732
vt 0.547579 0.279104
vt 0.527289 0.567390
vt 0.517907 0.574638
vt 0.524592 0.232138
vt 0.515308 0.226332
vt 0.518380 0.520424
vt 0.511183 0.564873
vt 0.515308 0.276586
vt 0.510259 0.258488
vt 0.499965 0.308175
vt 0.498597 0.275349
vt 0.517800 0.286352
vt 0.501333 0.320210
vt 0.481593 0.331552
vt 0.481593 0.318749
vt 0.481593 0.283671
vt 0.545087 0.286352
vt 0.562922 0.310896
vt 0.561553 0.320210
vt 0.564290 0.280341
vt 0.581294 0.289032
vt 0.581294 0.321671
vt 0.581294 0.331552
vt 0.599666 0.310896
vt 0.601034 0.320210
vt 0.598298 0.280341
vt 0.609960 0.262732
vt 0.615009 0.279104
vt 0.617501 0.286352
vt 0.463221 0.308175
vt 0.464589 0.275349
vt 0.461853 0.320210
vt 0.445386 0.286352
vt 0.447878 0.276586
vt 0.452927 0.258488
vt 0.438594 0.232138
vt 0.447878 0.226332
vt 0.453405 0.345244
vt 0.460128 0.335479
vt 0.468573 0.383662
vt 0.460602 0.389692
vt 0.479106 0.451046
vt 0.469757 0.452507
vt 0.435467 0.169323
vt 0.445386 0.168104
vt 0.469511 0.342726
vt 0.478004 0.386972
vt 0.615009 0.231323
vt 0.624293 0.234858
vt 0.617501 0.173465
vt 0.627420 0.172246
vt 0.488455 0.449585
vt 0.497609 0.512399
vt 0.489638 0.518429
vt 0.615009 0.115237
vt 0.624293 0.109431
vt 0.609960 0.075056
vt 0.615009 0.056957
vt 0.505147 0.564873
vt 0.498424 0.574638
vt 0.438594 0.106711
vt 0.447878 0.110245
vt 0.480207 0.515119
vt 0.489041 0.567390
vt 0.447878 0.054440
vt 0.452927 0.070812
vt 0.463221 0.022648
vt 0.464589 0.053203
vt 0.445386 0.047192
vt 0.461853 0.013334
vt 0.481593 0.001992
vt 0.481593 0.011873
vt 0.481593 0.044512
vt 0.617501 0.047192
vt 0.599666 0.025368
vt 0.601034 0.013334
vt 0.598298 0.058195
vt 0.581294 0.049873
vt 0.581294 0.014795
vt 0.581294 0.001992
vt 0.562922 0.025368
vt 0.561553 0.013334
vt 0.564290 0.058195
vt 0.545087 0.047192
vt 0.499965 0.022648
vt 0.498597 0.053203
vt 0.501333 0.013334
vt 0.517800 0.047192
vt 0.562922 0.111254
vt 0.581294 0.106815
vt 0.581294 0.174445
vt 0.561553 0.174199
vt 0.599666 0.111254
vt 0.601034 0.174199
vt 0.599666 0.236681
vt 0.581294 0.241582
vt 0.562922 0.236681
vt 0.463221 0.104888
vt 0.481593 0.099986
vt 0.481593 0.167124
vt 0.461853 0.167370
vt 0.499965 0.104888
vt 0.501333 0.167370
vt 0.499965 0.230315
vt 0.481593 0.234753
vt 0.463221 0.230315
vn -0.867748 -0.232490 0.439274
vn -0.644958 -0.272064 0.714150
vn -0.586107 -0.145711 0.797024
vn -0.880077 -0.176458 0.440826
vn -0.644958 -0.272064 0.714150
vn 0.051948 -0.296498 0.953619
vn 0.018988 -0.083859 0.996297
vn -0.586107 -0.145711 0.797024
vn -0.586107 -0.145711 0.797024
vn 0.018988 -0.083859 0.996297
vn 0.000000 0.037818 0.999285
vn -0.597123 -0.063137 0.799661
vn -0.880077 -0.176458 0.440826
vn -0.586107 -0.145711 0.797024
vn -0.597123 -0.063137 0.799661
vn -0.889505 -0.122474 0.440206
vn 0.051948 -0.296498 0.953619
vn 0.705399 -0.061148 0.706168
vn 0.611782 0.041391 0.789943
vn 0.018988 -0.083859 0.996297
vn 0.705399 -0.061148 0.706168
vn 0.902322 0.043983 0.428812
vn 0.896995 0.101108 0.430321
vn 0.611782 0.041391 0.789943
vn 0.611782 0.041391 0.789943
vn 0.896995 0.101108 0.430321
vn 0.889505 0.155395 0.429690
vn 0.597123 0.123396 0.792602
vn 0.018988 -0.083859 0.996297
vn 0.611782 0.041391 0.789943
vn 0.597123 0.123396 0.792602
vn 0.000000 0.037818 0.999285
vn 0.000000 0.037818 0.999285
vn 0.597123 0.123396 0.792602
vn 0.587730 0.215731 0.779765
vn -0.018496 0.169991 0.985272
vn 0.597123 0.123396 0.792602
vn 0.889505 0.155395 0.429690
vn 0.878588 0.216763 0.425555
vn 0.587730 0.215731 0.779765
vn 0.587730 0.215731 0.779765
vn 0.878588 0.216763 0.425555
vn 0.858545 0.298650 0.416784
vn 0.661688 0.345180 0.665597
vn -0.018496 0.169991 0.985272
vn 0.587730 0.215731 0.779765
vn 0.661688 0.345180 0.665597
vn -0.057642 0.383812 0.921610
vn -0.889505 -0.122474 0.440206
vn -0.597123 -0.063137 0.799661
vn -0.607009 0.019988 0.794443
vn -0.896381 -0.070451 0.437651
vn -0.597123 -0.063137 0.799661
vn 0.000000 0.037818 0.999285
vn -0.018496 0.169991 0.985272
vn -0.607009 0.019988 0.794443
vn -0.607009 0.019988 0.794443
vn -0.018496 0.169991 0.985272
vn -0.057642 0.383812 0.921610
vn -0.722184 0.120073 0.681199
vn -0.896381 -0.070451 0.437651
vn -0.607009 0.019988 0.794443
vn -0.722184 0.120073 0.681199
vn -0.903035 -0.010015 0.429450
vn -0.903035 -0.010015 0.429450
vn -0.722184 0.120073 0.681199
vn -0.886762 0.204904 0.414328
vn -0.973107 -0.005701 0.230285
vn -0.722184 0.120073 0.681199
vn -0.057642 0.383812 0.921610
vn -0.109133 0.724467 0.680616
vn -0.886762 0.204904 0.414328
vn -0.886762 0.204904 0.414328
vn -0.109133 0.724467 0.680616
vn -0.154429 0.987297 -0.037364
vn -0.963306 0.268213 -0.010150
vn -0.973107 -0.005701 0.230285
vn -0.886762 0.204904 0.414328
vn -0.963306 0.268213 -0.010150
vn -0.999980 0.006311 -0.000239
vn -0.057642 0.383812 0.921610
vn 0.661688 0.345180 0.665597
vn 0.786765 0.466296 0.404436
vn -0.109133 0.724467 0.680616
vn 0.661688 0.345180 0.665597
vn 0.858545 0.298650 0.416784
vn 0.922881 0.311114 0.226936
vn 0.786765 0.466296 0.404436
vn 0.786765 0.466296 0.404436
vn 0.922881 0.311114 0.226936
vn 0.945184 0.326305 -0.012349
vn 0.835454 0.549167 -0.020783
vn -0.109133 0.724467 0.680616
vn 0.786765 0.466296 0.404436
vn 0.835454 0.549167 -0.020783
vn -0.154429 0.987297 -0.037364
vn -0.154429 0.987297 -0.037364
vn 0.835454 0.549167 -0.020783
vn 0.786765 0.434395 -0.438523
vn -0.109133 0.670952 -0.733425
vn 0.835454 0.549167 -0.020783
vn 0.945184 0.326305 -0.012349
vn 0.922881 0.293072 -0.249801
vn 0.786765 0.434395 -0.438523
vn 0.786765 0.434395 -0.438523
vn 0.922881 0.293072 -0.249801
vn 0.858545 0.266295 -0.438164
vn 0.661688 0.293886 -0.689783
vn -0.109133 0.670952 -0.733425
vn 0.786765 0.434395 -0.438523
vn 0.661688 0.293886 -0.689783
vn -0.057642 0.313057 -0.947983
vn -0.999980 0.006311 -0.000239
vn -0.963306 0.268213 -0.010150
vn -0.886762 0.173001 -0.428630
vn -0.973107 -0.023090 -0.229196
vn -0.963306 0.268213 -0.010150
vn -0.154429 0.987297 -0.037364
vn -0.109133 0.670952 -0.733425
vn -0.886762 0.173001 -0.428630
vn -0.886762 0.173001 -0.428630
vn -0.109133 0.670952 -0.733425
vn -0.057642 0.313057 -0.947983
vn -0.722184 0.068244 -0.688326
vn -0.973107 -0.023090 -0.229196
vn -0.886762 0.173001 -0.428630
vn -0.722184 0.068244 -0.688326
vn -0.903035 -0.042445 -0.427465
vn -0.903035 -0.042445 -0.427465
vn -0.722184 0.068244 -0.688326
vn -0.607009 -0.040114 -0.793682
vn -0.896381 -0.103328 -0.431075
vn -0.722184 0.068244 -0.688326
vn -0.057642 0.313057 -0.947983
vn -0.018495 0.095037 -0.995302
vn -0.607009 -0.040114 -0.793682
vn -0.607009 -0.040114 -0.793682
vn -0.018495 0.095037 -0.995302
vn 0.000000 -0.037818 -0.999285
vn -0.597123 -0.123396 -0.792602
vn -0.896381 -0.103328 -0.431075
vn -0.607009 -0.040114 -0.793682
vn -0.597123 -0.123396 -0.792602
vn -0.889505 -0.155395 -0.429690
vn -0.057642 0.313057 -0.947983
vn 0.661688 0.293886 -0.689783
vn 0.587730 0.156178 -0.793840
vn -0.018495 0.095037 -0.995302
vn 0.661688 0.293886 -0.689783
vn 0.858545 0.266295 -0.438164
vn 0.878588 0.183979 -0.440721
vn 0.587730 0.156178 -0.793840
vn 0.587730 0.156178 -0.793840
vn 0.878588 0.183979 -0.440721
vn 0.889505 0.122474 -0.440206
vn 0.597123 0.063137 -0.799661
vn -0.018495 0.095037 -0.995302
vn 0.587730 0.156178 -0.793840
vn 0.597123 0.063137 -0.799661
vn 0.000000 -0.037818 -0.999285
vn 0.000000 -0.037818 -0.999285
vn 0.597123 0.063137 -0.799661
vn 0.611782 -0.018432 -0.790812
vn 0.018988 -0.158921 -0.987109
vn 0.597123 0.063137 -0.799661
vn 0.889505 0.122474 -0.440206
vn 0.896996 0.068295 -0.436732
vn 0.611782 -0.018432 -0.790812
vn 0.611782 -0.018432 -0.790812
vn 0.896996 0.068295 -0.436732
vn 0.902322 0.011447 -0.430910
vn 0.705399 -0.114345 -0.699526
vn 0.018988 -0.158921 -0.987109
vn 0.611782 -0.018432 -0.790812
vn 0.705399 -0.114345 -0.699526
vn 0.051948 -0.367726 -0.928482
vn -0.889505 -0.155395 -0.429690
vn -0.597123 -0.123396 -0.792602
vn -0.586107 -0.205534 -0.783731
vn -0.880077 -0.209272 -0.426228
vn -0.597123 -0.123396 -0.792602
vn 0.000000 -0.037818 -0.999285
vn 0.018988 -0.158921 -0.987109
vn -0.586107 -0.205534 -0.783731
vn -0.586107 -0.205534 -0.783731
vn 0.018988 -0.158921 -0.987109
vn 0.051948 -0.367726 -0.928482
vn -0.644958 -0.325262 -0.691544
vn -0.880077 -0.209272 -0.426228
vn -0.586107 -0.205534 -0.783731
vn -0.644958 -0.325262 -0.691544
vn -0.867748 -0.265026 -0.420447
vn -0.867748 -0.265026 -0.420447
vn -0.644958 -0.325262 -0.691544
vn -0.786765 -0.466296 -0.404436
vn -0.933106 -0.289677 -0.213074
vn -0.644958 -0.325262 -0.691544
vn 0.051948 -0.367726 -0.928482
vn 0.109134 -0.724466 -0.680616
vn -0.786765 -0.466296 -0.404436
vn -0.786765 -0.466296 -0.404436
vn 0.109134 -0.724466 -0.680616
vn 0.154429 -0.987297 0.037364
vn -0.835455 -0.549167 0.020783
vn -0.933106 -0.289677 -0.213074
vn -0.786765 -0.466296 -0.404436
vn -0.835455 -0.549167 0.020783
vn -0.951398 -0.307744 0.011647
vn 0.051948 -0.367726 -0.928482
vn 0.705399 -0.114345 -0.699526
vn 0.886762 -0.204904 -0.414328
vn 0.109134 -0.724466 -0.680616
vn 0.705399 -0.114345 -0.699526
vn 0.902322 0.011447 -0.430910
vn 0.974473 0.008273 -0.224350
vn 0.886762 -0.204904 -0.414328
vn 0.886762 -0.204904 -0.414328
vn 0.974473 0.008273 -0.224350
vn 0.999996 -0.002949 0.000112
vn 0.963306 -0.268213 0.010150
vn 0.109134 -0.724466 -0.680616
vn 0.886762 -0.204904 -0.414328
vn 0.963306 -0.268213 0.010150
vn 0.154429 -0.987297 0.037364
vn 0.154429 -0.987297 0.037364
vn 0.963306 -0.268213 0.010150
vn 0.886762 -0.173002 0.428630
vn 0.109134 -0.670952 0.733425
vn 0.963306 -0.268213 0.010150
vn 0.999996 -0.002949 0.000112
vn 0.974473 0.025207 0.223083
vn 0.886762 -0.173002 0.428630
vn 0.886762 -0.173002 0.428630
vn 0.974473 0.025207 0.223083
vn 0.902322 0.043983 0.428812
vn 0.705399 -0.061148 0.706168
vn 0.109134 -0.670952 0.733425
vn 0.886762 -0.173002 0.428630
vn 0.705399 -0.061148 0.706168
vn 0.051948 -0.296498 0.953619
vn -0.951398 -0.307744 0.011647
vn -0.835455 -0.549167 0.020783
vn -0.786765 -0.434395 0.438523
vn -0.933106 -0.272745 0.234359
vn -0.835455 -0.549167 0.020783
vn 0.154429 -0.987297 0.037364
vn 0.109134 -0.670952 0.733425
vn -0.786765 -0.434395 0.438523
vn -0.786765 -0.434395 0.438523
vn 0.109134 -0.670952 0.733425
vn 0.051948 -0.296498 0.953619
vn -0.644958 -0.272064 0.714150
vn -0.933106 -0.272745 0.234359
vn -0.786765 -0.434395 0.438523
vn -0.644958 -0.272064 0.714150
vn -0.867748 -0.232490 0.439274
vn 0.902322 0.043983 0.428812
vn 0.974473 0.025207 0.223083
vn 0.979080 0.107608 0.172693
vn 0.896995 0.101108 0.430321
vn 0.974473 0.025207 0.223083
vn 0.999996 -0.002949 0.000112
vn 0.995054 0.099262 -0.003757
vn 0.979080 0.107608 0.172693
vn 0.979080 0.107608 0.172693
vn 0.995054 0.099262 -0.003757
vn 0.988004 0.154319 -0.005840
vn 0.972932 0.158546 0.168129
vn 0.896995 0.101108 0.430321
vn 0.979080 0.107608 0.172693
vn 0.972932 0.158546 0.168129
vn 0.889505 0.155395 0.429690
vn 0.999996 -0.002949 0.000112
vn 0.974473 0.008273 -0.224350
vn 0.979080 0.094248 -0.180332
vn 0.995054 0.099262 -0.003757
vn 0.974473 0.008273 -0.224350
vn 0.902322 0.011447 -0.430910
vn 0.896996 0.068295 -0.436732
vn 0.979080 0.094248 -0.180332
vn 0.979080 0.094248 -0.180332
vn 0.896996 0.068295 -0.436732
vn 0.889505 0.122474 -0.440206
vn 0.972932 0.145385 -0.179632
vn 0.995054 0.099262 -0.003757
vn 0.979080 0.094248 -0.180332
vn 0.972932 0.145385 -0.179632
vn 0.988004 0.154319 -0.005840
vn 0.988004 0.154319 -0.005840
vn 0.972932 0.145385 -0.179632
vn 0.959925 0.206361 -0.189629
vn 0.974972 0.222169 -0.008408
vn 0.972932 0.145385 -0.179632
vn 0.889505 0.122474 -0.440206
vn 0.878588 0.183979 -0.440721
vn 0.959925 0.206361 -0.189629
vn 0.959925 0.206361 -0.189629
vn 0.878588 0.183979 -0.440721
vn 0.858545 0.266295 -0.438164
vn 0.922881 0.293072 -0.249801
vn 0.974972 0.222169 -0.008408
vn 0.959925 0.206361 -0.189629
vn 0.922881 0.293072 -0.249801
vn 0.945184 0.326305 -0.012349
vn 0.889505 0.155395 0.429690
vn 0.972932 0.158546 0.168129
vn 0.959925 0.220103 0.173489
vn 0.878588 0.216763 0.425555
vn 0.972932 0.158546 0.168129
vn 0.988004 0.154319 -0.005840
vn 0.974972 0.222169 -0.008408
vn 0.959925 0.220103 0.173489
vn 0.959925 0.220103 0.173489
vn 0.974972 0.222169 -0.008408
vn 0.945184 0.326305 -0.012349
vn 0.922881 0.311114 0.226936
vn 0.878588 0.216763 0.425555
vn 0.959925 0.220103 0.173489
vn 0.922881 0.311114 0.226936
vn 0.858545 0.298650 0.416784
vn -0.867748 -0.265026 -0.420447
vn -0.933106 -0.289677 -0.213074
vn -0.963201 -0.209123 -0.168851
vn -0.880077 -0.209272 -0.426228
vn -0.933106 -0.289677 -0.213074
vn -0.951398 -0.307744 0.011647
vn -0.977905 -0.208900 0.007906
vn -0.963201 -0.209123 -0.168851
vn -0.963201 -0.209123 -0.168851
vn -0.977905 -0.208900 0.007906
vn -0.988004 -0.154319 0.005840
vn -0.972932 -0.158546 -0.168129
vn -0.880077 -0.209272 -0.426228
vn -0.963201 -0.209123 -0.168851
vn -0.972932 -0.158546 -0.168129
vn -0.889505 -0.155395 -0.429690
vn -0.951398 -0.307744 0.011647
vn -0.933106 -0.272745 0.234359
vn -0.963201 -0.195763 0.184174
vn -0.977905 -0.208900 0.007906
vn -0.933106 -0.272745 0.234359
vn -0.867748 -0.232490 0.439274
vn -0.880077 -0.176458 0.440826
vn -0.963201 -0.195763 0.184174
vn -0.963201 -0.195763 0.184174
vn -0.880077 -0.176458 0.440826
vn -0.889505 -0.122474 0.440206
vn -0.972932 -0.145385 0.179632
vn -0.977905 -0.208900 0.007906
vn -0.963201 -0.195763 0.184174
vn -0.972932 -0.145385 0.179632
vn -0.988004 -0.154319 0.005840
vn -0.988004 -0.154319 0.005840
vn -0.972932 -0.145385 0.179632
vn -0.979298 -0.098591 0.176790
vn -0.994582 -0.103885 0.003931
vn -0.972932 -0.145385 0.179632
vn -0.889505 -0.122474 0.440206
vn -0.896381 -0.070451 0.437651
vn -0.979298 -0.098591 0.176790
vn -0.979298 -0.098591 0.176790
vn -0.896381 -0.070451 0.437651
vn -0.903035 -0.010015 0.429450
vn -0.973107 -0.005701 0.230285
vn -0.994582 -0.103885 0.003931
vn -0.979298 -0.098591 0.176790
vn -0.973107 -0.005701 0.230285
vn -0.999980 0.006311 -0.000239
vn -0.889505 -0.155395 -0.429690
vn -0.972932 -0.158546 -0.168129
vn -0.979298 -0.111671 -0.168833
vn -0.896381 -0.103328 -0.431075
vn -0.972932 -0.158546 -0.168129
vn -0.988004 -0.154319 0.005840
vn -0.994582 -0.103885 0.003931
vn -0.979298 -0.111671 -0.168833
vn -0.979298 -0.111671 -0.168833
vn -0.994582 -0.103885 0.003931
vn -0.999980 0.006311 -0.000239
vn -0.973107 -0.023090 -0.229196
vn -0.896381 -0.103328 -0.431075
vn -0.979298 -0.111671 -0.168833
vn -0.973107 -0.023090 -0.229196
vn -0.903035 -0.042445 -0.427465
s off
g polySurface24 polySurface19
usemtl bunny:initialShadingGroup
f 1/1/1 51/2/2 75/3/3 54/4/4
f 51/5/5 15/6/6 52/7/7 75/8/8
f 75/8/9 52/7/10 21/9/11 53/10/12
f 54/4/13 75/3/14 53/11/15 18/12/16
f 15/6/17 55/13/18 76/14/19 52/7/20
f 55/15/21 2/16/22 56/17/23 76/18/24
f 76/18/25 56/17/26 16/19/27 57/20/28
f 52/7/29 76/14/30 57/21/31 21/9/32
f 21/9/33 57/21/34 77/22/35 60/23/36
f 57/20/37 16/19/38 58/24/39 77/25/40
f 77/25/41 58/24/42 4/26/43 59/27/44
f 60/23/45 77/22/46 59/28/47 17/29/48
f 18/12/49 53/11/50 78/30/51 62/31/52
f 53/10/53 21/9/54 60/23/55 78/32/56
f 78/32/57 60/23/58 17/29/59 61/33/60
f 62/31/61 78/30/62 61/34/63 3/35/64
f 3/35/65 61/34/66 79/36/67 65/37/68
f 61/34/69 17/38/70 63/39/71 79/36/72
f 79/36/73 63/39/74 22/40/75 64/41/76
f 65/37/77 79/36/78 64/41/79 9/42/80
f 17/43/81 59/27/82 80/44/83 63/45/84
f 59/27/85 4/26/86 66/46/87 80/44/88
f 80/44/89 66/46/90 19/47/91 67/48/92
f 63/45/93 80/44/94 67/48/95 22/49/96
f 22/49/97 67/48/98 81/50/99 70/51/100
f 67/48/101 19/47/102 68/52/103 81/50/104
f 81/50/105 68/52/106 6/53/107 69/54/108
f 70/51/109 81/50/110 69/54/111 20/55/112
f 9/42/113 64/41/114 82/56/115 72/57/116
f 64/41/117 22/40/118 70/58/119 82/56/120
f 82/56/121 70/58/122 20/59/123 71/60/124
f 72/57/125 82/56/126 71/60/127 5/61/128
f 5/61/129 71/60/130 83/62/131 27/63/132
f 71/64/133 20/65/134 73/66/135 83/67/136
f 83/67/137 73/66/138 23/68/139 74/69/140
f 27/63/141 83/62/142 74/70/143 12/71/144
f 20/65/145 69/72/146 84/73/147 73/66/148
f 69/54/149 6/53/150 28/74/151 84/75/152
f 84/75/153 28/74/154 10/76/155 29/77/156
f 73/66/157 84/73/158 29/78/159 23/68/160
f 23/68/161 29/78/162 85/79/163 32/80/164
f 29/77/165 10/76/166 30/81/167 85/82/168
f 85/82/169 30/81/170 8/83/171 31/84/172
f 32/80/173 85/79/174 31/85/175 11/86/176
f 12/71/177 74/70/178 86/87/179 34/88/180
f 74/69/181 23/68/182 32/80/183 86/89/184
f 86/89/185 32/80/186 11/86/187 33/90/188
f 34/88/189 86/87/190 33/91/191 7/92/192
f 7/92/193 33/91/194 87/93/195 37/94/196
f 33/91/197 11/95/198 35/96/199 87/93/200
f 87/93/201 35/96/202 24/97/203 36/98/204
f 37/94/205 87/93/206 36/98/207 14/99/208
f 11/100/209 31/84/210 88/101/211 35/102/212
f 31/84/213 8/83/214 38/103/215 88/101/216
f 88/101/217 38/103/218 13/104/219 39/105/220
f 35/102/221 88/101/222 39/105/223 24/106/224
f 24/106/225 39/105/226 89/107/227 41/108/228
f 39/105/229 13/104/230 40/109/231 89/107/232
f 89/107/233 40/109/234 2/16/235 55/15/236
f 41/108/237 89/107/238 55/15/239 15/110/240
f 14/99/241 36/98/242 90/111/243 42/112/244
f 36/98/245 24/97/246 41/113/247 90/111/248
f 90/111/249 41/113/250 15/114/251 51/2/252
f 42/112/253 90/111/254 51/2/255 1/1/256
f 2/16/257 40/109/258 91/115/259 56/17/260
f 40/109/261 13/104/262 43/116/263 91/115/264
f 91/115/265 43/116/266 25/117/267 44/118/268
f 56/17/269 91/115/270 44/118/271 16/19/272
f 13/104/273 38/103/274 92/119/275 43/116/276
f 38/103/277 8/83/278 30/81/279 92/119/280
f 92/119/281 30/81/282 10/76/283 45/120/284
f 43/116/285 92/119/286 45/120/287 25/117/288
f 25/117/289 45/120/290 93/121/291 46/122/292
f 45/120/293 10/76/294 28/74/295 93/121/296
f 93/121/297 28/74/298 6/53/299 68/52/300
f 46/122/301 93/121/302 68/52/303 19/47/304
f 16/19/305 44/118/306 94/123/307 58/24/308
f 44/118/309 25/117/310 46/122/311 94/123/312
f 94/123/313 46/122/314 19/47/315 66/46/316
f 58/24/317 94/123/318 66/46/319 4/26/320
f 7/92/321 37/94/322 95/124/323 34/88/324
f 37/94/325 14/99/326 47/125/327 95/124/328
f 95/124/329 47/125/330 26/126/331 48/127/332
f 34/88/333 95/124/334 48/127/335 12/71/336
f 14/99/337 42/112/338 96/128/339 47/125/340
f 42/112/341 1/1/342 54/4/343 96/128/344
f 96/128/345 54/4/346 18/12/347 49/129/348
f 47/125/349 96/128/350 49/129/351 26/126/352
f 26/126/353 49/129/354 97/130/355 50/131/356
f 49/129/357 18/12/358 62/31/359 97/130/360
f 97/130/361 62/31/362 3/35/363 65/37/364
f 50/131/365 97/130/366 65/37/367 9/42/368
f 12/71/369 48/127/370 98/132/371 27/63/372
f 48/127/373 26/126/374 50/131/375 98/132/376
f 98/132/377 50/131/378 9/42/379 72/57/380
f 27/63/381 98/132/382 72/57/383 5/61/384
