# This file uses centimeters as units for non-parametric coordinates.

mtllib roofsupportlivin.mtl
g default
v 2.602218 1.562113 1.897034
v 2.602218 1.568972 1.903893
v 2.599052 1.568972 1.897034
v 2.719391 1.568972 1.897034
v 2.716225 1.568972 1.903893
v 2.716225 1.562113 1.897034
v 2.599052 1.629946 1.897034
v 2.602218 1.629946 1.903893
v 2.602218 1.636805 1.897034
v 2.716225 1.636805 1.897034
v 2.716225 1.629946 1.903893
v 2.719391 1.629946 1.897034
v 2.599052 1.629946 -1.670826
v 2.602218 1.636805 -1.670826
v 2.602218 1.629946 -1.677685
v 2.716225 1.629946 -1.677685
v 2.716225 1.636805 -1.670826
v 2.719391 1.629946 -1.670826
v 2.599052 1.568972 -1.670826
v 2.602218 1.568972 -1.677685
v 2.602218 1.562113 -1.670826
v 2.716225 1.562113 -1.670826
v 2.716225 1.568972 -1.677685
v 2.719391 1.568972 -1.670826
vt 0.664151 0.080125
vt 0.666033 0.080125
vt 0.666033 0.870374
vt 0.664151 0.870374
vt 0.682762 0.080125
vt 0.682762 0.870374
vt 0.684643 0.080125
vt 0.684643 0.870374
vt 0.687132 0.870374
vt 0.685250 0.870374
vt 0.685250 0.080125
vt 0.687132 0.080125
vt 0.703861 0.080125
vt 0.703861 0.870374
vt 0.705742 0.870374
vt 0.705742 0.080125
vt 0.093023 0.020583
vt 0.121689 0.020583
vt 0.121689 0.128540
vt 0.093023 0.128540
vt 0.941620 0.031278
vt 0.965597 0.031278
vt 0.965597 0.987431
vt 0.941620 0.987431
vt 0.130616 0.131837
vt 0.130616 0.129059
vt 0.159282 0.129059
vt 0.159282 0.131837
vt 0.129820 0.131837
vt 0.160078 0.131837
vt 0.159282 0.156538
vt 0.130616 0.156538
vt 0.129820 0.156538
vt 0.160078 0.156538
vt 0.130616 0.159317
vt 0.159282 0.159317
vt 0.098765 0.131837
vt 0.099561 0.131837
vt 0.099561 0.156538
vt 0.098765 0.156538
vt 0.099561 0.129059
vt 0.128227 0.131837
vt 0.128227 0.156538
vt 0.099561 0.159317
vt 0.128227 0.129059
vt 0.129023 0.131837
vt 0.129023 0.156538
vt 0.128227 0.159317
vn -0.907926 -0.419130 0.000000
vn -0.907926 -0.419130 0.000000
vn -0.907926 -0.419130 0.000000
vn -0.907926 -0.419130 0.000000
vn 0.000000 -0.707101 0.707113
vn 0.000000 -0.707101 0.707113
vn 0.000000 -0.707101 0.707113
vn 0.000000 -0.707101 0.707113
vn -0.907923 0.000000 0.419137
vn -0.907923 0.000000 0.419137
vn -0.907923 0.000000 0.419137
vn -0.907923 0.000000 0.419137
vn 0.907926 -0.419130 0.000000
vn 0.907926 -0.419130 0.000000
vn 0.907926 -0.419130 0.000000
vn 0.907926 -0.419130 0.000000
vn 0.907923 0.000000 0.419137
vn 0.907923 0.000000 0.419137
vn 0.907923 0.000000 0.419137
vn 0.907923 0.000000 0.419137
vn -0.907920 0.419144 0.000000
vn -0.907920 0.419144 0.000000
vn -0.907920 0.419144 0.000000
vn -0.907920 0.419144 0.000000
vn 0.000000 0.707116 0.707098
vn 0.000000 0.707116 0.707098
vn 0.000000 0.707116 0.707098
vn 0.000000 0.707116 0.707098
vn 0.907920 0.419144 0.000000
vn 0.907920 0.419144 0.000000
vn 0.907920 0.419144 0.000000
vn 0.907920 0.419144 0.000000
vn -0.907923 0.000000 -0.419137
vn -0.907923 0.000000 -0.419137
vn -0.907923 0.000000 -0.419137
vn -0.907923 0.000000 -0.419137
vn 0.000000 0.707116 -0.707098
vn 0.000000 0.707116 -0.707098
vn 0.000000 0.707116 -0.707098
vn 0.000000 0.707116 -0.707098
vn 0.907923 0.000000 -0.419137
vn 0.907923 0.000000 -0.419137
vn 0.907923 0.000000 -0.419137
vn 0.907923 0.000000 -0.419137
vn 0.000000 -0.707101 -0.707113
vn 0.000000 -0.707101 -0.707113
vn 0.000000 -0.707101 -0.707113
vn 0.000000 -0.707101 -0.707113
vn 0.000000 0.000000 1.000000
vn 0.000000 0.000000 1.000000
vn 0.000000 0.000000 1.000000
vn 0.000000 0.000000 1.000000
vn 0.000000 1.000000 0.000000
vn 0.000000 1.000000 0.000000
vn 0.000000 1.000000 0.000000
vn 0.000000 1.000000 0.000000
vn 0.000000 0.000000 -1.000000
vn 0.000000 0.000000 -1.000000
vn 0.000000 0.000000 -1.000000
vn 0.000000 0.000000 -1.000000
vn 0.000000 -1.000000 0.000000
vn 0.000000 -1.000000 0.000000
vn 0.000000 -1.000000 0.000000
vn 0.000000 -1.000000 0.000000
vn 1.000000 0.000000 0.000000
vn 1.000000 0.000000 0.000000
vn 1.000000 0.000000 0.000000
vn 1.000000 0.000000 0.000000
vn -1.000000 0.000000 0.000000
vn -1.000000 0.000000 0.000000
vn -1.000000 0.000000 0.000000
vn -1.000000 0.000000 0.000000
vn -0.837350 -0.386549 0.386555
vn -0.837350 -0.386549 0.386555
vn -0.837350 -0.386549 0.386555
vn 0.837350 -0.386549 0.386555
vn 0.837350 -0.386549 0.386555
vn 0.837350 -0.386549 0.386555
vn -0.837343 0.386564 0.386554
vn -0.837343 0.386564 0.386554
vn -0.837343 0.386564 0.386554
vn 0.837343 0.386564 0.386554
vn 0.837343 0.386564 0.386554
vn 0.837343 0.386564 0.386554
vn -0.837343 0.386564 -0.386554
vn -0.837343 0.386564 -0.386554
vn -0.837343 0.386564 -0.386554
vn 0.837343 0.386564 -0.386554
vn 0.837343 0.386564 -0.386554
vn 0.837343 0.386564 -0.386554
vn -0.837350 -0.386549 -0.386555
vn -0.837350 -0.386549 -0.386555
vn -0.837350 -0.386549 -0.386555
vn 0.837350 -0.386549 -0.386555
vn 0.837350 -0.386549 -0.386555
vn 0.837350 -0.386549 -0.386555
s off
g pCube125
usemtl initialShadingGroup
f 1/1/1 3/2/2 19/3/3 21/4/4
f 2/25/5 1/26/6 6/27/7 5/28/8
f 3/29/9 2/25/10 8/32/11 7/33/12
f 4/9/13 6/10/14 22/11/15 24/12/16
f 5/28/17 4/30/18 12/34/19 11/31/20
f 7/5/21 9/7/22 14/8/23 13/6/24
f 9/35/25 8/32/26 11/31/27 10/36/28
f 10/15/29 12/14/30 18/13/31 17/16/32
f 13/37/33 15/38/34 20/39/35 19/40/36
f 15/38/37 14/41/38 17/45/39 16/42/40
f 16/42/41 18/46/42 24/47/43 23/43/44
f 21/44/45 20/39/46 23/43/47 22/48/48
f 2/25/49 5/28/50 11/31/51 8/32/52
f 9/17/53 10/18/54 17/19/55 14/20/56
f 15/38/57 16/42/58 23/43/59 20/39/60
f 21/21/61 22/22/62 6/23/63 1/24/64
f 4/9/65 24/12/66 18/13/67 12/14/68
f 19/3/69 3/2/70 7/5/71 13/6/72
f 1/26/73 2/25/74 3/29/75
f 4/30/76 5/28/77 6/27/78
f 7/33/79 8/32/80 9/35/81
f 10/36/82 11/31/83 12/34/84
f 13/37/85 14/41/86 15/38/87
f 16/42/88 17/45/89 18/46/90
f 19/40/91 20/39/92 21/44/93
f 22/48/94 23/43/95 24/47/96
g default
v 3.886831 1.562113 1.897034
v 3.886831 1.568972 1.903893
v 3.883665 1.568972 1.897034
v 4.004004 1.568972 1.897034
v 4.000838 1.568972 1.903893
v 4.000838 1.562113 1.897034
v 3.883665 1.629946 1.897034
v 3.886831 1.629946 1.903893
v 3.886831 1.636805 1.897034
v 4.000838 1.636805 1.897034
v 4.000838 1.629946 1.903893
v 4.004004 1.629946 1.897034
v 3.883665 1.629946 -1.670826
v 3.886831 1.636805 -1.670826
v 3.886831 1.629946 -1.677685
v 4.000838 1.629946 -1.677685
v 4.000838 1.636805 -1.670826
v 4.004004 1.629946 -1.670826
v 3.883665 1.568972 -1.670826
v 3.886831 1.568972 -1.677685
v 3.886831 1.562113 -1.670826
v 4.000838 1.562113 -1.670826
v 4.000838 1.568972 -1.677685
v 4.004004 1.568972 -1.670826
vt 0.664151 0.080125
vt 0.666033 0.080125
vt 0.666033 0.870374
vt 0.664151 0.870374
vt 0.682762 0.080125
vt 0.682762 0.870374
vt 0.684643 0.080125
vt 0.684643 0.870374
vt 0.687132 0.870374
vt 0.685250 0.870374
vt 0.685250 0.080125
vt 0.687132 0.080125
vt 0.703861 0.080125
vt 0.703861 0.870374
vt 0.705742 0.870374
vt 0.705742 0.080125
vt 0.093023 0.020583
vt 0.121689 0.020583
vt 0.121689 0.128540
vt 0.093023 0.128540
vt 0.122634 0.020583
vt 0.151300 0.020583
vt 0.151300 0.128540
vt 0.122634 0.128540
vt 0.130616 0.131837
vt 0.130616 0.129059
vt 0.159282 0.129059
vt 0.159282 0.131837
vt 0.129820 0.131837
vt 0.160078 0.131837
vt 0.159282 0.156538
vt 0.130616 0.156538
vt 0.129820 0.156538
vt 0.160078 0.156538
vt 0.130616 0.159317
vt 0.159282 0.159317
vt 0.098765 0.131837
vt 0.099561 0.131837
vt 0.099561 0.156538
vt 0.098765 0.156538
vt 0.099561 0.129059
vt 0.128227 0.131837
vt 0.128227 0.156538
vt 0.099561 0.159317
vt 0.128227 0.129059
vt 0.129023 0.131837
vt 0.129023 0.156538
vt 0.128227 0.159317
vn -0.907926 -0.419130 0.000000
vn -0.907926 -0.419130 0.000000
vn -0.907926 -0.419130 0.000000
vn -0.907926 -0.419130 0.000000
vn 0.000000 -0.707101 0.707113
vn 0.000000 -0.707101 0.707113
vn 0.000000 -0.707101 0.707113
vn 0.000000 -0.707101 0.707113
vn -0.907923 0.000000 0.419137
vn -0.907923 0.000000 0.419137
vn -0.907923 0.000000 0.419137
vn -0.907923 0.000000 0.419137
vn 0.907926 -0.419130 0.000000
vn 0.907926 -0.419130 0.000000
vn 0.907926 -0.419130 0.000000
vn 0.907926 -0.419130 0.000000
vn 0.907923 0.000000 0.419137
vn 0.907923 0.000000 0.419137
vn 0.907923 0.000000 0.419137
vn 0.907923 0.000000 0.419137
vn -0.907920 0.419144 0.000000
vn -0.907920 0.419144 0.000000
vn -0.907920 0.419144 0.000000
vn -0.907920 0.419144 0.000000
vn 0.000000 0.707116 0.707098
vn 0.000000 0.707116 0.707098
vn 0.000000 0.707116 0.707098
vn 0.000000 0.707116 0.707098
vn 0.907920 0.419144 0.000000
vn 0.907920 0.419144 0.000000
vn 0.907920 0.419144 0.000000
vn 0.907920 0.419144 0.000000
vn -0.907923 0.000000 -0.419137
vn -0.907923 0.000000 -0.419137
vn -0.907923 0.000000 -0.419137
vn -0.907923 0.000000 -0.419137
vn 0.000000 0.707116 -0.707098
vn 0.000000 0.707116 -0.707098
vn 0.000000 0.707116 -0.707098
vn 0.000000 0.707116 -0.707098
vn 0.907923 0.000000 -0.419137
vn 0.907923 0.000000 -0.419137
vn 0.907923 0.000000 -0.419137
vn 0.907923 0.000000 -0.419137
vn 0.000000 -0.707101 -0.707113
vn 0.000000 -0.707101 -0.707113
vn 0.000000 -0.707101 -0.707113
vn 0.000000 -0.707101 -0.707113
vn 0.000000 0.000000 1.000000
vn 0.000000 0.000000 1.000000
vn 0.000000 0.000000 1.000000
vn 0.000000 0.000000 1.000000
vn 0.000000 1.000000 0.000000
vn 0.000000 1.000000 0.000000
vn 0.000000 1.000000 0.000000
vn 0.000000 1.000000 0.000000
vn 0.000000 0.000000 -1.000000
vn 0.000000 0.000000 -1.000000
vn 0.000000 0.000000 -1.000000
vn 0.000000 0.000000 -1.000000
vn 0.000000 -1.000000 0.000000
vn 0.000000 -1.000000 0.000000
vn 0.000000 -1.000000 0.000000
vn 0.000000 -1.000000 0.000000
vn 1.000000 0.000000 0.000000
vn 1.000000 0.000000 0.000000
vn 1.000000 0.000000 0.000000
vn 1.000000 0.000000 0.000000
vn -1.000000 0.000000 0.000000
vn -1.000000 0.000000 0.000000
vn -1.000000 0.000000 0.000000
vn -1.000000 0.000000 0.000000
vn -0.837350 -0.386549 0.386555
vn -0.837350 -0.386549 0.386555
vn -0.837350 -0.386549 0.386555
vn 0.837350 -0.386549 0.386555
vn 0.837350 -0.386549 0.386555
vn 0.837350 -0.386549 0.386555
vn -0.837343 0.386564 0.386554
vn -0.837343 0.386564 0.386554
vn -0.837343 0.386564 0.386554
vn 0.837343 0.386564 0.386554
vn 0.837343 0.386564 0.386554
vn 0.837343 0.386564 0.386554
vn -0.837343 0.386564 -0.386554
vn -0.837343 0.386564 -0.386554
vn -0.837343 0.386564 -0.386554
vn 0.837343 0.386564 -0.386554
vn 0.837343 0.386564 -0.386554
vn 0.837343 0.386564 -0.386554
vn -0.837350 -0.386549 -0.386555
vn -0.837350 -0.386549 -0.386555
vn -0.837350 -0.386549 -0.386555
vn 0.837350 -0.386549 -0.386555
vn 0.837350 -0.386549 -0.386555
vn 0.837350 -0.386549 -0.386555
s off
g pCube112
usemtl initialShadingGroup
f 25/49/97 27/50/98 43/51/99 45/52/100
f 26/73/101 25/74/102 30/75/103 29/76/104
f 27/77/105 26/73/106 32/80/107 31/81/108
f 28/57/109 30/58/110 46/59/111 48/60/112
f 29/76/113 28/78/114 36/82/115 35/79/116
f 31/53/117 33/55/118 38/56/119 37/54/120
f 33/83/121 32/80/122 35/79/123 34/84/124
f 34/63/125 36/62/126 42/61/127 41/64/128
f 37/85/129 39/86/130 44/87/131 43/88/132
f 39/86/133 38/89/134 41/93/135 40/90/136
f 40/90/137 42/94/138 48/95/139 47/91/140
f 45/92/141 44/87/142 47/91/143 46/96/144
f 26/73/145 29/76/146 35/79/147 32/80/148
f 33/65/149 34/66/150 41/67/151 38/68/152
f 39/86/153 40/90/154 47/91/155 44/87/156
f 45/69/157 46/70/158 30/71/159 25/72/160
f 28/57/161 48/60/162 42/61/163 36/62/164
f 43/51/165 27/50/166 31/53/167 37/54/168
f 25/74/169 26/73/170 27/77/171
f 28/78/172 29/76/173 30/75/174
f 31/81/175 32/80/176 33/83/177
f 34/84/178 35/79/179 36/82/180
f 37/85/181 38/89/182 39/86/183
f 40/90/184 41/93/185 42/94/186
f 43/88/187 44/87/188 45/92/189
f 46/96/190 47/91/191 48/95/192
